<svg id="visual" viewBox="0 0 900 600" width="900" height="600" xmlns="http://www.w3.org/2000/svg" xmlns:xlink="http://www.w3.org/1999/xlink" version="1.1"><path d="M0 97L90 97L90 145L180 145L180 139L270 139L270 61L360 61L360 157L450 157L450 85L540 85L540 31L630 31L630 31L720 31L720 91L810 91L810 139L900 139L900 25L900 0L900 0L810 0L810 0L720 0L720 0L630 0L630 0L540 0L540 0L450 0L450 0L360 0L360 0L270 0L270 0L180 0L180 0L90 0L90 0L0 0Z" fill="#215780"></path><path d="M0 163L90 163L90 325L180 325L180 427L270 427L270 235L360 235L360 235L450 235L450 259L540 259L540 337L630 337L630 379L720 379L720 223L810 223L810 289L900 289L900 145L900 23L900 137L810 137L810 89L720 89L720 29L630 29L630 29L540 29L540 83L450 83L450 155L360 155L360 59L270 59L270 137L180 137L180 143L90 143L90 95L0 95Z" fill="#2d628b"></path><path d="M0 229L90 229L90 427L180 427L180 481L270 481L270 289L360 289L360 301L450 301L450 301L540 301L540 397L630 397L630 493L720 493L720 307L810 307L810 325L900 325L900 259L900 143L900 287L810 287L810 221L720 221L720 377L630 377L630 335L540 335L540 257L450 257L450 233L360 233L360 233L270 233L270 425L180 425L180 323L90 323L90 161L0 161Z" fill="#386d96"></path><path d="M0 313L90 313L90 481L180 481L180 523L270 523L270 409L360 409L360 403L450 403L450 361L540 361L540 511L630 511L630 517L720 517L720 349L810 349L810 439L900 439L900 385L900 257L900 323L810 323L810 305L720 305L720 491L630 491L630 395L540 395L540 299L450 299L450 299L360 299L360 287L270 287L270 479L180 479L180 425L90 425L90 227L0 227Z" fill="#4378a1"></path><path d="M0 601L90 601L90 601L180 601L180 601L270 601L270 601L360 601L360 601L450 601L450 601L540 601L540 601L630 601L630 601L720 601L720 601L810 601L810 601L900 601L900 601L900 383L900 437L810 437L810 347L720 347L720 515L630 515L630 509L540 509L540 359L450 359L450 401L360 401L360 407L270 407L270 521L180 521L180 479L90 479L90 311L0 311Z" fill="#4e84ad"></path></svg>