<svg id="visual" viewBox="0 0 900 600" width="900" height="600" xmlns="http://www.w3.org/2000/svg" xmlns:xlink="http://www.w3.org/1999/xlink" version="1.1"><path d="M0 127L90 127L90 67L180 67L180 37L270 37L270 133L360 133L360 49L450 49L450 49L540 49L540 37L630 37L630 49L720 49L720 79L810 79L810 67L900 67L900 91L900 0L900 0L810 0L810 0L720 0L720 0L630 0L630 0L540 0L540 0L450 0L450 0L360 0L360 0L270 0L270 0L180 0L180 0L90 0L90 0L0 0Z" fill="#215780"></path><path d="M0 163L90 163L90 109L180 109L180 103L270 103L270 241L360 241L360 193L450 193L450 115L540 115L540 139L630 139L630 187L720 187L720 127L810 127L810 235L900 235L900 259L900 89L900 65L810 65L810 77L720 77L720 47L630 47L630 35L540 35L540 47L450 47L450 47L360 47L360 131L270 131L270 35L180 35L180 65L90 65L90 125L0 125Z" fill="#2d628b"></path><path d="M0 295L90 295L90 325L180 325L180 337L270 337L270 499L360 499L360 331L450 331L450 223L540 223L540 349L630 349L630 391L720 391L720 301L810 301L810 307L900 307L900 349L900 257L900 233L810 233L810 125L720 125L720 185L630 185L630 137L540 137L540 113L450 113L450 191L360 191L360 239L270 239L270 101L180 101L180 107L90 107L90 161L0 161Z" fill="#386d96"></path><path d="M0 517L90 517L90 487L180 487L180 565L270 565L270 547L360 547L360 481L450 481L450 553L540 553L540 547L630 547L630 541L720 541L720 523L810 523L810 517L900 517L900 505L900 347L900 305L810 305L810 299L720 299L720 389L630 389L630 347L540 347L540 221L450 221L450 329L360 329L360 497L270 497L270 335L180 335L180 323L90 323L90 293L0 293Z" fill="#4378a1"></path><path d="M0 601L90 601L90 601L180 601L180 601L270 601L270 601L360 601L360 601L450 601L450 601L540 601L540 601L630 601L630 601L720 601L720 601L810 601L810 601L900 601L900 601L900 503L900 515L810 515L810 521L720 521L720 539L630 539L630 545L540 545L540 551L450 551L450 479L360 479L360 545L270 545L270 563L180 563L180 485L90 485L90 515L0 515Z" fill="#4e84ad"></path></svg>