<svg id="visual" viewBox="0 0 900 600" width="900" height="600" xmlns="http://www.w3.org/2000/svg" xmlns:xlink="http://www.w3.org/1999/xlink" version="1.1"><path d="M0 55L90 55L90 97L180 97L180 31L270 31L270 49L360 49L360 67L450 67L450 55L540 55L540 121L630 121L630 97L720 97L720 73L810 73L810 49L900 49L900 49L900 0L900 0L810 0L810 0L720 0L720 0L630 0L630 0L540 0L540 0L450 0L450 0L360 0L360 0L270 0L270 0L180 0L180 0L90 0L90 0L0 0Z" fill="#215780"></path><path d="M0 175L90 175L90 169L180 169L180 145L270 145L270 277L360 277L360 157L450 157L450 163L540 163L540 277L630 277L630 223L720 223L720 337L810 337L810 169L900 169L900 193L900 47L900 47L810 47L810 71L720 71L720 95L630 95L630 119L540 119L540 53L450 53L450 65L360 65L360 47L270 47L270 29L180 29L180 95L90 95L90 53L0 53Z" fill="#2d628b"></path><path d="M0 247L90 247L90 247L180 247L180 277L270 277L270 337L360 337L360 289L450 289L450 241L540 241L540 355L630 355L630 277L720 277L720 361L810 361L810 217L900 217L900 235L900 191L900 167L810 167L810 335L720 335L720 221L630 221L630 275L540 275L540 161L450 161L450 155L360 155L360 275L270 275L270 143L180 143L180 167L90 167L90 173L0 173Z" fill="#386d96"></path><path d="M0 319L90 319L90 379L180 379L180 421L270 421L270 457L360 457L360 421L450 421L450 433L540 433L540 439L630 439L630 427L720 427L720 529L810 529L810 421L900 421L900 379L900 233L900 215L810 215L810 359L720 359L720 275L630 275L630 353L540 353L540 239L450 239L450 287L360 287L360 335L270 335L270 275L180 275L180 245L90 245L90 245L0 245Z" fill="#4378a1"></path><path d="M0 601L90 601L90 601L180 601L180 601L270 601L270 601L360 601L360 601L450 601L450 601L540 601L540 601L630 601L630 601L720 601L720 601L810 601L810 601L900 601L900 601L900 377L900 419L810 419L810 527L720 527L720 425L630 425L630 437L540 437L540 431L450 431L450 419L360 419L360 455L270 455L270 419L180 419L180 377L90 377L90 317L0 317Z" fill="#4e84ad"></path></svg>