<svg id="visual" viewBox="0 0 900 600" width="900" height="600" xmlns="http://www.w3.org/2000/svg" xmlns:xlink="http://www.w3.org/1999/xlink" version="1.1"><path d="M0 127L90 127L90 97L180 97L180 175L270 175L270 127L360 127L360 193L450 193L450 121L540 121L540 115L630 115L630 145L720 145L720 145L810 145L810 109L900 109L900 121L900 0L900 0L810 0L810 0L720 0L720 0L630 0L630 0L540 0L540 0L450 0L450 0L360 0L360 0L270 0L270 0L180 0L180 0L90 0L90 0L0 0Z" fill="#215780"></path><path d="M0 205L90 205L90 199L180 199L180 199L270 199L270 265L360 265L360 229L450 229L450 193L540 193L540 211L630 211L630 271L720 271L720 247L810 247L810 157L900 157L900 259L900 119L900 107L810 107L810 143L720 143L720 143L630 143L630 113L540 113L540 119L450 119L450 191L360 191L360 125L270 125L270 173L180 173L180 95L90 95L90 125L0 125Z" fill="#2d628b"></path><path d="M0 265L90 265L90 391L180 391L180 439L270 439L270 349L360 349L360 391L450 391L450 319L540 319L540 343L630 343L630 469L720 469L720 385L810 385L810 385L900 385L900 313L900 257L900 155L810 155L810 245L720 245L720 269L630 269L630 209L540 209L540 191L450 191L450 227L360 227L360 263L270 263L270 197L180 197L180 197L90 197L90 203L0 203Z" fill="#386d96"></path><path d="M0 325L90 325L90 481L180 481L180 487L270 487L270 409L360 409L360 451L450 451L450 439L540 439L540 463L630 463L630 523L720 523L720 445L810 445L810 409L900 409L900 391L900 311L900 383L810 383L810 383L720 383L720 467L630 467L630 341L540 341L540 317L450 317L450 389L360 389L360 347L270 347L270 437L180 437L180 389L90 389L90 263L0 263Z" fill="#4378a1"></path><path d="M0 601L90 601L90 601L180 601L180 601L270 601L270 601L360 601L360 601L450 601L450 601L540 601L540 601L630 601L630 601L720 601L720 601L810 601L810 601L900 601L900 601L900 389L900 407L810 407L810 443L720 443L720 521L630 521L630 461L540 461L540 437L450 437L450 449L360 449L360 407L270 407L270 485L180 485L180 479L90 479L90 323L0 323Z" fill="#4e84ad"></path></svg>