<svg id="visual" viewBox="0 0 900 600" width="900" height="600" xmlns="http://www.w3.org/2000/svg" xmlns:xlink="http://www.w3.org/1999/xlink" version="1.1"><path d="M0 229L90 229L90 121L180 121L180 133L270 133L270 49L360 49L360 283L450 283L450 103L540 103L540 205L630 205L630 193L720 193L720 259L810 259L810 163L900 163L900 343L900 0L900 0L810 0L810 0L720 0L720 0L630 0L630 0L540 0L540 0L450 0L450 0L360 0L360 0L270 0L270 0L180 0L180 0L90 0L90 0L0 0Z" fill="#215780"></path><path d="M0 349L90 349L90 235L180 235L180 247L270 247L270 157L360 157L360 307L450 307L450 271L540 271L540 343L630 343L630 235L720 235L720 301L810 301L810 307L900 307L900 421L900 341L900 161L810 161L810 257L720 257L720 191L630 191L630 203L540 203L540 101L450 101L450 281L360 281L360 47L270 47L270 131L180 131L180 119L90 119L90 227L0 227Z" fill="#2d628b"></path><path d="M0 403L90 403L90 295L180 295L180 361L270 361L270 241L360 241L360 409L450 409L450 331L540 331L540 391L630 391L630 307L720 307L720 385L810 385L810 337L900 337L900 463L900 419L900 305L810 305L810 299L720 299L720 233L630 233L630 341L540 341L540 269L450 269L450 305L360 305L360 155L270 155L270 245L180 245L180 233L90 233L90 347L0 347Z" fill="#386d96"></path><path d="M0 457L90 457L90 391L180 391L180 469L270 469L270 361L360 361L360 529L450 529L450 433L540 433L540 439L630 439L630 391L720 391L720 439L810 439L810 475L900 475L900 505L900 461L900 335L810 335L810 383L720 383L720 305L630 305L630 389L540 389L540 329L450 329L450 407L360 407L360 239L270 239L270 359L180 359L180 293L90 293L90 401L0 401Z" fill="#4378a1"></path><path d="M0 601L90 601L90 601L180 601L180 601L270 601L270 601L360 601L360 601L450 601L450 601L540 601L540 601L630 601L630 601L720 601L720 601L810 601L810 601L900 601L900 601L900 503L900 473L810 473L810 437L720 437L720 389L630 389L630 437L540 437L540 431L450 431L450 527L360 527L360 359L270 359L270 467L180 467L180 389L90 389L90 455L0 455Z" fill="#4e84ad"></path></svg>