<svg id="visual" viewBox="0 0 900 600" width="900" height="600" xmlns="http://www.w3.org/2000/svg" xmlns:xlink="http://www.w3.org/1999/xlink" version="1.1"><path d="M0 121L90 121L90 67L180 67L180 121L270 121L270 115L360 115L360 85L450 85L450 43L540 43L540 25L630 25L630 115L720 115L720 37L810 37L810 49L900 49L900 31L900 0L900 0L810 0L810 0L720 0L720 0L630 0L630 0L540 0L540 0L450 0L450 0L360 0L360 0L270 0L270 0L180 0L180 0L90 0L90 0L0 0Z" fill="#215780"></path><path d="M0 259L90 259L90 217L180 217L180 223L270 223L270 229L360 229L360 217L450 217L450 73L540 73L540 55L630 55L630 169L720 169L720 79L810 79L810 97L900 97L900 127L900 29L900 47L810 47L810 35L720 35L720 113L630 113L630 23L540 23L540 41L450 41L450 83L360 83L360 113L270 113L270 119L180 119L180 65L90 65L90 119L0 119Z" fill="#2d628b"></path><path d="M0 313L90 313L90 313L180 313L180 331L270 331L270 307L360 307L360 355L450 355L450 169L540 169L540 187L630 187L630 289L720 289L720 229L810 229L810 145L900 145L900 211L900 125L900 95L810 95L810 77L720 77L720 167L630 167L630 53L540 53L540 71L450 71L450 215L360 215L360 227L270 227L270 221L180 221L180 215L90 215L90 257L0 257Z" fill="#386d96"></path><path d="M0 403L90 403L90 475L180 475L180 481L270 481L270 367L360 367L360 403L450 403L450 529L540 529L540 475L630 475L630 379L720 379L720 397L810 397L810 505L900 505L900 325L900 209L900 143L810 143L810 227L720 227L720 287L630 287L630 185L540 185L540 167L450 167L450 353L360 353L360 305L270 305L270 329L180 329L180 311L90 311L90 311L0 311Z" fill="#4378a1"></path><path d="M0 601L90 601L90 601L180 601L180 601L270 601L270 601L360 601L360 601L450 601L450 601L540 601L540 601L630 601L630 601L720 601L720 601L810 601L810 601L900 601L900 601L900 323L900 503L810 503L810 395L720 395L720 377L630 377L630 473L540 473L540 527L450 527L450 401L360 401L360 365L270 365L270 479L180 479L180 473L90 473L90 401L0 401Z" fill="#4e84ad"></path></svg>