<svg xmlns="http://www.w3.org/2000/svg" version="1.1" xmlns:xlink="http://www.w3.org/1999/xlink" xmlns:svgjs="http://svgjs.dev/svgjs" width="1000" height="560" preserveAspectRatio="none" viewBox="0 0 1000 560"><g mask="url(&quot;#SvgjsMask1016&quot;)" fill="none"><rect width="1000" height="560" x="0" y="0" fill="#0e2a47"></rect><path d="M-92.2 411.11L-92.2 411.11" stroke="#132e65" stroke-width="1.5"></path><path d="M-92.2 411.11L-91.45 536.86" stroke="#132e65" stroke-width="1.5"></path><path d="M-92.2 411.11L55.28 419.09" stroke="#132e65" stroke-width="1.5"></path><path d="M-92.2 411.11L156.42 431.16" stroke="#132e65" stroke-width="1.5"></path><path d="M-92.2 411.11L-90.27 684" stroke="#132e65" stroke-width="1.5"></path><path d="M-91.45 536.86L-91.45 536.86" stroke="#132e65" stroke-width="1.5"></path><path d="M-91.45 536.86L-90.27 684" stroke="#132e65" stroke-width="1.5"></path><path d="M-91.45 536.86L55.28 419.09" stroke="#132e65" stroke-width="1.5"></path><path d="M-91.45 536.86L156.42 431.16" stroke="#132e65" stroke-width="1.5"></path><path d="M-91.45 536.86L192.79 588.52" stroke="#132e65" stroke-width="1.5"></path><path d="M-90.27 684L-90.27 684" stroke="#132e65" stroke-width="1.5"></path><path d="M-90.27 684L205.8 710.4" stroke="#132e65" stroke-width="1.5"></path><path d="M-90.27 684L192.79 588.52" stroke="#132e65" stroke-width="1.5"></path><path d="M-90.27 684L55.28 419.09" stroke="#132e65" stroke-width="1.5"></path><path d="M-90.27 684L156.42 431.16" stroke="#132e65" stroke-width="1.5"></path><path d="M55.28 419.09L55.28 419.09" stroke="#132e65" stroke-width="1.5"></path><path d="M55.28 419.09L156.42 431.16" stroke="#132e65" stroke-width="1.5"></path><path d="M156.42 431.16L156.42 431.16" stroke="#132e65" stroke-width="1.5"></path><path d="M156.42 431.16L192.79 588.52" stroke="#132e65" stroke-width="1.5"></path><path d="M156.42 431.16L321.56 432.83" stroke="#132e65" stroke-width="1.5"></path><path d="M192.79 588.52L192.79 588.52" stroke="#132e65" stroke-width="1.5"></path><path d="M192.79 588.52L292.76 568.85" stroke="#132e65" stroke-width="1.5"></path><path d="M192.79 588.52L205.8 710.4" stroke="#132e65" stroke-width="1.5"></path><path d="M192.79 588.52L328.82 666.18" stroke="#132e65" stroke-width="1.5"></path><path d="M192.79 588.52L321.56 432.83" stroke="#132e65" stroke-width="1.5"></path><path d="M192.79 588.52L55.28 419.09" stroke="#132e65" stroke-width="1.5"></path><path d="M205.8 710.4L205.8 710.4" stroke="#132e65" stroke-width="1.5"></path><path d="M205.8 710.4L328.82 666.18" stroke="#132e65" stroke-width="1.5"></path><path d="M340.38 339.17L340.38 339.17" stroke="#132e65" stroke-width="1.5"></path><path d="M340.38 339.17L321.56 432.83" stroke="#132e65" stroke-width="1.5"></path><path d="M340.38 339.17L422.84 283.51" stroke="#132e65" stroke-width="1.5"></path><path d="M340.38 339.17L409.08 444.83" stroke="#132e65" stroke-width="1.5"></path><path d="M340.38 339.17L156.42 431.16" stroke="#132e65" stroke-width="1.5"></path><path d="M321.56 432.83L321.56 432.83" stroke="#132e65" stroke-width="1.5"></path><path d="M321.56 432.83L409.08 444.83" stroke="#132e65" stroke-width="1.5"></path><path d="M321.56 432.83L292.76 568.85" stroke="#132e65" stroke-width="1.5"></path><path d="M292.76 568.85L292.76 568.85" stroke="#132e65" stroke-width="1.5"></path><path d="M292.76 568.85L328.82 666.18" stroke="#132e65" stroke-width="1.5"></path><path d="M292.76 568.85L437.09 582.87" stroke="#132e65" stroke-width="1.5"></path><path d="M292.76 568.85L205.8 710.4" stroke="#132e65" stroke-width="1.5"></path><path d="M292.76 568.85L409.08 444.83" stroke="#132e65" stroke-width="1.5"></path><path d="M328.82 666.18L328.82 666.18" stroke="#132e65" stroke-width="1.5"></path><path d="M328.82 666.18L426.21 703.58" stroke="#132e65" stroke-width="1.5"></path><path d="M328.82 666.18L437.09 582.87" stroke="#132e65" stroke-width="1.5"></path><path d="M328.82 666.18L534.83 575.49" stroke="#132e65" stroke-width="1.5"></path><path d="M422.84 283.51L422.84 283.51" stroke="#132e65" stroke-width="1.5"></path><path d="M422.84 283.51L551.24 301.27" stroke="#132e65" stroke-width="1.5"></path><path d="M422.84 283.51L543.96 204.17" stroke="#132e65" stroke-width="1.5"></path><path d="M422.84 283.51L409.08 444.83" stroke="#132e65" stroke-width="1.5"></path><path d="M422.84 283.51L321.56 432.83" stroke="#132e65" stroke-width="1.5"></path><path d="M422.84 283.51L582.66 441.86" stroke="#132e65" stroke-width="1.5"></path><path d="M409.08 444.83L409.08 444.83" stroke="#132e65" stroke-width="1.5"></path><path d="M409.08 444.83L437.09 582.87" stroke="#132e65" stroke-width="1.5"></path><path d="M437.09 582.87L437.09 582.87" stroke="#132e65" stroke-width="1.5"></path><path d="M437.09 582.87L534.83 575.49" stroke="#132e65" stroke-width="1.5"></path><path d="M437.09 582.87L426.21 703.58" stroke="#132e65" stroke-width="1.5"></path><path d="M426.21 703.58L426.21 703.58" stroke="#132e65" stroke-width="1.5"></path><path d="M426.21 703.58L534.83 575.49" stroke="#132e65" stroke-width="1.5"></path><path d="M543.96 204.17L543.96 204.17" stroke="#132e65" stroke-width="1.5"></path><path d="M543.96 204.17L551.24 301.27" stroke="#132e65" stroke-width="1.5"></path><path d="M543.96 204.17L693.43 181.73" stroke="#132e65" stroke-width="1.5"></path><path d="M543.96 204.17L659.25 64.18" stroke="#132e65" stroke-width="1.5"></path><path d="M543.96 204.17L716.11 299.24" stroke="#132e65" stroke-width="1.5"></path><path d="M551.24 301.27L551.24 301.27" stroke="#132e65" stroke-width="1.5"></path><path d="M551.24 301.27L582.66 441.86" stroke="#132e65" stroke-width="1.5"></path><path d="M551.24 301.27L716.11 299.24" stroke="#132e65" stroke-width="1.5"></path><path d="M582.66 441.86L582.66 441.86" stroke="#132e65" stroke-width="1.5"></path><path d="M582.66 441.86L706.64 411.71" stroke="#132e65" stroke-width="1.5"></path><path d="M582.66 441.86L534.83 575.49" stroke="#132e65" stroke-width="1.5"></path><path d="M534.83 575.49L534.83 575.49" stroke="#132e65" stroke-width="1.5"></path><path d="M534.83 575.49L593.41 659.14" stroke="#132e65" stroke-width="1.5"></path><path d="M593.41 659.14L593.41 659.14" stroke="#132e65" stroke-width="1.5"></path><path d="M593.41 659.14L672.06 682.76" stroke="#132e65" stroke-width="1.5"></path><path d="M593.41 659.14L711.72 570.93" stroke="#132e65" stroke-width="1.5"></path><path d="M593.41 659.14L426.21 703.58" stroke="#132e65" stroke-width="1.5"></path><path d="M717.86 -92.77L717.86 -92.77" stroke="#132e65" stroke-width="1.5"></path><path d="M717.86 -92.77L791.04 57.31" stroke="#132e65" stroke-width="1.5"></path><path d="M717.86 -92.77L659.25 64.18" stroke="#132e65" stroke-width="1.5"></path><path d="M659.25 64.18L659.25 64.18" stroke="#132e65" stroke-width="1.5"></path><path d="M659.25 64.18L693.43 181.73" stroke="#132e65" stroke-width="1.5"></path><path d="M659.25 64.18L791.04 57.31" stroke="#132e65" stroke-width="1.5"></path><path d="M693.43 181.73L693.43 181.73" stroke="#132e65" stroke-width="1.5"></path><path d="M693.43 181.73L716.11 299.24" stroke="#132e65" stroke-width="1.5"></path><path d="M693.43 181.73L791.04 57.31" stroke="#132e65" stroke-width="1.5"></path><path d="M693.43 181.73L822.67 287.15" stroke="#132e65" stroke-width="1.5"></path><path d="M693.43 181.73L551.24 301.27" stroke="#132e65" stroke-width="1.5"></path><path d="M716.11 299.24L716.11 299.24" stroke="#132e65" stroke-width="1.5"></path><path d="M716.11 299.24L822.67 287.15" stroke="#132e65" stroke-width="1.5"></path><path d="M716.11 299.24L706.64 411.71" stroke="#132e65" stroke-width="1.5"></path><path d="M706.64 411.71L706.64 411.71" stroke="#132e65" stroke-width="1.5"></path><path d="M706.64 411.71L824.72 449.99" stroke="#132e65" stroke-width="1.5"></path><path d="M706.64 411.71L711.72 570.93" stroke="#132e65" stroke-width="1.5"></path><path d="M706.64 411.71L822.67 287.15" stroke="#132e65" stroke-width="1.5"></path><path d="M711.72 570.93L711.72 570.93" stroke="#132e65" stroke-width="1.5"></path><path d="M711.72 570.93L785.64 590.73" stroke="#132e65" stroke-width="1.5"></path><path d="M711.72 570.93L672.06 682.76" stroke="#132e65" stroke-width="1.5"></path><path d="M672.06 682.76L672.06 682.76" stroke="#132e65" stroke-width="1.5"></path><path d="M672.06 682.76L798.41 678.85" stroke="#132e65" stroke-width="1.5"></path><path d="M672.06 682.76L785.64 590.73" stroke="#132e65" stroke-width="1.5"></path><path d="M791.04 57.31L791.04 57.31" stroke="#132e65" stroke-width="1.5"></path><path d="M791.04 57.31L919.14 -39.66" stroke="#132e65" stroke-width="1.5"></path><path d="M791.04 57.31L951.37 74.27" stroke="#132e65" stroke-width="1.5"></path><path d="M822.67 287.15L822.67 287.15" stroke="#132e65" stroke-width="1.5"></path><path d="M824.72 449.99L824.72 449.99" stroke="#132e65" stroke-width="1.5"></path><path d="M824.72 449.99L932.75 434.14" stroke="#132e65" stroke-width="1.5"></path><path d="M824.72 449.99L785.64 590.73" stroke="#132e65" stroke-width="1.5"></path><path d="M785.64 590.73L785.64 590.73" stroke="#132e65" stroke-width="1.5"></path><path d="M785.64 590.73L798.41 678.85" stroke="#132e65" stroke-width="1.5"></path><path d="M785.64 590.73L917.86 583.67" stroke="#132e65" stroke-width="1.5"></path><path d="M798.41 678.85L798.41 678.85" stroke="#132e65" stroke-width="1.5"></path><path d="M919.14 -39.66L919.14 -39.66" stroke="#132e65" stroke-width="1.5"></path><path d="M919.14 -39.66L951.37 74.27" stroke="#132e65" stroke-width="1.5"></path><path d="M919.14 -39.66L1045.76 56.36" stroke="#132e65" stroke-width="1.5"></path><path d="M919.14 -39.66L929.31 157.81" stroke="#132e65" stroke-width="1.5"></path><path d="M919.14 -39.66L717.86 -92.77" stroke="#132e65" stroke-width="1.5"></path><path d="M919.14 -39.66L1047.17 187.18" stroke="#132e65" stroke-width="1.5"></path><path d="M951.37 74.27L951.37 74.27" stroke="#132e65" stroke-width="1.5"></path><path d="M951.37 74.27L929.31 157.81" stroke="#132e65" stroke-width="1.5"></path><path d="M951.37 74.27L1045.76 56.36" stroke="#132e65" stroke-width="1.5"></path><path d="M929.31 157.81L929.31 157.81" stroke="#132e65" stroke-width="1.5"></path><path d="M929.31 157.81L1047.17 187.18" stroke="#132e65" stroke-width="1.5"></path><path d="M929.31 157.81L931.58 304.68" stroke="#132e65" stroke-width="1.5"></path><path d="M929.31 157.81L1045.76 56.36" stroke="#132e65" stroke-width="1.5"></path><path d="M931.58 304.68L931.58 304.68" stroke="#132e65" stroke-width="1.5"></path><path d="M931.58 304.68L822.67 287.15" stroke="#132e65" stroke-width="1.5"></path><path d="M931.58 304.68L932.75 434.14" stroke="#132e65" stroke-width="1.5"></path><path d="M932.75 434.14L932.75 434.14" stroke="#132e65" stroke-width="1.5"></path><path d="M932.75 434.14L1040.83 445.36" stroke="#132e65" stroke-width="1.5"></path><path d="M917.86 583.67L917.86 583.67" stroke="#132e65" stroke-width="1.5"></path><path d="M917.86 583.67L1034.78 588.13" stroke="#132e65" stroke-width="1.5"></path><path d="M917.86 583.67L957.87 715.49" stroke="#132e65" stroke-width="1.5"></path><path d="M917.86 583.67L932.75 434.14" stroke="#132e65" stroke-width="1.5"></path><path d="M917.86 583.67L798.41 678.85" stroke="#132e65" stroke-width="1.5"></path><path d="M917.86 583.67L824.72 449.99" stroke="#132e65" stroke-width="1.5"></path><path d="M957.87 715.49L957.87 715.49" stroke="#132e65" stroke-width="1.5"></path><path d="M957.87 715.49L1080.68 703.57" stroke="#132e65" stroke-width="1.5"></path><path d="M957.87 715.49L1034.78 588.13" stroke="#132e65" stroke-width="1.5"></path><path d="M957.87 715.49L798.41 678.85" stroke="#132e65" stroke-width="1.5"></path><path d="M1045.76 56.36L1045.76 56.36" stroke="#132e65" stroke-width="1.5"></path><path d="M1045.76 56.36L1047.17 187.18" stroke="#132e65" stroke-width="1.5"></path><path d="M1045.76 56.36L791.04 57.31" stroke="#132e65" stroke-width="1.5"></path><path d="M1047.17 187.18L1047.17 187.18" stroke="#132e65" stroke-width="1.5"></path><path d="M1047.17 187.18L1076.7 319.99" stroke="#132e65" stroke-width="1.5"></path><path d="M1047.17 187.18L951.37 74.27" stroke="#132e65" stroke-width="1.5"></path><path d="M1047.17 187.18L931.58 304.68" stroke="#132e65" stroke-width="1.5"></path><path d="M1076.7 319.99L1076.7 319.99" stroke="#132e65" stroke-width="1.5"></path><path d="M1076.7 319.99L1040.83 445.36" stroke="#132e65" stroke-width="1.5"></path><path d="M1076.7 319.99L931.58 304.68" stroke="#132e65" stroke-width="1.5"></path><path d="M1040.83 445.36L1040.83 445.36" stroke="#132e65" stroke-width="1.5"></path><path d="M1040.83 445.36L1034.78 588.13" stroke="#132e65" stroke-width="1.5"></path><path d="M1040.83 445.36L931.58 304.68" stroke="#132e65" stroke-width="1.5"></path><path d="M1034.78 588.13L1034.78 588.13" stroke="#132e65" stroke-width="1.5"></path><path d="M1034.78 588.13L1080.68 703.57" stroke="#132e65" stroke-width="1.5"></path><path d="M1080.68 703.57L1080.68 703.57" stroke="#132e65" stroke-width="1.5"></path><path d="M1080.68 703.57L917.86 583.67" stroke="#132e65" stroke-width="1.5"></path><path d="M1080.68 703.57L1040.83 445.36" stroke="#132e65" stroke-width="1.5"></path><path d="M1080.68 703.57L798.41 678.85" stroke="#132e65" stroke-width="1.5"></path><circle r="5" cx="-92.2" cy="411.11" fill="#132e65"></circle><circle r="5" cx="-91.45" cy="536.86" fill="#132e65"></circle><circle r="5" cx="-90.27" cy="684" fill="#132e65"></circle><circle r="5" cx="55.28" cy="419.09" fill="#132e65"></circle><circle r="5" cx="156.42" cy="431.16" fill="#132e65"></circle><circle r="5" cx="192.79" cy="588.52" fill="#132e65"></circle><circle r="5" cx="205.8" cy="710.4" fill="#132e65"></circle><circle r="5" cx="340.38" cy="339.17" fill="#132e65"></circle><circle r="5" cx="321.56" cy="432.83" fill="#132e65"></circle><circle r="5" cx="292.76" cy="568.85" fill="#132e65"></circle><circle r="5" cx="328.82" cy="666.18" fill="#132e65"></circle><circle r="5" cx="422.84" cy="283.51" fill="#132e65"></circle><circle r="5" cx="409.08" cy="444.83" fill="#132e65"></circle><circle r="5" cx="437.09" cy="582.87" fill="#132e65"></circle><circle r="5" cx="426.21" cy="703.58" fill="#132e65"></circle><circle r="5" cx="543.96" cy="204.17" fill="#132e65"></circle><circle r="5" cx="551.24" cy="301.27" fill="#132e65"></circle><circle r="5" cx="582.66" cy="441.86" fill="#132e65"></circle><circle r="5" cx="534.83" cy="575.49" fill="#132e65"></circle><circle r="5" cx="593.41" cy="659.14" fill="#132e65"></circle><circle r="5" cx="717.86" cy="-92.77" fill="#132e65"></circle><circle r="5" cx="659.25" cy="64.18" fill="#132e65"></circle><circle r="5" cx="693.43" cy="181.73" fill="#132e65"></circle><circle r="5" cx="716.11" cy="299.24" fill="#132e65"></circle><circle r="5" cx="706.64" cy="411.71" fill="#132e65"></circle><circle r="5" cx="711.72" cy="570.93" fill="#132e65"></circle><circle r="5" cx="672.06" cy="682.76" fill="#132e65"></circle><circle r="5" cx="791.04" cy="57.31" fill="#132e65"></circle><circle r="5" cx="822.67" cy="287.15" fill="#132e65"></circle><circle r="5" cx="824.72" cy="449.99" fill="#132e65"></circle><circle r="5" cx="785.64" cy="590.73" fill="#132e65"></circle><circle r="5" cx="798.41" cy="678.85" fill="#132e65"></circle><circle r="5" cx="919.14" cy="-39.66" fill="#132e65"></circle><circle r="5" cx="951.37" cy="74.27" fill="#132e65"></circle><circle r="5" cx="929.31" cy="157.81" fill="#132e65"></circle><circle r="5" cx="931.58" cy="304.68" fill="#132e65"></circle><circle r="5" cx="932.75" cy="434.14" fill="#132e65"></circle><circle r="5" cx="917.86" cy="583.67" fill="#132e65"></circle><circle r="5" cx="957.87" cy="715.49" fill="#132e65"></circle><circle r="5" cx="1045.76" cy="56.36" fill="#132e65"></circle><circle r="5" cx="1047.17" cy="187.18" fill="#132e65"></circle><circle r="5" cx="1076.7" cy="319.99" fill="#132e65"></circle><circle r="5" cx="1040.83" cy="445.36" fill="#132e65"></circle><circle r="5" cx="1034.78" cy="588.13" fill="#132e65"></circle><circle r="5" cx="1080.68" cy="703.57" fill="#132e65"></circle><path d="M285.68 695.7L285.68 695.7" stroke="hsl(228.5, 77.2%, 51.5%)" stroke-width="1.5"></path><path d="M285.68 695.7L199.4 714.52" stroke="hsl(228.5, 77.2%, 51.5%)" stroke-width="1.5"></path><path d="M285.68 695.7L206.57 589.1" stroke="hsl(228.5, 77.2%, 51.5%)" stroke-width="1.5"></path><path d="M285.68 695.7L437.06 660.54" stroke="hsl(228.5, 77.2%, 51.5%)" stroke-width="1.5"></path><path d="M535.96 422.27L535.96 422.27" stroke="hsl(228.5, 77.2%, 51.5%)" stroke-width="1.5"></path><path d="M535.96 422.27L411.58 458.89" stroke="hsl(228.5, 77.2%, 51.5%)" stroke-width="1.5"></path><path d="M535.96 422.27L704.69 413.73" stroke="hsl(228.5, 77.2%, 51.5%)" stroke-width="1.5"></path><path d="M535.96 422.27L711.97 339.39" stroke="hsl(228.5, 77.2%, 51.5%)" stroke-width="1.5"></path><path d="M535.96 422.27L658.89 582.36" stroke="hsl(228.5, 77.2%, 51.5%)" stroke-width="1.5"></path><path d="M658.89 582.36L658.89 582.36" stroke="hsl(228.5, 77.2%, 51.5%)" stroke-width="1.5"></path><path d="M658.89 582.36L694.33 704.64" stroke="hsl(228.5, 77.2%, 51.5%)" stroke-width="1.5"></path><path d="M658.89 582.36L542.61 703.94" stroke="hsl(228.5, 77.2%, 51.5%)" stroke-width="1.5"></path><path d="M658.89 582.36L704.69 413.73" stroke="hsl(228.5, 77.2%, 51.5%)" stroke-width="1.5"></path><path d="M658.89 582.36L835.61 567.67" stroke="hsl(228.5, 77.2%, 51.5%)" stroke-width="1.5"></path><path d="M658.89 582.36L799.11 710.4" stroke="hsl(228.5, 77.2%, 51.5%)" stroke-width="1.5"></path><path d="M1073.82 -52.31L1073.82 -52.31" stroke="hsl(228.5, 77.2%, 51.5%)" stroke-width="1.5"></path><path d="M1073.82 -52.31L963.06 -69.39" stroke="hsl(228.5, 77.2%, 51.5%)" stroke-width="1.5"></path><path d="M1073.82 -52.31L948.75 51.5" stroke="hsl(228.5, 77.2%, 51.5%)" stroke-width="1.5"></path><path d="M1073.82 -52.31L1064.11 195.04" stroke="hsl(228.5, 77.2%, 51.5%)" stroke-width="1.5"></path><path d="M1073.82 -52.31L944.07 166.45" stroke="hsl(228.5, 77.2%, 51.5%)" stroke-width="1.5"></path><path d="M1035.99 537.46L1035.99 537.46" stroke="hsl(228.5, 77.2%, 51.5%)" stroke-width="1.5"></path><path d="M1035.99 537.46L1039.55 446.45" stroke="hsl(228.5, 77.2%, 51.5%)" stroke-width="1.5"></path><path d="M1035.99 537.46L923.24 544.18" stroke="hsl(228.5, 77.2%, 51.5%)" stroke-width="1.5"></path><path d="M1035.99 537.46L943.93 428.89" stroke="hsl(228.5, 77.2%, 51.5%)" stroke-width="1.5"></path><path d="M1035.99 537.46L910.54 677.47" stroke="hsl(228.5, 77.2%, 51.5%)" stroke-width="1.5"></path><path d="M1035.99 537.46L835.61 567.67" stroke="hsl(228.5, 77.2%, 51.5%)" stroke-width="1.5"></path><path d="M-72.35 590.17L-72.35 590.17" stroke="hsl(228.5, 77.2%, 51.5%)" stroke-width="1.5"></path><path d="M-72.35 590.17L54.36 567.1" stroke="hsl(228.5, 77.2%, 51.5%)" stroke-width="1.5"></path><path d="M-72.35 590.17L-37.25 717.59" stroke="hsl(228.5, 77.2%, 51.5%)" stroke-width="1.5"></path><path d="M-72.35 590.17L71.38 691.11" stroke="hsl(228.5, 77.2%, 51.5%)" stroke-width="1.5"></path><path d="M-72.35 590.17L206.57 589.1" stroke="hsl(228.5, 77.2%, 51.5%)" stroke-width="1.5"></path><path d="M-72.35 590.17L199.4 714.52" stroke="hsl(228.5, 77.2%, 51.5%)" stroke-width="1.5"></path><path d="M-72.35 590.17L294.13 539.59" stroke="hsl(228.5, 77.2%, 51.5%)" stroke-width="1.5"></path><path d="M-37.25 717.59L-37.25 717.59" stroke="hsl(228.5, 77.2%, 51.5%)" stroke-width="1.5"></path><path d="M-37.25 717.59L71.38 691.11" stroke="hsl(228.5, 77.2%, 51.5%)" stroke-width="1.5"></path><path d="M54.36 567.1L54.36 567.1" stroke="hsl(228.5, 77.2%, 51.5%)" stroke-width="1.5"></path><path d="M54.36 567.1L71.38 691.11" stroke="hsl(228.5, 77.2%, 51.5%)" stroke-width="1.5"></path><path d="M71.38 691.11L71.38 691.11" stroke="hsl(228.5, 77.2%, 51.5%)" stroke-width="1.5"></path><path d="M71.38 691.11L199.4 714.52" stroke="hsl(228.5, 77.2%, 51.5%)" stroke-width="1.5"></path><path d="M71.38 691.11L206.57 589.1" stroke="hsl(228.5, 77.2%, 51.5%)" stroke-width="1.5"></path><path d="M206.57 589.1L206.57 589.1" stroke="hsl(228.5, 77.2%, 51.5%)" stroke-width="1.5"></path><path d="M206.57 589.1L294.13 539.59" stroke="hsl(228.5, 77.2%, 51.5%)" stroke-width="1.5"></path><path d="M206.57 589.1L199.4 714.52" stroke="hsl(228.5, 77.2%, 51.5%)" stroke-width="1.5"></path><path d="M199.4 714.52L199.4 714.52" stroke="hsl(228.5, 77.2%, 51.5%)" stroke-width="1.5"></path><path d="M281.33 449.96L281.33 449.96" stroke="hsl(228.5, 77.2%, 51.5%)" stroke-width="1.5"></path><path d="M281.33 449.96L294.13 539.59" stroke="hsl(228.5, 77.2%, 51.5%)" stroke-width="1.5"></path><path d="M281.33 449.96L411.58 458.89" stroke="hsl(228.5, 77.2%, 51.5%)" stroke-width="1.5"></path><path d="M281.33 449.96L206.57 589.1" stroke="hsl(228.5, 77.2%, 51.5%)" stroke-width="1.5"></path><path d="M281.33 449.96L408.64 585.96" stroke="hsl(228.5, 77.2%, 51.5%)" stroke-width="1.5"></path><path d="M281.33 449.96L285.68 695.7" stroke="hsl(228.5, 77.2%, 51.5%)" stroke-width="1.5"></path><path d="M294.13 539.59L294.13 539.59" stroke="hsl(228.5, 77.2%, 51.5%)" stroke-width="1.5"></path><path d="M294.13 539.59L408.64 585.96" stroke="hsl(228.5, 77.2%, 51.5%)" stroke-width="1.5"></path><path d="M294.13 539.59L411.58 458.89" stroke="hsl(228.5, 77.2%, 51.5%)" stroke-width="1.5"></path><path d="M294.13 539.59L285.68 695.7" stroke="hsl(228.5, 77.2%, 51.5%)" stroke-width="1.5"></path><path d="M294.13 539.59L437.06 660.54" stroke="hsl(228.5, 77.2%, 51.5%)" stroke-width="1.5"></path><path d="M411.58 458.89L411.58 458.89" stroke="hsl(228.5, 77.2%, 51.5%)" stroke-width="1.5"></path><path d="M411.58 458.89L408.64 585.96" stroke="hsl(228.5, 77.2%, 51.5%)" stroke-width="1.5"></path><path d="M411.58 458.89L437.06 660.54" stroke="hsl(228.5, 77.2%, 51.5%)" stroke-width="1.5"></path><path d="M408.64 585.96L408.64 585.96" stroke="hsl(228.5, 77.2%, 51.5%)" stroke-width="1.5"></path><path d="M408.64 585.96L437.06 660.54" stroke="hsl(228.5, 77.2%, 51.5%)" stroke-width="1.5"></path><path d="M408.64 585.96L285.68 695.7" stroke="hsl(228.5, 77.2%, 51.5%)" stroke-width="1.5"></path><path d="M408.64 585.96L542.61 703.94" stroke="hsl(228.5, 77.2%, 51.5%)" stroke-width="1.5"></path><path d="M437.06 660.54L437.06 660.54" stroke="hsl(228.5, 77.2%, 51.5%)" stroke-width="1.5"></path><path d="M437.06 660.54L542.61 703.94" stroke="hsl(228.5, 77.2%, 51.5%)" stroke-width="1.5"></path><path d="M542.61 703.94L542.61 703.94" stroke="hsl(228.5, 77.2%, 51.5%)" stroke-width="1.5"></path><path d="M542.61 703.94L694.33 704.64" stroke="hsl(228.5, 77.2%, 51.5%)" stroke-width="1.5"></path><path d="M542.61 703.94L799.11 710.4" stroke="hsl(228.5, 77.2%, 51.5%)" stroke-width="1.5"></path><path d="M542.61 703.94L285.68 695.7" stroke="hsl(228.5, 77.2%, 51.5%)" stroke-width="1.5"></path><path d="M711.97 339.39L711.97 339.39" stroke="hsl(228.5, 77.2%, 51.5%)" stroke-width="1.5"></path><path d="M711.97 339.39L704.69 413.73" stroke="hsl(228.5, 77.2%, 51.5%)" stroke-width="1.5"></path><path d="M711.97 339.39L792.48 335.63" stroke="hsl(228.5, 77.2%, 51.5%)" stroke-width="1.5"></path><path d="M711.97 339.39L811.51 418.96" stroke="hsl(228.5, 77.2%, 51.5%)" stroke-width="1.5"></path><path d="M704.69 413.73L704.69 413.73" stroke="hsl(228.5, 77.2%, 51.5%)" stroke-width="1.5"></path><path d="M704.69 413.73L811.51 418.96" stroke="hsl(228.5, 77.2%, 51.5%)" stroke-width="1.5"></path><path d="M704.69 413.73L792.48 335.63" stroke="hsl(228.5, 77.2%, 51.5%)" stroke-width="1.5"></path><path d="M704.69 413.73L835.61 567.67" stroke="hsl(228.5, 77.2%, 51.5%)" stroke-width="1.5"></path><path d="M694.33 704.64L694.33 704.64" stroke="hsl(228.5, 77.2%, 51.5%)" stroke-width="1.5"></path><path d="M694.33 704.64L799.11 710.4" stroke="hsl(228.5, 77.2%, 51.5%)" stroke-width="1.5"></path><path d="M694.33 704.64L835.61 567.67" stroke="hsl(228.5, 77.2%, 51.5%)" stroke-width="1.5"></path><path d="M694.33 704.64L910.54 677.47" stroke="hsl(228.5, 77.2%, 51.5%)" stroke-width="1.5"></path><path d="M694.33 704.64L437.06 660.54" stroke="hsl(228.5, 77.2%, 51.5%)" stroke-width="1.5"></path><path d="M819.51 34.79L819.51 34.79" stroke="hsl(228.5, 77.2%, 51.5%)" stroke-width="1.5"></path><path d="M819.51 34.79L948.75 51.5" stroke="hsl(228.5, 77.2%, 51.5%)" stroke-width="1.5"></path><path d="M819.51 34.79L963.06 -69.39" stroke="hsl(228.5, 77.2%, 51.5%)" stroke-width="1.5"></path><path d="M803.92 215.29L803.92 215.29" stroke="hsl(228.5, 77.2%, 51.5%)" stroke-width="1.5"></path><path d="M803.92 215.29L792.48 335.63" stroke="hsl(228.5, 77.2%, 51.5%)" stroke-width="1.5"></path><path d="M803.92 215.29L944.07 166.45" stroke="hsl(228.5, 77.2%, 51.5%)" stroke-width="1.5"></path><path d="M803.92 215.29L711.97 339.39" stroke="hsl(228.5, 77.2%, 51.5%)" stroke-width="1.5"></path><path d="M803.92 215.29L934.6 328.07" stroke="hsl(228.5, 77.2%, 51.5%)" stroke-width="1.5"></path><path d="M803.92 215.29L819.51 34.79" stroke="hsl(228.5, 77.2%, 51.5%)" stroke-width="1.5"></path><path d="M803.92 215.29L811.51 418.96" stroke="hsl(228.5, 77.2%, 51.5%)" stroke-width="1.5"></path><path d="M792.48 335.63L792.48 335.63" stroke="hsl(228.5, 77.2%, 51.5%)" stroke-width="1.5"></path><path d="M792.48 335.63L811.51 418.96" stroke="hsl(228.5, 77.2%, 51.5%)" stroke-width="1.5"></path><path d="M811.51 418.96L811.51 418.96" stroke="hsl(228.5, 77.2%, 51.5%)" stroke-width="1.5"></path><path d="M811.51 418.96L943.93 428.89" stroke="hsl(228.5, 77.2%, 51.5%)" stroke-width="1.5"></path><path d="M811.51 418.96L835.61 567.67" stroke="hsl(228.5, 77.2%, 51.5%)" stroke-width="1.5"></path><path d="M835.61 567.67L835.61 567.67" stroke="hsl(228.5, 77.2%, 51.5%)" stroke-width="1.5"></path><path d="M835.61 567.67L923.24 544.18" stroke="hsl(228.5, 77.2%, 51.5%)" stroke-width="1.5"></path><path d="M835.61 567.67L910.54 677.47" stroke="hsl(228.5, 77.2%, 51.5%)" stroke-width="1.5"></path><path d="M835.61 567.67L799.11 710.4" stroke="hsl(228.5, 77.2%, 51.5%)" stroke-width="1.5"></path><path d="M799.11 710.4L799.11 710.4" stroke="hsl(228.5, 77.2%, 51.5%)" stroke-width="1.5"></path><path d="M799.11 710.4L910.54 677.47" stroke="hsl(228.5, 77.2%, 51.5%)" stroke-width="1.5"></path><path d="M799.11 710.4L923.24 544.18" stroke="hsl(228.5, 77.2%, 51.5%)" stroke-width="1.5"></path><path d="M963.06 -69.39L963.06 -69.39" stroke="hsl(228.5, 77.2%, 51.5%)" stroke-width="1.5"></path><path d="M963.06 -69.39L948.75 51.5" stroke="hsl(228.5, 77.2%, 51.5%)" stroke-width="1.5"></path><path d="M948.75 51.5L948.75 51.5" stroke="hsl(228.5, 77.2%, 51.5%)" stroke-width="1.5"></path><path d="M948.75 51.5L944.07 166.45" stroke="hsl(228.5, 77.2%, 51.5%)" stroke-width="1.5"></path><path d="M944.07 166.45L944.07 166.45" stroke="hsl(228.5, 77.2%, 51.5%)" stroke-width="1.5"></path><path d="M944.07 166.45L1064.11 195.04" stroke="hsl(228.5, 77.2%, 51.5%)" stroke-width="1.5"></path><path d="M934.6 328.07L934.6 328.07" stroke="hsl(228.5, 77.2%, 51.5%)" stroke-width="1.5"></path><path d="M934.6 328.07L1033.88 309.42" stroke="hsl(228.5, 77.2%, 51.5%)" stroke-width="1.5"></path><path d="M934.6 328.07L943.93 428.89" stroke="hsl(228.5, 77.2%, 51.5%)" stroke-width="1.5"></path><path d="M934.6 328.07L792.48 335.63" stroke="hsl(228.5, 77.2%, 51.5%)" stroke-width="1.5"></path><path d="M934.6 328.07L811.51 418.96" stroke="hsl(228.5, 77.2%, 51.5%)" stroke-width="1.5"></path><path d="M943.93 428.89L943.93 428.89" stroke="hsl(228.5, 77.2%, 51.5%)" stroke-width="1.5"></path><path d="M943.93 428.89L1039.55 446.45" stroke="hsl(228.5, 77.2%, 51.5%)" stroke-width="1.5"></path><path d="M923.24 544.18L923.24 544.18" stroke="hsl(228.5, 77.2%, 51.5%)" stroke-width="1.5"></path><path d="M923.24 544.18L943.93 428.89" stroke="hsl(228.5, 77.2%, 51.5%)" stroke-width="1.5"></path><path d="M910.54 677.47L910.54 677.47" stroke="hsl(228.5, 77.2%, 51.5%)" stroke-width="1.5"></path><path d="M910.54 677.47L923.24 544.18" stroke="hsl(228.5, 77.2%, 51.5%)" stroke-width="1.5"></path><path d="M1064.11 195.04L1064.11 195.04" stroke="hsl(228.5, 77.2%, 51.5%)" stroke-width="1.5"></path><path d="M1064.11 195.04L1033.88 309.42" stroke="hsl(228.5, 77.2%, 51.5%)" stroke-width="1.5"></path><path d="M1033.88 309.42L1033.88 309.42" stroke="hsl(228.5, 77.2%, 51.5%)" stroke-width="1.5"></path><path d="M1033.88 309.42L1039.55 446.45" stroke="hsl(228.5, 77.2%, 51.5%)" stroke-width="1.5"></path><path d="M1033.88 309.42L943.93 428.89" stroke="hsl(228.5, 77.2%, 51.5%)" stroke-width="1.5"></path><path d="M1033.88 309.42L944.07 166.45" stroke="hsl(228.5, 77.2%, 51.5%)" stroke-width="1.5"></path><path d="M1033.88 309.42L1035.99 537.46" stroke="hsl(228.5, 77.2%, 51.5%)" stroke-width="1.5"></path><path d="M1039.55 446.45L1039.55 446.45" stroke="hsl(228.5, 77.2%, 51.5%)" stroke-width="1.5"></path><path d="M1039.55 446.45L923.24 544.18" stroke="hsl(228.5, 77.2%, 51.5%)" stroke-width="1.5"></path><path d="M1039.55 446.45L934.6 328.07" stroke="hsl(228.5, 77.2%, 51.5%)" stroke-width="1.5"></path><circle r="25" cx="285.68" cy="695.7" fill="url(&quot;#SvgjsRadialGradient1017&quot;)"></circle><circle r="25" cx="535.96" cy="422.27" fill="url(&quot;#SvgjsRadialGradient1017&quot;)"></circle><circle r="25" cx="658.89" cy="582.36" fill="url(&quot;#SvgjsRadialGradient1017&quot;)"></circle><circle r="25" cx="1073.82" cy="-52.31" fill="url(&quot;#SvgjsRadialGradient1017&quot;)"></circle><circle r="25" cx="1035.99" cy="537.46" fill="url(&quot;#SvgjsRadialGradient1017&quot;)"></circle><circle r="5" cx="-72.35" cy="590.17" fill="#8b9ad9"></circle><circle r="5" cx="-37.25" cy="717.59" fill="#8b9ad9"></circle><circle r="5" cx="54.36" cy="567.1" fill="#8b9ad9"></circle><circle r="5" cx="71.38" cy="691.11" fill="#8b9ad9"></circle><circle r="5" cx="206.57" cy="589.1" fill="#8b9ad9"></circle><circle r="5" cx="199.4" cy="714.52" fill="#8b9ad9"></circle><circle r="5" cx="281.33" cy="449.96" fill="#8b9ad9"></circle><circle r="5" cx="294.13" cy="539.59" fill="#8b9ad9"></circle><circle r="5" cx="411.58" cy="458.89" fill="#8b9ad9"></circle><circle r="5" cx="408.64" cy="585.96" fill="#8b9ad9"></circle><circle r="5" cx="437.06" cy="660.54" fill="#8b9ad9"></circle><circle r="5" cx="542.61" cy="703.94" fill="#8b9ad9"></circle><circle r="5" cx="711.97" cy="339.39" fill="#8b9ad9"></circle><circle r="5" cx="704.69" cy="413.73" fill="#8b9ad9"></circle><circle r="5" cx="694.33" cy="704.64" fill="#8b9ad9"></circle><circle r="5" cx="819.51" cy="34.79" fill="#8b9ad9"></circle><circle r="5" cx="803.92" cy="215.29" fill="#8b9ad9"></circle><circle r="5" cx="792.48" cy="335.63" fill="#8b9ad9"></circle><circle r="5" cx="811.51" cy="418.96" fill="#8b9ad9"></circle><circle r="5" cx="835.61" cy="567.67" fill="#8b9ad9"></circle><circle r="5" cx="799.11" cy="710.4" fill="#8b9ad9"></circle><circle r="5" cx="963.06" cy="-69.39" fill="#8b9ad9"></circle><circle r="5" cx="948.75" cy="51.5" fill="#8b9ad9"></circle><circle r="5" cx="944.07" cy="166.45" fill="#8b9ad9"></circle><circle r="5" cx="934.6" cy="328.07" fill="#8b9ad9"></circle><circle r="5" cx="943.93" cy="428.89" fill="#8b9ad9"></circle><circle r="5" cx="923.24" cy="544.18" fill="#8b9ad9"></circle><circle r="5" cx="910.54" cy="677.47" fill="#8b9ad9"></circle><circle r="5" cx="1064.11" cy="195.04" fill="#8b9ad9"></circle><circle r="5" cx="1033.88" cy="309.42" fill="#8b9ad9"></circle><circle r="5" cx="1039.55" cy="446.45" fill="#8b9ad9"></circle></g><defs><mask id="SvgjsMask1016"><rect width="1000" height="560" fill="#ffffff"></rect></mask><radialGradient id="SvgjsRadialGradient1017"><stop stop-color="#ffffff" offset="0.1"></stop><stop stop-color="#1735b3" offset="0.2"></stop><stop stop-color="rgba(23, 53, 179, 0)" offset="1"></stop></radialGradient></defs></svg>