<svg xmlns="http://www.w3.org/2000/svg" version="1.1" xmlns:xlink="http://www.w3.org/1999/xlink" xmlns:svgjs="http://svgjs.dev/svgjs" width="1000" height="560" preserveAspectRatio="none" viewBox="0 0 1000 560"><g mask="url(&quot;#SvgjsMask1014&quot;)" fill="none"><rect width="1000" height="560" x="0" y="0" fill="#0e2a47"></rect><path d="M-40.38 447.39L-40.38 447.39" stroke="#132e65" stroke-width="1.5"></path><path d="M-40.38 447.39L62.67 436.45" stroke="#132e65" stroke-width="1.5"></path><path d="M-40.38 447.39L48.51 534.37" stroke="#132e65" stroke-width="1.5"></path><path d="M-40.38 447.39L-79.64 587.46" stroke="#132e65" stroke-width="1.5"></path><path d="M-79.64 587.46L-79.64 587.46" stroke="#132e65" stroke-width="1.5"></path><path d="M-79.64 587.46L-59.35 718.03" stroke="#132e65" stroke-width="1.5"></path><path d="M-79.64 587.46L48.51 534.37" stroke="#132e65" stroke-width="1.5"></path><path d="M-59.35 718.03L-59.35 718.03" stroke="#132e65" stroke-width="1.5"></path><path d="M-59.35 718.03L39.5 694.85" stroke="#132e65" stroke-width="1.5"></path><path d="M62.67 436.45L62.67 436.45" stroke="#132e65" stroke-width="1.5"></path><path d="M62.67 436.45L48.51 534.37" stroke="#132e65" stroke-width="1.5"></path><path d="M48.51 534.37L48.51 534.37" stroke="#132e65" stroke-width="1.5"></path><path d="M48.51 534.37L197.91 576.34" stroke="#132e65" stroke-width="1.5"></path><path d="M48.51 534.37L39.5 694.85" stroke="#132e65" stroke-width="1.5"></path><path d="M48.51 534.37L186.58 415.61" stroke="#132e65" stroke-width="1.5"></path><path d="M39.5 694.85L39.5 694.85" stroke="#132e65" stroke-width="1.5"></path><path d="M39.5 694.85L166 698.46" stroke="#132e65" stroke-width="1.5"></path><path d="M39.5 694.85L-79.64 587.46" stroke="#132e65" stroke-width="1.5"></path><path d="M161.3 331.98L161.3 331.98" stroke="#132e65" stroke-width="1.5"></path><path d="M161.3 331.98L186.58 415.61" stroke="#132e65" stroke-width="1.5"></path><path d="M161.3 331.98L288.08 311.79" stroke="#132e65" stroke-width="1.5"></path><path d="M161.3 331.98L62.67 436.45" stroke="#132e65" stroke-width="1.5"></path><path d="M186.58 415.61L186.58 415.61" stroke="#132e65" stroke-width="1.5"></path><path d="M186.58 415.61L62.67 436.45" stroke="#132e65" stroke-width="1.5"></path><path d="M186.58 415.61L288.08 311.79" stroke="#132e65" stroke-width="1.5"></path><path d="M197.91 576.34L197.91 576.34" stroke="#132e65" stroke-width="1.5"></path><path d="M197.91 576.34L166 698.46" stroke="#132e65" stroke-width="1.5"></path><path d="M197.91 576.34L339.67 563.4" stroke="#132e65" stroke-width="1.5"></path><path d="M166 698.46L166 698.46" stroke="#132e65" stroke-width="1.5"></path><path d="M166 698.46L308.16 709.83" stroke="#132e65" stroke-width="1.5"></path><path d="M166 698.46L48.51 534.37" stroke="#132e65" stroke-width="1.5"></path><path d="M166 698.46L339.67 563.4" stroke="#132e65" stroke-width="1.5"></path><path d="M166 698.46L-59.35 718.03" stroke="#132e65" stroke-width="1.5"></path><path d="M288.08 311.79L288.08 311.79" stroke="#132e65" stroke-width="1.5"></path><path d="M288.08 311.79L339.68 408.35" stroke="#132e65" stroke-width="1.5"></path><path d="M339.68 408.35L339.68 408.35" stroke="#132e65" stroke-width="1.5"></path><path d="M339.68 408.35L459.32 438.35" stroke="#132e65" stroke-width="1.5"></path><path d="M339.67 563.4L339.67 563.4" stroke="#132e65" stroke-width="1.5"></path><path d="M339.67 563.4L463.65 568.07" stroke="#132e65" stroke-width="1.5"></path><path d="M339.67 563.4L308.16 709.83" stroke="#132e65" stroke-width="1.5"></path><path d="M339.67 563.4L339.68 408.35" stroke="#132e65" stroke-width="1.5"></path><path d="M339.67 563.4L459.32 438.35" stroke="#132e65" stroke-width="1.5"></path><path d="M339.67 563.4L423.97 716.32" stroke="#132e65" stroke-width="1.5"></path><path d="M308.16 709.83L308.16 709.83" stroke="#132e65" stroke-width="1.5"></path><path d="M308.16 709.83L423.97 716.32" stroke="#132e65" stroke-width="1.5"></path><path d="M308.16 709.83L197.91 576.34" stroke="#132e65" stroke-width="1.5"></path><path d="M424.8 309.12L424.8 309.12" stroke="#132e65" stroke-width="1.5"></path><path d="M424.8 309.12L339.68 408.35" stroke="#132e65" stroke-width="1.5"></path><path d="M424.8 309.12L459.32 438.35" stroke="#132e65" stroke-width="1.5"></path><path d="M459.32 438.35L459.32 438.35" stroke="#132e65" stroke-width="1.5"></path><path d="M459.32 438.35L543.1 429.82" stroke="#132e65" stroke-width="1.5"></path><path d="M459.32 438.35L463.65 568.07" stroke="#132e65" stroke-width="1.5"></path><path d="M459.32 438.35L552.41 574.76" stroke="#132e65" stroke-width="1.5"></path><path d="M463.65 568.07L463.65 568.07" stroke="#132e65" stroke-width="1.5"></path><path d="M463.65 568.07L552.41 574.76" stroke="#132e65" stroke-width="1.5"></path><path d="M423.97 716.32L423.97 716.32" stroke="#132e65" stroke-width="1.5"></path><path d="M531.4 187.27L531.4 187.27" stroke="#132e65" stroke-width="1.5"></path><path d="M531.4 187.27L585.63 296.83" stroke="#132e65" stroke-width="1.5"></path><path d="M531.4 187.27L679.87 183.57" stroke="#132e65" stroke-width="1.5"></path><path d="M531.4 187.27L424.8 309.12" stroke="#132e65" stroke-width="1.5"></path><path d="M585.63 296.83L585.63 296.83" stroke="#132e65" stroke-width="1.5"></path><path d="M585.63 296.83L675.11 295.13" stroke="#132e65" stroke-width="1.5"></path><path d="M543.1 429.82L543.1 429.82" stroke="#132e65" stroke-width="1.5"></path><path d="M543.1 429.82L674.07 464.93" stroke="#132e65" stroke-width="1.5"></path><path d="M543.1 429.82L585.63 296.83" stroke="#132e65" stroke-width="1.5"></path><path d="M543.1 429.82L552.41 574.76" stroke="#132e65" stroke-width="1.5"></path><path d="M552.41 574.76L552.41 574.76" stroke="#132e65" stroke-width="1.5"></path><path d="M552.41 574.76L673.88 549.92" stroke="#132e65" stroke-width="1.5"></path><path d="M656.39 -61.03L656.39 -61.03" stroke="#132e65" stroke-width="1.5"></path><path d="M656.39 -61.03L710.59 64.01" stroke="#132e65" stroke-width="1.5"></path><path d="M656.39 -61.03L815.52 -79.27" stroke="#132e65" stroke-width="1.5"></path><path d="M710.59 64.01L710.59 64.01" stroke="#132e65" stroke-width="1.5"></path><path d="M710.59 64.01L785.6 50.09" stroke="#132e65" stroke-width="1.5"></path><path d="M710.59 64.01L679.87 183.57" stroke="#132e65" stroke-width="1.5"></path><path d="M679.87 183.57L679.87 183.57" stroke="#132e65" stroke-width="1.5"></path><path d="M679.87 183.57L675.11 295.13" stroke="#132e65" stroke-width="1.5"></path><path d="M679.87 183.57L797.74 181.51" stroke="#132e65" stroke-width="1.5"></path><path d="M675.11 295.13L675.11 295.13" stroke="#132e65" stroke-width="1.5"></path><path d="M675.11 295.13L814.95 299.26" stroke="#132e65" stroke-width="1.5"></path><path d="M675.11 295.13L797.74 181.51" stroke="#132e65" stroke-width="1.5"></path><path d="M674.07 464.93L674.07 464.93" stroke="#132e65" stroke-width="1.5"></path><path d="M674.07 464.93L673.88 549.92" stroke="#132e65" stroke-width="1.5"></path><path d="M674.07 464.93L816.04 542.81" stroke="#132e65" stroke-width="1.5"></path><path d="M674.07 464.93L552.41 574.76" stroke="#132e65" stroke-width="1.5"></path><path d="M673.88 549.92L673.88 549.92" stroke="#132e65" stroke-width="1.5"></path><path d="M673.48 674.79L673.48 674.79" stroke="#132e65" stroke-width="1.5"></path><path d="M673.48 674.79L673.88 549.92" stroke="#132e65" stroke-width="1.5"></path><path d="M673.48 674.79L803.85 710.72" stroke="#132e65" stroke-width="1.5"></path><path d="M673.48 674.79L552.41 574.76" stroke="#132e65" stroke-width="1.5"></path><path d="M673.48 674.79L816.04 542.81" stroke="#132e65" stroke-width="1.5"></path><path d="M673.48 674.79L674.07 464.93" stroke="#132e65" stroke-width="1.5"></path><path d="M815.52 -79.27L815.52 -79.27" stroke="#132e65" stroke-width="1.5"></path><path d="M815.52 -79.27L944.13 -93.19" stroke="#132e65" stroke-width="1.5"></path><path d="M815.52 -79.27L785.6 50.09" stroke="#132e65" stroke-width="1.5"></path><path d="M815.52 -79.27L710.59 64.01" stroke="#132e65" stroke-width="1.5"></path><path d="M815.52 -79.27L962.59 58.42" stroke="#132e65" stroke-width="1.5"></path><path d="M785.6 50.09L785.6 50.09" stroke="#132e65" stroke-width="1.5"></path><path d="M785.6 50.09L797.74 181.51" stroke="#132e65" stroke-width="1.5"></path><path d="M785.6 50.09L679.87 183.57" stroke="#132e65" stroke-width="1.5"></path><path d="M785.6 50.09L656.39 -61.03" stroke="#132e65" stroke-width="1.5"></path><path d="M785.6 50.09L962.59 58.42" stroke="#132e65" stroke-width="1.5"></path><path d="M797.74 181.51L797.74 181.51" stroke="#132e65" stroke-width="1.5"></path><path d="M797.74 181.51L814.95 299.26" stroke="#132e65" stroke-width="1.5"></path><path d="M814.95 299.26L814.95 299.26" stroke="#132e65" stroke-width="1.5"></path><path d="M814.95 299.26L942.48 304.03" stroke="#132e65" stroke-width="1.5"></path><path d="M814.95 299.26L960.65 199.74" stroke="#132e65" stroke-width="1.5"></path><path d="M814.95 299.26L679.87 183.57" stroke="#132e65" stroke-width="1.5"></path><path d="M816.04 542.81L816.04 542.81" stroke="#132e65" stroke-width="1.5"></path><path d="M816.04 542.81L673.88 549.92" stroke="#132e65" stroke-width="1.5"></path><path d="M816.04 542.81L943.83 454.61" stroke="#132e65" stroke-width="1.5"></path><path d="M803.85 710.72L803.85 710.72" stroke="#132e65" stroke-width="1.5"></path><path d="M803.85 710.72L943.63 686.78" stroke="#132e65" stroke-width="1.5"></path><path d="M803.85 710.72L816.04 542.81" stroke="#132e65" stroke-width="1.5"></path><path d="M944.13 -93.19L944.13 -93.19" stroke="#132e65" stroke-width="1.5"></path><path d="M944.13 -93.19L962.59 58.42" stroke="#132e65" stroke-width="1.5"></path><path d="M944.13 -93.19L1092.36 -49.59" stroke="#132e65" stroke-width="1.5"></path><path d="M944.13 -93.19L1064.84 40.08" stroke="#132e65" stroke-width="1.5"></path><path d="M962.59 58.42L962.59 58.42" stroke="#132e65" stroke-width="1.5"></path><path d="M962.59 58.42L1064.84 40.08" stroke="#132e65" stroke-width="1.5"></path><path d="M962.59 58.42L960.65 199.74" stroke="#132e65" stroke-width="1.5"></path><path d="M962.59 58.42L1092.36 -49.59" stroke="#132e65" stroke-width="1.5"></path><path d="M960.65 199.74L960.65 199.74" stroke="#132e65" stroke-width="1.5"></path><path d="M960.65 199.74L1053.62 213.59" stroke="#132e65" stroke-width="1.5"></path><path d="M960.65 199.74L942.48 304.03" stroke="#132e65" stroke-width="1.5"></path><path d="M960.65 199.74L1036.65 311.64" stroke="#132e65" stroke-width="1.5"></path><path d="M960.65 199.74L797.74 181.51" stroke="#132e65" stroke-width="1.5"></path><path d="M942.48 304.03L942.48 304.03" stroke="#132e65" stroke-width="1.5"></path><path d="M942.48 304.03L1036.65 311.64" stroke="#132e65" stroke-width="1.5"></path><path d="M943.83 454.61L943.83 454.61" stroke="#132e65" stroke-width="1.5"></path><path d="M943.83 454.61L1057.98 427.94" stroke="#132e65" stroke-width="1.5"></path><path d="M943.83 454.61L942.48 304.03" stroke="#132e65" stroke-width="1.5"></path><path d="M943.83 454.61L1056.83 558.84" stroke="#132e65" stroke-width="1.5"></path><path d="M943.63 686.78L943.63 686.78" stroke="#132e65" stroke-width="1.5"></path><path d="M943.63 686.78L1034.19 698.51" stroke="#132e65" stroke-width="1.5"></path><path d="M943.63 686.78L1056.83 558.84" stroke="#132e65" stroke-width="1.5"></path><path d="M943.63 686.78L816.04 542.81" stroke="#132e65" stroke-width="1.5"></path><path d="M1092.36 -49.59L1092.36 -49.59" stroke="#132e65" stroke-width="1.5"></path><path d="M1092.36 -49.59L1064.84 40.08" stroke="#132e65" stroke-width="1.5"></path><path d="M1092.36 -49.59L1053.62 213.59" stroke="#132e65" stroke-width="1.5"></path><path d="M1092.36 -49.59L815.52 -79.27" stroke="#132e65" stroke-width="1.5"></path><path d="M1064.84 40.08L1064.84 40.08" stroke="#132e65" stroke-width="1.5"></path><path d="M1064.84 40.08L1053.62 213.59" stroke="#132e65" stroke-width="1.5"></path><path d="M1053.62 213.59L1053.62 213.59" stroke="#132e65" stroke-width="1.5"></path><path d="M1053.62 213.59L1036.65 311.64" stroke="#132e65" stroke-width="1.5"></path><path d="M1053.62 213.59L942.48 304.03" stroke="#132e65" stroke-width="1.5"></path><path d="M1053.62 213.59L962.59 58.42" stroke="#132e65" stroke-width="1.5"></path><path d="M1053.62 213.59L1057.98 427.94" stroke="#132e65" stroke-width="1.5"></path><path d="M1036.65 311.64L1036.65 311.64" stroke="#132e65" stroke-width="1.5"></path><path d="M1036.65 311.64L1057.98 427.94" stroke="#132e65" stroke-width="1.5"></path><path d="M1057.98 427.94L1057.98 427.94" stroke="#132e65" stroke-width="1.5"></path><path d="M1057.98 427.94L1056.83 558.84" stroke="#132e65" stroke-width="1.5"></path><path d="M1057.98 427.94L942.48 304.03" stroke="#132e65" stroke-width="1.5"></path><path d="M1057.98 427.94L960.65 199.74" stroke="#132e65" stroke-width="1.5"></path><path d="M1056.83 558.84L1056.83 558.84" stroke="#132e65" stroke-width="1.5"></path><path d="M1056.83 558.84L1034.19 698.51" stroke="#132e65" stroke-width="1.5"></path><path d="M1056.83 558.84L816.04 542.81" stroke="#132e65" stroke-width="1.5"></path><path d="M1034.19 698.51L1034.19 698.51" stroke="#132e65" stroke-width="1.5"></path><path d="M1034.19 698.51L803.85 710.72" stroke="#132e65" stroke-width="1.5"></path><path d="M1034.19 698.51L943.83 454.61" stroke="#132e65" stroke-width="1.5"></path><circle r="5" cx="-40.38" cy="447.39" fill="#132e65"></circle><circle r="5" cx="-79.64" cy="587.46" fill="#132e65"></circle><circle r="5" cx="-59.35" cy="718.03" fill="#132e65"></circle><circle r="5" cx="62.67" cy="436.45" fill="#132e65"></circle><circle r="5" cx="48.51" cy="534.37" fill="#132e65"></circle><circle r="5" cx="39.5" cy="694.85" fill="#132e65"></circle><circle r="5" cx="161.3" cy="331.98" fill="#132e65"></circle><circle r="5" cx="186.58" cy="415.61" fill="#132e65"></circle><circle r="5" cx="197.91" cy="576.34" fill="#132e65"></circle><circle r="5" cx="166" cy="698.46" fill="#132e65"></circle><circle r="5" cx="288.08" cy="311.79" fill="#132e65"></circle><circle r="5" cx="339.68" cy="408.35" fill="#132e65"></circle><circle r="5" cx="339.67" cy="563.4" fill="#132e65"></circle><circle r="5" cx="308.16" cy="709.83" fill="#132e65"></circle><circle r="5" cx="424.8" cy="309.12" fill="#132e65"></circle><circle r="5" cx="459.32" cy="438.35" fill="#132e65"></circle><circle r="5" cx="463.65" cy="568.07" fill="#132e65"></circle><circle r="5" cx="423.97" cy="716.32" fill="#132e65"></circle><circle r="5" cx="531.4" cy="187.27" fill="#132e65"></circle><circle r="5" cx="585.63" cy="296.83" fill="#132e65"></circle><circle r="5" cx="543.1" cy="429.82" fill="#132e65"></circle><circle r="5" cx="552.41" cy="574.76" fill="#132e65"></circle><circle r="5" cx="656.39" cy="-61.03" fill="#132e65"></circle><circle r="5" cx="710.59" cy="64.01" fill="#132e65"></circle><circle r="5" cx="679.87" cy="183.57" fill="#132e65"></circle><circle r="5" cx="675.11" cy="295.13" fill="#132e65"></circle><circle r="5" cx="674.07" cy="464.93" fill="#132e65"></circle><circle r="5" cx="673.88" cy="549.92" fill="#132e65"></circle><circle r="5" cx="673.48" cy="674.79" fill="#132e65"></circle><circle r="5" cx="815.52" cy="-79.27" fill="#132e65"></circle><circle r="5" cx="785.6" cy="50.09" fill="#132e65"></circle><circle r="5" cx="797.74" cy="181.51" fill="#132e65"></circle><circle r="5" cx="814.95" cy="299.26" fill="#132e65"></circle><circle r="5" cx="816.04" cy="542.81" fill="#132e65"></circle><circle r="5" cx="803.85" cy="710.72" fill="#132e65"></circle><circle r="5" cx="944.13" cy="-93.19" fill="#132e65"></circle><circle r="5" cx="962.59" cy="58.42" fill="#132e65"></circle><circle r="5" cx="960.65" cy="199.74" fill="#132e65"></circle><circle r="5" cx="942.48" cy="304.03" fill="#132e65"></circle><circle r="5" cx="943.83" cy="454.61" fill="#132e65"></circle><circle r="5" cx="943.63" cy="686.78" fill="#132e65"></circle><circle r="5" cx="1092.36" cy="-49.59" fill="#132e65"></circle><circle r="5" cx="1064.84" cy="40.08" fill="#132e65"></circle><circle r="5" cx="1053.62" cy="213.59" fill="#132e65"></circle><circle r="5" cx="1036.65" cy="311.64" fill="#132e65"></circle><circle r="5" cx="1057.98" cy="427.94" fill="#132e65"></circle><circle r="5" cx="1056.83" cy="558.84" fill="#132e65"></circle><circle r="5" cx="1034.19" cy="698.51" fill="#132e65"></circle><path d="M-49.22 574.85L-49.22 574.85" stroke="hsl(228.5, 77.2%, 51.5%)" stroke-width="1.5"></path><path d="M-49.22 574.85L-32.99 661.49" stroke="hsl(228.5, 77.2%, 51.5%)" stroke-width="1.5"></path><path d="M-49.22 574.85L51.75 565.82" stroke="hsl(228.5, 77.2%, 51.5%)" stroke-width="1.5"></path><path d="M-49.22 574.85L80.36 700.53" stroke="hsl(228.5, 77.2%, 51.5%)" stroke-width="1.5"></path><path d="M218.19 576.25L218.19 576.25" stroke="hsl(228.5, 77.2%, 51.5%)" stroke-width="1.5"></path><path d="M218.19 576.25L298.82 557.5" stroke="hsl(228.5, 77.2%, 51.5%)" stroke-width="1.5"></path><path d="M218.19 576.25L313.79 677.12" stroke="hsl(228.5, 77.2%, 51.5%)" stroke-width="1.5"></path><path d="M209.03 715.15L209.03 715.15" stroke="hsl(228.5, 77.2%, 51.5%)" stroke-width="1.5"></path><path d="M209.03 715.15L313.79 677.12" stroke="hsl(228.5, 77.2%, 51.5%)" stroke-width="1.5"></path><path d="M209.03 715.15L80.36 700.53" stroke="hsl(228.5, 77.2%, 51.5%)" stroke-width="1.5"></path><path d="M209.03 715.15L218.19 576.25" stroke="hsl(228.5, 77.2%, 51.5%)" stroke-width="1.5"></path><path d="M313.79 677.12L313.79 677.12" stroke="hsl(228.5, 77.2%, 51.5%)" stroke-width="1.5"></path><path d="M313.79 677.12L298.82 557.5" stroke="hsl(228.5, 77.2%, 51.5%)" stroke-width="1.5"></path><path d="M430.37 431.21L430.37 431.21" stroke="hsl(228.5, 77.2%, 51.5%)" stroke-width="1.5"></path><path d="M430.37 431.21L329.33 414.88" stroke="hsl(228.5, 77.2%, 51.5%)" stroke-width="1.5"></path><path d="M430.37 431.21L430.72 542.75" stroke="hsl(228.5, 77.2%, 51.5%)" stroke-width="1.5"></path><path d="M430.37 431.21L585.43 455.25" stroke="hsl(228.5, 77.2%, 51.5%)" stroke-width="1.5"></path><path d="M430.37 431.21L554.94 561" stroke="hsl(228.5, 77.2%, 51.5%)" stroke-width="1.5"></path><path d="M430.37 431.21L298.82 557.5" stroke="hsl(228.5, 77.2%, 51.5%)" stroke-width="1.5"></path><path d="M430.37 431.21L585.51 327.54" stroke="hsl(228.5, 77.2%, 51.5%)" stroke-width="1.5"></path><path d="M706.25 294.82L706.25 294.82" stroke="hsl(228.5, 77.2%, 51.5%)" stroke-width="1.5"></path><path d="M706.25 294.82L823.31 282.34" stroke="hsl(228.5, 77.2%, 51.5%)" stroke-width="1.5"></path><path d="M706.25 294.82L585.51 327.54" stroke="hsl(228.5, 77.2%, 51.5%)" stroke-width="1.5"></path><path d="M706.25 294.82L824.05 209.26" stroke="hsl(228.5, 77.2%, 51.5%)" stroke-width="1.5"></path><path d="M706.25 294.82L710.77 468.2" stroke="hsl(228.5, 77.2%, 51.5%)" stroke-width="1.5"></path><path d="M706.25 294.82L585.43 455.25" stroke="hsl(228.5, 77.2%, 51.5%)" stroke-width="1.5"></path><path d="M823.53 461.52L823.53 461.52" stroke="hsl(228.5, 77.2%, 51.5%)" stroke-width="1.5"></path><path d="M823.53 461.52L823.02 559.76" stroke="hsl(228.5, 77.2%, 51.5%)" stroke-width="1.5"></path><path d="M823.53 461.52L710.77 468.2" stroke="hsl(228.5, 77.2%, 51.5%)" stroke-width="1.5"></path><path d="M823.53 461.52L939.66 424.34" stroke="hsl(228.5, 77.2%, 51.5%)" stroke-width="1.5"></path><path d="M823.53 461.52L913.8 591.03" stroke="hsl(228.5, 77.2%, 51.5%)" stroke-width="1.5"></path><path d="M823.53 461.52L823.31 282.34" stroke="hsl(228.5, 77.2%, 51.5%)" stroke-width="1.5"></path><path d="M823.53 461.52L939.46 294.44" stroke="hsl(228.5, 77.2%, 51.5%)" stroke-width="1.5"></path><path d="M823.02 559.76L823.02 559.76" stroke="hsl(228.5, 77.2%, 51.5%)" stroke-width="1.5"></path><path d="M823.02 559.76L913.8 591.03" stroke="hsl(228.5, 77.2%, 51.5%)" stroke-width="1.5"></path><path d="M823.02 559.76L804.86 683.51" stroke="hsl(228.5, 77.2%, 51.5%)" stroke-width="1.5"></path><path d="M823.02 559.76L710.77 468.2" stroke="hsl(228.5, 77.2%, 51.5%)" stroke-width="1.5"></path><path d="M1046.56 319.39L1046.56 319.39" stroke="hsl(228.5, 77.2%, 51.5%)" stroke-width="1.5"></path><path d="M1046.56 319.39L1053.16 424.91" stroke="hsl(228.5, 77.2%, 51.5%)" stroke-width="1.5"></path><path d="M1046.56 319.39L939.46 294.44" stroke="hsl(228.5, 77.2%, 51.5%)" stroke-width="1.5"></path><path d="M1046.56 319.39L1055.35 196.65" stroke="hsl(228.5, 77.2%, 51.5%)" stroke-width="1.5"></path><path d="M1046.56 319.39L939.66 424.34" stroke="hsl(228.5, 77.2%, 51.5%)" stroke-width="1.5"></path><path d="M1046.56 319.39L960.63 196.32" stroke="hsl(228.5, 77.2%, 51.5%)" stroke-width="1.5"></path><path d="M1046.56 319.39L823.31 282.34" stroke="hsl(228.5, 77.2%, 51.5%)" stroke-width="1.5"></path><path d="M-32.99 661.49L-32.99 661.49" stroke="hsl(228.5, 77.2%, 51.5%)" stroke-width="1.5"></path><path d="M-32.99 661.49L80.36 700.53" stroke="hsl(228.5, 77.2%, 51.5%)" stroke-width="1.5"></path><path d="M-32.99 661.49L51.75 565.82" stroke="hsl(228.5, 77.2%, 51.5%)" stroke-width="1.5"></path><path d="M-32.99 661.49L209.03 715.15" stroke="hsl(228.5, 77.2%, 51.5%)" stroke-width="1.5"></path><path d="M51.75 565.82L51.75 565.82" stroke="hsl(228.5, 77.2%, 51.5%)" stroke-width="1.5"></path><path d="M51.75 565.82L80.36 700.53" stroke="hsl(228.5, 77.2%, 51.5%)" stroke-width="1.5"></path><path d="M80.36 700.53L80.36 700.53" stroke="hsl(228.5, 77.2%, 51.5%)" stroke-width="1.5"></path><path d="M80.36 700.53L218.19 576.25" stroke="hsl(228.5, 77.2%, 51.5%)" stroke-width="1.5"></path><path d="M329.33 414.88L329.33 414.88" stroke="hsl(228.5, 77.2%, 51.5%)" stroke-width="1.5"></path><path d="M329.33 414.88L298.82 557.5" stroke="hsl(228.5, 77.2%, 51.5%)" stroke-width="1.5"></path><path d="M329.33 414.88L430.72 542.75" stroke="hsl(228.5, 77.2%, 51.5%)" stroke-width="1.5"></path><path d="M329.33 414.88L218.19 576.25" stroke="hsl(228.5, 77.2%, 51.5%)" stroke-width="1.5"></path><path d="M329.33 414.88L585.43 455.25" stroke="hsl(228.5, 77.2%, 51.5%)" stroke-width="1.5"></path><path d="M329.33 414.88L313.79 677.12" stroke="hsl(228.5, 77.2%, 51.5%)" stroke-width="1.5"></path><path d="M298.82 557.5L298.82 557.5" stroke="hsl(228.5, 77.2%, 51.5%)" stroke-width="1.5"></path><path d="M298.82 557.5L430.72 542.75" stroke="hsl(228.5, 77.2%, 51.5%)" stroke-width="1.5"></path><path d="M430.72 542.75L430.72 542.75" stroke="hsl(228.5, 77.2%, 51.5%)" stroke-width="1.5"></path><path d="M430.72 542.75L554.94 561" stroke="hsl(228.5, 77.2%, 51.5%)" stroke-width="1.5"></path><path d="M444.41 690.73L444.41 690.73" stroke="hsl(228.5, 77.2%, 51.5%)" stroke-width="1.5"></path><path d="M444.41 690.73L546.6 711.87" stroke="hsl(228.5, 77.2%, 51.5%)" stroke-width="1.5"></path><path d="M444.41 690.73L313.79 677.12" stroke="hsl(228.5, 77.2%, 51.5%)" stroke-width="1.5"></path><path d="M444.41 690.73L430.72 542.75" stroke="hsl(228.5, 77.2%, 51.5%)" stroke-width="1.5"></path><path d="M585.51 327.54L585.51 327.54" stroke="hsl(228.5, 77.2%, 51.5%)" stroke-width="1.5"></path><path d="M585.43 455.25L585.43 455.25" stroke="hsl(228.5, 77.2%, 51.5%)" stroke-width="1.5"></path><path d="M585.43 455.25L554.94 561" stroke="hsl(228.5, 77.2%, 51.5%)" stroke-width="1.5"></path><path d="M585.43 455.25L710.77 468.2" stroke="hsl(228.5, 77.2%, 51.5%)" stroke-width="1.5"></path><path d="M585.43 455.25L585.51 327.54" stroke="hsl(228.5, 77.2%, 51.5%)" stroke-width="1.5"></path><path d="M585.43 455.25L663.32 590.89" stroke="hsl(228.5, 77.2%, 51.5%)" stroke-width="1.5"></path><path d="M554.94 561L554.94 561" stroke="hsl(228.5, 77.2%, 51.5%)" stroke-width="1.5"></path><path d="M554.94 561L663.32 590.89" stroke="hsl(228.5, 77.2%, 51.5%)" stroke-width="1.5"></path><path d="M546.6 711.87L546.6 711.87" stroke="hsl(228.5, 77.2%, 51.5%)" stroke-width="1.5"></path><path d="M546.6 711.87L659.47 700.48" stroke="hsl(228.5, 77.2%, 51.5%)" stroke-width="1.5"></path><path d="M546.6 711.87L554.94 561" stroke="hsl(228.5, 77.2%, 51.5%)" stroke-width="1.5"></path><path d="M546.6 711.87L663.32 590.89" stroke="hsl(228.5, 77.2%, 51.5%)" stroke-width="1.5"></path><path d="M546.6 711.87L430.72 542.75" stroke="hsl(228.5, 77.2%, 51.5%)" stroke-width="1.5"></path><path d="M710.77 468.2L710.77 468.2" stroke="hsl(228.5, 77.2%, 51.5%)" stroke-width="1.5"></path><path d="M710.77 468.2L663.32 590.89" stroke="hsl(228.5, 77.2%, 51.5%)" stroke-width="1.5"></path><path d="M710.77 468.2L554.94 561" stroke="hsl(228.5, 77.2%, 51.5%)" stroke-width="1.5"></path><path d="M663.32 590.89L663.32 590.89" stroke="hsl(228.5, 77.2%, 51.5%)" stroke-width="1.5"></path><path d="M663.32 590.89L659.47 700.48" stroke="hsl(228.5, 77.2%, 51.5%)" stroke-width="1.5"></path><path d="M659.47 700.48L659.47 700.48" stroke="hsl(228.5, 77.2%, 51.5%)" stroke-width="1.5"></path><path d="M832.64 -44.48L832.64 -44.48" stroke="hsl(228.5, 77.2%, 51.5%)" stroke-width="1.5"></path><path d="M832.64 -44.48L913.03 -76.04" stroke="hsl(228.5, 77.2%, 51.5%)" stroke-width="1.5"></path><path d="M832.64 -44.48L835.79 59.69" stroke="hsl(228.5, 77.2%, 51.5%)" stroke-width="1.5"></path><path d="M832.64 -44.48L933.06 73.15" stroke="hsl(228.5, 77.2%, 51.5%)" stroke-width="1.5"></path><path d="M832.64 -44.48L824.05 209.26" stroke="hsl(228.5, 77.2%, 51.5%)" stroke-width="1.5"></path><path d="M835.79 59.69L835.79 59.69" stroke="hsl(228.5, 77.2%, 51.5%)" stroke-width="1.5"></path><path d="M835.79 59.69L933.06 73.15" stroke="hsl(228.5, 77.2%, 51.5%)" stroke-width="1.5"></path><path d="M835.79 59.69L824.05 209.26" stroke="hsl(228.5, 77.2%, 51.5%)" stroke-width="1.5"></path><path d="M835.79 59.69L913.03 -76.04" stroke="hsl(228.5, 77.2%, 51.5%)" stroke-width="1.5"></path><path d="M824.05 209.26L824.05 209.26" stroke="hsl(228.5, 77.2%, 51.5%)" stroke-width="1.5"></path><path d="M824.05 209.26L823.31 282.34" stroke="hsl(228.5, 77.2%, 51.5%)" stroke-width="1.5"></path><path d="M824.05 209.26L960.63 196.32" stroke="hsl(228.5, 77.2%, 51.5%)" stroke-width="1.5"></path><path d="M824.05 209.26L939.46 294.44" stroke="hsl(228.5, 77.2%, 51.5%)" stroke-width="1.5"></path><path d="M823.31 282.34L823.31 282.34" stroke="hsl(228.5, 77.2%, 51.5%)" stroke-width="1.5"></path><path d="M823.31 282.34L939.46 294.44" stroke="hsl(228.5, 77.2%, 51.5%)" stroke-width="1.5"></path><path d="M823.31 282.34L960.63 196.32" stroke="hsl(228.5, 77.2%, 51.5%)" stroke-width="1.5"></path><path d="M823.31 282.34L939.66 424.34" stroke="hsl(228.5, 77.2%, 51.5%)" stroke-width="1.5"></path><path d="M804.86 683.51L804.86 683.51" stroke="hsl(228.5, 77.2%, 51.5%)" stroke-width="1.5"></path><path d="M804.86 683.51L913.8 591.03" stroke="hsl(228.5, 77.2%, 51.5%)" stroke-width="1.5"></path><path d="M804.86 683.51L659.47 700.48" stroke="hsl(228.5, 77.2%, 51.5%)" stroke-width="1.5"></path><path d="M804.86 683.51L956.34 690.08" stroke="hsl(228.5, 77.2%, 51.5%)" stroke-width="1.5"></path><path d="M804.86 683.51L663.32 590.89" stroke="hsl(228.5, 77.2%, 51.5%)" stroke-width="1.5"></path><path d="M913.03 -76.04L913.03 -76.04" stroke="hsl(228.5, 77.2%, 51.5%)" stroke-width="1.5"></path><path d="M933.06 73.15L933.06 73.15" stroke="hsl(228.5, 77.2%, 51.5%)" stroke-width="1.5"></path><path d="M933.06 73.15L960.63 196.32" stroke="hsl(228.5, 77.2%, 51.5%)" stroke-width="1.5"></path><path d="M960.63 196.32L960.63 196.32" stroke="hsl(228.5, 77.2%, 51.5%)" stroke-width="1.5"></path><path d="M960.63 196.32L1055.35 196.65" stroke="hsl(228.5, 77.2%, 51.5%)" stroke-width="1.5"></path><path d="M960.63 196.32L939.46 294.44" stroke="hsl(228.5, 77.2%, 51.5%)" stroke-width="1.5"></path><path d="M939.46 294.44L939.46 294.44" stroke="hsl(228.5, 77.2%, 51.5%)" stroke-width="1.5"></path><path d="M939.66 424.34L939.66 424.34" stroke="hsl(228.5, 77.2%, 51.5%)" stroke-width="1.5"></path><path d="M939.66 424.34L1053.16 424.91" stroke="hsl(228.5, 77.2%, 51.5%)" stroke-width="1.5"></path><path d="M939.66 424.34L939.46 294.44" stroke="hsl(228.5, 77.2%, 51.5%)" stroke-width="1.5"></path><path d="M939.66 424.34L913.8 591.03" stroke="hsl(228.5, 77.2%, 51.5%)" stroke-width="1.5"></path><path d="M913.8 591.03L913.8 591.03" stroke="hsl(228.5, 77.2%, 51.5%)" stroke-width="1.5"></path><path d="M913.8 591.03L956.34 690.08" stroke="hsl(228.5, 77.2%, 51.5%)" stroke-width="1.5"></path><path d="M956.34 690.08L956.34 690.08" stroke="hsl(228.5, 77.2%, 51.5%)" stroke-width="1.5"></path><path d="M956.34 690.08L1063.72 557.38" stroke="hsl(228.5, 77.2%, 51.5%)" stroke-width="1.5"></path><path d="M956.34 690.08L823.02 559.76" stroke="hsl(228.5, 77.2%, 51.5%)" stroke-width="1.5"></path><path d="M956.34 690.08L823.53 461.52" stroke="hsl(228.5, 77.2%, 51.5%)" stroke-width="1.5"></path><path d="M956.34 690.08L939.66 424.34" stroke="hsl(228.5, 77.2%, 51.5%)" stroke-width="1.5"></path><path d="M1092.7 -91.91L1092.7 -91.91" stroke="hsl(228.5, 77.2%, 51.5%)" stroke-width="1.5"></path><path d="M1092.7 -91.91L1092.29 50.34" stroke="hsl(228.5, 77.2%, 51.5%)" stroke-width="1.5"></path><path d="M1092.7 -91.91L913.03 -76.04" stroke="hsl(228.5, 77.2%, 51.5%)" stroke-width="1.5"></path><path d="M1092.7 -91.91L933.06 73.15" stroke="hsl(228.5, 77.2%, 51.5%)" stroke-width="1.5"></path><path d="M1092.7 -91.91L832.64 -44.48" stroke="hsl(228.5, 77.2%, 51.5%)" stroke-width="1.5"></path><path d="M1092.29 50.34L1092.29 50.34" stroke="hsl(228.5, 77.2%, 51.5%)" stroke-width="1.5"></path><path d="M1092.29 50.34L1055.35 196.65" stroke="hsl(228.5, 77.2%, 51.5%)" stroke-width="1.5"></path><path d="M1092.29 50.34L933.06 73.15" stroke="hsl(228.5, 77.2%, 51.5%)" stroke-width="1.5"></path><path d="M1092.29 50.34L960.63 196.32" stroke="hsl(228.5, 77.2%, 51.5%)" stroke-width="1.5"></path><path d="M1055.35 196.65L1055.35 196.65" stroke="hsl(228.5, 77.2%, 51.5%)" stroke-width="1.5"></path><path d="M1055.35 196.65L939.46 294.44" stroke="hsl(228.5, 77.2%, 51.5%)" stroke-width="1.5"></path><path d="M1055.35 196.65L933.06 73.15" stroke="hsl(228.5, 77.2%, 51.5%)" stroke-width="1.5"></path><path d="M1053.16 424.91L1053.16 424.91" stroke="hsl(228.5, 77.2%, 51.5%)" stroke-width="1.5"></path><path d="M1053.16 424.91L1063.72 557.38" stroke="hsl(228.5, 77.2%, 51.5%)" stroke-width="1.5"></path><path d="M1053.16 424.91L939.46 294.44" stroke="hsl(228.5, 77.2%, 51.5%)" stroke-width="1.5"></path><path d="M1063.72 557.38L1063.72 557.38" stroke="hsl(228.5, 77.2%, 51.5%)" stroke-width="1.5"></path><path d="M1063.72 557.38L913.8 591.03" stroke="hsl(228.5, 77.2%, 51.5%)" stroke-width="1.5"></path><path d="M1063.72 557.38L939.66 424.34" stroke="hsl(228.5, 77.2%, 51.5%)" stroke-width="1.5"></path><circle r="25" cx="-49.22" cy="574.85" fill="url(&quot;#SvgjsRadialGradient1015&quot;)"></circle><circle r="25" cx="218.19" cy="576.25" fill="url(&quot;#SvgjsRadialGradient1015&quot;)"></circle><circle r="25" cx="209.03" cy="715.15" fill="url(&quot;#SvgjsRadialGradient1015&quot;)"></circle><circle r="25" cx="313.79" cy="677.12" fill="url(&quot;#SvgjsRadialGradient1015&quot;)"></circle><circle r="25" cx="430.37" cy="431.21" fill="url(&quot;#SvgjsRadialGradient1015&quot;)"></circle><circle r="25" cx="706.25" cy="294.82" fill="url(&quot;#SvgjsRadialGradient1015&quot;)"></circle><circle r="25" cx="823.53" cy="461.52" fill="url(&quot;#SvgjsRadialGradient1015&quot;)"></circle><circle r="25" cx="823.02" cy="559.76" fill="url(&quot;#SvgjsRadialGradient1015&quot;)"></circle><circle r="25" cx="1046.56" cy="319.39" fill="url(&quot;#SvgjsRadialGradient1015&quot;)"></circle><circle r="5" cx="-32.99" cy="661.49" fill="#8b9ad9"></circle><circle r="5" cx="51.75" cy="565.82" fill="#8b9ad9"></circle><circle r="5" cx="80.36" cy="700.53" fill="#8b9ad9"></circle><circle r="5" cx="329.33" cy="414.88" fill="#8b9ad9"></circle><circle r="5" cx="298.82" cy="557.5" fill="#8b9ad9"></circle><circle r="5" cx="430.72" cy="542.75" fill="#8b9ad9"></circle><circle r="5" cx="444.41" cy="690.73" fill="#8b9ad9"></circle><circle r="5" cx="585.51" cy="327.54" fill="#8b9ad9"></circle><circle r="5" cx="585.43" cy="455.25" fill="#8b9ad9"></circle><circle r="5" cx="554.94" cy="561" fill="#8b9ad9"></circle><circle r="5" cx="546.6" cy="711.87" fill="#8b9ad9"></circle><circle r="5" cx="710.77" cy="468.2" fill="#8b9ad9"></circle><circle r="5" cx="663.32" cy="590.89" fill="#8b9ad9"></circle><circle r="5" cx="659.47" cy="700.48" fill="#8b9ad9"></circle><circle r="5" cx="832.64" cy="-44.48" fill="#8b9ad9"></circle><circle r="5" cx="835.79" cy="59.69" fill="#8b9ad9"></circle><circle r="5" cx="824.05" cy="209.26" fill="#8b9ad9"></circle><circle r="5" cx="823.31" cy="282.34" fill="#8b9ad9"></circle><circle r="5" cx="804.86" cy="683.51" fill="#8b9ad9"></circle><circle r="5" cx="913.03" cy="-76.04" fill="#8b9ad9"></circle><circle r="5" cx="933.06" cy="73.15" fill="#8b9ad9"></circle><circle r="5" cx="960.63" cy="196.32" fill="#8b9ad9"></circle><circle r="5" cx="939.46" cy="294.44" fill="#8b9ad9"></circle><circle r="5" cx="939.66" cy="424.34" fill="#8b9ad9"></circle><circle r="5" cx="913.8" cy="591.03" fill="#8b9ad9"></circle><circle r="5" cx="956.34" cy="690.08" fill="#8b9ad9"></circle><circle r="5" cx="1092.7" cy="-91.91" fill="#8b9ad9"></circle><circle r="5" cx="1092.29" cy="50.34" fill="#8b9ad9"></circle><circle r="5" cx="1055.35" cy="196.65" fill="#8b9ad9"></circle><circle r="5" cx="1053.16" cy="424.91" fill="#8b9ad9"></circle><circle r="5" cx="1063.72" cy="557.38" fill="#8b9ad9"></circle></g><defs><mask id="SvgjsMask1014"><rect width="1000" height="560" fill="#ffffff"></rect></mask><radialGradient id="SvgjsRadialGradient1015"><stop stop-color="#ffffff" offset="0.1"></stop><stop stop-color="#1735b3" offset="0.2"></stop><stop stop-color="rgba(23, 53, 179, 0)" offset="1"></stop></radialGradient></defs></svg>