<svg id="visual" viewBox="0 0 900 600" xmlns="http://www.w3.org/2000/svg" xmlns:xlink="http://www.w3.org/1999/xlink" version="1.1"><path d="M0 91L90 91L90 157L180 157L180 139L270 139L270 175L360 175L360 157L450 157L450 73L540 73L540 133L630 133L630 97L720 97L720 55L810 55L810 79L900 79L900 61L900 0L900 0L810 0L810 0L720 0L720 0L630 0L630 0L540 0L540 0L450 0L450 0L360 0L360 0L270 0L270 0L180 0L180 0L90 0L90 0L0 0Z" fill="#215780"></path><path d="M0 349L90 349L90 403L180 403L180 259L270 259L270 319L360 319L360 325L450 325L450 127L540 127L540 325L630 325L630 337L720 337L720 337L810 337L810 199L900 199L900 235L900 59L900 77L810 77L810 53L720 53L720 95L630 95L630 131L540 131L540 71L450 71L450 155L360 155L360 173L270 173L270 137L180 137L180 155L90 155L90 89L0 89Z" fill="#2d628b"></path><path d="M0 397L90 397L90 463L180 463L180 295L270 295L270 391L360 391L360 379L450 379L450 235L540 235L540 403L630 403L630 391L720 391L720 403L810 403L810 301L900 301L900 289L900 233L900 197L810 197L810 335L720 335L720 335L630 335L630 323L540 323L540 125L450 125L450 323L360 323L360 317L270 317L270 257L180 257L180 401L90 401L90 347L0 347Z" fill="#386d96"></path><path d="M0 493L90 493L90 523L180 523L180 499L270 499L270 547L360 547L360 577L450 577L450 481L540 481L540 481L630 481L630 469L720 469L720 475L810 475L810 565L900 565L900 457L900 287L900 299L810 299L810 401L720 401L720 389L630 389L630 401L540 401L540 233L450 233L450 377L360 377L360 389L270 389L270 293L180 293L180 461L90 461L90 395L0 395Z" fill="#4378a1"></path><path d="M0 601L90 601L90 601L180 601L180 601L270 601L270 601L360 601L360 601L450 601L450 601L540 601L540 601L630 601L630 601L720 601L720 601L810 601L810 601L900 601L900 601L900 455L900 563L810 563L810 473L720 473L720 467L630 467L630 479L540 479L540 479L450 479L450 575L360 575L360 545L270 545L270 497L180 497L180 521L90 521L90 491L0 491Z" fill="#4e84ad"></path></svg>