<svg id="visual" viewBox="0 0 900 600" width="900" height="600" xmlns="http://www.w3.org/2000/svg" xmlns:xlink="http://www.w3.org/1999/xlink" version="1.1"><rect x="0" y="0" width="900" height="600" fill="#5e91b8"></rect><path d="M0 297L82 297L82 341L164 341L164 287L245 287L245 312L327 312L327 296L409 296L409 291L491 291L491 340L573 340L573 300L655 300L655 327L736 327L736 267L818 267L818 266L900 266L900 337L900 601L900 601L818 601L818 601L736 601L736 601L655 601L655 601L573 601L573 601L491 601L491 601L409 601L409 601L327 601L327 601L245 601L245 601L164 601L164 601L82 601L82 601L0 601Z" fill="#158ec2"></path><path d="M0 316L82 316L82 401L164 401L164 342L245 342L245 319L327 319L327 353L409 353L409 327L491 327L491 388L573 388L573 389L655 389L655 323L736 323L736 361L818 361L818 355L900 355L900 375L900 601L900 601L818 601L818 601L736 601L736 601L655 601L655 601L573 601L573 601L491 601L491 601L409 601L409 601L327 601L327 601L245 601L245 601L164 601L164 601L82 601L82 601L0 601Z" fill="#1e7eae"></path><path d="M0 417L82 417L82 428L164 428L164 391L245 391L245 417L327 417L327 378L409 378L409 378L491 378L491 433L573 433L573 380L655 380L655 386L736 386L736 404L818 404L818 394L900 394L900 403L900 601L900 601L818 601L818 601L736 601L736 601L655 601L655 601L573 601L573 601L491 601L491 601L409 601L409 601L327 601L327 601L245 601L245 601L164 601L164 601L82 601L82 601L0 601Z" fill="#226f9b"></path><path d="M0 445L82 445L82 501L164 501L164 458L245 458L245 465L327 465L327 445L409 445L409 460L491 460L491 472L573 472L573 498L655 498L655 466L736 466L736 473L818 473L818 480L900 480L900 492L900 601L900 601L818 601L818 601L736 601L736 601L655 601L655 601L573 601L573 601L491 601L491 601L409 601L409 601L327 601L327 601L245 601L245 601L164 601L164 601L82 601L82 601L0 601Z" fill="#236088"></path><path d="M0 520L82 520L82 534L164 534L164 512L245 512L245 525L327 525L327 533L409 533L409 524L491 524L491 509L573 509L573 531L655 531L655 538L736 538L736 508L818 508L818 540L900 540L900 504L900 601L900 601L818 601L818 601L736 601L736 601L655 601L655 601L573 601L573 601L491 601L491 601L409 601L409 601L327 601L327 601L245 601L245 601L164 601L164 601L82 601L82 601L0 601Z" fill="#225275"></path></svg>