<svg id="visual" viewBox="0 0 900 600" width="900" height="600" xmlns="http://www.w3.org/2000/svg" xmlns:xlink="http://www.w3.org/1999/xlink" version="1.1"><rect x="0" y="0" width="900" height="600" fill="#5e91b8"></rect><path d="M0 326L82 326L82 265L164 265L164 296L245 296L245 291L327 291L327 325L409 325L409 277L491 277L491 276L573 276L573 308L655 308L655 255L736 255L736 274L818 274L818 279L900 279L900 311L900 601L900 601L818 601L818 601L736 601L736 601L655 601L655 601L573 601L573 601L491 601L491 601L409 601L409 601L327 601L327 601L245 601L245 601L164 601L164 601L82 601L82 601L0 601Z" fill="#158ec2"></path><path d="M0 349L82 349L82 325L164 325L164 320L245 320L245 371L327 371L327 316L409 316L409 342L491 342L491 392L573 392L573 401L655 401L655 366L736 366L736 340L818 340L818 392L900 392L900 372L900 601L900 601L818 601L818 601L736 601L736 601L655 601L655 601L573 601L573 601L491 601L491 601L409 601L409 601L327 601L327 601L245 601L245 601L164 601L164 601L82 601L82 601L0 601Z" fill="#1e7eae"></path><path d="M0 412L82 412L82 414L164 414L164 403L245 403L245 401L327 401L327 451L409 451L409 416L491 416L491 392L573 392L573 393L655 393L655 410L736 410L736 441L818 441L818 422L900 422L900 388L900 601L900 601L818 601L818 601L736 601L736 601L655 601L655 601L573 601L573 601L491 601L491 601L409 601L409 601L327 601L327 601L245 601L245 601L164 601L164 601L82 601L82 601L0 601Z" fill="#226f9b"></path><path d="M0 444L82 444L82 494L164 494L164 496L245 496L245 449L327 449L327 475L409 475L409 446L491 446L491 492L573 492L573 456L655 456L655 444L736 444L736 451L818 451L818 458L900 458L900 464L900 601L900 601L818 601L818 601L736 601L736 601L655 601L655 601L573 601L573 601L491 601L491 601L409 601L409 601L327 601L327 601L245 601L245 601L164 601L164 601L82 601L82 601L0 601Z" fill="#236088"></path><path d="M0 523L82 523L82 529L164 529L164 507L245 507L245 551L327 551L327 545L409 545L409 549L491 549L491 536L573 536L573 555L655 555L655 534L736 534L736 526L818 526L818 524L900 524L900 552L900 601L900 601L818 601L818 601L736 601L736 601L655 601L655 601L573 601L573 601L491 601L491 601L409 601L409 601L327 601L327 601L245 601L245 601L164 601L164 601L82 601L82 601L0 601Z" fill="#225275"></path></svg>