<svg id="visual" viewBox="0 0 900 600" width="900" height="600" xmlns="http://www.w3.org/2000/svg" xmlns:xlink="http://www.w3.org/1999/xlink" version="1.1"><rect x="0" y="0" width="900" height="600" fill="#5e91b8"></rect><path d="M0 299L82 299L82 258L164 258L164 299L245 299L245 351L327 351L327 310L409 310L409 258L491 258L491 300L573 300L573 348L655 348L655 282L736 282L736 343L818 343L818 307L900 307L900 293L900 601L900 601L818 601L818 601L736 601L736 601L655 601L655 601L573 601L573 601L491 601L491 601L409 601L409 601L327 601L327 601L245 601L245 601L164 601L164 601L82 601L82 601L0 601Z" fill="#158ec2"></path><path d="M0 358L82 358L82 383L164 383L164 333L245 333L245 361L327 361L327 320L409 320L409 385L491 385L491 341L573 341L573 369L655 369L655 347L736 347L736 391L818 391L818 396L900 396L900 326L900 601L900 601L818 601L818 601L736 601L736 601L655 601L655 601L573 601L573 601L491 601L491 601L409 601L409 601L327 601L327 601L245 601L245 601L164 601L164 601L82 601L82 601L0 601Z" fill="#1e7eae"></path><path d="M0 437L82 437L82 420L164 420L164 426L245 426L245 449L327 449L327 413L409 413L409 419L491 419L491 384L573 384L573 423L655 423L655 417L736 417L736 429L818 429L818 390L900 390L900 437L900 601L900 601L818 601L818 601L736 601L736 601L655 601L655 601L573 601L573 601L491 601L491 601L409 601L409 601L327 601L327 601L245 601L245 601L164 601L164 601L82 601L82 601L0 601Z" fill="#226f9b"></path><path d="M0 459L82 459L82 501L164 501L164 464L245 464L245 483L327 483L327 489L409 489L409 474L491 474L491 504L573 504L573 507L655 507L655 448L736 448L736 459L818 459L818 441L900 441L900 492L900 601L900 601L818 601L818 601L736 601L736 601L655 601L655 601L573 601L573 601L491 601L491 601L409 601L409 601L327 601L327 601L245 601L245 601L164 601L164 601L82 601L82 601L0 601Z" fill="#236088"></path><path d="M0 505L82 505L82 546L164 546L164 533L245 533L245 504L327 504L327 541L409 541L409 505L491 505L491 555L573 555L573 526L655 526L655 503L736 503L736 532L818 532L818 502L900 502L900 528L900 601L900 601L818 601L818 601L736 601L736 601L655 601L655 601L573 601L573 601L491 601L491 601L409 601L409 601L327 601L327 601L245 601L245 601L164 601L164 601L82 601L82 601L0 601Z" fill="#225275"></path></svg>