<svg xmlns="http://www.w3.org/2000/svg" version="1.1" xmlns:xlink="http://www.w3.org/1999/xlink" xmlns:svgjs="http://svgjs.dev/svgjs" width="1000" height="560" preserveAspectRatio="none" viewBox="0 0 1000 560"><g mask="url(&quot;#SvgjsMask1020&quot;)" fill="none"><rect width="1000" height="560" x="0" y="0" fill="#0e2a47"></rect><path d="M-62.93 334.76L-62.93 334.76" stroke="#132e65" stroke-width="1.5"></path><path d="M-62.93 334.76L-37.15 466.2" stroke="#132e65" stroke-width="1.5"></path><path d="M-62.93 334.76L46.97 421.47" stroke="#132e65" stroke-width="1.5"></path><path d="M-37.15 466.2L-37.15 466.2" stroke="#132e65" stroke-width="1.5"></path><path d="M-37.15 466.2L46.97 421.47" stroke="#132e65" stroke-width="1.5"></path><path d="M-37.15 466.2L-39.06 564.94" stroke="#132e65" stroke-width="1.5"></path><path d="M-37.15 466.2L38.72 559.08" stroke="#132e65" stroke-width="1.5"></path><path d="M-39.06 564.94L-39.06 564.94" stroke="#132e65" stroke-width="1.5"></path><path d="M-39.06 564.94L38.72 559.08" stroke="#132e65" stroke-width="1.5"></path><path d="M-39.06 564.94L46.97 421.47" stroke="#132e65" stroke-width="1.5"></path><path d="M-39.06 564.94L164.29 539.09" stroke="#132e65" stroke-width="1.5"></path><path d="M-39.06 564.94L-62.93 334.76" stroke="#132e65" stroke-width="1.5"></path><path d="M46.97 421.47L46.97 421.47" stroke="#132e65" stroke-width="1.5"></path><path d="M46.97 421.47L172.35 450.21" stroke="#132e65" stroke-width="1.5"></path><path d="M46.97 421.47L38.72 559.08" stroke="#132e65" stroke-width="1.5"></path><path d="M38.72 559.08L38.72 559.08" stroke="#132e65" stroke-width="1.5"></path><path d="M38.72 559.08L164.29 539.09" stroke="#132e65" stroke-width="1.5"></path><path d="M38.72 559.08L172.35 450.21" stroke="#132e65" stroke-width="1.5"></path><path d="M172.35 450.21L172.35 450.21" stroke="#132e65" stroke-width="1.5"></path><path d="M172.35 450.21L164.29 539.09" stroke="#132e65" stroke-width="1.5"></path><path d="M164.29 539.09L164.29 539.09" stroke="#132e65" stroke-width="1.5"></path><path d="M334.45 302.52L334.45 302.52" stroke="#132e65" stroke-width="1.5"></path><path d="M334.45 302.52L425.54 288.62" stroke="#132e65" stroke-width="1.5"></path><path d="M334.45 302.52L305.53 422.97" stroke="#132e65" stroke-width="1.5"></path><path d="M334.45 302.52L446.07 429.91" stroke="#132e65" stroke-width="1.5"></path><path d="M334.45 302.52L172.35 450.21" stroke="#132e65" stroke-width="1.5"></path><path d="M305.53 422.97L305.53 422.97" stroke="#132e65" stroke-width="1.5"></path><path d="M305.53 422.97L311.55 534.45" stroke="#132e65" stroke-width="1.5"></path><path d="M311.55 534.45L311.55 534.45" stroke="#132e65" stroke-width="1.5"></path><path d="M311.55 534.45L423.25 545.88" stroke="#132e65" stroke-width="1.5"></path><path d="M311.55 534.45L164.29 539.09" stroke="#132e65" stroke-width="1.5"></path><path d="M311.55 534.45L334.62 693.25" stroke="#132e65" stroke-width="1.5"></path><path d="M311.55 534.45L172.35 450.21" stroke="#132e65" stroke-width="1.5"></path><path d="M311.55 534.45L446.07 429.91" stroke="#132e65" stroke-width="1.5"></path><path d="M334.62 693.25L334.62 693.25" stroke="#132e65" stroke-width="1.5"></path><path d="M334.62 693.25L417.78 700.77" stroke="#132e65" stroke-width="1.5"></path><path d="M334.62 693.25L423.25 545.88" stroke="#132e65" stroke-width="1.5"></path><path d="M425.54 288.62L425.54 288.62" stroke="#132e65" stroke-width="1.5"></path><path d="M425.54 288.62L446.07 429.91" stroke="#132e65" stroke-width="1.5"></path><path d="M425.54 288.62L559.77 171.52" stroke="#132e65" stroke-width="1.5"></path><path d="M425.54 288.62L305.53 422.97" stroke="#132e65" stroke-width="1.5"></path><path d="M446.07 429.91L446.07 429.91" stroke="#132e65" stroke-width="1.5"></path><path d="M446.07 429.91L423.25 545.88" stroke="#132e65" stroke-width="1.5"></path><path d="M446.07 429.91L305.53 422.97" stroke="#132e65" stroke-width="1.5"></path><path d="M423.25 545.88L423.25 545.88" stroke="#132e65" stroke-width="1.5"></path><path d="M423.25 545.88L562.43 574.43" stroke="#132e65" stroke-width="1.5"></path><path d="M417.78 700.77L417.78 700.77" stroke="#132e65" stroke-width="1.5"></path><path d="M417.78 700.77L423.25 545.88" stroke="#132e65" stroke-width="1.5"></path><path d="M417.78 700.77L593.39 703.93" stroke="#132e65" stroke-width="1.5"></path><path d="M417.78 700.77L562.43 574.43" stroke="#132e65" stroke-width="1.5"></path><path d="M417.78 700.77L311.55 534.45" stroke="#132e65" stroke-width="1.5"></path><path d="M559.77 171.52L559.77 171.52" stroke="#132e65" stroke-width="1.5"></path><path d="M559.77 171.52L702.3 190.72" stroke="#132e65" stroke-width="1.5"></path><path d="M559.77 171.52L666.36 51.29" stroke="#132e65" stroke-width="1.5"></path><path d="M559.77 171.52L671.63 297.69" stroke="#132e65" stroke-width="1.5"></path><path d="M559.77 171.52L788.14 184.23" stroke="#132e65" stroke-width="1.5"></path><path d="M559.77 171.52L691.07 -47.43" stroke="#132e65" stroke-width="1.5"></path><path d="M562.43 574.43L562.43 574.43" stroke="#132e65" stroke-width="1.5"></path><path d="M562.43 574.43L681.73 547.84" stroke="#132e65" stroke-width="1.5"></path><path d="M562.43 574.43L593.39 703.93" stroke="#132e65" stroke-width="1.5"></path><path d="M593.39 703.93L593.39 703.93" stroke="#132e65" stroke-width="1.5"></path><path d="M593.39 703.93L683 710.48" stroke="#132e65" stroke-width="1.5"></path><path d="M593.39 703.93L681.73 547.84" stroke="#132e65" stroke-width="1.5"></path><path d="M593.39 703.93L423.25 545.88" stroke="#132e65" stroke-width="1.5"></path><path d="M593.39 703.93L842.48 706.7" stroke="#132e65" stroke-width="1.5"></path><path d="M691.07 -47.43L691.07 -47.43" stroke="#132e65" stroke-width="1.5"></path><path d="M691.07 -47.43L666.36 51.29" stroke="#132e65" stroke-width="1.5"></path><path d="M691.07 -47.43L819.67 -39.67" stroke="#132e65" stroke-width="1.5"></path><path d="M666.36 51.29L666.36 51.29" stroke="#132e65" stroke-width="1.5"></path><path d="M666.36 51.29L702.3 190.72" stroke="#132e65" stroke-width="1.5"></path><path d="M666.36 51.29L819.57 58.45" stroke="#132e65" stroke-width="1.5"></path><path d="M666.36 51.29L819.67 -39.67" stroke="#132e65" stroke-width="1.5"></path><path d="M702.3 190.72L702.3 190.72" stroke="#132e65" stroke-width="1.5"></path><path d="M702.3 190.72L788.14 184.23" stroke="#132e65" stroke-width="1.5"></path><path d="M702.3 190.72L671.63 297.69" stroke="#132e65" stroke-width="1.5"></path><path d="M671.63 297.69L671.63 297.69" stroke="#132e65" stroke-width="1.5"></path><path d="M671.63 297.69L787.43 312.71" stroke="#132e65" stroke-width="1.5"></path><path d="M671.63 297.69L671.62 423.16" stroke="#132e65" stroke-width="1.5"></path><path d="M671.62 423.16L671.62 423.16" stroke="#132e65" stroke-width="1.5"></path><path d="M671.62 423.16L785.2 435.18" stroke="#132e65" stroke-width="1.5"></path><path d="M671.62 423.16L681.73 547.84" stroke="#132e65" stroke-width="1.5"></path><path d="M681.73 547.84L681.73 547.84" stroke="#132e65" stroke-width="1.5"></path><path d="M683 710.48L683 710.48" stroke="#132e65" stroke-width="1.5"></path><path d="M683 710.48L842.48 706.7" stroke="#132e65" stroke-width="1.5"></path><path d="M683 710.48L681.73 547.84" stroke="#132e65" stroke-width="1.5"></path><path d="M683 710.48L562.43 574.43" stroke="#132e65" stroke-width="1.5"></path><path d="M683 710.48L815.11 537.3" stroke="#132e65" stroke-width="1.5"></path><path d="M819.67 -39.67L819.67 -39.67" stroke="#132e65" stroke-width="1.5"></path><path d="M819.67 -39.67L819.57 58.45" stroke="#132e65" stroke-width="1.5"></path><path d="M819.67 -39.67L944.68 -50.67" stroke="#132e65" stroke-width="1.5"></path><path d="M819.67 -39.67L922.92 57.73" stroke="#132e65" stroke-width="1.5"></path><path d="M819.67 -39.67L788.14 184.23" stroke="#132e65" stroke-width="1.5"></path><path d="M819.57 58.45L819.57 58.45" stroke="#132e65" stroke-width="1.5"></path><path d="M819.57 58.45L922.92 57.73" stroke="#132e65" stroke-width="1.5"></path><path d="M819.57 58.45L788.14 184.23" stroke="#132e65" stroke-width="1.5"></path><path d="M819.57 58.45L944.68 -50.67" stroke="#132e65" stroke-width="1.5"></path><path d="M788.14 184.23L788.14 184.23" stroke="#132e65" stroke-width="1.5"></path><path d="M788.14 184.23L787.43 312.71" stroke="#132e65" stroke-width="1.5"></path><path d="M788.14 184.23L943.11 203.51" stroke="#132e65" stroke-width="1.5"></path><path d="M787.43 312.71L787.43 312.71" stroke="#132e65" stroke-width="1.5"></path><path d="M787.43 312.71L785.2 435.18" stroke="#132e65" stroke-width="1.5"></path><path d="M787.43 312.71L702.3 190.72" stroke="#132e65" stroke-width="1.5"></path><path d="M785.2 435.18L785.2 435.18" stroke="#132e65" stroke-width="1.5"></path><path d="M785.2 435.18L815.11 537.3" stroke="#132e65" stroke-width="1.5"></path><path d="M815.11 537.3L815.11 537.3" stroke="#132e65" stroke-width="1.5"></path><path d="M815.11 537.3L909.87 536.61" stroke="#132e65" stroke-width="1.5"></path><path d="M842.48 706.7L842.48 706.7" stroke="#132e65" stroke-width="1.5"></path><path d="M842.48 706.7L924.34 703.93" stroke="#132e65" stroke-width="1.5"></path><path d="M944.68 -50.67L944.68 -50.67" stroke="#132e65" stroke-width="1.5"></path><path d="M944.68 -50.67L1052.21 -57.35" stroke="#132e65" stroke-width="1.5"></path><path d="M944.68 -50.67L922.92 57.73" stroke="#132e65" stroke-width="1.5"></path><path d="M922.92 57.73L922.92 57.73" stroke="#132e65" stroke-width="1.5"></path><path d="M922.92 57.73L943.11 203.51" stroke="#132e65" stroke-width="1.5"></path><path d="M922.92 57.73L1069.89 35.5" stroke="#132e65" stroke-width="1.5"></path><path d="M922.92 57.73L1052.21 -57.35" stroke="#132e65" stroke-width="1.5"></path><path d="M943.11 203.51L943.11 203.51" stroke="#132e65" stroke-width="1.5"></path><path d="M943.11 203.51L955.85 281.9" stroke="#132e65" stroke-width="1.5"></path><path d="M943.11 203.51L1042.46 305.69" stroke="#132e65" stroke-width="1.5"></path><path d="M943.11 203.51L1088.74 209.11" stroke="#132e65" stroke-width="1.5"></path><path d="M955.85 281.9L955.85 281.9" stroke="#132e65" stroke-width="1.5"></path><path d="M955.85 281.9L1042.46 305.69" stroke="#132e65" stroke-width="1.5"></path><path d="M916.61 442.15L916.61 442.15" stroke="#132e65" stroke-width="1.5"></path><path d="M916.61 442.15L909.87 536.61" stroke="#132e65" stroke-width="1.5"></path><path d="M916.61 442.15L1040.97 467.31" stroke="#132e65" stroke-width="1.5"></path><path d="M916.61 442.15L785.2 435.18" stroke="#132e65" stroke-width="1.5"></path><path d="M916.61 442.15L815.11 537.3" stroke="#132e65" stroke-width="1.5"></path><path d="M916.61 442.15L955.85 281.9" stroke="#132e65" stroke-width="1.5"></path><path d="M916.61 442.15L787.43 312.71" stroke="#132e65" stroke-width="1.5"></path><path d="M909.87 536.61L909.87 536.61" stroke="#132e65" stroke-width="1.5"></path><path d="M924.34 703.93L924.34 703.93" stroke="#132e65" stroke-width="1.5"></path><path d="M924.34 703.93L909.87 536.61" stroke="#132e65" stroke-width="1.5"></path><path d="M924.34 703.93L1093.1 661.67" stroke="#132e65" stroke-width="1.5"></path><path d="M924.34 703.93L815.11 537.3" stroke="#132e65" stroke-width="1.5"></path><path d="M924.34 703.93L1092.26 552.04" stroke="#132e65" stroke-width="1.5"></path><path d="M1052.21 -57.35L1052.21 -57.35" stroke="#132e65" stroke-width="1.5"></path><path d="M1052.21 -57.35L1069.89 35.5" stroke="#132e65" stroke-width="1.5"></path><path d="M1052.21 -57.35L819.67 -39.67" stroke="#132e65" stroke-width="1.5"></path><path d="M1052.21 -57.35L819.57 58.45" stroke="#132e65" stroke-width="1.5"></path><path d="M1052.21 -57.35L1088.74 209.11" stroke="#132e65" stroke-width="1.5"></path><path d="M1069.89 35.5L1069.89 35.5" stroke="#132e65" stroke-width="1.5"></path><path d="M1069.89 35.5L944.68 -50.67" stroke="#132e65" stroke-width="1.5"></path><path d="M1088.74 209.11L1088.74 209.11" stroke="#132e65" stroke-width="1.5"></path><path d="M1088.74 209.11L1042.46 305.69" stroke="#132e65" stroke-width="1.5"></path><path d="M1088.74 209.11L955.85 281.9" stroke="#132e65" stroke-width="1.5"></path><path d="M1088.74 209.11L1069.89 35.5" stroke="#132e65" stroke-width="1.5"></path><path d="M1042.46 305.69L1042.46 305.69" stroke="#132e65" stroke-width="1.5"></path><path d="M1040.97 467.31L1040.97 467.31" stroke="#132e65" stroke-width="1.5"></path><path d="M1040.97 467.31L1092.26 552.04" stroke="#132e65" stroke-width="1.5"></path><path d="M1040.97 467.31L909.87 536.61" stroke="#132e65" stroke-width="1.5"></path><path d="M1040.97 467.31L1042.46 305.69" stroke="#132e65" stroke-width="1.5"></path><path d="M1040.97 467.31L1093.1 661.67" stroke="#132e65" stroke-width="1.5"></path><path d="M1092.26 552.04L1092.26 552.04" stroke="#132e65" stroke-width="1.5"></path><path d="M1092.26 552.04L1093.1 661.67" stroke="#132e65" stroke-width="1.5"></path><path d="M1092.26 552.04L909.87 536.61" stroke="#132e65" stroke-width="1.5"></path><path d="M1092.26 552.04L916.61 442.15" stroke="#132e65" stroke-width="1.5"></path><path d="M1093.1 661.67L1093.1 661.67" stroke="#132e65" stroke-width="1.5"></path><circle r="5" cx="-62.93" cy="334.76" fill="#132e65"></circle><circle r="5" cx="-37.15" cy="466.2" fill="#132e65"></circle><circle r="5" cx="-39.06" cy="564.94" fill="#132e65"></circle><circle r="5" cx="46.97" cy="421.47" fill="#132e65"></circle><circle r="5" cx="38.72" cy="559.08" fill="#132e65"></circle><circle r="5" cx="172.35" cy="450.21" fill="#132e65"></circle><circle r="5" cx="164.29" cy="539.09" fill="#132e65"></circle><circle r="5" cx="334.45" cy="302.52" fill="#132e65"></circle><circle r="5" cx="305.53" cy="422.97" fill="#132e65"></circle><circle r="5" cx="311.55" cy="534.45" fill="#132e65"></circle><circle r="5" cx="334.62" cy="693.25" fill="#132e65"></circle><circle r="5" cx="425.54" cy="288.62" fill="#132e65"></circle><circle r="5" cx="446.07" cy="429.91" fill="#132e65"></circle><circle r="5" cx="423.25" cy="545.88" fill="#132e65"></circle><circle r="5" cx="417.78" cy="700.77" fill="#132e65"></circle><circle r="5" cx="559.77" cy="171.52" fill="#132e65"></circle><circle r="5" cx="562.43" cy="574.43" fill="#132e65"></circle><circle r="5" cx="593.39" cy="703.93" fill="#132e65"></circle><circle r="5" cx="691.07" cy="-47.43" fill="#132e65"></circle><circle r="5" cx="666.36" cy="51.29" fill="#132e65"></circle><circle r="5" cx="702.3" cy="190.72" fill="#132e65"></circle><circle r="5" cx="671.63" cy="297.69" fill="#132e65"></circle><circle r="5" cx="671.62" cy="423.16" fill="#132e65"></circle><circle r="5" cx="681.73" cy="547.84" fill="#132e65"></circle><circle r="5" cx="683" cy="710.48" fill="#132e65"></circle><circle r="5" cx="819.67" cy="-39.67" fill="#132e65"></circle><circle r="5" cx="819.57" cy="58.45" fill="#132e65"></circle><circle r="5" cx="788.14" cy="184.23" fill="#132e65"></circle><circle r="5" cx="787.43" cy="312.71" fill="#132e65"></circle><circle r="5" cx="785.2" cy="435.18" fill="#132e65"></circle><circle r="5" cx="815.11" cy="537.3" fill="#132e65"></circle><circle r="5" cx="842.48" cy="706.7" fill="#132e65"></circle><circle r="5" cx="944.68" cy="-50.67" fill="#132e65"></circle><circle r="5" cx="922.92" cy="57.73" fill="#132e65"></circle><circle r="5" cx="943.11" cy="203.51" fill="#132e65"></circle><circle r="5" cx="955.85" cy="281.9" fill="#132e65"></circle><circle r="5" cx="916.61" cy="442.15" fill="#132e65"></circle><circle r="5" cx="909.87" cy="536.61" fill="#132e65"></circle><circle r="5" cx="924.34" cy="703.93" fill="#132e65"></circle><circle r="5" cx="1052.21" cy="-57.35" fill="#132e65"></circle><circle r="5" cx="1069.89" cy="35.5" fill="#132e65"></circle><circle r="5" cx="1088.74" cy="209.11" fill="#132e65"></circle><circle r="5" cx="1042.46" cy="305.69" fill="#132e65"></circle><circle r="5" cx="1040.97" cy="467.31" fill="#132e65"></circle><circle r="5" cx="1092.26" cy="552.04" fill="#132e65"></circle><circle r="5" cx="1093.1" cy="661.67" fill="#132e65"></circle><path d="M-49.65 659.48L-49.65 659.48" stroke="hsl(228.5, 77.2%, 51.5%)" stroke-width="1.5"></path><path d="M-49.65 659.48L-58.54 559.28" stroke="hsl(228.5, 77.2%, 51.5%)" stroke-width="1.5"></path><path d="M-49.65 659.48L52.02 698.34" stroke="hsl(228.5, 77.2%, 51.5%)" stroke-width="1.5"></path><path d="M-49.65 659.48L75.18 575.9" stroke="hsl(228.5, 77.2%, 51.5%)" stroke-width="1.5"></path><path d="M-49.65 659.48L197.25 546.52" stroke="hsl(228.5, 77.2%, 51.5%)" stroke-width="1.5"></path><path d="M75.18 575.9L75.18 575.9" stroke="hsl(228.5, 77.2%, 51.5%)" stroke-width="1.5"></path><path d="M75.18 575.9L52.02 698.34" stroke="hsl(228.5, 77.2%, 51.5%)" stroke-width="1.5"></path><path d="M75.18 575.9L197.25 546.52" stroke="hsl(228.5, 77.2%, 51.5%)" stroke-width="1.5"></path><path d="M75.18 575.9L-58.54 559.28" stroke="hsl(228.5, 77.2%, 51.5%)" stroke-width="1.5"></path><path d="M52.02 698.34L52.02 698.34" stroke="hsl(228.5, 77.2%, 51.5%)" stroke-width="1.5"></path><path d="M306.74 438.53L306.74 438.53" stroke="hsl(228.5, 77.2%, 51.5%)" stroke-width="1.5"></path><path d="M306.74 438.53L166.65 441.16" stroke="hsl(228.5, 77.2%, 51.5%)" stroke-width="1.5"></path><path d="M306.74 438.53L313.14 589.62" stroke="hsl(228.5, 77.2%, 51.5%)" stroke-width="1.5"></path><path d="M306.74 438.53L197.25 546.52" stroke="hsl(228.5, 77.2%, 51.5%)" stroke-width="1.5"></path><path d="M313.14 589.62L313.14 589.62" stroke="hsl(228.5, 77.2%, 51.5%)" stroke-width="1.5"></path><path d="M313.14 589.62L323.11 688.09" stroke="hsl(228.5, 77.2%, 51.5%)" stroke-width="1.5"></path><path d="M313.14 589.62L197.25 546.52" stroke="hsl(228.5, 77.2%, 51.5%)" stroke-width="1.5"></path><path d="M313.14 589.62L464.75 685.46" stroke="hsl(228.5, 77.2%, 51.5%)" stroke-width="1.5"></path><path d="M929.42 209.25L929.42 209.25" stroke="hsl(228.5, 77.2%, 51.5%)" stroke-width="1.5"></path><path d="M929.42 209.25L827.77 178.26" stroke="hsl(228.5, 77.2%, 51.5%)" stroke-width="1.5"></path><path d="M929.42 209.25L930 317.35" stroke="hsl(228.5, 77.2%, 51.5%)" stroke-width="1.5"></path><path d="M929.42 209.25L1040.69 209.21" stroke="hsl(228.5, 77.2%, 51.5%)" stroke-width="1.5"></path><path d="M929.42 209.25L1033.35 286.61" stroke="hsl(228.5, 77.2%, 51.5%)" stroke-width="1.5"></path><path d="M938.22 679.57L938.22 679.57" stroke="hsl(228.5, 77.2%, 51.5%)" stroke-width="1.5"></path><path d="M938.22 679.57L932.42 591.84" stroke="hsl(228.5, 77.2%, 51.5%)" stroke-width="1.5"></path><path d="M938.22 679.57L839.58 697.38" stroke="hsl(228.5, 77.2%, 51.5%)" stroke-width="1.5"></path><path d="M1053.1 -44.69L1053.1 -44.69" stroke="hsl(228.5, 77.2%, 51.5%)" stroke-width="1.5"></path><path d="M1053.1 -44.69L967.05 -43.91" stroke="hsl(228.5, 77.2%, 51.5%)" stroke-width="1.5"></path><path d="M1053.1 -44.69L1043.47 61.81" stroke="hsl(228.5, 77.2%, 51.5%)" stroke-width="1.5"></path><path d="M-58.54 559.28L-58.54 559.28" stroke="hsl(228.5, 77.2%, 51.5%)" stroke-width="1.5"></path><path d="M-58.54 559.28L52.02 698.34" stroke="hsl(228.5, 77.2%, 51.5%)" stroke-width="1.5"></path><path d="M166.65 441.16L166.65 441.16" stroke="hsl(228.5, 77.2%, 51.5%)" stroke-width="1.5"></path><path d="M166.65 441.16L197.25 546.52" stroke="hsl(228.5, 77.2%, 51.5%)" stroke-width="1.5"></path><path d="M166.65 441.16L75.18 575.9" stroke="hsl(228.5, 77.2%, 51.5%)" stroke-width="1.5"></path><path d="M166.65 441.16L313.14 589.62" stroke="hsl(228.5, 77.2%, 51.5%)" stroke-width="1.5"></path><path d="M197.25 546.52L197.25 546.52" stroke="hsl(228.5, 77.2%, 51.5%)" stroke-width="1.5"></path><path d="M323.11 688.09L323.11 688.09" stroke="hsl(228.5, 77.2%, 51.5%)" stroke-width="1.5"></path><path d="M323.11 688.09L464.75 685.46" stroke="hsl(228.5, 77.2%, 51.5%)" stroke-width="1.5"></path><path d="M323.11 688.09L197.25 546.52" stroke="hsl(228.5, 77.2%, 51.5%)" stroke-width="1.5"></path><path d="M323.11 688.09L553.44 697.42" stroke="hsl(228.5, 77.2%, 51.5%)" stroke-width="1.5"></path><path d="M323.11 688.09L306.74 438.53" stroke="hsl(228.5, 77.2%, 51.5%)" stroke-width="1.5"></path><path d="M464.75 685.46L464.75 685.46" stroke="hsl(228.5, 77.2%, 51.5%)" stroke-width="1.5"></path><path d="M464.75 685.46L553.44 697.42" stroke="hsl(228.5, 77.2%, 51.5%)" stroke-width="1.5"></path><path d="M586.6 315.56L586.6 315.56" stroke="hsl(228.5, 77.2%, 51.5%)" stroke-width="1.5"></path><path d="M586.6 315.56L711.59 338.57" stroke="hsl(228.5, 77.2%, 51.5%)" stroke-width="1.5"></path><path d="M579.14 450.08L579.14 450.08" stroke="hsl(228.5, 77.2%, 51.5%)" stroke-width="1.5"></path><path d="M579.14 450.08L548.73 533.93" stroke="hsl(228.5, 77.2%, 51.5%)" stroke-width="1.5"></path><path d="M579.14 450.08L675.58 419.96" stroke="hsl(228.5, 77.2%, 51.5%)" stroke-width="1.5"></path><path d="M548.73 533.93L548.73 533.93" stroke="hsl(228.5, 77.2%, 51.5%)" stroke-width="1.5"></path><path d="M548.73 533.93L699.84 551.78" stroke="hsl(228.5, 77.2%, 51.5%)" stroke-width="1.5"></path><path d="M548.73 533.93L553.44 697.42" stroke="hsl(228.5, 77.2%, 51.5%)" stroke-width="1.5"></path><path d="M548.73 533.93L675.58 419.96" stroke="hsl(228.5, 77.2%, 51.5%)" stroke-width="1.5"></path><path d="M548.73 533.93L464.75 685.46" stroke="hsl(228.5, 77.2%, 51.5%)" stroke-width="1.5"></path><path d="M548.73 533.93L586.6 315.56" stroke="hsl(228.5, 77.2%, 51.5%)" stroke-width="1.5"></path><path d="M553.44 697.42L553.44 697.42" stroke="hsl(228.5, 77.2%, 51.5%)" stroke-width="1.5"></path><path d="M553.44 697.42L706.6 709.64" stroke="hsl(228.5, 77.2%, 51.5%)" stroke-width="1.5"></path><path d="M553.44 697.42L699.84 551.78" stroke="hsl(228.5, 77.2%, 51.5%)" stroke-width="1.5"></path><path d="M711.59 338.57L711.59 338.57" stroke="hsl(228.5, 77.2%, 51.5%)" stroke-width="1.5"></path><path d="M711.59 338.57L675.58 419.96" stroke="hsl(228.5, 77.2%, 51.5%)" stroke-width="1.5"></path><path d="M711.59 338.57L830.7 293.92" stroke="hsl(228.5, 77.2%, 51.5%)" stroke-width="1.5"></path><path d="M675.58 419.96L675.58 419.96" stroke="hsl(228.5, 77.2%, 51.5%)" stroke-width="1.5"></path><path d="M699.84 551.78L699.84 551.78" stroke="hsl(228.5, 77.2%, 51.5%)" stroke-width="1.5"></path><path d="M699.84 551.78L830.48 556.85" stroke="hsl(228.5, 77.2%, 51.5%)" stroke-width="1.5"></path><path d="M699.84 551.78L675.58 419.96" stroke="hsl(228.5, 77.2%, 51.5%)" stroke-width="1.5"></path><path d="M699.84 551.78L579.14 450.08" stroke="hsl(228.5, 77.2%, 51.5%)" stroke-width="1.5"></path><path d="M699.84 551.78L706.6 709.64" stroke="hsl(228.5, 77.2%, 51.5%)" stroke-width="1.5"></path><path d="M706.6 709.64L706.6 709.64" stroke="hsl(228.5, 77.2%, 51.5%)" stroke-width="1.5"></path><path d="M706.6 709.64L839.58 697.38" stroke="hsl(228.5, 77.2%, 51.5%)" stroke-width="1.5"></path><path d="M810.66 46.25L810.66 46.25" stroke="hsl(228.5, 77.2%, 51.5%)" stroke-width="1.5"></path><path d="M810.66 46.25L940.01 63.8" stroke="hsl(228.5, 77.2%, 51.5%)" stroke-width="1.5"></path><path d="M810.66 46.25L827.77 178.26" stroke="hsl(228.5, 77.2%, 51.5%)" stroke-width="1.5"></path><path d="M810.66 46.25L967.05 -43.91" stroke="hsl(228.5, 77.2%, 51.5%)" stroke-width="1.5"></path><path d="M827.77 178.26L827.77 178.26" stroke="hsl(228.5, 77.2%, 51.5%)" stroke-width="1.5"></path><path d="M827.77 178.26L830.7 293.92" stroke="hsl(228.5, 77.2%, 51.5%)" stroke-width="1.5"></path><path d="M827.77 178.26L940.01 63.8" stroke="hsl(228.5, 77.2%, 51.5%)" stroke-width="1.5"></path><path d="M830.7 293.92L830.7 293.92" stroke="hsl(228.5, 77.2%, 51.5%)" stroke-width="1.5"></path><path d="M830.7 293.92L930 317.35" stroke="hsl(228.5, 77.2%, 51.5%)" stroke-width="1.5"></path><path d="M830.7 293.92L929.42 209.25" stroke="hsl(228.5, 77.2%, 51.5%)" stroke-width="1.5"></path><path d="M830.7 293.92L835.76 430.44" stroke="hsl(228.5, 77.2%, 51.5%)" stroke-width="1.5"></path><path d="M830.7 293.92L675.58 419.96" stroke="hsl(228.5, 77.2%, 51.5%)" stroke-width="1.5"></path><path d="M835.76 430.44L835.76 430.44" stroke="hsl(228.5, 77.2%, 51.5%)" stroke-width="1.5"></path><path d="M835.76 430.44L830.48 556.85" stroke="hsl(228.5, 77.2%, 51.5%)" stroke-width="1.5"></path><path d="M835.76 430.44L930 317.35" stroke="hsl(228.5, 77.2%, 51.5%)" stroke-width="1.5"></path><path d="M835.76 430.44L711.59 338.57" stroke="hsl(228.5, 77.2%, 51.5%)" stroke-width="1.5"></path><path d="M835.76 430.44L675.58 419.96" stroke="hsl(228.5, 77.2%, 51.5%)" stroke-width="1.5"></path><path d="M830.48 556.85L830.48 556.85" stroke="hsl(228.5, 77.2%, 51.5%)" stroke-width="1.5"></path><path d="M830.48 556.85L932.42 591.84" stroke="hsl(228.5, 77.2%, 51.5%)" stroke-width="1.5"></path><path d="M839.58 697.38L839.58 697.38" stroke="hsl(228.5, 77.2%, 51.5%)" stroke-width="1.5"></path><path d="M839.58 697.38L932.42 591.84" stroke="hsl(228.5, 77.2%, 51.5%)" stroke-width="1.5"></path><path d="M967.05 -43.91L967.05 -43.91" stroke="hsl(228.5, 77.2%, 51.5%)" stroke-width="1.5"></path><path d="M967.05 -43.91L940.01 63.8" stroke="hsl(228.5, 77.2%, 51.5%)" stroke-width="1.5"></path><path d="M967.05 -43.91L1043.47 61.81" stroke="hsl(228.5, 77.2%, 51.5%)" stroke-width="1.5"></path><path d="M967.05 -43.91L929.42 209.25" stroke="hsl(228.5, 77.2%, 51.5%)" stroke-width="1.5"></path><path d="M940.01 63.8L940.01 63.8" stroke="hsl(228.5, 77.2%, 51.5%)" stroke-width="1.5"></path><path d="M940.01 63.8L1043.47 61.81" stroke="hsl(228.5, 77.2%, 51.5%)" stroke-width="1.5"></path><path d="M940.01 63.8L929.42 209.25" stroke="hsl(228.5, 77.2%, 51.5%)" stroke-width="1.5"></path><path d="M940.01 63.8L1053.1 -44.69" stroke="hsl(228.5, 77.2%, 51.5%)" stroke-width="1.5"></path><path d="M930 317.35L930 317.35" stroke="hsl(228.5, 77.2%, 51.5%)" stroke-width="1.5"></path><path d="M930 317.35L1033.35 286.61" stroke="hsl(228.5, 77.2%, 51.5%)" stroke-width="1.5"></path><path d="M930 317.35L1040.69 209.21" stroke="hsl(228.5, 77.2%, 51.5%)" stroke-width="1.5"></path><path d="M930 317.35L1059.44 430.88" stroke="hsl(228.5, 77.2%, 51.5%)" stroke-width="1.5"></path><path d="M932.42 591.84L932.42 591.84" stroke="hsl(228.5, 77.2%, 51.5%)" stroke-width="1.5"></path><path d="M1043.47 61.81L1043.47 61.81" stroke="hsl(228.5, 77.2%, 51.5%)" stroke-width="1.5"></path><path d="M1043.47 61.81L1040.69 209.21" stroke="hsl(228.5, 77.2%, 51.5%)" stroke-width="1.5"></path><path d="M1043.47 61.81L929.42 209.25" stroke="hsl(228.5, 77.2%, 51.5%)" stroke-width="1.5"></path><path d="M1043.47 61.81L1033.35 286.61" stroke="hsl(228.5, 77.2%, 51.5%)" stroke-width="1.5"></path><path d="M1040.69 209.21L1040.69 209.21" stroke="hsl(228.5, 77.2%, 51.5%)" stroke-width="1.5"></path><path d="M1040.69 209.21L1033.35 286.61" stroke="hsl(228.5, 77.2%, 51.5%)" stroke-width="1.5"></path><path d="M1040.69 209.21L940.01 63.8" stroke="hsl(228.5, 77.2%, 51.5%)" stroke-width="1.5"></path><path d="M1033.35 286.61L1033.35 286.61" stroke="hsl(228.5, 77.2%, 51.5%)" stroke-width="1.5"></path><path d="M1059.44 430.88L1059.44 430.88" stroke="hsl(228.5, 77.2%, 51.5%)" stroke-width="1.5"></path><path d="M1059.44 430.88L1033.35 286.61" stroke="hsl(228.5, 77.2%, 51.5%)" stroke-width="1.5"></path><path d="M1059.44 430.88L1047.28 589.46" stroke="hsl(228.5, 77.2%, 51.5%)" stroke-width="1.5"></path><path d="M1047.28 589.46L1047.28 589.46" stroke="hsl(228.5, 77.2%, 51.5%)" stroke-width="1.5"></path><path d="M1047.28 589.46L932.42 591.84" stroke="hsl(228.5, 77.2%, 51.5%)" stroke-width="1.5"></path><path d="M1047.28 589.46L1090.94 710.18" stroke="hsl(228.5, 77.2%, 51.5%)" stroke-width="1.5"></path><path d="M1090.94 710.18L1090.94 710.18" stroke="hsl(228.5, 77.2%, 51.5%)" stroke-width="1.5"></path><path d="M1090.94 710.18L938.22 679.57" stroke="hsl(228.5, 77.2%, 51.5%)" stroke-width="1.5"></path><path d="M1090.94 710.18L932.42 591.84" stroke="hsl(228.5, 77.2%, 51.5%)" stroke-width="1.5"></path><path d="M1090.94 710.18L839.58 697.38" stroke="hsl(228.5, 77.2%, 51.5%)" stroke-width="1.5"></path><path d="M1090.94 710.18L1059.44 430.88" stroke="hsl(228.5, 77.2%, 51.5%)" stroke-width="1.5"></path><path d="M1090.94 710.18L830.48 556.85" stroke="hsl(228.5, 77.2%, 51.5%)" stroke-width="1.5"></path><circle r="25" cx="-49.65" cy="659.48" fill="url(&quot;#SvgjsRadialGradient1021&quot;)"></circle><circle r="25" cx="75.18" cy="575.9" fill="url(&quot;#SvgjsRadialGradient1021&quot;)"></circle><circle r="25" cx="52.02" cy="698.34" fill="url(&quot;#SvgjsRadialGradient1021&quot;)"></circle><circle r="25" cx="306.74" cy="438.53" fill="url(&quot;#SvgjsRadialGradient1021&quot;)"></circle><circle r="25" cx="313.14" cy="589.62" fill="url(&quot;#SvgjsRadialGradient1021&quot;)"></circle><circle r="25" cx="929.42" cy="209.25" fill="url(&quot;#SvgjsRadialGradient1021&quot;)"></circle><circle r="25" cx="938.22" cy="679.57" fill="url(&quot;#SvgjsRadialGradient1021&quot;)"></circle><circle r="25" cx="1053.1" cy="-44.69" fill="url(&quot;#SvgjsRadialGradient1021&quot;)"></circle><circle r="5" cx="-58.54" cy="559.28" fill="#8b9ad9"></circle><circle r="5" cx="166.65" cy="441.16" fill="#8b9ad9"></circle><circle r="5" cx="197.25" cy="546.52" fill="#8b9ad9"></circle><circle r="5" cx="323.11" cy="688.09" fill="#8b9ad9"></circle><circle r="5" cx="464.75" cy="685.46" fill="#8b9ad9"></circle><circle r="5" cx="586.6" cy="315.56" fill="#8b9ad9"></circle><circle r="5" cx="579.14" cy="450.08" fill="#8b9ad9"></circle><circle r="5" cx="548.73" cy="533.93" fill="#8b9ad9"></circle><circle r="5" cx="553.44" cy="697.42" fill="#8b9ad9"></circle><circle r="5" cx="711.59" cy="338.57" fill="#8b9ad9"></circle><circle r="5" cx="675.58" cy="419.96" fill="#8b9ad9"></circle><circle r="5" cx="699.84" cy="551.78" fill="#8b9ad9"></circle><circle r="5" cx="706.6" cy="709.64" fill="#8b9ad9"></circle><circle r="5" cx="810.66" cy="46.25" fill="#8b9ad9"></circle><circle r="5" cx="827.77" cy="178.26" fill="#8b9ad9"></circle><circle r="5" cx="830.7" cy="293.92" fill="#8b9ad9"></circle><circle r="5" cx="835.76" cy="430.44" fill="#8b9ad9"></circle><circle r="5" cx="830.48" cy="556.85" fill="#8b9ad9"></circle><circle r="5" cx="839.58" cy="697.38" fill="#8b9ad9"></circle><circle r="5" cx="967.05" cy="-43.91" fill="#8b9ad9"></circle><circle r="5" cx="940.01" cy="63.8" fill="#8b9ad9"></circle><circle r="5" cx="930" cy="317.35" fill="#8b9ad9"></circle><circle r="5" cx="932.42" cy="591.84" fill="#8b9ad9"></circle><circle r="5" cx="1043.47" cy="61.81" fill="#8b9ad9"></circle><circle r="5" cx="1040.69" cy="209.21" fill="#8b9ad9"></circle><circle r="5" cx="1033.35" cy="286.61" fill="#8b9ad9"></circle><circle r="5" cx="1059.44" cy="430.88" fill="#8b9ad9"></circle><circle r="5" cx="1047.28" cy="589.46" fill="#8b9ad9"></circle><circle r="5" cx="1090.94" cy="710.18" fill="#8b9ad9"></circle></g><defs><mask id="SvgjsMask1020"><rect width="1000" height="560" fill="#ffffff"></rect></mask><radialGradient id="SvgjsRadialGradient1021"><stop stop-color="#ffffff" offset="0.1"></stop><stop stop-color="#1735b3" offset="0.2"></stop><stop stop-color="rgba(23, 53, 179, 0)" offset="1"></stop></radialGradient></defs></svg>