<svg id="visual" viewBox="0 0 900 600" width="900" height="600" xmlns="http://www.w3.org/2000/svg" xmlns:xlink="http://www.w3.org/1999/xlink" version="1.1"><rect x="0" y="0" width="900" height="600" fill="#5e91b8"></rect><path d="M0 304L82 304L82 271L164 271L164 317L245 317L245 351L327 351L327 291L409 291L409 316L491 316L491 351L573 351L573 354L655 354L655 298L736 298L736 332L818 332L818 263L900 263L900 277L900 601L900 601L818 601L818 601L736 601L736 601L655 601L655 601L573 601L573 601L491 601L491 601L409 601L409 601L327 601L327 601L245 601L245 601L164 601L164 601L82 601L82 601L0 601Z" fill="#158ec2"></path><path d="M0 381L82 381L82 320L164 320L164 378L245 378L245 340L327 340L327 405L409 405L409 404L491 404L491 383L573 383L573 387L655 387L655 339L736 339L736 389L818 389L818 364L900 364L900 357L900 601L900 601L818 601L818 601L736 601L736 601L655 601L655 601L573 601L573 601L491 601L491 601L409 601L409 601L327 601L327 601L245 601L245 601L164 601L164 601L82 601L82 601L0 601Z" fill="#1e7eae"></path><path d="M0 431L82 431L82 389L164 389L164 393L245 393L245 392L327 392L327 453L409 453L409 401L491 401L491 405L573 405L573 388L655 388L655 427L736 427L736 434L818 434L818 452L900 452L900 447L900 601L900 601L818 601L818 601L736 601L736 601L655 601L655 601L573 601L573 601L491 601L491 601L409 601L409 601L327 601L327 601L245 601L245 601L164 601L164 601L82 601L82 601L0 601Z" fill="#226f9b"></path><path d="M0 505L82 505L82 461L164 461L164 495L245 495L245 462L327 462L327 504L409 504L409 494L491 494L491 487L573 487L573 487L655 487L655 479L736 479L736 467L818 467L818 483L900 483L900 493L900 601L900 601L818 601L818 601L736 601L736 601L655 601L655 601L573 601L573 601L491 601L491 601L409 601L409 601L327 601L327 601L245 601L245 601L164 601L164 601L82 601L82 601L0 601Z" fill="#236088"></path><path d="M0 552L82 552L82 537L164 537L164 511L245 511L245 502L327 502L327 523L409 523L409 550L491 550L491 527L573 527L573 531L655 531L655 542L736 542L736 545L818 545L818 523L900 523L900 549L900 601L900 601L818 601L818 601L736 601L736 601L655 601L655 601L573 601L573 601L491 601L491 601L409 601L409 601L327 601L327 601L245 601L245 601L164 601L164 601L82 601L82 601L0 601Z" fill="#225275"></path></svg>