<svg id="visual" viewBox="0 0 900 600" width="900" height="600" xmlns="http://www.w3.org/2000/svg" xmlns:xlink="http://www.w3.org/1999/xlink" version="1.1"><rect x="0" y="0" width="900" height="600" fill="#5e91b8"></rect><path d="M0 276L82 276L82 319L164 319L164 270L245 270L245 296L327 296L327 313L409 313L409 312L491 312L491 345L573 345L573 258L655 258L655 266L736 266L736 347L818 347L818 279L900 279L900 267L900 601L900 601L818 601L818 601L736 601L736 601L655 601L655 601L573 601L573 601L491 601L491 601L409 601L409 601L327 601L327 601L245 601L245 601L164 601L164 601L82 601L82 601L0 601Z" fill="#158ec2"></path><path d="M0 405L82 405L82 402L164 402L164 398L245 398L245 399L327 399L327 384L409 384L409 341L491 341L491 378L573 378L573 351L655 351L655 328L736 328L736 377L818 377L818 326L900 326L900 360L900 601L900 601L818 601L818 601L736 601L736 601L655 601L655 601L573 601L573 601L491 601L491 601L409 601L409 601L327 601L327 601L245 601L245 601L164 601L164 601L82 601L82 601L0 601Z" fill="#1e7eae"></path><path d="M0 455L82 455L82 440L164 440L164 383L245 383L245 383L327 383L327 398L409 398L409 381L491 381L491 383L573 383L573 409L655 409L655 402L736 402L736 421L818 421L818 425L900 425L900 408L900 601L900 601L818 601L818 601L736 601L736 601L655 601L655 601L573 601L573 601L491 601L491 601L409 601L409 601L327 601L327 601L245 601L245 601L164 601L164 601L82 601L82 601L0 601Z" fill="#226f9b"></path><path d="M0 503L82 503L82 456L164 456L164 495L245 495L245 462L327 462L327 453L409 453L409 474L491 474L491 441L573 441L573 449L655 449L655 505L736 505L736 487L818 487L818 468L900 468L900 466L900 601L900 601L818 601L818 601L736 601L736 601L655 601L655 601L573 601L573 601L491 601L491 601L409 601L409 601L327 601L327 601L245 601L245 601L164 601L164 601L82 601L82 601L0 601Z" fill="#236088"></path><path d="M0 532L82 532L82 551L164 551L164 544L245 544L245 513L327 513L327 527L409 527L409 546L491 546L491 537L573 537L573 505L655 505L655 511L736 511L736 517L818 517L818 502L900 502L900 534L900 601L900 601L818 601L818 601L736 601L736 601L655 601L655 601L573 601L573 601L491 601L491 601L409 601L409 601L327 601L327 601L245 601L245 601L164 601L164 601L82 601L82 601L0 601Z" fill="#225275"></path></svg>