<svg xmlns="http://www.w3.org/2000/svg" version="1.1" xmlns:xlink="http://www.w3.org/1999/xlink" xmlns:svgjs="http://svgjs.dev/svgjs" width="1000" height="560" preserveAspectRatio="none" viewBox="0 0 1000 560"><g mask="url(&quot;#SvgjsMask1022&quot;)" fill="none"><rect width="1000" height="560" x="0" y="0" fill="#0e2a47"></rect><path d="M-37.6 465.18L-37.6 465.18" stroke="#132e65" stroke-width="1.5"></path><path d="M-37.6 465.18L-53.97 535.51" stroke="#132e65" stroke-width="1.5"></path><path d="M-37.6 465.18L31.62 533.78" stroke="#132e65" stroke-width="1.5"></path><path d="M-53.97 535.51L-53.97 535.51" stroke="#132e65" stroke-width="1.5"></path><path d="M-74.9 675.91L-74.9 675.91" stroke="#132e65" stroke-width="1.5"></path><path d="M-74.9 675.91L-53.97 535.51" stroke="#132e65" stroke-width="1.5"></path><path d="M-74.9 675.91L93.07 712.12" stroke="#132e65" stroke-width="1.5"></path><path d="M-74.9 675.91L31.62 533.78" stroke="#132e65" stroke-width="1.5"></path><path d="M-74.9 675.91L-37.6 465.18" stroke="#132e65" stroke-width="1.5"></path><path d="M-74.9 675.91L178.5 691.67" stroke="#132e65" stroke-width="1.5"></path><path d="M69.43 425.7L69.43 425.7" stroke="#132e65" stroke-width="1.5"></path><path d="M69.43 425.7L164.19 423.63" stroke="#132e65" stroke-width="1.5"></path><path d="M69.43 425.7L-37.6 465.18" stroke="#132e65" stroke-width="1.5"></path><path d="M69.43 425.7L31.62 533.78" stroke="#132e65" stroke-width="1.5"></path><path d="M69.43 425.7L-53.97 535.51" stroke="#132e65" stroke-width="1.5"></path><path d="M69.43 425.7L217.59 563.13" stroke="#132e65" stroke-width="1.5"></path><path d="M31.62 533.78L31.62 533.78" stroke="#132e65" stroke-width="1.5"></path><path d="M31.62 533.78L-53.97 535.51" stroke="#132e65" stroke-width="1.5"></path><path d="M93.07 712.12L93.07 712.12" stroke="#132e65" stroke-width="1.5"></path><path d="M93.07 712.12L178.5 691.67" stroke="#132e65" stroke-width="1.5"></path><path d="M93.07 712.12L31.62 533.78" stroke="#132e65" stroke-width="1.5"></path><path d="M93.07 712.12L217.59 563.13" stroke="#132e65" stroke-width="1.5"></path><path d="M164.19 423.63L164.19 423.63" stroke="#132e65" stroke-width="1.5"></path><path d="M164.19 423.63L293.21 429.32" stroke="#132e65" stroke-width="1.5"></path><path d="M164.19 423.63L217.59 563.13" stroke="#132e65" stroke-width="1.5"></path><path d="M164.19 423.63L284.89 531.35" stroke="#132e65" stroke-width="1.5"></path><path d="M164.19 423.63L31.62 533.78" stroke="#132e65" stroke-width="1.5"></path><path d="M164.19 423.63L-37.6 465.18" stroke="#132e65" stroke-width="1.5"></path><path d="M217.59 563.13L217.59 563.13" stroke="#132e65" stroke-width="1.5"></path><path d="M217.59 563.13L284.89 531.35" stroke="#132e65" stroke-width="1.5"></path><path d="M217.59 563.13L282.74 658.46" stroke="#132e65" stroke-width="1.5"></path><path d="M217.59 563.13L178.5 691.67" stroke="#132e65" stroke-width="1.5"></path><path d="M217.59 563.13L293.21 429.32" stroke="#132e65" stroke-width="1.5"></path><path d="M217.59 563.13L31.62 533.78" stroke="#132e65" stroke-width="1.5"></path><path d="M178.5 691.67L178.5 691.67" stroke="#132e65" stroke-width="1.5"></path><path d="M178.5 691.67L282.74 658.46" stroke="#132e65" stroke-width="1.5"></path><path d="M293.21 429.32L293.21 429.32" stroke="#132e65" stroke-width="1.5"></path><path d="M293.21 429.32L284.89 531.35" stroke="#132e65" stroke-width="1.5"></path><path d="M293.21 429.32L447.14 422.26" stroke="#132e65" stroke-width="1.5"></path><path d="M293.21 429.32L407.49 318.82" stroke="#132e65" stroke-width="1.5"></path><path d="M284.89 531.35L284.89 531.35" stroke="#132e65" stroke-width="1.5"></path><path d="M284.89 531.35L282.74 658.46" stroke="#132e65" stroke-width="1.5"></path><path d="M282.74 658.46L282.74 658.46" stroke="#132e65" stroke-width="1.5"></path><path d="M282.74 658.46L443.01 668.29" stroke="#132e65" stroke-width="1.5"></path><path d="M407.49 318.82L407.49 318.82" stroke="#132e65" stroke-width="1.5"></path><path d="M407.49 318.82L447.14 422.26" stroke="#132e65" stroke-width="1.5"></path><path d="M447.14 422.26L447.14 422.26" stroke="#132e65" stroke-width="1.5"></path><path d="M447.14 422.26L592.36 406.78" stroke="#132e65" stroke-width="1.5"></path><path d="M447.14 422.26L446.45 585.23" stroke="#132e65" stroke-width="1.5"></path><path d="M447.14 422.26L574.21 298.66" stroke="#132e65" stroke-width="1.5"></path><path d="M446.45 585.23L446.45 585.23" stroke="#132e65" stroke-width="1.5"></path><path d="M446.45 585.23L443.01 668.29" stroke="#132e65" stroke-width="1.5"></path><path d="M446.45 585.23L567.75 559.45" stroke="#132e65" stroke-width="1.5"></path><path d="M446.45 585.23L569.34 673.7" stroke="#132e65" stroke-width="1.5"></path><path d="M443.01 668.29L443.01 668.29" stroke="#132e65" stroke-width="1.5"></path><path d="M443.01 668.29L569.34 673.7" stroke="#132e65" stroke-width="1.5"></path><path d="M443.01 668.29L567.75 559.45" stroke="#132e65" stroke-width="1.5"></path><path d="M443.01 668.29L284.89 531.35" stroke="#132e65" stroke-width="1.5"></path><path d="M563.42 202.86L563.42 202.86" stroke="#132e65" stroke-width="1.5"></path><path d="M563.42 202.86L574.21 298.66" stroke="#132e65" stroke-width="1.5"></path><path d="M563.42 202.86L665.61 218.04" stroke="#132e65" stroke-width="1.5"></path><path d="M574.21 298.66L574.21 298.66" stroke="#132e65" stroke-width="1.5"></path><path d="M574.21 298.66L592.36 406.78" stroke="#132e65" stroke-width="1.5"></path><path d="M574.21 298.66L678.88 336.18" stroke="#132e65" stroke-width="1.5"></path><path d="M574.21 298.66L665.61 218.04" stroke="#132e65" stroke-width="1.5"></path><path d="M574.21 298.66L666.28 409.56" stroke="#132e65" stroke-width="1.5"></path><path d="M592.36 406.78L592.36 406.78" stroke="#132e65" stroke-width="1.5"></path><path d="M592.36 406.78L666.28 409.56" stroke="#132e65" stroke-width="1.5"></path><path d="M592.36 406.78L678.88 336.18" stroke="#132e65" stroke-width="1.5"></path><path d="M592.36 406.78L567.75 559.45" stroke="#132e65" stroke-width="1.5"></path><path d="M592.36 406.78L711.19 555.63" stroke="#132e65" stroke-width="1.5"></path><path d="M567.75 559.45L567.75 559.45" stroke="#132e65" stroke-width="1.5"></path><path d="M567.75 559.45L569.34 673.7" stroke="#132e65" stroke-width="1.5"></path><path d="M567.75 559.45L711.19 555.63" stroke="#132e65" stroke-width="1.5"></path><path d="M567.75 559.45L681.21 675.25" stroke="#132e65" stroke-width="1.5"></path><path d="M569.34 673.7L569.34 673.7" stroke="#132e65" stroke-width="1.5"></path><path d="M569.34 673.7L681.21 675.25" stroke="#132e65" stroke-width="1.5"></path><path d="M691.97 -32.98L691.97 -32.98" stroke="#132e65" stroke-width="1.5"></path><path d="M691.97 -32.98L676.86 60.35" stroke="#132e65" stroke-width="1.5"></path><path d="M691.97 -32.98L818.94 -77.7" stroke="#132e65" stroke-width="1.5"></path><path d="M691.97 -32.98L829.09 83.61" stroke="#132e65" stroke-width="1.5"></path><path d="M691.97 -32.98L665.61 218.04" stroke="#132e65" stroke-width="1.5"></path><path d="M691.97 -32.98L944.25 50.11" stroke="#132e65" stroke-width="1.5"></path><path d="M691.97 -32.98L563.42 202.86" stroke="#132e65" stroke-width="1.5"></path><path d="M676.86 60.35L676.86 60.35" stroke="#132e65" stroke-width="1.5"></path><path d="M676.86 60.35L829.09 83.61" stroke="#132e65" stroke-width="1.5"></path><path d="M676.86 60.35L665.61 218.04" stroke="#132e65" stroke-width="1.5"></path><path d="M676.86 60.35L563.42 202.86" stroke="#132e65" stroke-width="1.5"></path><path d="M665.61 218.04L665.61 218.04" stroke="#132e65" stroke-width="1.5"></path><path d="M665.61 218.04L678.88 336.18" stroke="#132e65" stroke-width="1.5"></path><path d="M665.61 218.04L793.63 297.88" stroke="#132e65" stroke-width="1.5"></path><path d="M678.88 336.18L678.88 336.18" stroke="#132e65" stroke-width="1.5"></path><path d="M678.88 336.18L666.28 409.56" stroke="#132e65" stroke-width="1.5"></path><path d="M678.88 336.18L793.63 297.88" stroke="#132e65" stroke-width="1.5"></path><path d="M666.28 409.56L666.28 409.56" stroke="#132e65" stroke-width="1.5"></path><path d="M666.28 409.56L711.19 555.63" stroke="#132e65" stroke-width="1.5"></path><path d="M711.19 555.63L711.19 555.63" stroke="#132e65" stroke-width="1.5"></path><path d="M711.19 555.63L824.15 567.53" stroke="#132e65" stroke-width="1.5"></path><path d="M711.19 555.63L681.21 675.25" stroke="#132e65" stroke-width="1.5"></path><path d="M681.21 675.25L681.21 675.25" stroke="#132e65" stroke-width="1.5"></path><path d="M681.21 675.25L795.29 710.08" stroke="#132e65" stroke-width="1.5"></path><path d="M818.94 -77.7L818.94 -77.7" stroke="#132e65" stroke-width="1.5"></path><path d="M818.94 -77.7L967.29 -60.15" stroke="#132e65" stroke-width="1.5"></path><path d="M818.94 -77.7L829.09 83.61" stroke="#132e65" stroke-width="1.5"></path><path d="M818.94 -77.7L944.25 50.11" stroke="#132e65" stroke-width="1.5"></path><path d="M818.94 -77.7L676.86 60.35" stroke="#132e65" stroke-width="1.5"></path><path d="M818.94 -77.7L1078.46 -51.72" stroke="#132e65" stroke-width="1.5"></path><path d="M829.09 83.61L829.09 83.61" stroke="#132e65" stroke-width="1.5"></path><path d="M829.09 83.61L944.25 50.11" stroke="#132e65" stroke-width="1.5"></path><path d="M829.09 83.61L827.3 203.64" stroke="#132e65" stroke-width="1.5"></path><path d="M829.09 83.61L939.18 183.12" stroke="#132e65" stroke-width="1.5"></path><path d="M827.3 203.64L827.3 203.64" stroke="#132e65" stroke-width="1.5"></path><path d="M827.3 203.64L793.63 297.88" stroke="#132e65" stroke-width="1.5"></path><path d="M827.3 203.64L939.18 183.12" stroke="#132e65" stroke-width="1.5"></path><path d="M793.63 297.88L793.63 297.88" stroke="#132e65" stroke-width="1.5"></path><path d="M838.27 449.49L838.27 449.49" stroke="#132e65" stroke-width="1.5"></path><path d="M838.27 449.49L919.45 452.85" stroke="#132e65" stroke-width="1.5"></path><path d="M838.27 449.49L824.15 567.53" stroke="#132e65" stroke-width="1.5"></path><path d="M838.27 449.49L793.63 297.88" stroke="#132e65" stroke-width="1.5"></path><path d="M838.27 449.49L915.72 590.55" stroke="#132e65" stroke-width="1.5"></path><path d="M838.27 449.49L711.19 555.63" stroke="#132e65" stroke-width="1.5"></path><path d="M838.27 449.49L666.28 409.56" stroke="#132e65" stroke-width="1.5"></path><path d="M824.15 567.53L824.15 567.53" stroke="#132e65" stroke-width="1.5"></path><path d="M824.15 567.53L915.72 590.55" stroke="#132e65" stroke-width="1.5"></path><path d="M824.15 567.53L795.29 710.08" stroke="#132e65" stroke-width="1.5"></path><path d="M824.15 567.53L919.45 452.85" stroke="#132e65" stroke-width="1.5"></path><path d="M824.15 567.53L956.99 677.95" stroke="#132e65" stroke-width="1.5"></path><path d="M795.29 710.08L795.29 710.08" stroke="#132e65" stroke-width="1.5"></path><path d="M795.29 710.08L956.99 677.95" stroke="#132e65" stroke-width="1.5"></path><path d="M795.29 710.08L915.72 590.55" stroke="#132e65" stroke-width="1.5"></path><path d="M967.29 -60.15L967.29 -60.15" stroke="#132e65" stroke-width="1.5"></path><path d="M967.29 -60.15L1078.46 -51.72" stroke="#132e65" stroke-width="1.5"></path><path d="M967.29 -60.15L944.25 50.11" stroke="#132e65" stroke-width="1.5"></path><path d="M967.29 -60.15L1059.8 68.72" stroke="#132e65" stroke-width="1.5"></path><path d="M967.29 -60.15L829.09 83.61" stroke="#132e65" stroke-width="1.5"></path><path d="M944.25 50.11L944.25 50.11" stroke="#132e65" stroke-width="1.5"></path><path d="M944.25 50.11L1059.8 68.72" stroke="#132e65" stroke-width="1.5"></path><path d="M939.18 183.12L939.18 183.12" stroke="#132e65" stroke-width="1.5"></path><path d="M939.18 183.12L944.82 285.78" stroke="#132e65" stroke-width="1.5"></path><path d="M939.18 183.12L944.25 50.11" stroke="#132e65" stroke-width="1.5"></path><path d="M939.18 183.12L1071.6 206.37" stroke="#132e65" stroke-width="1.5"></path><path d="M939.18 183.12L1059.8 68.72" stroke="#132e65" stroke-width="1.5"></path><path d="M944.82 285.78L944.82 285.78" stroke="#132e65" stroke-width="1.5"></path><path d="M944.82 285.78L1059.15 303.96" stroke="#132e65" stroke-width="1.5"></path><path d="M944.82 285.78L827.3 203.64" stroke="#132e65" stroke-width="1.5"></path><path d="M944.82 285.78L1071.6 206.37" stroke="#132e65" stroke-width="1.5"></path><path d="M944.82 285.78L793.63 297.88" stroke="#132e65" stroke-width="1.5"></path><path d="M944.82 285.78L919.45 452.85" stroke="#132e65" stroke-width="1.5"></path><path d="M919.45 452.85L919.45 452.85" stroke="#132e65" stroke-width="1.5"></path><path d="M919.45 452.85L915.72 590.55" stroke="#132e65" stroke-width="1.5"></path><path d="M919.45 452.85L1061.66 443.11" stroke="#132e65" stroke-width="1.5"></path><path d="M915.72 590.55L915.72 590.55" stroke="#132e65" stroke-width="1.5"></path><path d="M915.72 590.55L956.99 677.95" stroke="#132e65" stroke-width="1.5"></path><path d="M915.72 590.55L1056.72 587.52" stroke="#132e65" stroke-width="1.5"></path><path d="M915.72 590.55L1054.07 661.71" stroke="#132e65" stroke-width="1.5"></path><path d="M956.99 677.95L956.99 677.95" stroke="#132e65" stroke-width="1.5"></path><path d="M956.99 677.95L1054.07 661.71" stroke="#132e65" stroke-width="1.5"></path><path d="M956.99 677.95L1056.72 587.52" stroke="#132e65" stroke-width="1.5"></path><path d="M1078.46 -51.72L1078.46 -51.72" stroke="#132e65" stroke-width="1.5"></path><path d="M1078.46 -51.72L1059.8 68.72" stroke="#132e65" stroke-width="1.5"></path><path d="M1078.46 -51.72L944.25 50.11" stroke="#132e65" stroke-width="1.5"></path><path d="M1078.46 -51.72L1071.6 206.37" stroke="#132e65" stroke-width="1.5"></path><path d="M1059.8 68.72L1059.8 68.72" stroke="#132e65" stroke-width="1.5"></path><path d="M1071.6 206.37L1071.6 206.37" stroke="#132e65" stroke-width="1.5"></path><path d="M1071.6 206.37L1059.15 303.96" stroke="#132e65" stroke-width="1.5"></path><path d="M1071.6 206.37L1059.8 68.72" stroke="#132e65" stroke-width="1.5"></path><path d="M1059.15 303.96L1059.15 303.96" stroke="#132e65" stroke-width="1.5"></path><path d="M1059.15 303.96L1061.66 443.11" stroke="#132e65" stroke-width="1.5"></path><path d="M1061.66 443.11L1061.66 443.11" stroke="#132e65" stroke-width="1.5"></path><path d="M1061.66 443.11L1056.72 587.52" stroke="#132e65" stroke-width="1.5"></path><path d="M1061.66 443.11L944.82 285.78" stroke="#132e65" stroke-width="1.5"></path><path d="M1056.72 587.52L1056.72 587.52" stroke="#132e65" stroke-width="1.5"></path><path d="M1056.72 587.52L1054.07 661.71" stroke="#132e65" stroke-width="1.5"></path><path d="M1054.07 661.71L1054.07 661.71" stroke="#132e65" stroke-width="1.5"></path><circle r="5" cx="-37.6" cy="465.18" fill="#132e65"></circle><circle r="5" cx="-53.97" cy="535.51" fill="#132e65"></circle><circle r="5" cx="-74.9" cy="675.91" fill="#132e65"></circle><circle r="5" cx="69.43" cy="425.7" fill="#132e65"></circle><circle r="5" cx="31.62" cy="533.78" fill="#132e65"></circle><circle r="5" cx="93.07" cy="712.12" fill="#132e65"></circle><circle r="5" cx="164.19" cy="423.63" fill="#132e65"></circle><circle r="5" cx="217.59" cy="563.13" fill="#132e65"></circle><circle r="5" cx="178.5" cy="691.67" fill="#132e65"></circle><circle r="5" cx="293.21" cy="429.32" fill="#132e65"></circle><circle r="5" cx="284.89" cy="531.35" fill="#132e65"></circle><circle r="5" cx="282.74" cy="658.46" fill="#132e65"></circle><circle r="5" cx="407.49" cy="318.82" fill="#132e65"></circle><circle r="5" cx="447.14" cy="422.26" fill="#132e65"></circle><circle r="5" cx="446.45" cy="585.23" fill="#132e65"></circle><circle r="5" cx="443.01" cy="668.29" fill="#132e65"></circle><circle r="5" cx="563.42" cy="202.86" fill="#132e65"></circle><circle r="5" cx="574.21" cy="298.66" fill="#132e65"></circle><circle r="5" cx="592.36" cy="406.78" fill="#132e65"></circle><circle r="5" cx="567.75" cy="559.45" fill="#132e65"></circle><circle r="5" cx="569.34" cy="673.7" fill="#132e65"></circle><circle r="5" cx="691.97" cy="-32.98" fill="#132e65"></circle><circle r="5" cx="676.86" cy="60.35" fill="#132e65"></circle><circle r="5" cx="665.61" cy="218.04" fill="#132e65"></circle><circle r="5" cx="678.88" cy="336.18" fill="#132e65"></circle><circle r="5" cx="666.28" cy="409.56" fill="#132e65"></circle><circle r="5" cx="711.19" cy="555.63" fill="#132e65"></circle><circle r="5" cx="681.21" cy="675.25" fill="#132e65"></circle><circle r="5" cx="818.94" cy="-77.7" fill="#132e65"></circle><circle r="5" cx="829.09" cy="83.61" fill="#132e65"></circle><circle r="5" cx="827.3" cy="203.64" fill="#132e65"></circle><circle r="5" cx="793.63" cy="297.88" fill="#132e65"></circle><circle r="5" cx="838.27" cy="449.49" fill="#132e65"></circle><circle r="5" cx="824.15" cy="567.53" fill="#132e65"></circle><circle r="5" cx="795.29" cy="710.08" fill="#132e65"></circle><circle r="5" cx="967.29" cy="-60.15" fill="#132e65"></circle><circle r="5" cx="944.25" cy="50.11" fill="#132e65"></circle><circle r="5" cx="939.18" cy="183.12" fill="#132e65"></circle><circle r="5" cx="944.82" cy="285.78" fill="#132e65"></circle><circle r="5" cx="919.45" cy="452.85" fill="#132e65"></circle><circle r="5" cx="915.72" cy="590.55" fill="#132e65"></circle><circle r="5" cx="956.99" cy="677.95" fill="#132e65"></circle><circle r="5" cx="1078.46" cy="-51.72" fill="#132e65"></circle><circle r="5" cx="1059.8" cy="68.72" fill="#132e65"></circle><circle r="5" cx="1071.6" cy="206.37" fill="#132e65"></circle><circle r="5" cx="1059.15" cy="303.96" fill="#132e65"></circle><circle r="5" cx="1061.66" cy="443.11" fill="#132e65"></circle><circle r="5" cx="1056.72" cy="587.52" fill="#132e65"></circle><circle r="5" cx="1054.07" cy="661.71" fill="#132e65"></circle><path d="M217.31 454.03L217.31 454.03" stroke="hsl(228.5, 77.2%, 51.5%)" stroke-width="1.5"></path><path d="M217.31 454.03L177.82 538.6" stroke="hsl(228.5, 77.2%, 51.5%)" stroke-width="1.5"></path><path d="M217.31 454.03L285.37 540.19" stroke="hsl(228.5, 77.2%, 51.5%)" stroke-width="1.5"></path><path d="M217.31 454.03L326.71 431.37" stroke="hsl(228.5, 77.2%, 51.5%)" stroke-width="1.5"></path><path d="M217.31 454.03L38.59 552.22" stroke="hsl(228.5, 77.2%, 51.5%)" stroke-width="1.5"></path><path d="M545.54 565.97L545.54 565.97" stroke="hsl(228.5, 77.2%, 51.5%)" stroke-width="1.5"></path><path d="M545.54 565.97L444.5 591.27" stroke="hsl(228.5, 77.2%, 51.5%)" stroke-width="1.5"></path><path d="M545.54 565.97L587.51 681.83" stroke="hsl(228.5, 77.2%, 51.5%)" stroke-width="1.5"></path><path d="M545.54 565.97L573.68 433.58" stroke="hsl(228.5, 77.2%, 51.5%)" stroke-width="1.5"></path><path d="M545.54 565.97L689.36 568.47" stroke="hsl(228.5, 77.2%, 51.5%)" stroke-width="1.5"></path><path d="M545.54 565.97L456.3 445.98" stroke="hsl(228.5, 77.2%, 51.5%)" stroke-width="1.5"></path><path d="M661.45 705.26L661.45 705.26" stroke="hsl(228.5, 77.2%, 51.5%)" stroke-width="1.5"></path><path d="M661.45 705.26L587.51 681.83" stroke="hsl(228.5, 77.2%, 51.5%)" stroke-width="1.5"></path><path d="M661.45 705.26L689.36 568.47" stroke="hsl(228.5, 77.2%, 51.5%)" stroke-width="1.5"></path><path d="M824.01 -81.24L824.01 -81.24" stroke="hsl(228.5, 77.2%, 51.5%)" stroke-width="1.5"></path><path d="M824.01 -81.24L839.29 32.62" stroke="hsl(228.5, 77.2%, 51.5%)" stroke-width="1.5"></path><path d="M824.01 -81.24L950.91 -82.93" stroke="hsl(228.5, 77.2%, 51.5%)" stroke-width="1.5"></path><path d="M824.01 -81.24L946.08 61.08" stroke="hsl(228.5, 77.2%, 51.5%)" stroke-width="1.5"></path><path d="M824.01 -81.24L840.19 165.6" stroke="hsl(228.5, 77.2%, 51.5%)" stroke-width="1.5"></path><path d="M824.01 -81.24L1090.16 -47.08" stroke="hsl(228.5, 77.2%, 51.5%)" stroke-width="1.5"></path><path d="M795.55 292.01L795.55 292.01" stroke="hsl(228.5, 77.2%, 51.5%)" stroke-width="1.5"></path><path d="M795.55 292.01L681.55 336.53" stroke="hsl(228.5, 77.2%, 51.5%)" stroke-width="1.5"></path><path d="M795.55 292.01L796.96 423.84" stroke="hsl(228.5, 77.2%, 51.5%)" stroke-width="1.5"></path><path d="M795.55 292.01L840.19 165.6" stroke="hsl(228.5, 77.2%, 51.5%)" stroke-width="1.5"></path><path d="M795.55 292.01L688.79 416.57" stroke="hsl(228.5, 77.2%, 51.5%)" stroke-width="1.5"></path><path d="M798.23 673.29L798.23 673.29" stroke="hsl(228.5, 77.2%, 51.5%)" stroke-width="1.5"></path><path d="M798.23 673.29L826.71 569.85" stroke="hsl(228.5, 77.2%, 51.5%)" stroke-width="1.5"></path><path d="M798.23 673.29L930.68 664.7" stroke="hsl(228.5, 77.2%, 51.5%)" stroke-width="1.5"></path><path d="M798.23 673.29L661.45 705.26" stroke="hsl(228.5, 77.2%, 51.5%)" stroke-width="1.5"></path><path d="M927.42 185.67L927.42 185.67" stroke="hsl(228.5, 77.2%, 51.5%)" stroke-width="1.5"></path><path d="M927.42 185.67L840.19 165.6" stroke="hsl(228.5, 77.2%, 51.5%)" stroke-width="1.5"></path><path d="M927.42 185.67L1050.97 167.92" stroke="hsl(228.5, 77.2%, 51.5%)" stroke-width="1.5"></path><path d="M927.42 185.67L946.08 61.08" stroke="hsl(228.5, 77.2%, 51.5%)" stroke-width="1.5"></path><path d="M927.42 185.67L966.45 330.98" stroke="hsl(228.5, 77.2%, 51.5%)" stroke-width="1.5"></path><path d="M927.42 185.67L1041.59 298.14" stroke="hsl(228.5, 77.2%, 51.5%)" stroke-width="1.5"></path><path d="M1089.71 66.07L1089.71 66.07" stroke="hsl(228.5, 77.2%, 51.5%)" stroke-width="1.5"></path><path d="M1089.71 66.07L1050.97 167.92" stroke="hsl(228.5, 77.2%, 51.5%)" stroke-width="1.5"></path><path d="M1089.71 66.07L1090.16 -47.08" stroke="hsl(228.5, 77.2%, 51.5%)" stroke-width="1.5"></path><path d="M1089.71 66.07L946.08 61.08" stroke="hsl(228.5, 77.2%, 51.5%)" stroke-width="1.5"></path><path d="M1089.71 66.07L927.42 185.67" stroke="hsl(228.5, 77.2%, 51.5%)" stroke-width="1.5"></path><path d="M-73.01 706.36L-73.01 706.36" stroke="hsl(228.5, 77.2%, 51.5%)" stroke-width="1.5"></path><path d="M-73.01 706.36L58.51 706.09" stroke="hsl(228.5, 77.2%, 51.5%)" stroke-width="1.5"></path><path d="M-73.01 706.36L38.59 552.22" stroke="hsl(228.5, 77.2%, 51.5%)" stroke-width="1.5"></path><path d="M-73.01 706.36L156.88 679.33" stroke="hsl(228.5, 77.2%, 51.5%)" stroke-width="1.5"></path><path d="M-73.01 706.36L177.82 538.6" stroke="hsl(228.5, 77.2%, 51.5%)" stroke-width="1.5"></path><path d="M-73.01 706.36L217.31 454.03" stroke="hsl(228.5, 77.2%, 51.5%)" stroke-width="1.5"></path><path d="M-73.01 706.36L285.37 540.19" stroke="hsl(228.5, 77.2%, 51.5%)" stroke-width="1.5"></path><path d="M38.59 552.22L38.59 552.22" stroke="hsl(228.5, 77.2%, 51.5%)" stroke-width="1.5"></path><path d="M38.59 552.22L177.82 538.6" stroke="hsl(228.5, 77.2%, 51.5%)" stroke-width="1.5"></path><path d="M58.51 706.09L58.51 706.09" stroke="hsl(228.5, 77.2%, 51.5%)" stroke-width="1.5"></path><path d="M58.51 706.09L156.88 679.33" stroke="hsl(228.5, 77.2%, 51.5%)" stroke-width="1.5"></path><path d="M177.82 538.6L177.82 538.6" stroke="hsl(228.5, 77.2%, 51.5%)" stroke-width="1.5"></path><path d="M177.82 538.6L285.37 540.19" stroke="hsl(228.5, 77.2%, 51.5%)" stroke-width="1.5"></path><path d="M177.82 538.6L156.88 679.33" stroke="hsl(228.5, 77.2%, 51.5%)" stroke-width="1.5"></path><path d="M177.82 538.6L326.71 431.37" stroke="hsl(228.5, 77.2%, 51.5%)" stroke-width="1.5"></path><path d="M156.88 679.33L156.88 679.33" stroke="hsl(228.5, 77.2%, 51.5%)" stroke-width="1.5"></path><path d="M156.88 679.33L38.59 552.22" stroke="hsl(228.5, 77.2%, 51.5%)" stroke-width="1.5"></path><path d="M156.88 679.33L285.37 540.19" stroke="hsl(228.5, 77.2%, 51.5%)" stroke-width="1.5"></path><path d="M326.71 431.37L326.71 431.37" stroke="hsl(228.5, 77.2%, 51.5%)" stroke-width="1.5"></path><path d="M326.71 431.37L285.37 540.19" stroke="hsl(228.5, 77.2%, 51.5%)" stroke-width="1.5"></path><path d="M326.71 431.37L456.3 445.98" stroke="hsl(228.5, 77.2%, 51.5%)" stroke-width="1.5"></path><path d="M285.37 540.19L285.37 540.19" stroke="hsl(228.5, 77.2%, 51.5%)" stroke-width="1.5"></path><path d="M456.3 445.98L456.3 445.98" stroke="hsl(228.5, 77.2%, 51.5%)" stroke-width="1.5"></path><path d="M456.3 445.98L573.68 433.58" stroke="hsl(228.5, 77.2%, 51.5%)" stroke-width="1.5"></path><path d="M456.3 445.98L547.86 337.58" stroke="hsl(228.5, 77.2%, 51.5%)" stroke-width="1.5"></path><path d="M444.5 591.27L444.5 591.27" stroke="hsl(228.5, 77.2%, 51.5%)" stroke-width="1.5"></path><path d="M444.5 591.27L424.26 711.2" stroke="hsl(228.5, 77.2%, 51.5%)" stroke-width="1.5"></path><path d="M424.26 711.2L424.26 711.2" stroke="hsl(228.5, 77.2%, 51.5%)" stroke-width="1.5"></path><path d="M424.26 711.2L587.51 681.83" stroke="hsl(228.5, 77.2%, 51.5%)" stroke-width="1.5"></path><path d="M424.26 711.2L545.54 565.97" stroke="hsl(228.5, 77.2%, 51.5%)" stroke-width="1.5"></path><path d="M424.26 711.2L285.37 540.19" stroke="hsl(228.5, 77.2%, 51.5%)" stroke-width="1.5"></path><path d="M424.26 711.2L661.45 705.26" stroke="hsl(228.5, 77.2%, 51.5%)" stroke-width="1.5"></path><path d="M424.26 711.2L456.3 445.98" stroke="hsl(228.5, 77.2%, 51.5%)" stroke-width="1.5"></path><path d="M547.86 337.58L547.86 337.58" stroke="hsl(228.5, 77.2%, 51.5%)" stroke-width="1.5"></path><path d="M547.86 337.58L573.68 433.58" stroke="hsl(228.5, 77.2%, 51.5%)" stroke-width="1.5"></path><path d="M547.86 337.58L681.55 336.53" stroke="hsl(228.5, 77.2%, 51.5%)" stroke-width="1.5"></path><path d="M573.68 433.58L573.68 433.58" stroke="hsl(228.5, 77.2%, 51.5%)" stroke-width="1.5"></path><path d="M573.68 433.58L688.79 416.57" stroke="hsl(228.5, 77.2%, 51.5%)" stroke-width="1.5"></path><path d="M573.68 433.58L681.55 336.53" stroke="hsl(228.5, 77.2%, 51.5%)" stroke-width="1.5"></path><path d="M587.51 681.83L587.51 681.83" stroke="hsl(228.5, 77.2%, 51.5%)" stroke-width="1.5"></path><path d="M587.51 681.83L689.36 568.47" stroke="hsl(228.5, 77.2%, 51.5%)" stroke-width="1.5"></path><path d="M681.55 336.53L681.55 336.53" stroke="hsl(228.5, 77.2%, 51.5%)" stroke-width="1.5"></path><path d="M681.55 336.53L688.79 416.57" stroke="hsl(228.5, 77.2%, 51.5%)" stroke-width="1.5"></path><path d="M681.55 336.53L796.96 423.84" stroke="hsl(228.5, 77.2%, 51.5%)" stroke-width="1.5"></path><path d="M681.55 336.53L689.36 568.47" stroke="hsl(228.5, 77.2%, 51.5%)" stroke-width="1.5"></path><path d="M688.79 416.57L688.79 416.57" stroke="hsl(228.5, 77.2%, 51.5%)" stroke-width="1.5"></path><path d="M688.79 416.57L796.96 423.84" stroke="hsl(228.5, 77.2%, 51.5%)" stroke-width="1.5"></path><path d="M688.79 416.57L689.36 568.47" stroke="hsl(228.5, 77.2%, 51.5%)" stroke-width="1.5"></path><path d="M688.79 416.57L547.86 337.58" stroke="hsl(228.5, 77.2%, 51.5%)" stroke-width="1.5"></path><path d="M689.36 568.47L689.36 568.47" stroke="hsl(228.5, 77.2%, 51.5%)" stroke-width="1.5"></path><path d="M689.36 568.47L826.71 569.85" stroke="hsl(228.5, 77.2%, 51.5%)" stroke-width="1.5"></path><path d="M839.29 32.62L839.29 32.62" stroke="hsl(228.5, 77.2%, 51.5%)" stroke-width="1.5"></path><path d="M839.29 32.62L946.08 61.08" stroke="hsl(228.5, 77.2%, 51.5%)" stroke-width="1.5"></path><path d="M839.29 32.62L840.19 165.6" stroke="hsl(228.5, 77.2%, 51.5%)" stroke-width="1.5"></path><path d="M839.29 32.62L950.91 -82.93" stroke="hsl(228.5, 77.2%, 51.5%)" stroke-width="1.5"></path><path d="M840.19 165.6L840.19 165.6" stroke="hsl(228.5, 77.2%, 51.5%)" stroke-width="1.5"></path><path d="M796.96 423.84L796.96 423.84" stroke="hsl(228.5, 77.2%, 51.5%)" stroke-width="1.5"></path><path d="M796.96 423.84L826.71 569.85" stroke="hsl(228.5, 77.2%, 51.5%)" stroke-width="1.5"></path><path d="M796.96 423.84L950.92 418.95" stroke="hsl(228.5, 77.2%, 51.5%)" stroke-width="1.5"></path><path d="M796.96 423.84L689.36 568.47" stroke="hsl(228.5, 77.2%, 51.5%)" stroke-width="1.5"></path><path d="M826.71 569.85L826.71 569.85" stroke="hsl(228.5, 77.2%, 51.5%)" stroke-width="1.5"></path><path d="M826.71 569.85L957.68 558.06" stroke="hsl(228.5, 77.2%, 51.5%)" stroke-width="1.5"></path><path d="M826.71 569.85L930.68 664.7" stroke="hsl(228.5, 77.2%, 51.5%)" stroke-width="1.5"></path><path d="M950.91 -82.93L950.91 -82.93" stroke="hsl(228.5, 77.2%, 51.5%)" stroke-width="1.5"></path><path d="M950.91 -82.93L1090.16 -47.08" stroke="hsl(228.5, 77.2%, 51.5%)" stroke-width="1.5"></path><path d="M950.91 -82.93L946.08 61.08" stroke="hsl(228.5, 77.2%, 51.5%)" stroke-width="1.5"></path><path d="M950.91 -82.93L1089.71 66.07" stroke="hsl(228.5, 77.2%, 51.5%)" stroke-width="1.5"></path><path d="M950.91 -82.93L927.42 185.67" stroke="hsl(228.5, 77.2%, 51.5%)" stroke-width="1.5"></path><path d="M946.08 61.08L946.08 61.08" stroke="hsl(228.5, 77.2%, 51.5%)" stroke-width="1.5"></path><path d="M966.45 330.98L966.45 330.98" stroke="hsl(228.5, 77.2%, 51.5%)" stroke-width="1.5"></path><path d="M966.45 330.98L1041.59 298.14" stroke="hsl(228.5, 77.2%, 51.5%)" stroke-width="1.5"></path><path d="M966.45 330.98L950.92 418.95" stroke="hsl(228.5, 77.2%, 51.5%)" stroke-width="1.5"></path><path d="M966.45 330.98L1066.83 434.52" stroke="hsl(228.5, 77.2%, 51.5%)" stroke-width="1.5"></path><path d="M950.92 418.95L950.92 418.95" stroke="hsl(228.5, 77.2%, 51.5%)" stroke-width="1.5"></path><path d="M950.92 418.95L1066.83 434.52" stroke="hsl(228.5, 77.2%, 51.5%)" stroke-width="1.5"></path><path d="M950.92 418.95L957.68 558.06" stroke="hsl(228.5, 77.2%, 51.5%)" stroke-width="1.5"></path><path d="M950.92 418.95L1041.59 298.14" stroke="hsl(228.5, 77.2%, 51.5%)" stroke-width="1.5"></path><path d="M957.68 558.06L957.68 558.06" stroke="hsl(228.5, 77.2%, 51.5%)" stroke-width="1.5"></path><path d="M957.68 558.06L1032.13 558.31" stroke="hsl(228.5, 77.2%, 51.5%)" stroke-width="1.5"></path><path d="M957.68 558.06L930.68 664.7" stroke="hsl(228.5, 77.2%, 51.5%)" stroke-width="1.5"></path><path d="M930.68 664.7L930.68 664.7" stroke="hsl(228.5, 77.2%, 51.5%)" stroke-width="1.5"></path><path d="M1090.16 -47.08L1090.16 -47.08" stroke="hsl(228.5, 77.2%, 51.5%)" stroke-width="1.5"></path><path d="M1090.16 -47.08L946.08 61.08" stroke="hsl(228.5, 77.2%, 51.5%)" stroke-width="1.5"></path><path d="M1090.16 -47.08L1050.97 167.92" stroke="hsl(228.5, 77.2%, 51.5%)" stroke-width="1.5"></path><path d="M1090.16 -47.08L839.29 32.62" stroke="hsl(228.5, 77.2%, 51.5%)" stroke-width="1.5"></path><path d="M1050.97 167.92L1050.97 167.92" stroke="hsl(228.5, 77.2%, 51.5%)" stroke-width="1.5"></path><path d="M1041.59 298.14L1041.59 298.14" stroke="hsl(228.5, 77.2%, 51.5%)" stroke-width="1.5"></path><path d="M1041.59 298.14L1050.97 167.92" stroke="hsl(228.5, 77.2%, 51.5%)" stroke-width="1.5"></path><path d="M1066.83 434.52L1066.83 434.52" stroke="hsl(228.5, 77.2%, 51.5%)" stroke-width="1.5"></path><path d="M1066.83 434.52L1032.13 558.31" stroke="hsl(228.5, 77.2%, 51.5%)" stroke-width="1.5"></path><path d="M1032.13 558.31L1032.13 558.31" stroke="hsl(228.5, 77.2%, 51.5%)" stroke-width="1.5"></path><path d="M1032.13 558.31L1069.07 698.51" stroke="hsl(228.5, 77.2%, 51.5%)" stroke-width="1.5"></path><path d="M1032.13 558.31L930.68 664.7" stroke="hsl(228.5, 77.2%, 51.5%)" stroke-width="1.5"></path><path d="M1069.07 698.51L1069.07 698.51" stroke="hsl(228.5, 77.2%, 51.5%)" stroke-width="1.5"></path><path d="M1069.07 698.51L930.68 664.7" stroke="hsl(228.5, 77.2%, 51.5%)" stroke-width="1.5"></path><path d="M1069.07 698.51L957.68 558.06" stroke="hsl(228.5, 77.2%, 51.5%)" stroke-width="1.5"></path><circle r="25" cx="217.31" cy="454.03" fill="url(&quot;#SvgjsRadialGradient1023&quot;)"></circle><circle r="25" cx="545.54" cy="565.97" fill="url(&quot;#SvgjsRadialGradient1023&quot;)"></circle><circle r="25" cx="661.45" cy="705.26" fill="url(&quot;#SvgjsRadialGradient1023&quot;)"></circle><circle r="25" cx="824.01" cy="-81.24" fill="url(&quot;#SvgjsRadialGradient1023&quot;)"></circle><circle r="25" cx="795.55" cy="292.01" fill="url(&quot;#SvgjsRadialGradient1023&quot;)"></circle><circle r="25" cx="798.23" cy="673.29" fill="url(&quot;#SvgjsRadialGradient1023&quot;)"></circle><circle r="25" cx="927.42" cy="185.67" fill="url(&quot;#SvgjsRadialGradient1023&quot;)"></circle><circle r="25" cx="1089.71" cy="66.07" fill="url(&quot;#SvgjsRadialGradient1023&quot;)"></circle><circle r="5" cx="-73.01" cy="706.36" fill="#8b9ad9"></circle><circle r="5" cx="38.59" cy="552.22" fill="#8b9ad9"></circle><circle r="5" cx="58.51" cy="706.09" fill="#8b9ad9"></circle><circle r="5" cx="177.82" cy="538.6" fill="#8b9ad9"></circle><circle r="5" cx="156.88" cy="679.33" fill="#8b9ad9"></circle><circle r="5" cx="326.71" cy="431.37" fill="#8b9ad9"></circle><circle r="5" cx="285.37" cy="540.19" fill="#8b9ad9"></circle><circle r="5" cx="456.3" cy="445.98" fill="#8b9ad9"></circle><circle r="5" cx="444.5" cy="591.27" fill="#8b9ad9"></circle><circle r="5" cx="424.26" cy="711.2" fill="#8b9ad9"></circle><circle r="5" cx="547.86" cy="337.58" fill="#8b9ad9"></circle><circle r="5" cx="573.68" cy="433.58" fill="#8b9ad9"></circle><circle r="5" cx="587.51" cy="681.83" fill="#8b9ad9"></circle><circle r="5" cx="681.55" cy="336.53" fill="#8b9ad9"></circle><circle r="5" cx="688.79" cy="416.57" fill="#8b9ad9"></circle><circle r="5" cx="689.36" cy="568.47" fill="#8b9ad9"></circle><circle r="5" cx="839.29" cy="32.62" fill="#8b9ad9"></circle><circle r="5" cx="840.19" cy="165.6" fill="#8b9ad9"></circle><circle r="5" cx="796.96" cy="423.84" fill="#8b9ad9"></circle><circle r="5" cx="826.71" cy="569.85" fill="#8b9ad9"></circle><circle r="5" cx="950.91" cy="-82.93" fill="#8b9ad9"></circle><circle r="5" cx="946.08" cy="61.08" fill="#8b9ad9"></circle><circle r="5" cx="966.45" cy="330.98" fill="#8b9ad9"></circle><circle r="5" cx="950.92" cy="418.95" fill="#8b9ad9"></circle><circle r="5" cx="957.68" cy="558.06" fill="#8b9ad9"></circle><circle r="5" cx="930.68" cy="664.7" fill="#8b9ad9"></circle><circle r="5" cx="1090.16" cy="-47.08" fill="#8b9ad9"></circle><circle r="5" cx="1050.97" cy="167.92" fill="#8b9ad9"></circle><circle r="5" cx="1041.59" cy="298.14" fill="#8b9ad9"></circle><circle r="5" cx="1066.83" cy="434.52" fill="#8b9ad9"></circle><circle r="5" cx="1032.13" cy="558.31" fill="#8b9ad9"></circle><circle r="5" cx="1069.07" cy="698.51" fill="#8b9ad9"></circle></g><defs><mask id="SvgjsMask1022"><rect width="1000" height="560" fill="#ffffff"></rect></mask><radialGradient id="SvgjsRadialGradient1023"><stop stop-color="#ffffff" offset="0.1"></stop><stop stop-color="#1735b3" offset="0.2"></stop><stop stop-color="rgba(23, 53, 179, 0)" offset="1"></stop></radialGradient></defs></svg>