<svg xmlns="http://www.w3.org/2000/svg" version="1.1" xmlns:xlink="http://www.w3.org/1999/xlink" xmlns:svgjs="http://svgjs.dev/svgjs" width="1000" height="560" preserveAspectRatio="none" viewBox="0 0 1000 560"><g mask="url(&quot;#SvgjsMask1024&quot;)" fill="none"><rect width="1000" height="560" x="0" y="0" fill="#0e2a47"></rect><path d="M-67.24 445.29L-67.24 445.29" stroke="#132e65" stroke-width="1.5"></path><path d="M-67.24 445.29L57.48 445.49" stroke="#132e65" stroke-width="1.5"></path><path d="M-67.24 445.29L-74.35 587.97" stroke="#132e65" stroke-width="1.5"></path><path d="M-74.35 587.97L-74.35 587.97" stroke="#132e65" stroke-width="1.5"></path><path d="M-74.35 587.97L-34.32 680.91" stroke="#132e65" stroke-width="1.5"></path><path d="M-74.35 587.97L39.36 543.65" stroke="#132e65" stroke-width="1.5"></path><path d="M-74.35 587.97L58.65 693.91" stroke="#132e65" stroke-width="1.5"></path><path d="M-74.35 587.97L57.48 445.49" stroke="#132e65" stroke-width="1.5"></path><path d="M-34.32 680.91L-34.32 680.91" stroke="#132e65" stroke-width="1.5"></path><path d="M-34.32 680.91L58.65 693.91" stroke="#132e65" stroke-width="1.5"></path><path d="M-34.32 680.91L39.36 543.65" stroke="#132e65" stroke-width="1.5"></path><path d="M-34.32 680.91L172.92 700.03" stroke="#132e65" stroke-width="1.5"></path><path d="M-34.32 680.91L175.28 577.77" stroke="#132e65" stroke-width="1.5"></path><path d="M-34.32 680.91L-67.24 445.29" stroke="#132e65" stroke-width="1.5"></path><path d="M57.48 445.49L57.48 445.49" stroke="#132e65" stroke-width="1.5"></path><path d="M57.48 445.49L39.36 543.65" stroke="#132e65" stroke-width="1.5"></path><path d="M57.48 445.49L169.5 438.96" stroke="#132e65" stroke-width="1.5"></path><path d="M57.48 445.49L175.28 577.77" stroke="#132e65" stroke-width="1.5"></path><path d="M57.48 445.49L283.68 547.61" stroke="#132e65" stroke-width="1.5"></path><path d="M39.36 543.65L39.36 543.65" stroke="#132e65" stroke-width="1.5"></path><path d="M39.36 543.65L175.28 577.77" stroke="#132e65" stroke-width="1.5"></path><path d="M39.36 543.65L-67.24 445.29" stroke="#132e65" stroke-width="1.5"></path><path d="M39.36 543.65L58.65 693.91" stroke="#132e65" stroke-width="1.5"></path><path d="M58.65 693.91L58.65 693.91" stroke="#132e65" stroke-width="1.5"></path><path d="M58.65 693.91L172.92 700.03" stroke="#132e65" stroke-width="1.5"></path><path d="M169.5 438.96L169.5 438.96" stroke="#132e65" stroke-width="1.5"></path><path d="M169.5 438.96L175.28 577.77" stroke="#132e65" stroke-width="1.5"></path><path d="M175.28 577.77L175.28 577.77" stroke="#132e65" stroke-width="1.5"></path><path d="M175.28 577.77L283.68 547.61" stroke="#132e65" stroke-width="1.5"></path><path d="M175.28 577.77L172.92 700.03" stroke="#132e65" stroke-width="1.5"></path><path d="M172.92 700.03L172.92 700.03" stroke="#132e65" stroke-width="1.5"></path><path d="M172.92 700.03L308.52 679.16" stroke="#132e65" stroke-width="1.5"></path><path d="M172.92 700.03L283.68 547.61" stroke="#132e65" stroke-width="1.5"></path><path d="M172.92 700.03L39.36 543.65" stroke="#132e65" stroke-width="1.5"></path><path d="M291.64 332.07L291.64 332.07" stroke="#132e65" stroke-width="1.5"></path><path d="M291.64 332.07L316.63 450" stroke="#132e65" stroke-width="1.5"></path><path d="M291.64 332.07L445.19 282.4" stroke="#132e65" stroke-width="1.5"></path><path d="M291.64 332.07L169.5 438.96" stroke="#132e65" stroke-width="1.5"></path><path d="M316.63 450L316.63 450" stroke="#132e65" stroke-width="1.5"></path><path d="M316.63 450L283.68 547.61" stroke="#132e65" stroke-width="1.5"></path><path d="M316.63 450L434.07 464.31" stroke="#132e65" stroke-width="1.5"></path><path d="M283.68 547.61L283.68 547.61" stroke="#132e65" stroke-width="1.5"></path><path d="M283.68 547.61L308.52 679.16" stroke="#132e65" stroke-width="1.5"></path><path d="M308.52 679.16L308.52 679.16" stroke="#132e65" stroke-width="1.5"></path><path d="M308.52 679.16L432.41 684.27" stroke="#132e65" stroke-width="1.5"></path><path d="M308.52 679.16L175.28 577.77" stroke="#132e65" stroke-width="1.5"></path><path d="M308.52 679.16L455.27 552.82" stroke="#132e65" stroke-width="1.5"></path><path d="M445.19 282.4L445.19 282.4" stroke="#132e65" stroke-width="1.5"></path><path d="M445.19 282.4L539.05 316.89" stroke="#132e65" stroke-width="1.5"></path><path d="M445.19 282.4L546.82 161.7" stroke="#132e65" stroke-width="1.5"></path><path d="M445.19 282.4L434.07 464.31" stroke="#132e65" stroke-width="1.5"></path><path d="M445.19 282.4L566.59 420.84" stroke="#132e65" stroke-width="1.5"></path><path d="M434.07 464.31L434.07 464.31" stroke="#132e65" stroke-width="1.5"></path><path d="M434.07 464.31L455.27 552.82" stroke="#132e65" stroke-width="1.5"></path><path d="M455.27 552.82L455.27 552.82" stroke="#132e65" stroke-width="1.5"></path><path d="M455.27 552.82L539.12 542" stroke="#132e65" stroke-width="1.5"></path><path d="M455.27 552.82L432.41 684.27" stroke="#132e65" stroke-width="1.5"></path><path d="M455.27 552.82L283.68 547.61" stroke="#132e65" stroke-width="1.5"></path><path d="M455.27 552.82L316.63 450" stroke="#132e65" stroke-width="1.5"></path><path d="M432.41 684.27L432.41 684.27" stroke="#132e65" stroke-width="1.5"></path><path d="M432.41 684.27L585.28 695.39" stroke="#132e65" stroke-width="1.5"></path><path d="M546.82 161.7L546.82 161.7" stroke="#132e65" stroke-width="1.5"></path><path d="M546.82 161.7L539.05 316.89" stroke="#132e65" stroke-width="1.5"></path><path d="M546.82 161.7L673.68 44.74" stroke="#132e65" stroke-width="1.5"></path><path d="M546.82 161.7L717.17 215.76" stroke="#132e65" stroke-width="1.5"></path><path d="M546.82 161.7L666.27 311.74" stroke="#132e65" stroke-width="1.5"></path><path d="M539.05 316.89L539.05 316.89" stroke="#132e65" stroke-width="1.5"></path><path d="M539.05 316.89L566.59 420.84" stroke="#132e65" stroke-width="1.5"></path><path d="M539.05 316.89L666.27 311.74" stroke="#132e65" stroke-width="1.5"></path><path d="M566.59 420.84L566.59 420.84" stroke="#132e65" stroke-width="1.5"></path><path d="M566.59 420.84L673.66 432.28" stroke="#132e65" stroke-width="1.5"></path><path d="M566.59 420.84L539.12 542" stroke="#132e65" stroke-width="1.5"></path><path d="M566.59 420.84L434.07 464.31" stroke="#132e65" stroke-width="1.5"></path><path d="M566.59 420.84L666.27 311.74" stroke="#132e65" stroke-width="1.5"></path><path d="M566.59 420.84L677.83 543.55" stroke="#132e65" stroke-width="1.5"></path><path d="M539.12 542L539.12 542" stroke="#132e65" stroke-width="1.5"></path><path d="M539.12 542L434.07 464.31" stroke="#132e65" stroke-width="1.5"></path><path d="M539.12 542L677.83 543.55" stroke="#132e65" stroke-width="1.5"></path><path d="M539.12 542L585.28 695.39" stroke="#132e65" stroke-width="1.5"></path><path d="M585.28 695.39L585.28 695.39" stroke="#132e65" stroke-width="1.5"></path><path d="M585.28 695.39L684.21 700.73" stroke="#132e65" stroke-width="1.5"></path><path d="M585.28 695.39L677.83 543.55" stroke="#132e65" stroke-width="1.5"></path><path d="M585.28 695.39L455.27 552.82" stroke="#132e65" stroke-width="1.5"></path><path d="M711.86 -75.55L711.86 -75.55" stroke="#132e65" stroke-width="1.5"></path><path d="M711.86 -75.55L826.08 -39.94" stroke="#132e65" stroke-width="1.5"></path><path d="M711.86 -75.55L673.68 44.74" stroke="#132e65" stroke-width="1.5"></path><path d="M711.86 -75.55L810.09 34.26" stroke="#132e65" stroke-width="1.5"></path><path d="M711.86 -75.55L923.99 43.33" stroke="#132e65" stroke-width="1.5"></path><path d="M673.68 44.74L673.68 44.74" stroke="#132e65" stroke-width="1.5"></path><path d="M673.68 44.74L810.09 34.26" stroke="#132e65" stroke-width="1.5"></path><path d="M673.68 44.74L826.08 -39.94" stroke="#132e65" stroke-width="1.5"></path><path d="M717.17 215.76L717.17 215.76" stroke="#132e65" stroke-width="1.5"></path><path d="M717.17 215.76L811.67 171.32" stroke="#132e65" stroke-width="1.5"></path><path d="M717.17 215.76L666.27 311.74" stroke="#132e65" stroke-width="1.5"></path><path d="M717.17 215.76L812.66 314.55" stroke="#132e65" stroke-width="1.5"></path><path d="M717.17 215.76L673.68 44.74" stroke="#132e65" stroke-width="1.5"></path><path d="M666.27 311.74L666.27 311.74" stroke="#132e65" stroke-width="1.5"></path><path d="M666.27 311.74L673.66 432.28" stroke="#132e65" stroke-width="1.5"></path><path d="M666.27 311.74L812.66 314.55" stroke="#132e65" stroke-width="1.5"></path><path d="M673.66 432.28L673.66 432.28" stroke="#132e65" stroke-width="1.5"></path><path d="M673.66 432.28L677.83 543.55" stroke="#132e65" stroke-width="1.5"></path><path d="M673.66 432.28L794.31 417.01" stroke="#132e65" stroke-width="1.5"></path><path d="M673.66 432.28L539.12 542" stroke="#132e65" stroke-width="1.5"></path><path d="M673.66 432.28L539.05 316.89" stroke="#132e65" stroke-width="1.5"></path><path d="M677.83 543.55L677.83 543.55" stroke="#132e65" stroke-width="1.5"></path><path d="M677.83 543.55L795.86 562.6" stroke="#132e65" stroke-width="1.5"></path><path d="M684.21 700.73L684.21 700.73" stroke="#132e65" stroke-width="1.5"></path><path d="M684.21 700.73L833.13 717.91" stroke="#132e65" stroke-width="1.5"></path><path d="M684.21 700.73L677.83 543.55" stroke="#132e65" stroke-width="1.5"></path><path d="M826.08 -39.94L826.08 -39.94" stroke="#132e65" stroke-width="1.5"></path><path d="M826.08 -39.94L810.09 34.26" stroke="#132e65" stroke-width="1.5"></path><path d="M810.09 34.26L810.09 34.26" stroke="#132e65" stroke-width="1.5"></path><path d="M810.09 34.26L923.99 43.33" stroke="#132e65" stroke-width="1.5"></path><path d="M810.09 34.26L811.67 171.32" stroke="#132e65" stroke-width="1.5"></path><path d="M811.67 171.32L811.67 171.32" stroke="#132e65" stroke-width="1.5"></path><path d="M811.67 171.32L944.21 200.83" stroke="#132e65" stroke-width="1.5"></path><path d="M812.66 314.55L812.66 314.55" stroke="#132e65" stroke-width="1.5"></path><path d="M812.66 314.55L794.31 417.01" stroke="#132e65" stroke-width="1.5"></path><path d="M812.66 314.55L811.67 171.32" stroke="#132e65" stroke-width="1.5"></path><path d="M812.66 314.55L953.83 340.9" stroke="#132e65" stroke-width="1.5"></path><path d="M812.66 314.55L944.21 200.83" stroke="#132e65" stroke-width="1.5"></path><path d="M794.31 417.01L794.31 417.01" stroke="#132e65" stroke-width="1.5"></path><path d="M794.31 417.01L795.86 562.6" stroke="#132e65" stroke-width="1.5"></path><path d="M794.31 417.01L949.4 467.37" stroke="#132e65" stroke-width="1.5"></path><path d="M795.86 562.6L795.86 562.6" stroke="#132e65" stroke-width="1.5"></path><path d="M833.13 717.91L833.13 717.91" stroke="#132e65" stroke-width="1.5"></path><path d="M833.13 717.91L952.41 696.9" stroke="#132e65" stroke-width="1.5"></path><path d="M962.02 -60.96L962.02 -60.96" stroke="#132e65" stroke-width="1.5"></path><path d="M962.02 -60.96L923.99 43.33" stroke="#132e65" stroke-width="1.5"></path><path d="M962.02 -60.96L826.08 -39.94" stroke="#132e65" stroke-width="1.5"></path><path d="M923.99 43.33L923.99 43.33" stroke="#132e65" stroke-width="1.5"></path><path d="M944.21 200.83L944.21 200.83" stroke="#132e65" stroke-width="1.5"></path><path d="M944.21 200.83L1075.33 185.52" stroke="#132e65" stroke-width="1.5"></path><path d="M944.21 200.83L953.83 340.9" stroke="#132e65" stroke-width="1.5"></path><path d="M944.21 200.83L923.99 43.33" stroke="#132e65" stroke-width="1.5"></path><path d="M953.83 340.9L953.83 340.9" stroke="#132e65" stroke-width="1.5"></path><path d="M953.83 340.9L949.4 467.37" stroke="#132e65" stroke-width="1.5"></path><path d="M953.83 340.9L1092.4 324.98" stroke="#132e65" stroke-width="1.5"></path><path d="M949.4 467.37L949.4 467.37" stroke="#132e65" stroke-width="1.5"></path><path d="M949.4 467.37L959.94 570.53" stroke="#132e65" stroke-width="1.5"></path><path d="M949.4 467.37L1073.69 433.32" stroke="#132e65" stroke-width="1.5"></path><path d="M949.4 467.37L1082.32 540.54" stroke="#132e65" stroke-width="1.5"></path><path d="M959.94 570.53L959.94 570.53" stroke="#132e65" stroke-width="1.5"></path><path d="M959.94 570.53L1082.32 540.54" stroke="#132e65" stroke-width="1.5"></path><path d="M959.94 570.53L952.41 696.9" stroke="#132e65" stroke-width="1.5"></path><path d="M959.94 570.53L795.86 562.6" stroke="#132e65" stroke-width="1.5"></path><path d="M959.94 570.53L1073.69 433.32" stroke="#132e65" stroke-width="1.5"></path><path d="M952.41 696.9L952.41 696.9" stroke="#132e65" stroke-width="1.5"></path><path d="M952.41 696.9L1082.32 540.54" stroke="#132e65" stroke-width="1.5"></path><path d="M952.41 696.9L795.86 562.6" stroke="#132e65" stroke-width="1.5"></path><path d="M952.41 696.9L949.4 467.37" stroke="#132e65" stroke-width="1.5"></path><path d="M1075.33 185.52L1075.33 185.52" stroke="#132e65" stroke-width="1.5"></path><path d="M1075.33 185.52L1092.4 324.98" stroke="#132e65" stroke-width="1.5"></path><path d="M1075.33 185.52L953.83 340.9" stroke="#132e65" stroke-width="1.5"></path><path d="M1092.4 324.98L1092.4 324.98" stroke="#132e65" stroke-width="1.5"></path><path d="M1092.4 324.98L1073.69 433.32" stroke="#132e65" stroke-width="1.5"></path><path d="M1092.4 324.98L944.21 200.83" stroke="#132e65" stroke-width="1.5"></path><path d="M1092.4 324.98L949.4 467.37" stroke="#132e65" stroke-width="1.5"></path><path d="M1073.69 433.32L1073.69 433.32" stroke="#132e65" stroke-width="1.5"></path><path d="M1073.69 433.32L1082.32 540.54" stroke="#132e65" stroke-width="1.5"></path><path d="M1073.69 433.32L953.83 340.9" stroke="#132e65" stroke-width="1.5"></path><path d="M1082.32 540.54L1082.32 540.54" stroke="#132e65" stroke-width="1.5"></path><circle r="5" cx="-67.24" cy="445.29" fill="#132e65"></circle><circle r="5" cx="-74.35" cy="587.97" fill="#132e65"></circle><circle r="5" cx="-34.32" cy="680.91" fill="#132e65"></circle><circle r="5" cx="57.48" cy="445.49" fill="#132e65"></circle><circle r="5" cx="39.36" cy="543.65" fill="#132e65"></circle><circle r="5" cx="58.65" cy="693.91" fill="#132e65"></circle><circle r="5" cx="169.5" cy="438.96" fill="#132e65"></circle><circle r="5" cx="175.28" cy="577.77" fill="#132e65"></circle><circle r="5" cx="172.92" cy="700.03" fill="#132e65"></circle><circle r="5" cx="291.64" cy="332.07" fill="#132e65"></circle><circle r="5" cx="316.63" cy="450" fill="#132e65"></circle><circle r="5" cx="283.68" cy="547.61" fill="#132e65"></circle><circle r="5" cx="308.52" cy="679.16" fill="#132e65"></circle><circle r="5" cx="445.19" cy="282.4" fill="#132e65"></circle><circle r="5" cx="434.07" cy="464.31" fill="#132e65"></circle><circle r="5" cx="455.27" cy="552.82" fill="#132e65"></circle><circle r="5" cx="432.41" cy="684.27" fill="#132e65"></circle><circle r="5" cx="546.82" cy="161.7" fill="#132e65"></circle><circle r="5" cx="539.05" cy="316.89" fill="#132e65"></circle><circle r="5" cx="566.59" cy="420.84" fill="#132e65"></circle><circle r="5" cx="539.12" cy="542" fill="#132e65"></circle><circle r="5" cx="585.28" cy="695.39" fill="#132e65"></circle><circle r="5" cx="711.86" cy="-75.55" fill="#132e65"></circle><circle r="5" cx="673.68" cy="44.74" fill="#132e65"></circle><circle r="5" cx="717.17" cy="215.76" fill="#132e65"></circle><circle r="5" cx="666.27" cy="311.74" fill="#132e65"></circle><circle r="5" cx="673.66" cy="432.28" fill="#132e65"></circle><circle r="5" cx="677.83" cy="543.55" fill="#132e65"></circle><circle r="5" cx="684.21" cy="700.73" fill="#132e65"></circle><circle r="5" cx="826.08" cy="-39.94" fill="#132e65"></circle><circle r="5" cx="810.09" cy="34.26" fill="#132e65"></circle><circle r="5" cx="811.67" cy="171.32" fill="#132e65"></circle><circle r="5" cx="812.66" cy="314.55" fill="#132e65"></circle><circle r="5" cx="794.31" cy="417.01" fill="#132e65"></circle><circle r="5" cx="795.86" cy="562.6" fill="#132e65"></circle><circle r="5" cx="833.13" cy="717.91" fill="#132e65"></circle><circle r="5" cx="962.02" cy="-60.96" fill="#132e65"></circle><circle r="5" cx="923.99" cy="43.33" fill="#132e65"></circle><circle r="5" cx="944.21" cy="200.83" fill="#132e65"></circle><circle r="5" cx="953.83" cy="340.9" fill="#132e65"></circle><circle r="5" cx="949.4" cy="467.37" fill="#132e65"></circle><circle r="5" cx="959.94" cy="570.53" fill="#132e65"></circle><circle r="5" cx="952.41" cy="696.9" fill="#132e65"></circle><circle r="5" cx="1075.33" cy="185.52" fill="#132e65"></circle><circle r="5" cx="1092.4" cy="324.98" fill="#132e65"></circle><circle r="5" cx="1073.69" cy="433.32" fill="#132e65"></circle><circle r="5" cx="1082.32" cy="540.54" fill="#132e65"></circle><path d="M57.32 455.23L57.32 455.23" stroke="hsl(228.5, 77.2%, 51.5%)" stroke-width="1.5"></path><path d="M57.32 455.23L175.45 446.27" stroke="hsl(228.5, 77.2%, 51.5%)" stroke-width="1.5"></path><path d="M57.32 455.23L-86.51 453.4" stroke="hsl(228.5, 77.2%, 51.5%)" stroke-width="1.5"></path><path d="M57.32 455.23L172.04 584.68" stroke="hsl(228.5, 77.2%, 51.5%)" stroke-width="1.5"></path><path d="M57.32 455.23L-56.07 587.35" stroke="hsl(228.5, 77.2%, 51.5%)" stroke-width="1.5"></path><path d="M57.32 455.23L92.23 668.92" stroke="hsl(228.5, 77.2%, 51.5%)" stroke-width="1.5"></path><path d="M156.92 699.91L156.92 699.91" stroke="hsl(228.5, 77.2%, 51.5%)" stroke-width="1.5"></path><path d="M156.92 699.91L92.23 668.92" stroke="hsl(228.5, 77.2%, 51.5%)" stroke-width="1.5"></path><path d="M156.92 699.91L172.04 584.68" stroke="hsl(228.5, 77.2%, 51.5%)" stroke-width="1.5"></path><path d="M156.92 699.91L289.07 690.54" stroke="hsl(228.5, 77.2%, 51.5%)" stroke-width="1.5"></path><path d="M156.92 699.91L298.67 578.57" stroke="hsl(228.5, 77.2%, 51.5%)" stroke-width="1.5"></path><path d="M156.92 699.91L-62.58 703.32" stroke="hsl(228.5, 77.2%, 51.5%)" stroke-width="1.5"></path><path d="M156.92 699.91L-56.07 587.35" stroke="hsl(228.5, 77.2%, 51.5%)" stroke-width="1.5"></path><path d="M289.07 690.54L289.07 690.54" stroke="hsl(228.5, 77.2%, 51.5%)" stroke-width="1.5"></path><path d="M289.07 690.54L298.67 578.57" stroke="hsl(228.5, 77.2%, 51.5%)" stroke-width="1.5"></path><path d="M683.26 714.21L683.26 714.21" stroke="hsl(228.5, 77.2%, 51.5%)" stroke-width="1.5"></path><path d="M683.26 714.21L586.22 660.44" stroke="hsl(228.5, 77.2%, 51.5%)" stroke-width="1.5"></path><path d="M683.26 714.21L815.17 668.27" stroke="hsl(228.5, 77.2%, 51.5%)" stroke-width="1.5"></path><path d="M683.26 714.21L672.21 573.42" stroke="hsl(228.5, 77.2%, 51.5%)" stroke-width="1.5"></path><path d="M683.26 714.21L785.88 557.17" stroke="hsl(228.5, 77.2%, 51.5%)" stroke-width="1.5"></path><path d="M815.72 441.24L815.72 441.24" stroke="hsl(228.5, 77.2%, 51.5%)" stroke-width="1.5"></path><path d="M815.72 441.24L711.3 428.76" stroke="hsl(228.5, 77.2%, 51.5%)" stroke-width="1.5"></path><path d="M815.72 441.24L920.8 409.74" stroke="hsl(228.5, 77.2%, 51.5%)" stroke-width="1.5"></path><path d="M815.72 441.24L785.88 557.17" stroke="hsl(228.5, 77.2%, 51.5%)" stroke-width="1.5"></path><path d="M815.72 441.24L803.24 305.22" stroke="hsl(228.5, 77.2%, 51.5%)" stroke-width="1.5"></path><path d="M815.72 441.24L930.71 329.17" stroke="hsl(228.5, 77.2%, 51.5%)" stroke-width="1.5"></path><path d="M815.72 441.24L950.13 545.27" stroke="hsl(228.5, 77.2%, 51.5%)" stroke-width="1.5"></path><path d="M967.4 716.65L967.4 716.65" stroke="hsl(228.5, 77.2%, 51.5%)" stroke-width="1.5"></path><path d="M967.4 716.65L1092.24 702.85" stroke="hsl(228.5, 77.2%, 51.5%)" stroke-width="1.5"></path><path d="M967.4 716.65L815.17 668.27" stroke="hsl(228.5, 77.2%, 51.5%)" stroke-width="1.5"></path><path d="M967.4 716.65L950.13 545.27" stroke="hsl(228.5, 77.2%, 51.5%)" stroke-width="1.5"></path><path d="M967.4 716.65L1084.51 567.34" stroke="hsl(228.5, 77.2%, 51.5%)" stroke-width="1.5"></path><path d="M967.4 716.65L785.88 557.17" stroke="hsl(228.5, 77.2%, 51.5%)" stroke-width="1.5"></path><path d="M967.4 716.65L683.26 714.21" stroke="hsl(228.5, 77.2%, 51.5%)" stroke-width="1.5"></path><path d="M1044.41 417.36L1044.41 417.36" stroke="hsl(228.5, 77.2%, 51.5%)" stroke-width="1.5"></path><path d="M1044.41 417.36L1032.67 295.55" stroke="hsl(228.5, 77.2%, 51.5%)" stroke-width="1.5"></path><path d="M1044.41 417.36L920.8 409.74" stroke="hsl(228.5, 77.2%, 51.5%)" stroke-width="1.5"></path><path d="M1044.41 417.36L930.71 329.17" stroke="hsl(228.5, 77.2%, 51.5%)" stroke-width="1.5"></path><path d="M-86.51 453.4L-86.51 453.4" stroke="hsl(228.5, 77.2%, 51.5%)" stroke-width="1.5"></path><path d="M-86.51 453.4L-56.07 587.35" stroke="hsl(228.5, 77.2%, 51.5%)" stroke-width="1.5"></path><path d="M-86.51 453.4L-62.58 703.32" stroke="hsl(228.5, 77.2%, 51.5%)" stroke-width="1.5"></path><path d="M-86.51 453.4L175.45 446.27" stroke="hsl(228.5, 77.2%, 51.5%)" stroke-width="1.5"></path><path d="M-56.07 587.35L-56.07 587.35" stroke="hsl(228.5, 77.2%, 51.5%)" stroke-width="1.5"></path><path d="M-56.07 587.35L-62.58 703.32" stroke="hsl(228.5, 77.2%, 51.5%)" stroke-width="1.5"></path><path d="M-56.07 587.35L92.23 668.92" stroke="hsl(228.5, 77.2%, 51.5%)" stroke-width="1.5"></path><path d="M-56.07 587.35L172.04 584.68" stroke="hsl(228.5, 77.2%, 51.5%)" stroke-width="1.5"></path><path d="M-62.58 703.32L-62.58 703.32" stroke="hsl(228.5, 77.2%, 51.5%)" stroke-width="1.5"></path><path d="M-62.58 703.32L92.23 668.92" stroke="hsl(228.5, 77.2%, 51.5%)" stroke-width="1.5"></path><path d="M92.23 668.92L92.23 668.92" stroke="hsl(228.5, 77.2%, 51.5%)" stroke-width="1.5"></path><path d="M92.23 668.92L172.04 584.68" stroke="hsl(228.5, 77.2%, 51.5%)" stroke-width="1.5"></path><path d="M175.45 446.27L175.45 446.27" stroke="hsl(228.5, 77.2%, 51.5%)" stroke-width="1.5"></path><path d="M175.45 446.27L172.04 584.68" stroke="hsl(228.5, 77.2%, 51.5%)" stroke-width="1.5"></path><path d="M175.45 446.27L330.64 417.89" stroke="hsl(228.5, 77.2%, 51.5%)" stroke-width="1.5"></path><path d="M175.45 446.27L298.67 578.57" stroke="hsl(228.5, 77.2%, 51.5%)" stroke-width="1.5"></path><path d="M175.45 446.27L92.23 668.92" stroke="hsl(228.5, 77.2%, 51.5%)" stroke-width="1.5"></path><path d="M172.04 584.68L172.04 584.68" stroke="hsl(228.5, 77.2%, 51.5%)" stroke-width="1.5"></path><path d="M172.04 584.68L298.67 578.57" stroke="hsl(228.5, 77.2%, 51.5%)" stroke-width="1.5"></path><path d="M330.64 417.89L330.64 417.89" stroke="hsl(228.5, 77.2%, 51.5%)" stroke-width="1.5"></path><path d="M330.64 417.89L467.19 409.64" stroke="hsl(228.5, 77.2%, 51.5%)" stroke-width="1.5"></path><path d="M330.64 417.89L415.22 550.35" stroke="hsl(228.5, 77.2%, 51.5%)" stroke-width="1.5"></path><path d="M298.67 578.57L298.67 578.57" stroke="hsl(228.5, 77.2%, 51.5%)" stroke-width="1.5"></path><path d="M298.67 578.57L415.22 550.35" stroke="hsl(228.5, 77.2%, 51.5%)" stroke-width="1.5"></path><path d="M298.67 578.57L330.64 417.89" stroke="hsl(228.5, 77.2%, 51.5%)" stroke-width="1.5"></path><path d="M467.19 409.64L467.19 409.64" stroke="hsl(228.5, 77.2%, 51.5%)" stroke-width="1.5"></path><path d="M467.19 409.64L541.6 443.54" stroke="hsl(228.5, 77.2%, 51.5%)" stroke-width="1.5"></path><path d="M415.22 550.35L415.22 550.35" stroke="hsl(228.5, 77.2%, 51.5%)" stroke-width="1.5"></path><path d="M415.22 550.35L467.19 409.64" stroke="hsl(228.5, 77.2%, 51.5%)" stroke-width="1.5"></path><path d="M415.22 550.35L443.09 700.35" stroke="hsl(228.5, 77.2%, 51.5%)" stroke-width="1.5"></path><path d="M443.09 700.35L443.09 700.35" stroke="hsl(228.5, 77.2%, 51.5%)" stroke-width="1.5"></path><path d="M443.09 700.35L586.22 660.44" stroke="hsl(228.5, 77.2%, 51.5%)" stroke-width="1.5"></path><path d="M577.66 317.68L577.66 317.68" stroke="hsl(228.5, 77.2%, 51.5%)" stroke-width="1.5"></path><path d="M577.66 317.68L670.33 316.79" stroke="hsl(228.5, 77.2%, 51.5%)" stroke-width="1.5"></path><path d="M577.66 317.68L541.6 443.54" stroke="hsl(228.5, 77.2%, 51.5%)" stroke-width="1.5"></path><path d="M577.66 317.68L467.19 409.64" stroke="hsl(228.5, 77.2%, 51.5%)" stroke-width="1.5"></path><path d="M577.66 317.68L711.3 428.76" stroke="hsl(228.5, 77.2%, 51.5%)" stroke-width="1.5"></path><path d="M577.66 317.68L803.24 305.22" stroke="hsl(228.5, 77.2%, 51.5%)" stroke-width="1.5"></path><path d="M541.6 443.54L541.6 443.54" stroke="hsl(228.5, 77.2%, 51.5%)" stroke-width="1.5"></path><path d="M541.6 443.54L415.22 550.35" stroke="hsl(228.5, 77.2%, 51.5%)" stroke-width="1.5"></path><path d="M541.6 443.54L711.3 428.76" stroke="hsl(228.5, 77.2%, 51.5%)" stroke-width="1.5"></path><path d="M541.6 443.54L670.33 316.79" stroke="hsl(228.5, 77.2%, 51.5%)" stroke-width="1.5"></path><path d="M541.6 443.54L672.21 573.42" stroke="hsl(228.5, 77.2%, 51.5%)" stroke-width="1.5"></path><path d="M586.22 660.44L586.22 660.44" stroke="hsl(228.5, 77.2%, 51.5%)" stroke-width="1.5"></path><path d="M586.22 660.44L672.21 573.42" stroke="hsl(228.5, 77.2%, 51.5%)" stroke-width="1.5"></path><path d="M586.22 660.44L415.22 550.35" stroke="hsl(228.5, 77.2%, 51.5%)" stroke-width="1.5"></path><path d="M586.22 660.44L541.6 443.54" stroke="hsl(228.5, 77.2%, 51.5%)" stroke-width="1.5"></path><path d="M670.33 316.79L670.33 316.79" stroke="hsl(228.5, 77.2%, 51.5%)" stroke-width="1.5"></path><path d="M670.33 316.79L711.3 428.76" stroke="hsl(228.5, 77.2%, 51.5%)" stroke-width="1.5"></path><path d="M711.3 428.76L711.3 428.76" stroke="hsl(228.5, 77.2%, 51.5%)" stroke-width="1.5"></path><path d="M711.3 428.76L785.88 557.17" stroke="hsl(228.5, 77.2%, 51.5%)" stroke-width="1.5"></path><path d="M711.3 428.76L672.21 573.42" stroke="hsl(228.5, 77.2%, 51.5%)" stroke-width="1.5"></path><path d="M711.3 428.76L803.24 305.22" stroke="hsl(228.5, 77.2%, 51.5%)" stroke-width="1.5"></path><path d="M672.21 573.42L672.21 573.42" stroke="hsl(228.5, 77.2%, 51.5%)" stroke-width="1.5"></path><path d="M672.21 573.42L785.88 557.17" stroke="hsl(228.5, 77.2%, 51.5%)" stroke-width="1.5"></path><path d="M812.12 -81.97L812.12 -81.97" stroke="hsl(228.5, 77.2%, 51.5%)" stroke-width="1.5"></path><path d="M812.12 -81.97L920.98 -50.85" stroke="hsl(228.5, 77.2%, 51.5%)" stroke-width="1.5"></path><path d="M812.12 -81.97L817.26 33.17" stroke="hsl(228.5, 77.2%, 51.5%)" stroke-width="1.5"></path><path d="M812.12 -81.97L931.35 35.08" stroke="hsl(228.5, 77.2%, 51.5%)" stroke-width="1.5"></path><path d="M812.12 -81.97L1046.57 -48.24" stroke="hsl(228.5, 77.2%, 51.5%)" stroke-width="1.5"></path><path d="M817.26 33.17L817.26 33.17" stroke="hsl(228.5, 77.2%, 51.5%)" stroke-width="1.5"></path><path d="M817.26 33.17L931.35 35.08" stroke="hsl(228.5, 77.2%, 51.5%)" stroke-width="1.5"></path><path d="M817.26 33.17L920.98 -50.85" stroke="hsl(228.5, 77.2%, 51.5%)" stroke-width="1.5"></path><path d="M817.26 33.17L915.63 182.79" stroke="hsl(228.5, 77.2%, 51.5%)" stroke-width="1.5"></path><path d="M803.24 305.22L803.24 305.22" stroke="hsl(228.5, 77.2%, 51.5%)" stroke-width="1.5"></path><path d="M803.24 305.22L930.71 329.17" stroke="hsl(228.5, 77.2%, 51.5%)" stroke-width="1.5"></path><path d="M803.24 305.22L670.33 316.79" stroke="hsl(228.5, 77.2%, 51.5%)" stroke-width="1.5"></path><path d="M785.88 557.17L785.88 557.17" stroke="hsl(228.5, 77.2%, 51.5%)" stroke-width="1.5"></path><path d="M785.88 557.17L815.17 668.27" stroke="hsl(228.5, 77.2%, 51.5%)" stroke-width="1.5"></path><path d="M785.88 557.17L950.13 545.27" stroke="hsl(228.5, 77.2%, 51.5%)" stroke-width="1.5"></path><path d="M815.17 668.27L815.17 668.27" stroke="hsl(228.5, 77.2%, 51.5%)" stroke-width="1.5"></path><path d="M815.17 668.27L672.21 573.42" stroke="hsl(228.5, 77.2%, 51.5%)" stroke-width="1.5"></path><path d="M815.17 668.27L950.13 545.27" stroke="hsl(228.5, 77.2%, 51.5%)" stroke-width="1.5"></path><path d="M920.98 -50.85L920.98 -50.85" stroke="hsl(228.5, 77.2%, 51.5%)" stroke-width="1.5"></path><path d="M920.98 -50.85L931.35 35.08" stroke="hsl(228.5, 77.2%, 51.5%)" stroke-width="1.5"></path><path d="M920.98 -50.85L1046.57 -48.24" stroke="hsl(228.5, 77.2%, 51.5%)" stroke-width="1.5"></path><path d="M920.98 -50.85L1093.31 49.79" stroke="hsl(228.5, 77.2%, 51.5%)" stroke-width="1.5"></path><path d="M920.98 -50.85L915.63 182.79" stroke="hsl(228.5, 77.2%, 51.5%)" stroke-width="1.5"></path><path d="M931.35 35.08L931.35 35.08" stroke="hsl(228.5, 77.2%, 51.5%)" stroke-width="1.5"></path><path d="M931.35 35.08L1046.57 -48.24" stroke="hsl(228.5, 77.2%, 51.5%)" stroke-width="1.5"></path><path d="M931.35 35.08L915.63 182.79" stroke="hsl(228.5, 77.2%, 51.5%)" stroke-width="1.5"></path><path d="M931.35 35.08L1093.31 49.79" stroke="hsl(228.5, 77.2%, 51.5%)" stroke-width="1.5"></path><path d="M915.63 182.79L915.63 182.79" stroke="hsl(228.5, 77.2%, 51.5%)" stroke-width="1.5"></path><path d="M915.63 182.79L930.71 329.17" stroke="hsl(228.5, 77.2%, 51.5%)" stroke-width="1.5"></path><path d="M915.63 182.79L1032.67 295.55" stroke="hsl(228.5, 77.2%, 51.5%)" stroke-width="1.5"></path><path d="M930.71 329.17L930.71 329.17" stroke="hsl(228.5, 77.2%, 51.5%)" stroke-width="1.5"></path><path d="M930.71 329.17L920.8 409.74" stroke="hsl(228.5, 77.2%, 51.5%)" stroke-width="1.5"></path><path d="M930.71 329.17L1032.67 295.55" stroke="hsl(228.5, 77.2%, 51.5%)" stroke-width="1.5"></path><path d="M920.8 409.74L920.8 409.74" stroke="hsl(228.5, 77.2%, 51.5%)" stroke-width="1.5"></path><path d="M920.8 409.74L950.13 545.27" stroke="hsl(228.5, 77.2%, 51.5%)" stroke-width="1.5"></path><path d="M950.13 545.27L950.13 545.27" stroke="hsl(228.5, 77.2%, 51.5%)" stroke-width="1.5"></path><path d="M950.13 545.27L1084.51 567.34" stroke="hsl(228.5, 77.2%, 51.5%)" stroke-width="1.5"></path><path d="M950.13 545.27L1044.41 417.36" stroke="hsl(228.5, 77.2%, 51.5%)" stroke-width="1.5"></path><path d="M1046.57 -48.24L1046.57 -48.24" stroke="hsl(228.5, 77.2%, 51.5%)" stroke-width="1.5"></path><path d="M1046.57 -48.24L1093.31 49.79" stroke="hsl(228.5, 77.2%, 51.5%)" stroke-width="1.5"></path><path d="M1093.31 49.79L1093.31 49.79" stroke="hsl(228.5, 77.2%, 51.5%)" stroke-width="1.5"></path><path d="M1032.67 295.55L1032.67 295.55" stroke="hsl(228.5, 77.2%, 51.5%)" stroke-width="1.5"></path><path d="M1084.51 567.34L1084.51 567.34" stroke="hsl(228.5, 77.2%, 51.5%)" stroke-width="1.5"></path><path d="M1084.51 567.34L1092.24 702.85" stroke="hsl(228.5, 77.2%, 51.5%)" stroke-width="1.5"></path><path d="M1084.51 567.34L1044.41 417.36" stroke="hsl(228.5, 77.2%, 51.5%)" stroke-width="1.5"></path><path d="M1092.24 702.85L1092.24 702.85" stroke="hsl(228.5, 77.2%, 51.5%)" stroke-width="1.5"></path><circle r="25" cx="57.32" cy="455.23" fill="url(&quot;#SvgjsRadialGradient1025&quot;)"></circle><circle r="25" cx="156.92" cy="699.91" fill="url(&quot;#SvgjsRadialGradient1025&quot;)"></circle><circle r="25" cx="289.07" cy="690.54" fill="url(&quot;#SvgjsRadialGradient1025&quot;)"></circle><circle r="25" cx="683.26" cy="714.21" fill="url(&quot;#SvgjsRadialGradient1025&quot;)"></circle><circle r="25" cx="815.72" cy="441.24" fill="url(&quot;#SvgjsRadialGradient1025&quot;)"></circle><circle r="25" cx="967.4" cy="716.65" fill="url(&quot;#SvgjsRadialGradient1025&quot;)"></circle><circle r="25" cx="1044.41" cy="417.36" fill="url(&quot;#SvgjsRadialGradient1025&quot;)"></circle><circle r="5" cx="-86.51" cy="453.4" fill="#8b9ad9"></circle><circle r="5" cx="-56.07" cy="587.35" fill="#8b9ad9"></circle><circle r="5" cx="-62.58" cy="703.32" fill="#8b9ad9"></circle><circle r="5" cx="92.23" cy="668.92" fill="#8b9ad9"></circle><circle r="5" cx="175.45" cy="446.27" fill="#8b9ad9"></circle><circle r="5" cx="172.04" cy="584.68" fill="#8b9ad9"></circle><circle r="5" cx="330.64" cy="417.89" fill="#8b9ad9"></circle><circle r="5" cx="298.67" cy="578.57" fill="#8b9ad9"></circle><circle r="5" cx="467.19" cy="409.64" fill="#8b9ad9"></circle><circle r="5" cx="415.22" cy="550.35" fill="#8b9ad9"></circle><circle r="5" cx="443.09" cy="700.35" fill="#8b9ad9"></circle><circle r="5" cx="577.66" cy="317.68" fill="#8b9ad9"></circle><circle r="5" cx="541.6" cy="443.54" fill="#8b9ad9"></circle><circle r="5" cx="586.22" cy="660.44" fill="#8b9ad9"></circle><circle r="5" cx="670.33" cy="316.79" fill="#8b9ad9"></circle><circle r="5" cx="711.3" cy="428.76" fill="#8b9ad9"></circle><circle r="5" cx="672.21" cy="573.42" fill="#8b9ad9"></circle><circle r="5" cx="812.12" cy="-81.97" fill="#8b9ad9"></circle><circle r="5" cx="817.26" cy="33.17" fill="#8b9ad9"></circle><circle r="5" cx="803.24" cy="305.22" fill="#8b9ad9"></circle><circle r="5" cx="785.88" cy="557.17" fill="#8b9ad9"></circle><circle r="5" cx="815.17" cy="668.27" fill="#8b9ad9"></circle><circle r="5" cx="920.98" cy="-50.85" fill="#8b9ad9"></circle><circle r="5" cx="931.35" cy="35.08" fill="#8b9ad9"></circle><circle r="5" cx="915.63" cy="182.79" fill="#8b9ad9"></circle><circle r="5" cx="930.71" cy="329.17" fill="#8b9ad9"></circle><circle r="5" cx="920.8" cy="409.74" fill="#8b9ad9"></circle><circle r="5" cx="950.13" cy="545.27" fill="#8b9ad9"></circle><circle r="5" cx="1046.57" cy="-48.24" fill="#8b9ad9"></circle><circle r="5" cx="1093.31" cy="49.79" fill="#8b9ad9"></circle><circle r="5" cx="1032.67" cy="295.55" fill="#8b9ad9"></circle><circle r="5" cx="1084.51" cy="567.34" fill="#8b9ad9"></circle><circle r="5" cx="1092.24" cy="702.85" fill="#8b9ad9"></circle></g><defs><mask id="SvgjsMask1024"><rect width="1000" height="560" fill="#ffffff"></rect></mask><radialGradient id="SvgjsRadialGradient1025"><stop stop-color="#ffffff" offset="0.1"></stop><stop stop-color="#1735b3" offset="0.2"></stop><stop stop-color="rgba(23, 53, 179, 0)" offset="1"></stop></radialGradient></defs></svg>