<svg id="visual" viewBox="0 0 900 600" width="900" height="600" xmlns="http://www.w3.org/2000/svg" xmlns:xlink="http://www.w3.org/1999/xlink" version="1.1"><rect x="0" y="0" width="900" height="600" fill="#5e91b8"></rect><path d="M0 286L82 286L82 297L164 297L164 313L245 313L245 352L327 352L327 333L409 333L409 355L491 355L491 327L573 327L573 256L655 256L655 315L736 315L736 270L818 270L818 255L900 255L900 291L900 601L900 601L818 601L818 601L736 601L736 601L655 601L655 601L573 601L573 601L491 601L491 601L409 601L409 601L327 601L327 601L245 601L245 601L164 601L164 601L82 601L82 601L0 601Z" fill="#158ec2"></path><path d="M0 326L82 326L82 400L164 400L164 393L245 393L245 325L327 325L327 331L409 331L409 364L491 364L491 362L573 362L573 359L655 359L655 394L736 394L736 401L818 401L818 329L900 329L900 358L900 601L900 601L818 601L818 601L736 601L736 601L655 601L655 601L573 601L573 601L491 601L491 601L409 601L409 601L327 601L327 601L245 601L245 601L164 601L164 601L82 601L82 601L0 601Z" fill="#1e7eae"></path><path d="M0 446L82 446L82 379L164 379L164 396L245 396L245 391L327 391L327 431L409 431L409 402L491 402L491 407L573 407L573 427L655 427L655 435L736 435L736 408L818 408L818 414L900 414L900 401L900 601L900 601L818 601L818 601L736 601L736 601L655 601L655 601L573 601L573 601L491 601L491 601L409 601L409 601L327 601L327 601L245 601L245 601L164 601L164 601L82 601L82 601L0 601Z" fill="#226f9b"></path><path d="M0 505L82 505L82 476L164 476L164 456L245 456L245 469L327 469L327 463L409 463L409 448L491 448L491 473L573 473L573 447L655 447L655 468L736 468L736 486L818 486L818 496L900 496L900 457L900 601L900 601L818 601L818 601L736 601L736 601L655 601L655 601L573 601L573 601L491 601L491 601L409 601L409 601L327 601L327 601L245 601L245 601L164 601L164 601L82 601L82 601L0 601Z" fill="#236088"></path><path d="M0 503L82 503L82 542L164 542L164 526L245 526L245 505L327 505L327 516L409 516L409 546L491 546L491 548L573 548L573 538L655 538L655 547L736 547L736 528L818 528L818 549L900 549L900 544L900 601L900 601L818 601L818 601L736 601L736 601L655 601L655 601L573 601L573 601L491 601L491 601L409 601L409 601L327 601L327 601L245 601L245 601L164 601L164 601L82 601L82 601L0 601Z" fill="#225275"></path></svg>