<svg xmlns="http://www.w3.org/2000/svg" version="1.1" xmlns:xlink="http://www.w3.org/1999/xlink" xmlns:svgjs="http://svgjs.dev/svgjs" width="1000" height="560" preserveAspectRatio="none" viewBox="0 0 1000 560"><g mask="url(&quot;#SvgjsMask1018&quot;)" fill="none"><rect width="1000" height="560" x="0" y="0" fill="#0e2a47"></rect><path d="M-64.49 337.69L-64.49 337.69" stroke="#132e65" stroke-width="1.5"></path><path d="M-64.49 337.69L-59.48 457.92" stroke="#132e65" stroke-width="1.5"></path><path d="M-64.49 337.69L73.96 421.72" stroke="#132e65" stroke-width="1.5"></path><path d="M-64.49 337.69L-37.98 562.59" stroke="#132e65" stroke-width="1.5"></path><path d="M-59.48 457.92L-59.48 457.92" stroke="#132e65" stroke-width="1.5"></path><path d="M-59.48 457.92L-37.98 562.59" stroke="#132e65" stroke-width="1.5"></path><path d="M-37.98 562.59L-37.98 562.59" stroke="#132e65" stroke-width="1.5"></path><path d="M-37.98 562.59L79.97 572.96" stroke="#132e65" stroke-width="1.5"></path><path d="M-77.26 717.87L-77.26 717.87" stroke="#132e65" stroke-width="1.5"></path><path d="M-77.26 717.87L80.72 695.71" stroke="#132e65" stroke-width="1.5"></path><path d="M-77.26 717.87L-37.98 562.59" stroke="#132e65" stroke-width="1.5"></path><path d="M73.96 421.72L73.96 421.72" stroke="#132e65" stroke-width="1.5"></path><path d="M73.96 421.72L158.01 438.15" stroke="#132e65" stroke-width="1.5"></path><path d="M73.96 421.72L-59.48 457.92" stroke="#132e65" stroke-width="1.5"></path><path d="M73.96 421.72L79.97 572.96" stroke="#132e65" stroke-width="1.5"></path><path d="M79.97 572.96L79.97 572.96" stroke="#132e65" stroke-width="1.5"></path><path d="M79.97 572.96L176.79 582.46" stroke="#132e65" stroke-width="1.5"></path><path d="M79.97 572.96L80.72 695.71" stroke="#132e65" stroke-width="1.5"></path><path d="M80.72 695.71L80.72 695.71" stroke="#132e65" stroke-width="1.5"></path><path d="M80.72 695.71L214.36 711.74" stroke="#132e65" stroke-width="1.5"></path><path d="M80.72 695.71L176.79 582.46" stroke="#132e65" stroke-width="1.5"></path><path d="M80.72 695.71L-37.98 562.59" stroke="#132e65" stroke-width="1.5"></path><path d="M80.72 695.71L302.04 679.46" stroke="#132e65" stroke-width="1.5"></path><path d="M158.01 438.15L158.01 438.15" stroke="#132e65" stroke-width="1.5"></path><path d="M158.01 438.15L283.53 459.17" stroke="#132e65" stroke-width="1.5"></path><path d="M176.79 582.46L176.79 582.46" stroke="#132e65" stroke-width="1.5"></path><path d="M176.79 582.46L300.95 553.68" stroke="#132e65" stroke-width="1.5"></path><path d="M176.79 582.46L214.36 711.74" stroke="#132e65" stroke-width="1.5"></path><path d="M176.79 582.46L158.01 438.15" stroke="#132e65" stroke-width="1.5"></path><path d="M214.36 711.74L214.36 711.74" stroke="#132e65" stroke-width="1.5"></path><path d="M214.36 711.74L302.04 679.46" stroke="#132e65" stroke-width="1.5"></path><path d="M214.36 711.74L300.95 553.68" stroke="#132e65" stroke-width="1.5"></path><path d="M342.04 313.25L342.04 313.25" stroke="#132e65" stroke-width="1.5"></path><path d="M342.04 313.25L466.38 336.97" stroke="#132e65" stroke-width="1.5"></path><path d="M342.04 313.25L440.64 413.92" stroke="#132e65" stroke-width="1.5"></path><path d="M283.53 459.17L283.53 459.17" stroke="#132e65" stroke-width="1.5"></path><path d="M283.53 459.17L300.95 553.68" stroke="#132e65" stroke-width="1.5"></path><path d="M283.53 459.17L342.04 313.25" stroke="#132e65" stroke-width="1.5"></path><path d="M283.53 459.17L176.79 582.46" stroke="#132e65" stroke-width="1.5"></path><path d="M283.53 459.17L440.64 413.92" stroke="#132e65" stroke-width="1.5"></path><path d="M283.53 459.17L419.8 557.3" stroke="#132e65" stroke-width="1.5"></path><path d="M300.95 553.68L300.95 553.68" stroke="#132e65" stroke-width="1.5"></path><path d="M300.95 553.68L419.8 557.3" stroke="#132e65" stroke-width="1.5"></path><path d="M300.95 553.68L302.04 679.46" stroke="#132e65" stroke-width="1.5"></path><path d="M302.04 679.46L302.04 679.46" stroke="#132e65" stroke-width="1.5"></path><path d="M302.04 679.46L176.79 582.46" stroke="#132e65" stroke-width="1.5"></path><path d="M302.04 679.46L462.73 679.51" stroke="#132e65" stroke-width="1.5"></path><path d="M302.04 679.46L419.8 557.3" stroke="#132e65" stroke-width="1.5"></path><path d="M466.38 336.97L466.38 336.97" stroke="#132e65" stroke-width="1.5"></path><path d="M466.38 336.97L440.64 413.92" stroke="#132e65" stroke-width="1.5"></path><path d="M466.38 336.97L581.78 281.29" stroke="#132e65" stroke-width="1.5"></path><path d="M440.64 413.92L440.64 413.92" stroke="#132e65" stroke-width="1.5"></path><path d="M440.64 413.92L531.29 451.62" stroke="#132e65" stroke-width="1.5"></path><path d="M440.64 413.92L419.8 557.3" stroke="#132e65" stroke-width="1.5"></path><path d="M419.8 557.3L419.8 557.3" stroke="#132e65" stroke-width="1.5"></path><path d="M419.8 557.3L462.73 679.51" stroke="#132e65" stroke-width="1.5"></path><path d="M462.73 679.51L462.73 679.51" stroke="#132e65" stroke-width="1.5"></path><path d="M462.73 679.51L540.65 697.97" stroke="#132e65" stroke-width="1.5"></path><path d="M537.78 211.72L537.78 211.72" stroke="#132e65" stroke-width="1.5"></path><path d="M537.78 211.72L581.78 281.29" stroke="#132e65" stroke-width="1.5"></path><path d="M537.78 211.72L681.5 212.41" stroke="#132e65" stroke-width="1.5"></path><path d="M581.78 281.29L581.78 281.29" stroke="#132e65" stroke-width="1.5"></path><path d="M581.78 281.29L681.5 212.41" stroke="#132e65" stroke-width="1.5"></path><path d="M531.29 451.62L531.29 451.62" stroke="#132e65" stroke-width="1.5"></path><path d="M531.29 451.62L559.4 544.76" stroke="#132e65" stroke-width="1.5"></path><path d="M531.29 451.62L466.38 336.97" stroke="#132e65" stroke-width="1.5"></path><path d="M531.29 451.62L665.11 465.15" stroke="#132e65" stroke-width="1.5"></path><path d="M559.4 544.76L559.4 544.76" stroke="#132e65" stroke-width="1.5"></path><path d="M559.4 544.76L674.99 561.54" stroke="#132e65" stroke-width="1.5"></path><path d="M540.65 697.97L540.65 697.97" stroke="#132e65" stroke-width="1.5"></path><path d="M540.65 697.97L660.63 704.55" stroke="#132e65" stroke-width="1.5"></path><path d="M540.65 697.97L559.4 544.76" stroke="#132e65" stroke-width="1.5"></path><path d="M659.99 -50.11L659.99 -50.11" stroke="#132e65" stroke-width="1.5"></path><path d="M659.99 -50.11L661.93 59.62" stroke="#132e65" stroke-width="1.5"></path><path d="M659.99 -50.11L842.36 -86.22" stroke="#132e65" stroke-width="1.5"></path><path d="M659.99 -50.11L810.12 78" stroke="#132e65" stroke-width="1.5"></path><path d="M659.99 -50.11L681.5 212.41" stroke="#132e65" stroke-width="1.5"></path><path d="M659.99 -50.11L912.75 61.27" stroke="#132e65" stroke-width="1.5"></path><path d="M659.99 -50.11L828.53 169.02" stroke="#132e65" stroke-width="1.5"></path><path d="M661.93 59.62L661.93 59.62" stroke="#132e65" stroke-width="1.5"></path><path d="M661.93 59.62L810.12 78" stroke="#132e65" stroke-width="1.5"></path><path d="M661.93 59.62L681.5 212.41" stroke="#132e65" stroke-width="1.5"></path><path d="M661.93 59.62L537.78 211.72" stroke="#132e65" stroke-width="1.5"></path><path d="M661.93 59.62L828.53 169.02" stroke="#132e65" stroke-width="1.5"></path><path d="M661.93 59.62L842.36 -86.22" stroke="#132e65" stroke-width="1.5"></path><path d="M681.5 212.41L681.5 212.41" stroke="#132e65" stroke-width="1.5"></path><path d="M681.5 212.41L828.53 169.02" stroke="#132e65" stroke-width="1.5"></path><path d="M681.5 212.41L838.02 307.23" stroke="#132e65" stroke-width="1.5"></path><path d="M665.11 465.15L665.11 465.15" stroke="#132e65" stroke-width="1.5"></path><path d="M665.11 465.15L674.99 561.54" stroke="#132e65" stroke-width="1.5"></path><path d="M665.11 465.15L559.4 544.76" stroke="#132e65" stroke-width="1.5"></path><path d="M665.11 465.15L812.45 453.3" stroke="#132e65" stroke-width="1.5"></path><path d="M665.11 465.15L806.94 542.38" stroke="#132e65" stroke-width="1.5"></path><path d="M665.11 465.15L581.78 281.29" stroke="#132e65" stroke-width="1.5"></path><path d="M674.99 561.54L674.99 561.54" stroke="#132e65" stroke-width="1.5"></path><path d="M674.99 561.54L806.94 542.38" stroke="#132e65" stroke-width="1.5"></path><path d="M674.99 561.54L660.63 704.55" stroke="#132e65" stroke-width="1.5"></path><path d="M660.63 704.55L660.63 704.55" stroke="#132e65" stroke-width="1.5"></path><path d="M660.63 704.55L798.36 676.08" stroke="#132e65" stroke-width="1.5"></path><path d="M660.63 704.55L559.4 544.76" stroke="#132e65" stroke-width="1.5"></path><path d="M660.63 704.55L462.73 679.51" stroke="#132e65" stroke-width="1.5"></path><path d="M660.63 704.55L806.94 542.38" stroke="#132e65" stroke-width="1.5"></path><path d="M842.36 -86.22L842.36 -86.22" stroke="#132e65" stroke-width="1.5"></path><path d="M842.36 -86.22L946.44 -67.49" stroke="#132e65" stroke-width="1.5"></path><path d="M842.36 -86.22L912.75 61.27" stroke="#132e65" stroke-width="1.5"></path><path d="M842.36 -86.22L810.12 78" stroke="#132e65" stroke-width="1.5"></path><path d="M810.12 78L810.12 78" stroke="#132e65" stroke-width="1.5"></path><path d="M810.12 78L828.53 169.02" stroke="#132e65" stroke-width="1.5"></path><path d="M810.12 78L912.75 61.27" stroke="#132e65" stroke-width="1.5"></path><path d="M828.53 169.02L828.53 169.02" stroke="#132e65" stroke-width="1.5"></path><path d="M828.53 169.02L955.23 207.69" stroke="#132e65" stroke-width="1.5"></path><path d="M828.53 169.02L912.75 61.27" stroke="#132e65" stroke-width="1.5"></path><path d="M828.53 169.02L838.02 307.23" stroke="#132e65" stroke-width="1.5"></path><path d="M838.02 307.23L838.02 307.23" stroke="#132e65" stroke-width="1.5"></path><path d="M838.02 307.23L934.63 319.15" stroke="#132e65" stroke-width="1.5"></path><path d="M838.02 307.23L812.45 453.3" stroke="#132e65" stroke-width="1.5"></path><path d="M838.02 307.23L955.23 207.69" stroke="#132e65" stroke-width="1.5"></path><path d="M812.45 453.3L812.45 453.3" stroke="#132e65" stroke-width="1.5"></path><path d="M812.45 453.3L806.94 542.38" stroke="#132e65" stroke-width="1.5"></path><path d="M812.45 453.3L950.94 418.77" stroke="#132e65" stroke-width="1.5"></path><path d="M806.94 542.38L806.94 542.38" stroke="#132e65" stroke-width="1.5"></path><path d="M806.94 542.38L923.46 585.52" stroke="#132e65" stroke-width="1.5"></path><path d="M806.94 542.38L798.36 676.08" stroke="#132e65" stroke-width="1.5"></path><path d="M798.36 676.08L798.36 676.08" stroke="#132e65" stroke-width="1.5"></path><path d="M798.36 676.08L915.98 695.69" stroke="#132e65" stroke-width="1.5"></path><path d="M798.36 676.08L923.46 585.52" stroke="#132e65" stroke-width="1.5"></path><path d="M946.44 -67.49L946.44 -67.49" stroke="#132e65" stroke-width="1.5"></path><path d="M946.44 -67.49L912.75 61.27" stroke="#132e65" stroke-width="1.5"></path><path d="M946.44 -67.49L1090.57 -81.23" stroke="#132e65" stroke-width="1.5"></path><path d="M912.75 61.27L912.75 61.27" stroke="#132e65" stroke-width="1.5"></path><path d="M955.23 207.69L955.23 207.69" stroke="#132e65" stroke-width="1.5"></path><path d="M955.23 207.69L934.63 319.15" stroke="#132e65" stroke-width="1.5"></path><path d="M955.23 207.69L912.75 61.27" stroke="#132e65" stroke-width="1.5"></path><path d="M934.63 319.15L934.63 319.15" stroke="#132e65" stroke-width="1.5"></path><path d="M934.63 319.15L950.94 418.77" stroke="#132e65" stroke-width="1.5"></path><path d="M950.94 418.77L950.94 418.77" stroke="#132e65" stroke-width="1.5"></path><path d="M950.94 418.77L1080.73 450.89" stroke="#132e65" stroke-width="1.5"></path><path d="M950.94 418.77L838.02 307.23" stroke="#132e65" stroke-width="1.5"></path><path d="M950.94 418.77L1088.58 331.95" stroke="#132e65" stroke-width="1.5"></path><path d="M923.46 585.52L923.46 585.52" stroke="#132e65" stroke-width="1.5"></path><path d="M923.46 585.52L915.98 695.69" stroke="#132e65" stroke-width="1.5"></path><path d="M923.46 585.52L1083.21 544.55" stroke="#132e65" stroke-width="1.5"></path><path d="M915.98 695.69L915.98 695.69" stroke="#132e65" stroke-width="1.5"></path><path d="M915.98 695.69L1073.41 684.08" stroke="#132e65" stroke-width="1.5"></path><path d="M915.98 695.69L806.94 542.38" stroke="#132e65" stroke-width="1.5"></path><path d="M1090.57 -81.23L1090.57 -81.23" stroke="#132e65" stroke-width="1.5"></path><path d="M1090.57 -81.23L1050.89 41.22" stroke="#132e65" stroke-width="1.5"></path><path d="M1090.57 -81.23L912.75 61.27" stroke="#132e65" stroke-width="1.5"></path><path d="M1050.89 41.22L1050.89 41.22" stroke="#132e65" stroke-width="1.5"></path><path d="M1050.89 41.22L912.75 61.27" stroke="#132e65" stroke-width="1.5"></path><path d="M1088.58 331.95L1088.58 331.95" stroke="#132e65" stroke-width="1.5"></path><path d="M1088.58 331.95L1080.73 450.89" stroke="#132e65" stroke-width="1.5"></path><path d="M1088.58 331.95L934.63 319.15" stroke="#132e65" stroke-width="1.5"></path><path d="M1080.73 450.89L1080.73 450.89" stroke="#132e65" stroke-width="1.5"></path><path d="M1080.73 450.89L1083.21 544.55" stroke="#132e65" stroke-width="1.5"></path><path d="M1083.21 544.55L1083.21 544.55" stroke="#132e65" stroke-width="1.5"></path><path d="M1073.41 684.08L1073.41 684.08" stroke="#132e65" stroke-width="1.5"></path><path d="M1073.41 684.08L1083.21 544.55" stroke="#132e65" stroke-width="1.5"></path><circle r="5" cx="-64.49" cy="337.69" fill="#132e65"></circle><circle r="5" cx="-59.48" cy="457.92" fill="#132e65"></circle><circle r="5" cx="-37.98" cy="562.59" fill="#132e65"></circle><circle r="5" cx="-77.26" cy="717.87" fill="#132e65"></circle><circle r="5" cx="73.96" cy="421.72" fill="#132e65"></circle><circle r="5" cx="79.97" cy="572.96" fill="#132e65"></circle><circle r="5" cx="80.72" cy="695.71" fill="#132e65"></circle><circle r="5" cx="158.01" cy="438.15" fill="#132e65"></circle><circle r="5" cx="176.79" cy="582.46" fill="#132e65"></circle><circle r="5" cx="214.36" cy="711.74" fill="#132e65"></circle><circle r="5" cx="342.04" cy="313.25" fill="#132e65"></circle><circle r="5" cx="283.53" cy="459.17" fill="#132e65"></circle><circle r="5" cx="300.95" cy="553.68" fill="#132e65"></circle><circle r="5" cx="302.04" cy="679.46" fill="#132e65"></circle><circle r="5" cx="466.38" cy="336.97" fill="#132e65"></circle><circle r="5" cx="440.64" cy="413.92" fill="#132e65"></circle><circle r="5" cx="419.8" cy="557.3" fill="#132e65"></circle><circle r="5" cx="462.73" cy="679.51" fill="#132e65"></circle><circle r="5" cx="537.78" cy="211.72" fill="#132e65"></circle><circle r="5" cx="581.78" cy="281.29" fill="#132e65"></circle><circle r="5" cx="531.29" cy="451.62" fill="#132e65"></circle><circle r="5" cx="559.4" cy="544.76" fill="#132e65"></circle><circle r="5" cx="540.65" cy="697.97" fill="#132e65"></circle><circle r="5" cx="659.99" cy="-50.11" fill="#132e65"></circle><circle r="5" cx="661.93" cy="59.62" fill="#132e65"></circle><circle r="5" cx="681.5" cy="212.41" fill="#132e65"></circle><circle r="5" cx="665.11" cy="465.15" fill="#132e65"></circle><circle r="5" cx="674.99" cy="561.54" fill="#132e65"></circle><circle r="5" cx="660.63" cy="704.55" fill="#132e65"></circle><circle r="5" cx="842.36" cy="-86.22" fill="#132e65"></circle><circle r="5" cx="810.12" cy="78" fill="#132e65"></circle><circle r="5" cx="828.53" cy="169.02" fill="#132e65"></circle><circle r="5" cx="838.02" cy="307.23" fill="#132e65"></circle><circle r="5" cx="812.45" cy="453.3" fill="#132e65"></circle><circle r="5" cx="806.94" cy="542.38" fill="#132e65"></circle><circle r="5" cx="798.36" cy="676.08" fill="#132e65"></circle><circle r="5" cx="946.44" cy="-67.49" fill="#132e65"></circle><circle r="5" cx="912.75" cy="61.27" fill="#132e65"></circle><circle r="5" cx="955.23" cy="207.69" fill="#132e65"></circle><circle r="5" cx="934.63" cy="319.15" fill="#132e65"></circle><circle r="5" cx="950.94" cy="418.77" fill="#132e65"></circle><circle r="5" cx="923.46" cy="585.52" fill="#132e65"></circle><circle r="5" cx="915.98" cy="695.69" fill="#132e65"></circle><circle r="5" cx="1090.57" cy="-81.23" fill="#132e65"></circle><circle r="5" cx="1050.89" cy="41.22" fill="#132e65"></circle><circle r="5" cx="1088.58" cy="331.95" fill="#132e65"></circle><circle r="5" cx="1080.73" cy="450.89" fill="#132e65"></circle><circle r="5" cx="1083.21" cy="544.55" fill="#132e65"></circle><circle r="5" cx="1073.41" cy="684.08" fill="#132e65"></circle><path d="M339.89 692.4L339.89 692.4" stroke="hsl(228.5, 77.2%, 51.5%)" stroke-width="1.5"></path><path d="M339.89 692.4L418.34 711.3" stroke="hsl(228.5, 77.2%, 51.5%)" stroke-width="1.5"></path><path d="M339.89 692.4L330.63 546.2" stroke="hsl(228.5, 77.2%, 51.5%)" stroke-width="1.5"></path><path d="M339.89 692.4L178.55 701.31" stroke="hsl(228.5, 77.2%, 51.5%)" stroke-width="1.5"></path><path d="M339.89 692.4L416.18 545.52" stroke="hsl(228.5, 77.2%, 51.5%)" stroke-width="1.5"></path><path d="M339.89 692.4L204.47 579.22" stroke="hsl(228.5, 77.2%, 51.5%)" stroke-width="1.5"></path><path d="M339.89 692.4L537.79 713.91" stroke="hsl(228.5, 77.2%, 51.5%)" stroke-width="1.5"></path><path d="M420.1 465.18L420.1 465.18" stroke="hsl(228.5, 77.2%, 51.5%)" stroke-width="1.5"></path><path d="M420.1 465.18L416.18 545.52" stroke="hsl(228.5, 77.2%, 51.5%)" stroke-width="1.5"></path><path d="M420.1 465.18L316.69 449.11" stroke="hsl(228.5, 77.2%, 51.5%)" stroke-width="1.5"></path><path d="M537.79 713.91L537.79 713.91" stroke="hsl(228.5, 77.2%, 51.5%)" stroke-width="1.5"></path><path d="M537.79 713.91L418.34 711.3" stroke="hsl(228.5, 77.2%, 51.5%)" stroke-width="1.5"></path><path d="M537.79 713.91L593.47 560.68" stroke="hsl(228.5, 77.2%, 51.5%)" stroke-width="1.5"></path><path d="M810.67 453.08L810.67 453.08" stroke="hsl(228.5, 77.2%, 51.5%)" stroke-width="1.5"></path><path d="M810.67 453.08L781.64 546.87" stroke="hsl(228.5, 77.2%, 51.5%)" stroke-width="1.5"></path><path d="M810.67 453.08L688.1 445.78" stroke="hsl(228.5, 77.2%, 51.5%)" stroke-width="1.5"></path><path d="M810.67 453.08L942.83 437.19" stroke="hsl(228.5, 77.2%, 51.5%)" stroke-width="1.5"></path><path d="M810.67 453.08L840.43 314.72" stroke="hsl(228.5, 77.2%, 51.5%)" stroke-width="1.5"></path><path d="M781.64 546.87L781.64 546.87" stroke="hsl(228.5, 77.2%, 51.5%)" stroke-width="1.5"></path><path d="M936.5 36.6L936.5 36.6" stroke="hsl(228.5, 77.2%, 51.5%)" stroke-width="1.5"></path><path d="M936.5 36.6L949.83 -67.94" stroke="hsl(228.5, 77.2%, 51.5%)" stroke-width="1.5"></path><path d="M936.5 36.6L1082.75 44.51" stroke="hsl(228.5, 77.2%, 51.5%)" stroke-width="1.5"></path><path d="M936.5 36.6L811.16 -43.14" stroke="hsl(228.5, 77.2%, 51.5%)" stroke-width="1.5"></path><path d="M1082.25 178.41L1082.25 178.41" stroke="hsl(228.5, 77.2%, 51.5%)" stroke-width="1.5"></path><path d="M1082.25 178.41L1034.16 300.08" stroke="hsl(228.5, 77.2%, 51.5%)" stroke-width="1.5"></path><path d="M1082.25 178.41L1082.75 44.51" stroke="hsl(228.5, 77.2%, 51.5%)" stroke-width="1.5"></path><path d="M-60.79 565.64L-60.79 565.64" stroke="hsl(228.5, 77.2%, 51.5%)" stroke-width="1.5"></path><path d="M-60.79 565.64L-37.75 658.42" stroke="hsl(228.5, 77.2%, 51.5%)" stroke-width="1.5"></path><path d="M-60.79 565.64L79.91 587.67" stroke="hsl(228.5, 77.2%, 51.5%)" stroke-width="1.5"></path><path d="M-37.75 658.42L-37.75 658.42" stroke="hsl(228.5, 77.2%, 51.5%)" stroke-width="1.5"></path><path d="M-37.75 658.42L49.25 706.48" stroke="hsl(228.5, 77.2%, 51.5%)" stroke-width="1.5"></path><path d="M-37.75 658.42L79.91 587.67" stroke="hsl(228.5, 77.2%, 51.5%)" stroke-width="1.5"></path><path d="M56.47 455.21L56.47 455.21" stroke="hsl(228.5, 77.2%, 51.5%)" stroke-width="1.5"></path><path d="M56.47 455.21L184.14 441.29" stroke="hsl(228.5, 77.2%, 51.5%)" stroke-width="1.5"></path><path d="M56.47 455.21L79.91 587.67" stroke="hsl(228.5, 77.2%, 51.5%)" stroke-width="1.5"></path><path d="M56.47 455.21L-60.79 565.64" stroke="hsl(228.5, 77.2%, 51.5%)" stroke-width="1.5"></path><path d="M56.47 455.21L204.47 579.22" stroke="hsl(228.5, 77.2%, 51.5%)" stroke-width="1.5"></path><path d="M56.47 455.21L-37.75 658.42" stroke="hsl(228.5, 77.2%, 51.5%)" stroke-width="1.5"></path><path d="M79.91 587.67L79.91 587.67" stroke="hsl(228.5, 77.2%, 51.5%)" stroke-width="1.5"></path><path d="M79.91 587.67L49.25 706.48" stroke="hsl(228.5, 77.2%, 51.5%)" stroke-width="1.5"></path><path d="M79.91 587.67L204.47 579.22" stroke="hsl(228.5, 77.2%, 51.5%)" stroke-width="1.5"></path><path d="M49.25 706.48L49.25 706.48" stroke="hsl(228.5, 77.2%, 51.5%)" stroke-width="1.5"></path><path d="M49.25 706.48L178.55 701.31" stroke="hsl(228.5, 77.2%, 51.5%)" stroke-width="1.5"></path><path d="M49.25 706.48L-60.79 565.64" stroke="hsl(228.5, 77.2%, 51.5%)" stroke-width="1.5"></path><path d="M49.25 706.48L204.47 579.22" stroke="hsl(228.5, 77.2%, 51.5%)" stroke-width="1.5"></path><path d="M49.25 706.48L56.47 455.21" stroke="hsl(228.5, 77.2%, 51.5%)" stroke-width="1.5"></path><path d="M184.14 441.29L184.14 441.29" stroke="hsl(228.5, 77.2%, 51.5%)" stroke-width="1.5"></path><path d="M184.14 441.29L316.69 449.11" stroke="hsl(228.5, 77.2%, 51.5%)" stroke-width="1.5"></path><path d="M184.14 441.29L204.47 579.22" stroke="hsl(228.5, 77.2%, 51.5%)" stroke-width="1.5"></path><path d="M184.14 441.29L79.91 587.67" stroke="hsl(228.5, 77.2%, 51.5%)" stroke-width="1.5"></path><path d="M184.14 441.29L330.63 546.2" stroke="hsl(228.5, 77.2%, 51.5%)" stroke-width="1.5"></path><path d="M204.47 579.22L204.47 579.22" stroke="hsl(228.5, 77.2%, 51.5%)" stroke-width="1.5"></path><path d="M204.47 579.22L178.55 701.31" stroke="hsl(228.5, 77.2%, 51.5%)" stroke-width="1.5"></path><path d="M204.47 579.22L330.63 546.2" stroke="hsl(228.5, 77.2%, 51.5%)" stroke-width="1.5"></path><path d="M204.47 579.22L316.69 449.11" stroke="hsl(228.5, 77.2%, 51.5%)" stroke-width="1.5"></path><path d="M178.55 701.31L178.55 701.31" stroke="hsl(228.5, 77.2%, 51.5%)" stroke-width="1.5"></path><path d="M178.55 701.31L79.91 587.67" stroke="hsl(228.5, 77.2%, 51.5%)" stroke-width="1.5"></path><path d="M178.55 701.31L330.63 546.2" stroke="hsl(228.5, 77.2%, 51.5%)" stroke-width="1.5"></path><path d="M316.69 449.11L316.69 449.11" stroke="hsl(228.5, 77.2%, 51.5%)" stroke-width="1.5"></path><path d="M316.69 449.11L330.63 546.2" stroke="hsl(228.5, 77.2%, 51.5%)" stroke-width="1.5"></path><path d="M330.63 546.2L330.63 546.2" stroke="hsl(228.5, 77.2%, 51.5%)" stroke-width="1.5"></path><path d="M330.63 546.2L416.18 545.52" stroke="hsl(228.5, 77.2%, 51.5%)" stroke-width="1.5"></path><path d="M416.18 545.52L416.18 545.52" stroke="hsl(228.5, 77.2%, 51.5%)" stroke-width="1.5"></path><path d="M416.18 545.52L316.69 449.11" stroke="hsl(228.5, 77.2%, 51.5%)" stroke-width="1.5"></path><path d="M416.18 545.52L418.34 711.3" stroke="hsl(228.5, 77.2%, 51.5%)" stroke-width="1.5"></path><path d="M418.34 711.3L418.34 711.3" stroke="hsl(228.5, 77.2%, 51.5%)" stroke-width="1.5"></path><path d="M418.34 711.3L330.63 546.2" stroke="hsl(228.5, 77.2%, 51.5%)" stroke-width="1.5"></path><path d="M592.71 420.97L592.71 420.97" stroke="hsl(228.5, 77.2%, 51.5%)" stroke-width="1.5"></path><path d="M592.71 420.97L688.1 445.78" stroke="hsl(228.5, 77.2%, 51.5%)" stroke-width="1.5"></path><path d="M592.71 420.97L656.32 329.05" stroke="hsl(228.5, 77.2%, 51.5%)" stroke-width="1.5"></path><path d="M592.71 420.97L593.47 560.68" stroke="hsl(228.5, 77.2%, 51.5%)" stroke-width="1.5"></path><path d="M593.47 560.68L593.47 560.68" stroke="hsl(228.5, 77.2%, 51.5%)" stroke-width="1.5"></path><path d="M593.47 560.68L688.1 445.78" stroke="hsl(228.5, 77.2%, 51.5%)" stroke-width="1.5"></path><path d="M593.47 560.68L711.88 690.13" stroke="hsl(228.5, 77.2%, 51.5%)" stroke-width="1.5"></path><path d="M656.32 329.05L656.32 329.05" stroke="hsl(228.5, 77.2%, 51.5%)" stroke-width="1.5"></path><path d="M656.32 329.05L688.1 445.78" stroke="hsl(228.5, 77.2%, 51.5%)" stroke-width="1.5"></path><path d="M656.32 329.05L840.43 314.72" stroke="hsl(228.5, 77.2%, 51.5%)" stroke-width="1.5"></path><path d="M656.32 329.05L810.67 453.08" stroke="hsl(228.5, 77.2%, 51.5%)" stroke-width="1.5"></path><path d="M688.1 445.78L688.1 445.78" stroke="hsl(228.5, 77.2%, 51.5%)" stroke-width="1.5"></path><path d="M688.1 445.78L781.64 546.87" stroke="hsl(228.5, 77.2%, 51.5%)" stroke-width="1.5"></path><path d="M711.88 690.13L711.88 690.13" stroke="hsl(228.5, 77.2%, 51.5%)" stroke-width="1.5"></path><path d="M711.88 690.13L834.28 676.98" stroke="hsl(228.5, 77.2%, 51.5%)" stroke-width="1.5"></path><path d="M711.88 690.13L781.64 546.87" stroke="hsl(228.5, 77.2%, 51.5%)" stroke-width="1.5"></path><path d="M811.16 -43.14L811.16 -43.14" stroke="hsl(228.5, 77.2%, 51.5%)" stroke-width="1.5"></path><path d="M811.16 -43.14L949.83 -67.94" stroke="hsl(228.5, 77.2%, 51.5%)" stroke-width="1.5"></path><path d="M827.38 213.63L827.38 213.63" stroke="hsl(228.5, 77.2%, 51.5%)" stroke-width="1.5"></path><path d="M827.38 213.63L840.43 314.72" stroke="hsl(228.5, 77.2%, 51.5%)" stroke-width="1.5"></path><path d="M827.38 213.63L960.9 290.3" stroke="hsl(228.5, 77.2%, 51.5%)" stroke-width="1.5"></path><path d="M827.38 213.63L656.32 329.05" stroke="hsl(228.5, 77.2%, 51.5%)" stroke-width="1.5"></path><path d="M827.38 213.63L936.5 36.6" stroke="hsl(228.5, 77.2%, 51.5%)" stroke-width="1.5"></path><path d="M827.38 213.63L1034.16 300.08" stroke="hsl(228.5, 77.2%, 51.5%)" stroke-width="1.5"></path><path d="M840.43 314.72L840.43 314.72" stroke="hsl(228.5, 77.2%, 51.5%)" stroke-width="1.5"></path><path d="M840.43 314.72L960.9 290.3" stroke="hsl(228.5, 77.2%, 51.5%)" stroke-width="1.5"></path><path d="M834.28 676.98L834.28 676.98" stroke="hsl(228.5, 77.2%, 51.5%)" stroke-width="1.5"></path><path d="M834.28 676.98L781.64 546.87" stroke="hsl(228.5, 77.2%, 51.5%)" stroke-width="1.5"></path><path d="M834.28 676.98L955.71 560.7" stroke="hsl(228.5, 77.2%, 51.5%)" stroke-width="1.5"></path><path d="M834.28 676.98L810.67 453.08" stroke="hsl(228.5, 77.2%, 51.5%)" stroke-width="1.5"></path><path d="M949.83 -67.94L949.83 -67.94" stroke="hsl(228.5, 77.2%, 51.5%)" stroke-width="1.5"></path><path d="M949.83 -67.94L1084.75 -66.94" stroke="hsl(228.5, 77.2%, 51.5%)" stroke-width="1.5"></path><path d="M949.83 -67.94L1082.75 44.51" stroke="hsl(228.5, 77.2%, 51.5%)" stroke-width="1.5"></path><path d="M960.9 290.3L960.9 290.3" stroke="hsl(228.5, 77.2%, 51.5%)" stroke-width="1.5"></path><path d="M960.9 290.3L1034.16 300.08" stroke="hsl(228.5, 77.2%, 51.5%)" stroke-width="1.5"></path><path d="M960.9 290.3L942.83 437.19" stroke="hsl(228.5, 77.2%, 51.5%)" stroke-width="1.5"></path><path d="M960.9 290.3L1082.25 178.41" stroke="hsl(228.5, 77.2%, 51.5%)" stroke-width="1.5"></path><path d="M960.9 290.3L1088.53 419.62" stroke="hsl(228.5, 77.2%, 51.5%)" stroke-width="1.5"></path><path d="M942.83 437.19L942.83 437.19" stroke="hsl(228.5, 77.2%, 51.5%)" stroke-width="1.5"></path><path d="M942.83 437.19L955.71 560.7" stroke="hsl(228.5, 77.2%, 51.5%)" stroke-width="1.5"></path><path d="M942.83 437.19L1088.53 419.62" stroke="hsl(228.5, 77.2%, 51.5%)" stroke-width="1.5"></path><path d="M942.83 437.19L840.43 314.72" stroke="hsl(228.5, 77.2%, 51.5%)" stroke-width="1.5"></path><path d="M942.83 437.19L1034.16 300.08" stroke="hsl(228.5, 77.2%, 51.5%)" stroke-width="1.5"></path><path d="M955.71 560.7L955.71 560.7" stroke="hsl(228.5, 77.2%, 51.5%)" stroke-width="1.5"></path><path d="M955.71 560.7L1062.12 566.1" stroke="hsl(228.5, 77.2%, 51.5%)" stroke-width="1.5"></path><path d="M1084.75 -66.94L1084.75 -66.94" stroke="hsl(228.5, 77.2%, 51.5%)" stroke-width="1.5"></path><path d="M1084.75 -66.94L1082.75 44.51" stroke="hsl(228.5, 77.2%, 51.5%)" stroke-width="1.5"></path><path d="M1084.75 -66.94L936.5 36.6" stroke="hsl(228.5, 77.2%, 51.5%)" stroke-width="1.5"></path><path d="M1084.75 -66.94L1082.25 178.41" stroke="hsl(228.5, 77.2%, 51.5%)" stroke-width="1.5"></path><path d="M1084.75 -66.94L811.16 -43.14" stroke="hsl(228.5, 77.2%, 51.5%)" stroke-width="1.5"></path><path d="M1082.75 44.51L1082.75 44.51" stroke="hsl(228.5, 77.2%, 51.5%)" stroke-width="1.5"></path><path d="M1034.16 300.08L1034.16 300.08" stroke="hsl(228.5, 77.2%, 51.5%)" stroke-width="1.5"></path><path d="M1034.16 300.08L1088.53 419.62" stroke="hsl(228.5, 77.2%, 51.5%)" stroke-width="1.5"></path><path d="M1088.53 419.62L1088.53 419.62" stroke="hsl(228.5, 77.2%, 51.5%)" stroke-width="1.5"></path><path d="M1088.53 419.62L1062.12 566.1" stroke="hsl(228.5, 77.2%, 51.5%)" stroke-width="1.5"></path><path d="M1062.12 566.1L1062.12 566.1" stroke="hsl(228.5, 77.2%, 51.5%)" stroke-width="1.5"></path><path d="M1062.12 566.1L1082.35 709.88" stroke="hsl(228.5, 77.2%, 51.5%)" stroke-width="1.5"></path><path d="M1062.12 566.1L942.83 437.19" stroke="hsl(228.5, 77.2%, 51.5%)" stroke-width="1.5"></path><path d="M1082.35 709.88L1082.35 709.88" stroke="hsl(228.5, 77.2%, 51.5%)" stroke-width="1.5"></path><path d="M1082.35 709.88L955.71 560.7" stroke="hsl(228.5, 77.2%, 51.5%)" stroke-width="1.5"></path><circle r="25" cx="339.89" cy="692.4" fill="url(&quot;#SvgjsRadialGradient1019&quot;)"></circle><circle r="25" cx="420.1" cy="465.18" fill="url(&quot;#SvgjsRadialGradient1019&quot;)"></circle><circle r="25" cx="537.79" cy="713.91" fill="url(&quot;#SvgjsRadialGradient1019&quot;)"></circle><circle r="25" cx="810.67" cy="453.08" fill="url(&quot;#SvgjsRadialGradient1019&quot;)"></circle><circle r="25" cx="781.64" cy="546.87" fill="url(&quot;#SvgjsRadialGradient1019&quot;)"></circle><circle r="25" cx="936.5" cy="36.6" fill="url(&quot;#SvgjsRadialGradient1019&quot;)"></circle><circle r="25" cx="1082.25" cy="178.41" fill="url(&quot;#SvgjsRadialGradient1019&quot;)"></circle><circle r="5" cx="-60.79" cy="565.64" fill="#8b9ad9"></circle><circle r="5" cx="-37.75" cy="658.42" fill="#8b9ad9"></circle><circle r="5" cx="56.47" cy="455.21" fill="#8b9ad9"></circle><circle r="5" cx="79.91" cy="587.67" fill="#8b9ad9"></circle><circle r="5" cx="49.25" cy="706.48" fill="#8b9ad9"></circle><circle r="5" cx="184.14" cy="441.29" fill="#8b9ad9"></circle><circle r="5" cx="204.47" cy="579.22" fill="#8b9ad9"></circle><circle r="5" cx="178.55" cy="701.31" fill="#8b9ad9"></circle><circle r="5" cx="316.69" cy="449.11" fill="#8b9ad9"></circle><circle r="5" cx="330.63" cy="546.2" fill="#8b9ad9"></circle><circle r="5" cx="416.18" cy="545.52" fill="#8b9ad9"></circle><circle r="5" cx="418.34" cy="711.3" fill="#8b9ad9"></circle><circle r="5" cx="592.71" cy="420.97" fill="#8b9ad9"></circle><circle r="5" cx="593.47" cy="560.68" fill="#8b9ad9"></circle><circle r="5" cx="656.32" cy="329.05" fill="#8b9ad9"></circle><circle r="5" cx="688.1" cy="445.78" fill="#8b9ad9"></circle><circle r="5" cx="711.88" cy="690.13" fill="#8b9ad9"></circle><circle r="5" cx="811.16" cy="-43.14" fill="#8b9ad9"></circle><circle r="5" cx="827.38" cy="213.63" fill="#8b9ad9"></circle><circle r="5" cx="840.43" cy="314.72" fill="#8b9ad9"></circle><circle r="5" cx="834.28" cy="676.98" fill="#8b9ad9"></circle><circle r="5" cx="949.83" cy="-67.94" fill="#8b9ad9"></circle><circle r="5" cx="960.9" cy="290.3" fill="#8b9ad9"></circle><circle r="5" cx="942.83" cy="437.19" fill="#8b9ad9"></circle><circle r="5" cx="955.71" cy="560.7" fill="#8b9ad9"></circle><circle r="5" cx="1084.75" cy="-66.94" fill="#8b9ad9"></circle><circle r="5" cx="1082.75" cy="44.51" fill="#8b9ad9"></circle><circle r="5" cx="1034.16" cy="300.08" fill="#8b9ad9"></circle><circle r="5" cx="1088.53" cy="419.62" fill="#8b9ad9"></circle><circle r="5" cx="1062.12" cy="566.1" fill="#8b9ad9"></circle><circle r="5" cx="1082.35" cy="709.88" fill="#8b9ad9"></circle></g><defs><mask id="SvgjsMask1018"><rect width="1000" height="560" fill="#ffffff"></rect></mask><radialGradient id="SvgjsRadialGradient1019"><stop stop-color="#ffffff" offset="0.1"></stop><stop stop-color="#1735b3" offset="0.2"></stop><stop stop-color="rgba(23, 53, 179, 0)" offset="1"></stop></radialGradient></defs></svg>