<svg xmlns="http://www.w3.org/2000/svg" version="1.1" xmlns:xlink="http://www.w3.org/1999/xlink" xmlns:svgjs="http://svgjs.dev/svgjs" width="300" height="1000" preserveAspectRatio="none" viewBox="0 0 300 1000"><g mask="url(&quot;#SvgjsMask1109&quot;)" fill="none"><rect width="300" height="1000" x="0" y="0" fill="#0e2a47"></rect><path d="M-31.67 694.47L-31.67 694.47" stroke="#132e65" stroke-width="1.5"></path><path d="M-31.67 694.47L-39.13 810.62" stroke="#132e65" stroke-width="1.5"></path><path d="M-31.67 694.47L58.99 829.35" stroke="#132e65" stroke-width="1.5"></path><path d="M-31.67 694.47L-73.88 921.01" stroke="#132e65" stroke-width="1.5"></path><path d="M-39.13 810.62L-39.13 810.62" stroke="#132e65" stroke-width="1.5"></path><path d="M-39.13 810.62L58.99 829.35" stroke="#132e65" stroke-width="1.5"></path><path d="M-39.13 810.62L-73.88 921.01" stroke="#132e65" stroke-width="1.5"></path><path d="M-39.13 810.62L54.46 966.15" stroke="#132e65" stroke-width="1.5"></path><path d="M-39.13 810.62L165.84 939.45" stroke="#132e65" stroke-width="1.5"></path><path d="M-73.88 921.01L-73.88 921.01" stroke="#132e65" stroke-width="1.5"></path><path d="M-73.88 921.01L54.46 966.15" stroke="#132e65" stroke-width="1.5"></path><path d="M-73.88 921.01L58.99 829.35" stroke="#132e65" stroke-width="1.5"></path><path d="M-73.88 921.01L-90.87 1092.2" stroke="#132e65" stroke-width="1.5"></path><path d="M-73.88 921.01L43.24 1051.27" stroke="#132e65" stroke-width="1.5"></path><path d="M-90.87 1092.2L-90.87 1092.2" stroke="#132e65" stroke-width="1.5"></path><path d="M-90.87 1092.2L43.24 1051.27" stroke="#132e65" stroke-width="1.5"></path><path d="M-90.87 1092.2L54.46 966.15" stroke="#132e65" stroke-width="1.5"></path><path d="M58.99 829.35L58.99 829.35" stroke="#132e65" stroke-width="1.5"></path><path d="M58.99 829.35L54.46 966.15" stroke="#132e65" stroke-width="1.5"></path><path d="M58.99 829.35L165.84 939.45" stroke="#132e65" stroke-width="1.5"></path><path d="M54.46 966.15L54.46 966.15" stroke="#132e65" stroke-width="1.5"></path><path d="M54.46 966.15L43.24 1051.27" stroke="#132e65" stroke-width="1.5"></path><path d="M54.46 966.15L165.84 939.45" stroke="#132e65" stroke-width="1.5"></path><path d="M43.24 1051.27L43.24 1051.27" stroke="#132e65" stroke-width="1.5"></path><path d="M43.24 1051.27L161.61 1066.68" stroke="#132e65" stroke-width="1.5"></path><path d="M207.77 -45.69L207.77 -45.69" stroke="#132e65" stroke-width="1.5"></path><path d="M207.77 -45.69L184.13 43.51" stroke="#132e65" stroke-width="1.5"></path><path d="M207.77 -45.69L316.28 59.32" stroke="#132e65" stroke-width="1.5"></path><path d="M184.13 43.51L184.13 43.51" stroke="#132e65" stroke-width="1.5"></path><path d="M191.87 302.94L191.87 302.94" stroke="#132e65" stroke-width="1.5"></path><path d="M191.87 302.94L212.3 467.47" stroke="#132e65" stroke-width="1.5"></path><path d="M191.87 302.94L317.11 180.3" stroke="#132e65" stroke-width="1.5"></path><path d="M191.87 302.94L308.28 461.46" stroke="#132e65" stroke-width="1.5"></path><path d="M191.87 302.94L423.31 313.39" stroke="#132e65" stroke-width="1.5"></path><path d="M191.87 302.94L171.17 535.04" stroke="#132e65" stroke-width="1.5"></path><path d="M191.87 302.94L184.13 43.51" stroke="#132e65" stroke-width="1.5"></path><path d="M212.3 467.47L212.3 467.47" stroke="#132e65" stroke-width="1.5"></path><path d="M212.3 467.47L171.17 535.04" stroke="#132e65" stroke-width="1.5"></path><path d="M212.3 467.47L308.28 461.46" stroke="#132e65" stroke-width="1.5"></path><path d="M212.3 467.47L308.65 591.25" stroke="#132e65" stroke-width="1.5"></path><path d="M212.3 467.47L207.8 670.45" stroke="#132e65" stroke-width="1.5"></path><path d="M212.3 467.47L423.22 433.46" stroke="#132e65" stroke-width="1.5"></path><path d="M171.17 535.04L171.17 535.04" stroke="#132e65" stroke-width="1.5"></path><path d="M171.17 535.04L207.8 670.45" stroke="#132e65" stroke-width="1.5"></path><path d="M171.17 535.04L308.65 591.25" stroke="#132e65" stroke-width="1.5"></path><path d="M171.17 535.04L308.28 461.46" stroke="#132e65" stroke-width="1.5"></path><path d="M207.8 670.45L207.8 670.45" stroke="#132e65" stroke-width="1.5"></path><path d="M207.8 670.45L324.07 718.69" stroke="#132e65" stroke-width="1.5"></path><path d="M207.8 670.45L308.65 591.25" stroke="#132e65" stroke-width="1.5"></path><path d="M207.8 670.45L215.41 831.74" stroke="#132e65" stroke-width="1.5"></path><path d="M215.41 831.74L215.41 831.74" stroke="#132e65" stroke-width="1.5"></path><path d="M215.41 831.74L323.12 811.73" stroke="#132e65" stroke-width="1.5"></path><path d="M215.41 831.74L165.84 939.45" stroke="#132e65" stroke-width="1.5"></path><path d="M215.41 831.74L325.69 912.92" stroke="#132e65" stroke-width="1.5"></path><path d="M165.84 939.45L165.84 939.45" stroke="#132e65" stroke-width="1.5"></path><path d="M165.84 939.45L161.61 1066.68" stroke="#132e65" stroke-width="1.5"></path><path d="M161.61 1066.68L161.61 1066.68" stroke="#132e65" stroke-width="1.5"></path><path d="M161.61 1066.68L54.46 966.15" stroke="#132e65" stroke-width="1.5"></path><path d="M161.61 1066.68L314.46 1091.66" stroke="#132e65" stroke-width="1.5"></path><path d="M161.61 1066.68L325.69 912.92" stroke="#132e65" stroke-width="1.5"></path><path d="M161.61 1066.68L215.41 831.74" stroke="#132e65" stroke-width="1.5"></path><path d="M316.28 59.32L316.28 59.32" stroke="#132e65" stroke-width="1.5"></path><path d="M316.28 59.32L317.11 180.3" stroke="#132e65" stroke-width="1.5"></path><path d="M316.28 59.32L184.13 43.51" stroke="#132e65" stroke-width="1.5"></path><path d="M317.11 180.3L317.11 180.3" stroke="#132e65" stroke-width="1.5"></path><path d="M317.11 180.3L433.7 171.67" stroke="#132e65" stroke-width="1.5"></path><path d="M317.11 180.3L423.31 313.39" stroke="#132e65" stroke-width="1.5"></path><path d="M308.28 461.46L308.28 461.46" stroke="#132e65" stroke-width="1.5"></path><path d="M308.28 461.46L423.22 433.46" stroke="#132e65" stroke-width="1.5"></path><path d="M308.28 461.46L308.65 591.25" stroke="#132e65" stroke-width="1.5"></path><path d="M308.28 461.46L419.37 581.18" stroke="#132e65" stroke-width="1.5"></path><path d="M308.28 461.46L423.31 313.39" stroke="#132e65" stroke-width="1.5"></path><path d="M308.65 591.25L308.65 591.25" stroke="#132e65" stroke-width="1.5"></path><path d="M308.65 591.25L419.37 581.18" stroke="#132e65" stroke-width="1.5"></path><path d="M308.65 591.25L324.07 718.69" stroke="#132e65" stroke-width="1.5"></path><path d="M324.07 718.69L324.07 718.69" stroke="#132e65" stroke-width="1.5"></path><path d="M324.07 718.69L323.12 811.73" stroke="#132e65" stroke-width="1.5"></path><path d="M324.07 718.69L442.79 679.29" stroke="#132e65" stroke-width="1.5"></path><path d="M323.12 811.73L323.12 811.73" stroke="#132e65" stroke-width="1.5"></path><path d="M323.12 811.73L325.69 912.92" stroke="#132e65" stroke-width="1.5"></path><path d="M323.12 811.73L466.38 829.49" stroke="#132e65" stroke-width="1.5"></path><path d="M325.69 912.92L325.69 912.92" stroke="#132e65" stroke-width="1.5"></path><path d="M325.69 912.92L444 965.03" stroke="#132e65" stroke-width="1.5"></path><path d="M325.69 912.92L165.84 939.45" stroke="#132e65" stroke-width="1.5"></path><path d="M325.69 912.92L466.38 829.49" stroke="#132e65" stroke-width="1.5"></path><path d="M314.46 1091.66L314.46 1091.66" stroke="#132e65" stroke-width="1.5"></path><path d="M314.46 1091.66L419.74 1081.53" stroke="#132e65" stroke-width="1.5"></path><path d="M314.46 1091.66L325.69 912.92" stroke="#132e65" stroke-width="1.5"></path><path d="M314.46 1091.66L444 965.03" stroke="#132e65" stroke-width="1.5"></path><path d="M314.46 1091.66L165.84 939.45" stroke="#132e65" stroke-width="1.5"></path><path d="M314.46 1091.66L43.24 1051.27" stroke="#132e65" stroke-width="1.5"></path><path d="M443.5 -73.17L443.5 -73.17" stroke="#132e65" stroke-width="1.5"></path><path d="M443.5 -73.17L316.28 59.32" stroke="#132e65" stroke-width="1.5"></path><path d="M443.5 -73.17L207.77 -45.69" stroke="#132e65" stroke-width="1.5"></path><path d="M443.5 -73.17L433.7 171.67" stroke="#132e65" stroke-width="1.5"></path><path d="M433.7 171.67L433.7 171.67" stroke="#132e65" stroke-width="1.5"></path><path d="M433.7 171.67L423.31 313.39" stroke="#132e65" stroke-width="1.5"></path><path d="M433.7 171.67L316.28 59.32" stroke="#132e65" stroke-width="1.5"></path><path d="M423.31 313.39L423.31 313.39" stroke="#132e65" stroke-width="1.5"></path><path d="M423.31 313.39L423.22 433.46" stroke="#132e65" stroke-width="1.5"></path><path d="M423.22 433.46L423.22 433.46" stroke="#132e65" stroke-width="1.5"></path><path d="M419.37 581.18L419.37 581.18" stroke="#132e65" stroke-width="1.5"></path><path d="M419.37 581.18L442.79 679.29" stroke="#132e65" stroke-width="1.5"></path><path d="M419.37 581.18L423.22 433.46" stroke="#132e65" stroke-width="1.5"></path><path d="M419.37 581.18L324.07 718.69" stroke="#132e65" stroke-width="1.5"></path><path d="M442.79 679.29L442.79 679.29" stroke="#132e65" stroke-width="1.5"></path><path d="M442.79 679.29L466.38 829.49" stroke="#132e65" stroke-width="1.5"></path><path d="M442.79 679.29L308.65 591.25" stroke="#132e65" stroke-width="1.5"></path><path d="M442.79 679.29L323.12 811.73" stroke="#132e65" stroke-width="1.5"></path><path d="M442.79 679.29L207.8 670.45" stroke="#132e65" stroke-width="1.5"></path><path d="M466.38 829.49L466.38 829.49" stroke="#132e65" stroke-width="1.5"></path><path d="M466.38 829.49L444 965.03" stroke="#132e65" stroke-width="1.5"></path><path d="M466.38 829.49L324.07 718.69" stroke="#132e65" stroke-width="1.5"></path><path d="M444 965.03L444 965.03" stroke="#132e65" stroke-width="1.5"></path><path d="M444 965.03L419.74 1081.53" stroke="#132e65" stroke-width="1.5"></path><path d="M419.74 1081.53L419.74 1081.53" stroke="#132e65" stroke-width="1.5"></path><circle r="5" cx="-31.67" cy="694.47" fill="#132e65"></circle><circle r="5" cx="-39.13" cy="810.62" fill="#132e65"></circle><circle r="5" cx="-73.88" cy="921.01" fill="#132e65"></circle><circle r="5" cx="-90.87" cy="1092.2" fill="#132e65"></circle><circle r="5" cx="58.99" cy="829.35" fill="#132e65"></circle><circle r="5" cx="54.46" cy="966.15" fill="#132e65"></circle><circle r="5" cx="43.24" cy="1051.27" fill="#132e65"></circle><circle r="5" cx="207.77" cy="-45.69" fill="#132e65"></circle><circle r="5" cx="184.13" cy="43.51" fill="#132e65"></circle><circle r="5" cx="191.87" cy="302.94" fill="#132e65"></circle><circle r="5" cx="212.3" cy="467.47" fill="#132e65"></circle><circle r="5" cx="171.17" cy="535.04" fill="#132e65"></circle><circle r="5" cx="207.8" cy="670.45" fill="#132e65"></circle><circle r="5" cx="215.41" cy="831.74" fill="#132e65"></circle><circle r="5" cx="165.84" cy="939.45" fill="#132e65"></circle><circle r="5" cx="161.61" cy="1066.68" fill="#132e65"></circle><circle r="5" cx="316.28" cy="59.32" fill="#132e65"></circle><circle r="5" cx="317.11" cy="180.3" fill="#132e65"></circle><circle r="5" cx="308.28" cy="461.46" fill="#132e65"></circle><circle r="5" cx="308.65" cy="591.25" fill="#132e65"></circle><circle r="5" cx="324.07" cy="718.69" fill="#132e65"></circle><circle r="5" cx="323.12" cy="811.73" fill="#132e65"></circle><circle r="5" cx="325.69" cy="912.92" fill="#132e65"></circle><circle r="5" cx="314.46" cy="1091.66" fill="#132e65"></circle><circle r="5" cx="443.5" cy="-73.17" fill="#132e65"></circle><circle r="5" cx="433.7" cy="171.67" fill="#132e65"></circle><circle r="5" cx="423.31" cy="313.39" fill="#132e65"></circle><circle r="5" cx="423.22" cy="433.46" fill="#132e65"></circle><circle r="5" cx="419.37" cy="581.18" fill="#132e65"></circle><circle r="5" cx="442.79" cy="679.29" fill="#132e65"></circle><circle r="5" cx="466.38" cy="829.49" fill="#132e65"></circle><circle r="5" cx="444" cy="965.03" fill="#132e65"></circle><circle r="5" cx="419.74" cy="1081.53" fill="#132e65"></circle><path d="M288.8 324.9L288.8 324.9" stroke="hsl(228.5, 77.2%, 51.5%)" stroke-width="1.5"></path><path d="M288.8 324.9L310.42 447.34" stroke="hsl(228.5, 77.2%, 51.5%)" stroke-width="1.5"></path><path d="M288.8 324.9L310.75 164.53" stroke="hsl(228.5, 77.2%, 51.5%)" stroke-width="1.5"></path><path d="M288.8 324.9L449.59 294.42" stroke="hsl(228.5, 77.2%, 51.5%)" stroke-width="1.5"></path><path d="M288.8 324.9L416.42 191.76" stroke="hsl(228.5, 77.2%, 51.5%)" stroke-width="1.5"></path><path d="M310.86 551.19L310.86 551.19" stroke="hsl(228.5, 77.2%, 51.5%)" stroke-width="1.5"></path><path d="M310.86 551.19L310.42 447.34" stroke="hsl(228.5, 77.2%, 51.5%)" stroke-width="1.5"></path><path d="M310.86 551.19L437.88 534.84" stroke="hsl(228.5, 77.2%, 51.5%)" stroke-width="1.5"></path><path d="M310.86 551.19L175.08 553.38" stroke="hsl(228.5, 77.2%, 51.5%)" stroke-width="1.5"></path><path d="M449.59 294.42L449.59 294.42" stroke="hsl(228.5, 77.2%, 51.5%)" stroke-width="1.5"></path><path d="M449.59 294.42L416.42 191.76" stroke="hsl(228.5, 77.2%, 51.5%)" stroke-width="1.5"></path><path d="M449.59 294.42L461.21 418.17" stroke="hsl(228.5, 77.2%, 51.5%)" stroke-width="1.5"></path><path d="M449.59 294.42L310.75 164.53" stroke="hsl(228.5, 77.2%, 51.5%)" stroke-width="1.5"></path><path d="M449.59 294.42L460.75 90.83" stroke="hsl(228.5, 77.2%, 51.5%)" stroke-width="1.5"></path><path d="M449.59 294.42L310.42 447.34" stroke="hsl(228.5, 77.2%, 51.5%)" stroke-width="1.5"></path><path d="M437.88 534.84L437.88 534.84" stroke="hsl(228.5, 77.2%, 51.5%)" stroke-width="1.5"></path><path d="M437.88 534.84L461.21 418.17" stroke="hsl(228.5, 77.2%, 51.5%)" stroke-width="1.5"></path><path d="M464.08 1064.54L464.08 1064.54" stroke="hsl(228.5, 77.2%, 51.5%)" stroke-width="1.5"></path><path d="M464.08 1064.54L454.35 940.22" stroke="hsl(228.5, 77.2%, 51.5%)" stroke-width="1.5"></path><path d="M464.08 1064.54L281.84 1066.46" stroke="hsl(228.5, 77.2%, 51.5%)" stroke-width="1.5"></path><path d="M464.08 1064.54L282.49 912.78" stroke="hsl(228.5, 77.2%, 51.5%)" stroke-width="1.5"></path><path d="M464.08 1064.54L437.8 820.61" stroke="hsl(228.5, 77.2%, 51.5%)" stroke-width="1.5"></path><path d="M-86.33 819.8L-86.33 819.8" stroke="hsl(228.5, 77.2%, 51.5%)" stroke-width="1.5"></path><path d="M-86.33 819.8L-72.62 965.76" stroke="hsl(228.5, 77.2%, 51.5%)" stroke-width="1.5"></path><path d="M-86.33 819.8L67.08 818.8" stroke="hsl(228.5, 77.2%, 51.5%)" stroke-width="1.5"></path><path d="M-86.33 819.8L-39.41 1031.48" stroke="hsl(228.5, 77.2%, 51.5%)" stroke-width="1.5"></path><path d="M-86.33 819.8L190.09 800.25" stroke="hsl(228.5, 77.2%, 51.5%)" stroke-width="1.5"></path><path d="M-86.33 819.8L79.82 1056.89" stroke="hsl(228.5, 77.2%, 51.5%)" stroke-width="1.5"></path><path d="M-72.62 965.76L-72.62 965.76" stroke="hsl(228.5, 77.2%, 51.5%)" stroke-width="1.5"></path><path d="M-72.62 965.76L-39.41 1031.48" stroke="hsl(228.5, 77.2%, 51.5%)" stroke-width="1.5"></path><path d="M-72.62 965.76L79.82 1056.89" stroke="hsl(228.5, 77.2%, 51.5%)" stroke-width="1.5"></path><path d="M-39.41 1031.48L-39.41 1031.48" stroke="hsl(228.5, 77.2%, 51.5%)" stroke-width="1.5"></path><path d="M-39.41 1031.48L79.82 1056.89" stroke="hsl(228.5, 77.2%, 51.5%)" stroke-width="1.5"></path><path d="M-39.41 1031.48L168.79 1032.69" stroke="hsl(228.5, 77.2%, 51.5%)" stroke-width="1.5"></path><path d="M67.08 818.8L67.08 818.8" stroke="hsl(228.5, 77.2%, 51.5%)" stroke-width="1.5"></path><path d="M67.08 818.8L190.09 800.25" stroke="hsl(228.5, 77.2%, 51.5%)" stroke-width="1.5"></path><path d="M79.82 1056.89L79.82 1056.89" stroke="hsl(228.5, 77.2%, 51.5%)" stroke-width="1.5"></path><path d="M79.82 1056.89L168.79 1032.69" stroke="hsl(228.5, 77.2%, 51.5%)" stroke-width="1.5"></path><path d="M175.08 553.38L175.08 553.38" stroke="hsl(228.5, 77.2%, 51.5%)" stroke-width="1.5"></path><path d="M175.08 553.38L187.47 701.03" stroke="hsl(228.5, 77.2%, 51.5%)" stroke-width="1.5"></path><path d="M175.08 553.38L310.42 447.34" stroke="hsl(228.5, 77.2%, 51.5%)" stroke-width="1.5"></path><path d="M175.08 553.38L307.31 693.69" stroke="hsl(228.5, 77.2%, 51.5%)" stroke-width="1.5"></path><path d="M175.08 553.38L190.09 800.25" stroke="hsl(228.5, 77.2%, 51.5%)" stroke-width="1.5"></path><path d="M175.08 553.38L288.8 324.9" stroke="hsl(228.5, 77.2%, 51.5%)" stroke-width="1.5"></path><path d="M187.47 701.03L187.47 701.03" stroke="hsl(228.5, 77.2%, 51.5%)" stroke-width="1.5"></path><path d="M187.47 701.03L190.09 800.25" stroke="hsl(228.5, 77.2%, 51.5%)" stroke-width="1.5"></path><path d="M187.47 701.03L307.31 693.69" stroke="hsl(228.5, 77.2%, 51.5%)" stroke-width="1.5"></path><path d="M187.47 701.03L290.36 786.16" stroke="hsl(228.5, 77.2%, 51.5%)" stroke-width="1.5"></path><path d="M187.47 701.03L67.08 818.8" stroke="hsl(228.5, 77.2%, 51.5%)" stroke-width="1.5"></path><path d="M187.47 701.03L310.86 551.19" stroke="hsl(228.5, 77.2%, 51.5%)" stroke-width="1.5"></path><path d="M190.09 800.25L190.09 800.25" stroke="hsl(228.5, 77.2%, 51.5%)" stroke-width="1.5"></path><path d="M190.09 800.25L290.36 786.16" stroke="hsl(228.5, 77.2%, 51.5%)" stroke-width="1.5"></path><path d="M190.09 800.25L282.49 912.78" stroke="hsl(228.5, 77.2%, 51.5%)" stroke-width="1.5"></path><path d="M190.09 800.25L307.31 693.69" stroke="hsl(228.5, 77.2%, 51.5%)" stroke-width="1.5"></path><path d="M190.09 800.25L168.79 1032.69" stroke="hsl(228.5, 77.2%, 51.5%)" stroke-width="1.5"></path><path d="M168.79 1032.69L168.79 1032.69" stroke="hsl(228.5, 77.2%, 51.5%)" stroke-width="1.5"></path><path d="M168.79 1032.69L281.84 1066.46" stroke="hsl(228.5, 77.2%, 51.5%)" stroke-width="1.5"></path><path d="M327.32 -62.83L327.32 -62.83" stroke="hsl(228.5, 77.2%, 51.5%)" stroke-width="1.5"></path><path d="M327.32 -62.83L446.72 -36.06" stroke="hsl(228.5, 77.2%, 51.5%)" stroke-width="1.5"></path><path d="M327.32 -62.83L330.03 68.66" stroke="hsl(228.5, 77.2%, 51.5%)" stroke-width="1.5"></path><path d="M327.32 -62.83L460.75 90.83" stroke="hsl(228.5, 77.2%, 51.5%)" stroke-width="1.5"></path><path d="M327.32 -62.83L310.75 164.53" stroke="hsl(228.5, 77.2%, 51.5%)" stroke-width="1.5"></path><path d="M327.32 -62.83L416.42 191.76" stroke="hsl(228.5, 77.2%, 51.5%)" stroke-width="1.5"></path><path d="M330.03 68.66L330.03 68.66" stroke="hsl(228.5, 77.2%, 51.5%)" stroke-width="1.5"></path><path d="M330.03 68.66L310.75 164.53" stroke="hsl(228.5, 77.2%, 51.5%)" stroke-width="1.5"></path><path d="M310.75 164.53L310.75 164.53" stroke="hsl(228.5, 77.2%, 51.5%)" stroke-width="1.5"></path><path d="M310.75 164.53L416.42 191.76" stroke="hsl(228.5, 77.2%, 51.5%)" stroke-width="1.5"></path><path d="M310.75 164.53L460.75 90.83" stroke="hsl(228.5, 77.2%, 51.5%)" stroke-width="1.5"></path><path d="M310.42 447.34L310.42 447.34" stroke="hsl(228.5, 77.2%, 51.5%)" stroke-width="1.5"></path><path d="M310.42 447.34L461.21 418.17" stroke="hsl(228.5, 77.2%, 51.5%)" stroke-width="1.5"></path><path d="M307.31 693.69L307.31 693.69" stroke="hsl(228.5, 77.2%, 51.5%)" stroke-width="1.5"></path><path d="M307.31 693.69L290.36 786.16" stroke="hsl(228.5, 77.2%, 51.5%)" stroke-width="1.5"></path><path d="M290.36 786.16L290.36 786.16" stroke="hsl(228.5, 77.2%, 51.5%)" stroke-width="1.5"></path><path d="M290.36 786.16L282.49 912.78" stroke="hsl(228.5, 77.2%, 51.5%)" stroke-width="1.5"></path><path d="M290.36 786.16L437.8 820.61" stroke="hsl(228.5, 77.2%, 51.5%)" stroke-width="1.5"></path><path d="M290.36 786.16L458.65 714.18" stroke="hsl(228.5, 77.2%, 51.5%)" stroke-width="1.5"></path><path d="M282.49 912.78L282.49 912.78" stroke="hsl(228.5, 77.2%, 51.5%)" stroke-width="1.5"></path><path d="M282.49 912.78L281.84 1066.46" stroke="hsl(228.5, 77.2%, 51.5%)" stroke-width="1.5"></path><path d="M282.49 912.78L168.79 1032.69" stroke="hsl(228.5, 77.2%, 51.5%)" stroke-width="1.5"></path><path d="M282.49 912.78L454.35 940.22" stroke="hsl(228.5, 77.2%, 51.5%)" stroke-width="1.5"></path><path d="M281.84 1066.46L281.84 1066.46" stroke="hsl(228.5, 77.2%, 51.5%)" stroke-width="1.5"></path><path d="M281.84 1066.46L79.82 1056.89" stroke="hsl(228.5, 77.2%, 51.5%)" stroke-width="1.5"></path><path d="M281.84 1066.46L454.35 940.22" stroke="hsl(228.5, 77.2%, 51.5%)" stroke-width="1.5"></path><path d="M446.72 -36.06L446.72 -36.06" stroke="hsl(228.5, 77.2%, 51.5%)" stroke-width="1.5"></path><path d="M446.72 -36.06L460.75 90.83" stroke="hsl(228.5, 77.2%, 51.5%)" stroke-width="1.5"></path><path d="M460.75 90.83L460.75 90.83" stroke="hsl(228.5, 77.2%, 51.5%)" stroke-width="1.5"></path><path d="M460.75 90.83L416.42 191.76" stroke="hsl(228.5, 77.2%, 51.5%)" stroke-width="1.5"></path><path d="M460.75 90.83L330.03 68.66" stroke="hsl(228.5, 77.2%, 51.5%)" stroke-width="1.5"></path><path d="M416.42 191.76L416.42 191.76" stroke="hsl(228.5, 77.2%, 51.5%)" stroke-width="1.5"></path><path d="M461.21 418.17L461.21 418.17" stroke="hsl(228.5, 77.2%, 51.5%)" stroke-width="1.5"></path><path d="M461.21 418.17L288.8 324.9" stroke="hsl(228.5, 77.2%, 51.5%)" stroke-width="1.5"></path><path d="M461.21 418.17L310.86 551.19" stroke="hsl(228.5, 77.2%, 51.5%)" stroke-width="1.5"></path><path d="M461.21 418.17L416.42 191.76" stroke="hsl(228.5, 77.2%, 51.5%)" stroke-width="1.5"></path><path d="M458.65 714.18L458.65 714.18" stroke="hsl(228.5, 77.2%, 51.5%)" stroke-width="1.5"></path><path d="M458.65 714.18L437.8 820.61" stroke="hsl(228.5, 77.2%, 51.5%)" stroke-width="1.5"></path><path d="M458.65 714.18L307.31 693.69" stroke="hsl(228.5, 77.2%, 51.5%)" stroke-width="1.5"></path><path d="M458.65 714.18L437.88 534.84" stroke="hsl(228.5, 77.2%, 51.5%)" stroke-width="1.5"></path><path d="M458.65 714.18L310.86 551.19" stroke="hsl(228.5, 77.2%, 51.5%)" stroke-width="1.5"></path><path d="M458.65 714.18L454.35 940.22" stroke="hsl(228.5, 77.2%, 51.5%)" stroke-width="1.5"></path><path d="M437.8 820.61L437.8 820.61" stroke="hsl(228.5, 77.2%, 51.5%)" stroke-width="1.5"></path><path d="M437.8 820.61L454.35 940.22" stroke="hsl(228.5, 77.2%, 51.5%)" stroke-width="1.5"></path><path d="M437.8 820.61L282.49 912.78" stroke="hsl(228.5, 77.2%, 51.5%)" stroke-width="1.5"></path><path d="M437.8 820.61L307.31 693.69" stroke="hsl(228.5, 77.2%, 51.5%)" stroke-width="1.5"></path><path d="M454.35 940.22L454.35 940.22" stroke="hsl(228.5, 77.2%, 51.5%)" stroke-width="1.5"></path><circle r="25" cx="288.8" cy="324.9" fill="url(&quot;#SvgjsRadialGradient1110&quot;)"></circle><circle r="25" cx="310.86" cy="551.19" fill="url(&quot;#SvgjsRadialGradient1110&quot;)"></circle><circle r="25" cx="449.59" cy="294.42" fill="url(&quot;#SvgjsRadialGradient1110&quot;)"></circle><circle r="25" cx="437.88" cy="534.84" fill="url(&quot;#SvgjsRadialGradient1110&quot;)"></circle><circle r="25" cx="464.08" cy="1064.54" fill="url(&quot;#SvgjsRadialGradient1110&quot;)"></circle><circle r="5" cx="-86.33" cy="819.8" fill="#8b9ad9"></circle><circle r="5" cx="-72.62" cy="965.76" fill="#8b9ad9"></circle><circle r="5" cx="-39.41" cy="1031.48" fill="#8b9ad9"></circle><circle r="5" cx="67.08" cy="818.8" fill="#8b9ad9"></circle><circle r="5" cx="79.82" cy="1056.89" fill="#8b9ad9"></circle><circle r="5" cx="175.08" cy="553.38" fill="#8b9ad9"></circle><circle r="5" cx="187.47" cy="701.03" fill="#8b9ad9"></circle><circle r="5" cx="190.09" cy="800.25" fill="#8b9ad9"></circle><circle r="5" cx="168.79" cy="1032.69" fill="#8b9ad9"></circle><circle r="5" cx="327.32" cy="-62.83" fill="#8b9ad9"></circle><circle r="5" cx="330.03" cy="68.66" fill="#8b9ad9"></circle><circle r="5" cx="310.75" cy="164.53" fill="#8b9ad9"></circle><circle r="5" cx="310.42" cy="447.34" fill="#8b9ad9"></circle><circle r="5" cx="307.31" cy="693.69" fill="#8b9ad9"></circle><circle r="5" cx="290.36" cy="786.16" fill="#8b9ad9"></circle><circle r="5" cx="282.49" cy="912.78" fill="#8b9ad9"></circle><circle r="5" cx="281.84" cy="1066.46" fill="#8b9ad9"></circle><circle r="5" cx="446.72" cy="-36.06" fill="#8b9ad9"></circle><circle r="5" cx="460.75" cy="90.83" fill="#8b9ad9"></circle><circle r="5" cx="416.42" cy="191.76" fill="#8b9ad9"></circle><circle r="5" cx="461.21" cy="418.17" fill="#8b9ad9"></circle><circle r="5" cx="458.65" cy="714.18" fill="#8b9ad9"></circle><circle r="5" cx="437.8" cy="820.61" fill="#8b9ad9"></circle><circle r="5" cx="454.35" cy="940.22" fill="#8b9ad9"></circle></g><defs><mask id="SvgjsMask1109"><rect width="300" height="1000" fill="#ffffff"></rect></mask><radialGradient id="SvgjsRadialGradient1110"><stop stop-color="#ffffff" offset="0.1"></stop><stop stop-color="#1735b3" offset="0.2"></stop><stop stop-color="rgba(23, 53, 179, 0)" offset="1"></stop></radialGradient></defs></svg>