<svg xmlns="http://www.w3.org/2000/svg" version="1.1" xmlns:xlink="http://www.w3.org/1999/xlink" xmlns:svgjs="http://svgjs.dev/svgjs" width="300" height="1000" preserveAspectRatio="none" viewBox="0 0 300 1000"><g mask="url(&quot;#SvgjsMask1099&quot;)" fill="none"><rect width="300" height="1000" x="0" y="0" fill="#0e2a47"></rect><path d="M-66.81 678.8L-66.81 678.8" stroke="#132e65" stroke-width="1.5"></path><path d="M-66.81 678.8L-31.44 788.36" stroke="#132e65" stroke-width="1.5"></path><path d="M-66.81 678.8L70.84 679.58" stroke="#132e65" stroke-width="1.5"></path><path d="M-66.81 678.8L74.84 592.94" stroke="#132e65" stroke-width="1.5"></path><path d="M-66.81 678.8L84.28 793.42" stroke="#132e65" stroke-width="1.5"></path><path d="M-66.81 678.8L165.39 806.25" stroke="#132e65" stroke-width="1.5"></path><path d="M-66.81 678.8L-93.22 947.11" stroke="#132e65" stroke-width="1.5"></path><path d="M-31.44 788.36L-31.44 788.36" stroke="#132e65" stroke-width="1.5"></path><path d="M-31.44 788.36L84.28 793.42" stroke="#132e65" stroke-width="1.5"></path><path d="M-31.44 788.36L70.84 679.58" stroke="#132e65" stroke-width="1.5"></path><path d="M-31.44 788.36L-93.22 947.11" stroke="#132e65" stroke-width="1.5"></path><path d="M-93.22 947.11L-93.22 947.11" stroke="#132e65" stroke-width="1.5"></path><path d="M-93.22 947.11L-44.59 1055.3" stroke="#132e65" stroke-width="1.5"></path><path d="M-93.22 947.11L85.36 954.3" stroke="#132e65" stroke-width="1.5"></path><path d="M-93.22 947.11L52.64 1080.45" stroke="#132e65" stroke-width="1.5"></path><path d="M-44.59 1055.3L-44.59 1055.3" stroke="#132e65" stroke-width="1.5"></path><path d="M-44.59 1055.3L52.64 1080.45" stroke="#132e65" stroke-width="1.5"></path><path d="M-44.59 1055.3L85.36 954.3" stroke="#132e65" stroke-width="1.5"></path><path d="M-44.59 1055.3L166.24 949.43" stroke="#132e65" stroke-width="1.5"></path><path d="M-44.59 1055.3L190.33 1032.42" stroke="#132e65" stroke-width="1.5"></path><path d="M-44.59 1055.3L-31.44 788.36" stroke="#132e65" stroke-width="1.5"></path><path d="M74.84 592.94L74.84 592.94" stroke="#132e65" stroke-width="1.5"></path><path d="M74.84 592.94L70.84 679.58" stroke="#132e65" stroke-width="1.5"></path><path d="M74.84 592.94L191.78 555.24" stroke="#132e65" stroke-width="1.5"></path><path d="M74.84 592.94L207.63 686.79" stroke="#132e65" stroke-width="1.5"></path><path d="M74.84 592.94L187.98 435.36" stroke="#132e65" stroke-width="1.5"></path><path d="M70.84 679.58L70.84 679.58" stroke="#132e65" stroke-width="1.5"></path><path d="M70.84 679.58L84.28 793.42" stroke="#132e65" stroke-width="1.5"></path><path d="M70.84 679.58L207.63 686.79" stroke="#132e65" stroke-width="1.5"></path><path d="M84.28 793.42L84.28 793.42" stroke="#132e65" stroke-width="1.5"></path><path d="M84.28 793.42L165.39 806.25" stroke="#132e65" stroke-width="1.5"></path><path d="M85.36 954.3L85.36 954.3" stroke="#132e65" stroke-width="1.5"></path><path d="M85.36 954.3L166.24 949.43" stroke="#132e65" stroke-width="1.5"></path><path d="M85.36 954.3L52.64 1080.45" stroke="#132e65" stroke-width="1.5"></path><path d="M85.36 954.3L190.33 1032.42" stroke="#132e65" stroke-width="1.5"></path><path d="M85.36 954.3L84.28 793.42" stroke="#132e65" stroke-width="1.5"></path><path d="M52.64 1080.45L52.64 1080.45" stroke="#132e65" stroke-width="1.5"></path><path d="M52.64 1080.45L190.33 1032.42" stroke="#132e65" stroke-width="1.5"></path><path d="M52.64 1080.45L166.24 949.43" stroke="#132e65" stroke-width="1.5"></path><path d="M190.77 291.15L190.77 291.15" stroke="#132e65" stroke-width="1.5"></path><path d="M190.77 291.15L310.06 313.92" stroke="#132e65" stroke-width="1.5"></path><path d="M190.77 291.15L187.98 435.36" stroke="#132e65" stroke-width="1.5"></path><path d="M187.98 435.36L187.98 435.36" stroke="#132e65" stroke-width="1.5"></path><path d="M187.98 435.36L191.78 555.24" stroke="#132e65" stroke-width="1.5"></path><path d="M187.98 435.36L317.81 422.83" stroke="#132e65" stroke-width="1.5"></path><path d="M187.98 435.36L310.06 313.92" stroke="#132e65" stroke-width="1.5"></path><path d="M191.78 555.24L191.78 555.24" stroke="#132e65" stroke-width="1.5"></path><path d="M191.78 555.24L207.63 686.79" stroke="#132e65" stroke-width="1.5"></path><path d="M191.78 555.24L342.06 539.25" stroke="#132e65" stroke-width="1.5"></path><path d="M191.78 555.24L70.84 679.58" stroke="#132e65" stroke-width="1.5"></path><path d="M191.78 555.24L317.81 422.83" stroke="#132e65" stroke-width="1.5"></path><path d="M207.63 686.79L207.63 686.79" stroke="#132e65" stroke-width="1.5"></path><path d="M207.63 686.79L322.5 713.93" stroke="#132e65" stroke-width="1.5"></path><path d="M207.63 686.79L165.39 806.25" stroke="#132e65" stroke-width="1.5"></path><path d="M207.63 686.79L307.19 810.26" stroke="#132e65" stroke-width="1.5"></path><path d="M165.39 806.25L165.39 806.25" stroke="#132e65" stroke-width="1.5"></path><path d="M166.24 949.43L166.24 949.43" stroke="#132e65" stroke-width="1.5"></path><path d="M166.24 949.43L190.33 1032.42" stroke="#132e65" stroke-width="1.5"></path><path d="M166.24 949.43L293.52 942.49" stroke="#132e65" stroke-width="1.5"></path><path d="M166.24 949.43L165.39 806.25" stroke="#132e65" stroke-width="1.5"></path><path d="M166.24 949.43L84.28 793.42" stroke="#132e65" stroke-width="1.5"></path><path d="M190.33 1032.42L190.33 1032.42" stroke="#132e65" stroke-width="1.5"></path><path d="M314.22 -80.54L314.22 -80.54" stroke="#132e65" stroke-width="1.5"></path><path d="M314.22 -80.54L408.37 -33.21" stroke="#132e65" stroke-width="1.5"></path><path d="M314.22 -80.54L338.9 79.85" stroke="#132e65" stroke-width="1.5"></path><path d="M338.9 79.85L338.9 79.85" stroke="#132e65" stroke-width="1.5"></path><path d="M338.9 79.85L285.71 159.44" stroke="#132e65" stroke-width="1.5"></path><path d="M338.9 79.85L408.37 -33.21" stroke="#132e65" stroke-width="1.5"></path><path d="M338.9 79.85L454.28 177.56" stroke="#132e65" stroke-width="1.5"></path><path d="M285.71 159.44L285.71 159.44" stroke="#132e65" stroke-width="1.5"></path><path d="M285.71 159.44L310.06 313.92" stroke="#132e65" stroke-width="1.5"></path><path d="M285.71 159.44L190.77 291.15" stroke="#132e65" stroke-width="1.5"></path><path d="M285.71 159.44L454.28 177.56" stroke="#132e65" stroke-width="1.5"></path><path d="M310.06 313.92L310.06 313.92" stroke="#132e65" stroke-width="1.5"></path><path d="M310.06 313.92L317.81 422.83" stroke="#132e65" stroke-width="1.5"></path><path d="M317.81 422.83L317.81 422.83" stroke="#132e65" stroke-width="1.5"></path><path d="M317.81 422.83L342.06 539.25" stroke="#132e65" stroke-width="1.5"></path><path d="M317.81 422.83L456.65 434.12" stroke="#132e65" stroke-width="1.5"></path><path d="M317.81 422.83L422.58 564.79" stroke="#132e65" stroke-width="1.5"></path><path d="M342.06 539.25L342.06 539.25" stroke="#132e65" stroke-width="1.5"></path><path d="M342.06 539.25L422.58 564.79" stroke="#132e65" stroke-width="1.5"></path><path d="M342.06 539.25L456.65 434.12" stroke="#132e65" stroke-width="1.5"></path><path d="M322.5 713.93L322.5 713.93" stroke="#132e65" stroke-width="1.5"></path><path d="M322.5 713.93L307.19 810.26" stroke="#132e65" stroke-width="1.5"></path><path d="M322.5 713.93L419.06 677.59" stroke="#132e65" stroke-width="1.5"></path><path d="M322.5 713.93L424.31 823.58" stroke="#132e65" stroke-width="1.5"></path><path d="M322.5 713.93L342.06 539.25" stroke="#132e65" stroke-width="1.5"></path><path d="M322.5 713.93L422.58 564.79" stroke="#132e65" stroke-width="1.5"></path><path d="M307.19 810.26L307.19 810.26" stroke="#132e65" stroke-width="1.5"></path><path d="M307.19 810.26L424.31 823.58" stroke="#132e65" stroke-width="1.5"></path><path d="M307.19 810.26L293.52 942.49" stroke="#132e65" stroke-width="1.5"></path><path d="M307.19 810.26L165.39 806.25" stroke="#132e65" stroke-width="1.5"></path><path d="M307.19 810.26L419.06 677.59" stroke="#132e65" stroke-width="1.5"></path><path d="M293.52 942.49L293.52 942.49" stroke="#132e65" stroke-width="1.5"></path><path d="M293.52 942.49L190.33 1032.42" stroke="#132e65" stroke-width="1.5"></path><path d="M408.37 -33.21L408.37 -33.21" stroke="#132e65" stroke-width="1.5"></path><path d="M408.37 -33.21L454.28 177.56" stroke="#132e65" stroke-width="1.5"></path><path d="M408.37 -33.21L285.71 159.44" stroke="#132e65" stroke-width="1.5"></path><path d="M408.37 -33.21L310.06 313.92" stroke="#132e65" stroke-width="1.5"></path><path d="M454.28 177.56L454.28 177.56" stroke="#132e65" stroke-width="1.5"></path><path d="M454.28 177.56L310.06 313.92" stroke="#132e65" stroke-width="1.5"></path><path d="M454.28 177.56L456.65 434.12" stroke="#132e65" stroke-width="1.5"></path><path d="M456.65 434.12L456.65 434.12" stroke="#132e65" stroke-width="1.5"></path><path d="M456.65 434.12L422.58 564.79" stroke="#132e65" stroke-width="1.5"></path><path d="M456.65 434.12L310.06 313.92" stroke="#132e65" stroke-width="1.5"></path><path d="M456.65 434.12L419.06 677.59" stroke="#132e65" stroke-width="1.5"></path><path d="M422.58 564.79L422.58 564.79" stroke="#132e65" stroke-width="1.5"></path><path d="M422.58 564.79L419.06 677.59" stroke="#132e65" stroke-width="1.5"></path><path d="M419.06 677.59L419.06 677.59" stroke="#132e65" stroke-width="1.5"></path><path d="M424.31 823.58L424.31 823.58" stroke="#132e65" stroke-width="1.5"></path><path d="M424.31 823.58L446.49 924.33" stroke="#132e65" stroke-width="1.5"></path><path d="M446.49 924.33L446.49 924.33" stroke="#132e65" stroke-width="1.5"></path><path d="M446.49 924.33L293.52 942.49" stroke="#132e65" stroke-width="1.5"></path><path d="M446.49 924.33L429.48 1089.88" stroke="#132e65" stroke-width="1.5"></path><path d="M446.49 924.33L307.19 810.26" stroke="#132e65" stroke-width="1.5"></path><path d="M429.48 1089.88L429.48 1089.88" stroke="#132e65" stroke-width="1.5"></path><path d="M429.48 1089.88L293.52 942.49" stroke="#132e65" stroke-width="1.5"></path><path d="M429.48 1089.88L190.33 1032.42" stroke="#132e65" stroke-width="1.5"></path><path d="M429.48 1089.88L424.31 823.58" stroke="#132e65" stroke-width="1.5"></path><path d="M429.48 1089.88L166.24 949.43" stroke="#132e65" stroke-width="1.5"></path><path d="M429.48 1089.88L307.19 810.26" stroke="#132e65" stroke-width="1.5"></path><circle r="5" cx="-66.81" cy="678.8" fill="#132e65"></circle><circle r="5" cx="-31.44" cy="788.36" fill="#132e65"></circle><circle r="5" cx="-93.22" cy="947.11" fill="#132e65"></circle><circle r="5" cx="-44.59" cy="1055.3" fill="#132e65"></circle><circle r="5" cx="74.84" cy="592.94" fill="#132e65"></circle><circle r="5" cx="70.84" cy="679.58" fill="#132e65"></circle><circle r="5" cx="84.28" cy="793.42" fill="#132e65"></circle><circle r="5" cx="85.36" cy="954.3" fill="#132e65"></circle><circle r="5" cx="52.64" cy="1080.45" fill="#132e65"></circle><circle r="5" cx="190.77" cy="291.15" fill="#132e65"></circle><circle r="5" cx="187.98" cy="435.36" fill="#132e65"></circle><circle r="5" cx="191.78" cy="555.24" fill="#132e65"></circle><circle r="5" cx="207.63" cy="686.79" fill="#132e65"></circle><circle r="5" cx="165.39" cy="806.25" fill="#132e65"></circle><circle r="5" cx="166.24" cy="949.43" fill="#132e65"></circle><circle r="5" cx="190.33" cy="1032.42" fill="#132e65"></circle><circle r="5" cx="314.22" cy="-80.54" fill="#132e65"></circle><circle r="5" cx="338.9" cy="79.85" fill="#132e65"></circle><circle r="5" cx="285.71" cy="159.44" fill="#132e65"></circle><circle r="5" cx="310.06" cy="313.92" fill="#132e65"></circle><circle r="5" cx="317.81" cy="422.83" fill="#132e65"></circle><circle r="5" cx="342.06" cy="539.25" fill="#132e65"></circle><circle r="5" cx="322.5" cy="713.93" fill="#132e65"></circle><circle r="5" cx="307.19" cy="810.26" fill="#132e65"></circle><circle r="5" cx="293.52" cy="942.49" fill="#132e65"></circle><circle r="5" cx="408.37" cy="-33.21" fill="#132e65"></circle><circle r="5" cx="454.28" cy="177.56" fill="#132e65"></circle><circle r="5" cx="456.65" cy="434.12" fill="#132e65"></circle><circle r="5" cx="422.58" cy="564.79" fill="#132e65"></circle><circle r="5" cx="419.06" cy="677.59" fill="#132e65"></circle><circle r="5" cx="424.31" cy="823.58" fill="#132e65"></circle><circle r="5" cx="446.49" cy="924.33" fill="#132e65"></circle><circle r="5" cx="429.48" cy="1089.88" fill="#132e65"></circle><path d="M-55.57 906.31L-55.57 906.31" stroke="hsl(228.5, 77.2%, 51.5%)" stroke-width="1.5"></path><path d="M-55.57 906.31L-91.26 837.83" stroke="hsl(228.5, 77.2%, 51.5%)" stroke-width="1.5"></path><path d="M-55.57 906.31L86.19 907.4" stroke="hsl(228.5, 77.2%, 51.5%)" stroke-width="1.5"></path><path d="M-55.57 906.31L-51.33 1053.13" stroke="hsl(228.5, 77.2%, 51.5%)" stroke-width="1.5"></path><path d="M-55.57 906.31L93.73 785.53" stroke="hsl(228.5, 77.2%, 51.5%)" stroke-width="1.5"></path><path d="M93.73 785.53L93.73 785.53" stroke="hsl(228.5, 77.2%, 51.5%)" stroke-width="1.5"></path><path d="M93.73 785.53L86.19 907.4" stroke="hsl(228.5, 77.2%, 51.5%)" stroke-width="1.5"></path><path d="M93.73 785.53L214.36 842.18" stroke="hsl(228.5, 77.2%, 51.5%)" stroke-width="1.5"></path><path d="M93.73 785.53L185.94 924.18" stroke="hsl(228.5, 77.2%, 51.5%)" stroke-width="1.5"></path><path d="M464.54 463.3L464.54 463.3" stroke="hsl(228.5, 77.2%, 51.5%)" stroke-width="1.5"></path><path d="M464.54 463.3L434.21 547.76" stroke="hsl(228.5, 77.2%, 51.5%)" stroke-width="1.5"></path><path d="M464.54 463.3L423.4 337.53" stroke="hsl(228.5, 77.2%, 51.5%)" stroke-width="1.5"></path><path d="M-91.26 837.83L-91.26 837.83" stroke="hsl(228.5, 77.2%, 51.5%)" stroke-width="1.5"></path><path d="M-91.26 837.83L86.19 907.4" stroke="hsl(228.5, 77.2%, 51.5%)" stroke-width="1.5"></path><path d="M-91.26 837.83L93.73 785.53" stroke="hsl(228.5, 77.2%, 51.5%)" stroke-width="1.5"></path><path d="M-51.33 1053.13L-51.33 1053.13" stroke="hsl(228.5, 77.2%, 51.5%)" stroke-width="1.5"></path><path d="M-51.33 1053.13L42.94 1092.3" stroke="hsl(228.5, 77.2%, 51.5%)" stroke-width="1.5"></path><path d="M86.19 907.4L86.19 907.4" stroke="hsl(228.5, 77.2%, 51.5%)" stroke-width="1.5"></path><path d="M86.19 907.4L185.94 924.18" stroke="hsl(228.5, 77.2%, 51.5%)" stroke-width="1.5"></path><path d="M42.94 1092.3L42.94 1092.3" stroke="hsl(228.5, 77.2%, 51.5%)" stroke-width="1.5"></path><path d="M42.94 1092.3L172.88 1068.06" stroke="hsl(228.5, 77.2%, 51.5%)" stroke-width="1.5"></path><path d="M42.94 1092.3L86.19 907.4" stroke="hsl(228.5, 77.2%, 51.5%)" stroke-width="1.5"></path><path d="M214.36 842.18L214.36 842.18" stroke="hsl(228.5, 77.2%, 51.5%)" stroke-width="1.5"></path><path d="M214.36 842.18L282.26 840.77" stroke="hsl(228.5, 77.2%, 51.5%)" stroke-width="1.5"></path><path d="M214.36 842.18L185.94 924.18" stroke="hsl(228.5, 77.2%, 51.5%)" stroke-width="1.5"></path><path d="M214.36 842.18L86.19 907.4" stroke="hsl(228.5, 77.2%, 51.5%)" stroke-width="1.5"></path><path d="M185.94 924.18L185.94 924.18" stroke="hsl(228.5, 77.2%, 51.5%)" stroke-width="1.5"></path><path d="M185.94 924.18L282.26 840.77" stroke="hsl(228.5, 77.2%, 51.5%)" stroke-width="1.5"></path><path d="M185.94 924.18L172.88 1068.06" stroke="hsl(228.5, 77.2%, 51.5%)" stroke-width="1.5"></path><path d="M185.94 924.18L328.62 958.21" stroke="hsl(228.5, 77.2%, 51.5%)" stroke-width="1.5"></path><path d="M172.88 1068.06L172.88 1068.06" stroke="hsl(228.5, 77.2%, 51.5%)" stroke-width="1.5"></path><path d="M299.7 -86.28L299.7 -86.28" stroke="hsl(228.5, 77.2%, 51.5%)" stroke-width="1.5"></path><path d="M299.7 -86.28L294.09 43.45" stroke="hsl(228.5, 77.2%, 51.5%)" stroke-width="1.5"></path><path d="M299.7 -86.28L457.68 -86.45" stroke="hsl(228.5, 77.2%, 51.5%)" stroke-width="1.5"></path><path d="M299.7 -86.28L420.41 48.85" stroke="hsl(228.5, 77.2%, 51.5%)" stroke-width="1.5"></path><path d="M299.7 -86.28L327.51 187.63" stroke="hsl(228.5, 77.2%, 51.5%)" stroke-width="1.5"></path><path d="M294.09 43.45L294.09 43.45" stroke="hsl(228.5, 77.2%, 51.5%)" stroke-width="1.5"></path><path d="M294.09 43.45L420.41 48.85" stroke="hsl(228.5, 77.2%, 51.5%)" stroke-width="1.5"></path><path d="M294.09 43.45L327.51 187.63" stroke="hsl(228.5, 77.2%, 51.5%)" stroke-width="1.5"></path><path d="M294.09 43.45L406.74 171.57" stroke="hsl(228.5, 77.2%, 51.5%)" stroke-width="1.5"></path><path d="M294.09 43.45L457.68 -86.45" stroke="hsl(228.5, 77.2%, 51.5%)" stroke-width="1.5"></path><path d="M294.09 43.45L335.61 321.21" stroke="hsl(228.5, 77.2%, 51.5%)" stroke-width="1.5"></path><path d="M327.51 187.63L327.51 187.63" stroke="hsl(228.5, 77.2%, 51.5%)" stroke-width="1.5"></path><path d="M327.51 187.63L406.74 171.57" stroke="hsl(228.5, 77.2%, 51.5%)" stroke-width="1.5"></path><path d="M327.51 187.63L335.61 321.21" stroke="hsl(228.5, 77.2%, 51.5%)" stroke-width="1.5"></path><path d="M327.51 187.63L420.41 48.85" stroke="hsl(228.5, 77.2%, 51.5%)" stroke-width="1.5"></path><path d="M335.61 321.21L335.61 321.21" stroke="hsl(228.5, 77.2%, 51.5%)" stroke-width="1.5"></path><path d="M335.61 321.21L423.4 337.53" stroke="hsl(228.5, 77.2%, 51.5%)" stroke-width="1.5"></path><path d="M335.61 321.21L308.92 429.33" stroke="hsl(228.5, 77.2%, 51.5%)" stroke-width="1.5"></path><path d="M335.61 321.21L406.74 171.57" stroke="hsl(228.5, 77.2%, 51.5%)" stroke-width="1.5"></path><path d="M335.61 321.21L464.54 463.3" stroke="hsl(228.5, 77.2%, 51.5%)" stroke-width="1.5"></path><path d="M308.92 429.33L308.92 429.33" stroke="hsl(228.5, 77.2%, 51.5%)" stroke-width="1.5"></path><path d="M308.92 429.33L291.51 557.27" stroke="hsl(228.5, 77.2%, 51.5%)" stroke-width="1.5"></path><path d="M308.92 429.33L423.4 337.53" stroke="hsl(228.5, 77.2%, 51.5%)" stroke-width="1.5"></path><path d="M308.92 429.33L464.54 463.3" stroke="hsl(228.5, 77.2%, 51.5%)" stroke-width="1.5"></path><path d="M291.51 557.27L291.51 557.27" stroke="hsl(228.5, 77.2%, 51.5%)" stroke-width="1.5"></path><path d="M291.51 557.27L434.21 547.76" stroke="hsl(228.5, 77.2%, 51.5%)" stroke-width="1.5"></path><path d="M291.51 557.27L295.12 704.69" stroke="hsl(228.5, 77.2%, 51.5%)" stroke-width="1.5"></path><path d="M291.51 557.27L407.15 713.52" stroke="hsl(228.5, 77.2%, 51.5%)" stroke-width="1.5"></path><path d="M291.51 557.27L464.54 463.3" stroke="hsl(228.5, 77.2%, 51.5%)" stroke-width="1.5"></path><path d="M291.51 557.27L335.61 321.21" stroke="hsl(228.5, 77.2%, 51.5%)" stroke-width="1.5"></path><path d="M295.12 704.69L295.12 704.69" stroke="hsl(228.5, 77.2%, 51.5%)" stroke-width="1.5"></path><path d="M295.12 704.69L407.15 713.52" stroke="hsl(228.5, 77.2%, 51.5%)" stroke-width="1.5"></path><path d="M295.12 704.69L282.26 840.77" stroke="hsl(228.5, 77.2%, 51.5%)" stroke-width="1.5"></path><path d="M295.12 704.69L214.36 842.18" stroke="hsl(228.5, 77.2%, 51.5%)" stroke-width="1.5"></path><path d="M295.12 704.69L434.21 547.76" stroke="hsl(228.5, 77.2%, 51.5%)" stroke-width="1.5"></path><path d="M295.12 704.69L93.73 785.53" stroke="hsl(228.5, 77.2%, 51.5%)" stroke-width="1.5"></path><path d="M282.26 840.77L282.26 840.77" stroke="hsl(228.5, 77.2%, 51.5%)" stroke-width="1.5"></path><path d="M282.26 840.77L328.62 958.21" stroke="hsl(228.5, 77.2%, 51.5%)" stroke-width="1.5"></path><path d="M282.26 840.77L407.15 713.52" stroke="hsl(228.5, 77.2%, 51.5%)" stroke-width="1.5"></path><path d="M282.26 840.77L93.73 785.53" stroke="hsl(228.5, 77.2%, 51.5%)" stroke-width="1.5"></path><path d="M328.62 958.21L328.62 958.21" stroke="hsl(228.5, 77.2%, 51.5%)" stroke-width="1.5"></path><path d="M328.62 958.21L332.87 1039.57" stroke="hsl(228.5, 77.2%, 51.5%)" stroke-width="1.5"></path><path d="M328.62 958.21L214.36 842.18" stroke="hsl(228.5, 77.2%, 51.5%)" stroke-width="1.5"></path><path d="M328.62 958.21L440.87 1091.17" stroke="hsl(228.5, 77.2%, 51.5%)" stroke-width="1.5"></path><path d="M332.87 1039.57L332.87 1039.57" stroke="hsl(228.5, 77.2%, 51.5%)" stroke-width="1.5"></path><path d="M457.68 -86.45L457.68 -86.45" stroke="hsl(228.5, 77.2%, 51.5%)" stroke-width="1.5"></path><path d="M457.68 -86.45L420.41 48.85" stroke="hsl(228.5, 77.2%, 51.5%)" stroke-width="1.5"></path><path d="M420.41 48.85L420.41 48.85" stroke="hsl(228.5, 77.2%, 51.5%)" stroke-width="1.5"></path><path d="M420.41 48.85L406.74 171.57" stroke="hsl(228.5, 77.2%, 51.5%)" stroke-width="1.5"></path><path d="M406.74 171.57L406.74 171.57" stroke="hsl(228.5, 77.2%, 51.5%)" stroke-width="1.5"></path><path d="M423.4 337.53L423.4 337.53" stroke="hsl(228.5, 77.2%, 51.5%)" stroke-width="1.5"></path><path d="M434.21 547.76L434.21 547.76" stroke="hsl(228.5, 77.2%, 51.5%)" stroke-width="1.5"></path><path d="M434.21 547.76L407.15 713.52" stroke="hsl(228.5, 77.2%, 51.5%)" stroke-width="1.5"></path><path d="M407.15 713.52L407.15 713.52" stroke="hsl(228.5, 77.2%, 51.5%)" stroke-width="1.5"></path><path d="M440.87 1091.17L440.87 1091.17" stroke="hsl(228.5, 77.2%, 51.5%)" stroke-width="1.5"></path><path d="M440.87 1091.17L332.87 1039.57" stroke="hsl(228.5, 77.2%, 51.5%)" stroke-width="1.5"></path><path d="M440.87 1091.17L172.88 1068.06" stroke="hsl(228.5, 77.2%, 51.5%)" stroke-width="1.5"></path><circle r="25" cx="-55.57" cy="906.31" fill="url(&quot;#SvgjsRadialGradient1100&quot;)"></circle><circle r="25" cx="93.73" cy="785.53" fill="url(&quot;#SvgjsRadialGradient1100&quot;)"></circle><circle r="25" cx="464.54" cy="463.3" fill="url(&quot;#SvgjsRadialGradient1100&quot;)"></circle><circle r="5" cx="-91.26" cy="837.83" fill="#8b9ad9"></circle><circle r="5" cx="-51.33" cy="1053.13" fill="#8b9ad9"></circle><circle r="5" cx="86.19" cy="907.4" fill="#8b9ad9"></circle><circle r="5" cx="42.94" cy="1092.3" fill="#8b9ad9"></circle><circle r="5" cx="214.36" cy="842.18" fill="#8b9ad9"></circle><circle r="5" cx="185.94" cy="924.18" fill="#8b9ad9"></circle><circle r="5" cx="172.88" cy="1068.06" fill="#8b9ad9"></circle><circle r="5" cx="299.7" cy="-86.28" fill="#8b9ad9"></circle><circle r="5" cx="294.09" cy="43.45" fill="#8b9ad9"></circle><circle r="5" cx="327.51" cy="187.63" fill="#8b9ad9"></circle><circle r="5" cx="335.61" cy="321.21" fill="#8b9ad9"></circle><circle r="5" cx="308.92" cy="429.33" fill="#8b9ad9"></circle><circle r="5" cx="291.51" cy="557.27" fill="#8b9ad9"></circle><circle r="5" cx="295.12" cy="704.69" fill="#8b9ad9"></circle><circle r="5" cx="282.26" cy="840.77" fill="#8b9ad9"></circle><circle r="5" cx="328.62" cy="958.21" fill="#8b9ad9"></circle><circle r="5" cx="332.87" cy="1039.57" fill="#8b9ad9"></circle><circle r="5" cx="457.68" cy="-86.45" fill="#8b9ad9"></circle><circle r="5" cx="420.41" cy="48.85" fill="#8b9ad9"></circle><circle r="5" cx="406.74" cy="171.57" fill="#8b9ad9"></circle><circle r="5" cx="423.4" cy="337.53" fill="#8b9ad9"></circle><circle r="5" cx="434.21" cy="547.76" fill="#8b9ad9"></circle><circle r="5" cx="407.15" cy="713.52" fill="#8b9ad9"></circle><circle r="5" cx="440.87" cy="1091.17" fill="#8b9ad9"></circle></g><defs><mask id="SvgjsMask1099"><rect width="300" height="1000" fill="#ffffff"></rect></mask><radialGradient id="SvgjsRadialGradient1100"><stop stop-color="#ffffff" offset="0.1"></stop><stop stop-color="#1735b3" offset="0.2"></stop><stop stop-color="rgba(23, 53, 179, 0)" offset="1"></stop></radialGradient></defs></svg>