<svg xmlns="http://www.w3.org/2000/svg" version="1.1" xmlns:xlink="http://www.w3.org/1999/xlink" xmlns:svgjs="http://svgjs.dev/svgjs" width="300" height="1000" preserveAspectRatio="none" viewBox="0 0 300 1000"><g mask="url(&quot;#SvgjsMask1103&quot;)" fill="none"><rect width="300" height="1000" x="0" y="0" fill="#0e2a47"></rect><path d="M-76.34 671.31L-76.34 671.31" stroke="#132e65" stroke-width="1.5"></path><path d="M-76.34 671.31L44.65 677.68" stroke="#132e65" stroke-width="1.5"></path><path d="M-76.34 671.31L-92.78 818.28" stroke="#132e65" stroke-width="1.5"></path><path d="M-92.78 818.28L-92.78 818.28" stroke="#132e65" stroke-width="1.5"></path><path d="M-92.78 818.28L-84.58 921.21" stroke="#132e65" stroke-width="1.5"></path><path d="M-92.78 818.28L72.91 838.18" stroke="#132e65" stroke-width="1.5"></path><path d="M-92.78 818.28L44.65 677.68" stroke="#132e65" stroke-width="1.5"></path><path d="M-92.78 818.28L-89.41 1043.19" stroke="#132e65" stroke-width="1.5"></path><path d="M-84.58 921.21L-84.58 921.21" stroke="#132e65" stroke-width="1.5"></path><path d="M-84.58 921.21L-89.41 1043.19" stroke="#132e65" stroke-width="1.5"></path><path d="M-89.41 1043.19L-89.41 1043.19" stroke="#132e65" stroke-width="1.5"></path><path d="M-89.41 1043.19L54.83 1073.22" stroke="#132e65" stroke-width="1.5"></path><path d="M-89.41 1043.19L92.58 947.82" stroke="#132e65" stroke-width="1.5"></path><path d="M-89.41 1043.19L170.12 1061.36" stroke="#132e65" stroke-width="1.5"></path><path d="M44.65 677.68L44.65 677.68" stroke="#132e65" stroke-width="1.5"></path><path d="M72.91 838.18L72.91 838.18" stroke="#132e65" stroke-width="1.5"></path><path d="M72.91 838.18L166.4 822.88" stroke="#132e65" stroke-width="1.5"></path><path d="M72.91 838.18L92.58 947.82" stroke="#132e65" stroke-width="1.5"></path><path d="M72.91 838.18L158.54 941.86" stroke="#132e65" stroke-width="1.5"></path><path d="M72.91 838.18L44.65 677.68" stroke="#132e65" stroke-width="1.5"></path><path d="M72.91 838.18L-84.58 921.21" stroke="#132e65" stroke-width="1.5"></path><path d="M92.58 947.82L92.58 947.82" stroke="#132e65" stroke-width="1.5"></path><path d="M92.58 947.82L158.54 941.86" stroke="#132e65" stroke-width="1.5"></path><path d="M54.83 1073.22L54.83 1073.22" stroke="#132e65" stroke-width="1.5"></path><path d="M54.83 1073.22L170.12 1061.36" stroke="#132e65" stroke-width="1.5"></path><path d="M54.83 1073.22L92.58 947.82" stroke="#132e65" stroke-width="1.5"></path><path d="M54.83 1073.22L158.54 941.86" stroke="#132e65" stroke-width="1.5"></path><path d="M54.83 1073.22L-84.58 921.21" stroke="#132e65" stroke-width="1.5"></path><path d="M54.83 1073.22L72.91 838.18" stroke="#132e65" stroke-width="1.5"></path><path d="M178.85 455.96L178.85 455.96" stroke="#132e65" stroke-width="1.5"></path><path d="M178.85 455.96L177.24 539" stroke="#132e65" stroke-width="1.5"></path><path d="M178.85 455.96L290.65 547.24" stroke="#132e65" stroke-width="1.5"></path><path d="M178.85 455.96L299.16 326.58" stroke="#132e65" stroke-width="1.5"></path><path d="M178.85 455.96L44.65 677.68" stroke="#132e65" stroke-width="1.5"></path><path d="M178.85 455.96L285.19 218.71" stroke="#132e65" stroke-width="1.5"></path><path d="M177.24 539L177.24 539" stroke="#132e65" stroke-width="1.5"></path><path d="M177.24 539L290.65 547.24" stroke="#132e65" stroke-width="1.5"></path><path d="M177.24 539L44.65 677.68" stroke="#132e65" stroke-width="1.5"></path><path d="M177.24 539L299.16 326.58" stroke="#132e65" stroke-width="1.5"></path><path d="M177.24 539L166.4 822.88" stroke="#132e65" stroke-width="1.5"></path><path d="M177.24 539L-76.34 671.31" stroke="#132e65" stroke-width="1.5"></path><path d="M166.4 822.88L166.4 822.88" stroke="#132e65" stroke-width="1.5"></path><path d="M166.4 822.88L158.54 941.86" stroke="#132e65" stroke-width="1.5"></path><path d="M166.4 822.88L290.5 827.41" stroke="#132e65" stroke-width="1.5"></path><path d="M158.54 941.86L158.54 941.86" stroke="#132e65" stroke-width="1.5"></path><path d="M158.54 941.86L170.12 1061.36" stroke="#132e65" stroke-width="1.5"></path><path d="M170.12 1061.36L170.12 1061.36" stroke="#132e65" stroke-width="1.5"></path><path d="M170.12 1061.36L301.27 1066.07" stroke="#132e65" stroke-width="1.5"></path><path d="M170.12 1061.36L92.58 947.82" stroke="#132e65" stroke-width="1.5"></path><path d="M336.35 -55.83L336.35 -55.83" stroke="#132e65" stroke-width="1.5"></path><path d="M336.35 -55.83L442.64 -38.04" stroke="#132e65" stroke-width="1.5"></path><path d="M336.35 -55.83L303.62 83.84" stroke="#132e65" stroke-width="1.5"></path><path d="M336.35 -55.83L424.23 81.99" stroke="#132e65" stroke-width="1.5"></path><path d="M336.35 -55.83L285.19 218.71" stroke="#132e65" stroke-width="1.5"></path><path d="M336.35 -55.83L464.76 216.06" stroke="#132e65" stroke-width="1.5"></path><path d="M303.62 83.84L303.62 83.84" stroke="#132e65" stroke-width="1.5"></path><path d="M303.62 83.84L424.23 81.99" stroke="#132e65" stroke-width="1.5"></path><path d="M303.62 83.84L285.19 218.71" stroke="#132e65" stroke-width="1.5"></path><path d="M303.62 83.84L442.64 -38.04" stroke="#132e65" stroke-width="1.5"></path><path d="M285.19 218.71L285.19 218.71" stroke="#132e65" stroke-width="1.5"></path><path d="M285.19 218.71L299.16 326.58" stroke="#132e65" stroke-width="1.5"></path><path d="M285.19 218.71L464.76 216.06" stroke="#132e65" stroke-width="1.5"></path><path d="M299.16 326.58L299.16 326.58" stroke="#132e65" stroke-width="1.5"></path><path d="M290.65 547.24L290.65 547.24" stroke="#132e65" stroke-width="1.5"></path><path d="M290.5 827.41L290.5 827.41" stroke="#132e65" stroke-width="1.5"></path><path d="M290.5 827.41L329.01 951.79" stroke="#132e65" stroke-width="1.5"></path><path d="M290.5 827.41L433.25 920.2" stroke="#132e65" stroke-width="1.5"></path><path d="M329.01 951.79L329.01 951.79" stroke="#132e65" stroke-width="1.5"></path><path d="M329.01 951.79L433.25 920.2" stroke="#132e65" stroke-width="1.5"></path><path d="M329.01 951.79L301.27 1066.07" stroke="#132e65" stroke-width="1.5"></path><path d="M329.01 951.79L158.54 941.86" stroke="#132e65" stroke-width="1.5"></path><path d="M301.27 1066.07L301.27 1066.07" stroke="#132e65" stroke-width="1.5"></path><path d="M301.27 1066.07L158.54 941.86" stroke="#132e65" stroke-width="1.5"></path><path d="M301.27 1066.07L433.25 920.2" stroke="#132e65" stroke-width="1.5"></path><path d="M301.27 1066.07L290.5 827.41" stroke="#132e65" stroke-width="1.5"></path><path d="M301.27 1066.07L92.58 947.82" stroke="#132e65" stroke-width="1.5"></path><path d="M442.64 -38.04L442.64 -38.04" stroke="#132e65" stroke-width="1.5"></path><path d="M442.64 -38.04L424.23 81.99" stroke="#132e65" stroke-width="1.5"></path><path d="M424.23 81.99L424.23 81.99" stroke="#132e65" stroke-width="1.5"></path><path d="M424.23 81.99L464.76 216.06" stroke="#132e65" stroke-width="1.5"></path><path d="M424.23 81.99L285.19 218.71" stroke="#132e65" stroke-width="1.5"></path><path d="M464.76 216.06L464.76 216.06" stroke="#132e65" stroke-width="1.5"></path><path d="M464.76 216.06L455.81 411.83" stroke="#132e65" stroke-width="1.5"></path><path d="M464.76 216.06L299.16 326.58" stroke="#132e65" stroke-width="1.5"></path><path d="M455.81 411.83L455.81 411.83" stroke="#132e65" stroke-width="1.5"></path><path d="M455.81 411.83L462.65 563.96" stroke="#132e65" stroke-width="1.5"></path><path d="M455.81 411.83L299.16 326.58" stroke="#132e65" stroke-width="1.5"></path><path d="M455.81 411.83L290.65 547.24" stroke="#132e65" stroke-width="1.5"></path><path d="M455.81 411.83L285.19 218.71" stroke="#132e65" stroke-width="1.5"></path><path d="M455.81 411.83L178.85 455.96" stroke="#132e65" stroke-width="1.5"></path><path d="M462.65 563.96L462.65 563.96" stroke="#132e65" stroke-width="1.5"></path><path d="M462.65 563.96L430.32 699.51" stroke="#132e65" stroke-width="1.5"></path><path d="M430.32 699.51L430.32 699.51" stroke="#132e65" stroke-width="1.5"></path><path d="M430.32 699.51L468.37 822.49" stroke="#132e65" stroke-width="1.5"></path><path d="M468.37 822.49L468.37 822.49" stroke="#132e65" stroke-width="1.5"></path><path d="M468.37 822.49L433.25 920.2" stroke="#132e65" stroke-width="1.5"></path><path d="M468.37 822.49L290.5 827.41" stroke="#132e65" stroke-width="1.5"></path><path d="M433.25 920.2L433.25 920.2" stroke="#132e65" stroke-width="1.5"></path><circle r="5" cx="-76.34" cy="671.31" fill="#132e65"></circle><circle r="5" cx="-92.78" cy="818.28" fill="#132e65"></circle><circle r="5" cx="-84.58" cy="921.21" fill="#132e65"></circle><circle r="5" cx="-89.41" cy="1043.19" fill="#132e65"></circle><circle r="5" cx="44.65" cy="677.68" fill="#132e65"></circle><circle r="5" cx="72.91" cy="838.18" fill="#132e65"></circle><circle r="5" cx="92.58" cy="947.82" fill="#132e65"></circle><circle r="5" cx="54.83" cy="1073.22" fill="#132e65"></circle><circle r="5" cx="178.85" cy="455.96" fill="#132e65"></circle><circle r="5" cx="177.24" cy="539" fill="#132e65"></circle><circle r="5" cx="166.4" cy="822.88" fill="#132e65"></circle><circle r="5" cx="158.54" cy="941.86" fill="#132e65"></circle><circle r="5" cx="170.12" cy="1061.36" fill="#132e65"></circle><circle r="5" cx="336.35" cy="-55.83" fill="#132e65"></circle><circle r="5" cx="303.62" cy="83.84" fill="#132e65"></circle><circle r="5" cx="285.19" cy="218.71" fill="#132e65"></circle><circle r="5" cx="299.16" cy="326.58" fill="#132e65"></circle><circle r="5" cx="290.65" cy="547.24" fill="#132e65"></circle><circle r="5" cx="290.5" cy="827.41" fill="#132e65"></circle><circle r="5" cx="329.01" cy="951.79" fill="#132e65"></circle><circle r="5" cx="301.27" cy="1066.07" fill="#132e65"></circle><circle r="5" cx="442.64" cy="-38.04" fill="#132e65"></circle><circle r="5" cx="424.23" cy="81.99" fill="#132e65"></circle><circle r="5" cx="464.76" cy="216.06" fill="#132e65"></circle><circle r="5" cx="455.81" cy="411.83" fill="#132e65"></circle><circle r="5" cx="462.65" cy="563.96" fill="#132e65"></circle><circle r="5" cx="430.32" cy="699.51" fill="#132e65"></circle><circle r="5" cx="468.37" cy="822.49" fill="#132e65"></circle><circle r="5" cx="433.25" cy="920.2" fill="#132e65"></circle><path d="M47.43 927.28L47.43 927.28" stroke="hsl(228.5, 77.2%, 51.5%)" stroke-width="1.5"></path><path d="M47.43 927.28L35.94 828.22" stroke="hsl(228.5, 77.2%, 51.5%)" stroke-width="1.5"></path><path d="M47.43 927.28L-56.82 923.19" stroke="hsl(228.5, 77.2%, 51.5%)" stroke-width="1.5"></path><path d="M78.86 1067.43L78.86 1067.43" stroke="hsl(228.5, 77.2%, 51.5%)" stroke-width="1.5"></path><path d="M78.86 1067.43L186.05 1072.47" stroke="hsl(228.5, 77.2%, 51.5%)" stroke-width="1.5"></path><path d="M78.86 1067.43L-32.58 1035.3" stroke="hsl(228.5, 77.2%, 51.5%)" stroke-width="1.5"></path><path d="M78.86 1067.43L47.43 927.28" stroke="hsl(228.5, 77.2%, 51.5%)" stroke-width="1.5"></path><path d="M78.86 1067.43L191.22 939.32" stroke="hsl(228.5, 77.2%, 51.5%)" stroke-width="1.5"></path><path d="M78.86 1067.43L-56.82 923.19" stroke="hsl(228.5, 77.2%, 51.5%)" stroke-width="1.5"></path><path d="M204.72 696.96L204.72 696.96" stroke="hsl(228.5, 77.2%, 51.5%)" stroke-width="1.5"></path><path d="M204.72 696.96L215.55 581.23" stroke="hsl(228.5, 77.2%, 51.5%)" stroke-width="1.5"></path><path d="M315.65 930.75L315.65 930.75" stroke="hsl(228.5, 77.2%, 51.5%)" stroke-width="1.5"></path><path d="M315.65 930.75L429.14 936.51" stroke="hsl(228.5, 77.2%, 51.5%)" stroke-width="1.5"></path><path d="M315.65 930.75L191.22 939.32" stroke="hsl(228.5, 77.2%, 51.5%)" stroke-width="1.5"></path><path d="M315.65 930.75L325.15 796.66" stroke="hsl(228.5, 77.2%, 51.5%)" stroke-width="1.5"></path><path d="M315.65 930.75L318.21 1090.77" stroke="hsl(228.5, 77.2%, 51.5%)" stroke-width="1.5"></path><path d="M315.65 930.75L185.04 820.37" stroke="hsl(228.5, 77.2%, 51.5%)" stroke-width="1.5"></path><path d="M462.65 1089.64L462.65 1089.64" stroke="hsl(228.5, 77.2%, 51.5%)" stroke-width="1.5"></path><path d="M462.65 1089.64L318.21 1090.77" stroke="hsl(228.5, 77.2%, 51.5%)" stroke-width="1.5"></path><path d="M462.65 1089.64L429.14 936.51" stroke="hsl(228.5, 77.2%, 51.5%)" stroke-width="1.5"></path><path d="M462.65 1089.64L315.65 930.75" stroke="hsl(228.5, 77.2%, 51.5%)" stroke-width="1.5"></path><path d="M462.65 1089.64L186.05 1072.47" stroke="hsl(228.5, 77.2%, 51.5%)" stroke-width="1.5"></path><path d="M462.65 1089.64L428.24 795.87" stroke="hsl(228.5, 77.2%, 51.5%)" stroke-width="1.5"></path><path d="M-54.61 818.13L-54.61 818.13" stroke="hsl(228.5, 77.2%, 51.5%)" stroke-width="1.5"></path><path d="M-54.61 818.13L35.94 828.22" stroke="hsl(228.5, 77.2%, 51.5%)" stroke-width="1.5"></path><path d="M-56.82 923.19L-56.82 923.19" stroke="hsl(228.5, 77.2%, 51.5%)" stroke-width="1.5"></path><path d="M-56.82 923.19L-54.61 818.13" stroke="hsl(228.5, 77.2%, 51.5%)" stroke-width="1.5"></path><path d="M-56.82 923.19L-32.58 1035.3" stroke="hsl(228.5, 77.2%, 51.5%)" stroke-width="1.5"></path><path d="M-56.82 923.19L35.94 828.22" stroke="hsl(228.5, 77.2%, 51.5%)" stroke-width="1.5"></path><path d="M-32.58 1035.3L-32.58 1035.3" stroke="hsl(228.5, 77.2%, 51.5%)" stroke-width="1.5"></path><path d="M-32.58 1035.3L47.43 927.28" stroke="hsl(228.5, 77.2%, 51.5%)" stroke-width="1.5"></path><path d="M35.94 828.22L35.94 828.22" stroke="hsl(228.5, 77.2%, 51.5%)" stroke-width="1.5"></path><path d="M35.94 828.22L185.04 820.37" stroke="hsl(228.5, 77.2%, 51.5%)" stroke-width="1.5"></path><path d="M35.94 828.22L191.22 939.32" stroke="hsl(228.5, 77.2%, 51.5%)" stroke-width="1.5"></path><path d="M210.67 461.57L210.67 461.57" stroke="hsl(228.5, 77.2%, 51.5%)" stroke-width="1.5"></path><path d="M210.67 461.57L291.53 452.59" stroke="hsl(228.5, 77.2%, 51.5%)" stroke-width="1.5"></path><path d="M210.67 461.57L215.55 581.23" stroke="hsl(228.5, 77.2%, 51.5%)" stroke-width="1.5"></path><path d="M210.67 461.57L307.4 549.24" stroke="hsl(228.5, 77.2%, 51.5%)" stroke-width="1.5"></path><path d="M210.67 461.57L300.26 333.38" stroke="hsl(228.5, 77.2%, 51.5%)" stroke-width="1.5"></path><path d="M215.55 581.23L215.55 581.23" stroke="hsl(228.5, 77.2%, 51.5%)" stroke-width="1.5"></path><path d="M215.55 581.23L307.4 549.24" stroke="hsl(228.5, 77.2%, 51.5%)" stroke-width="1.5"></path><path d="M185.04 820.37L185.04 820.37" stroke="hsl(228.5, 77.2%, 51.5%)" stroke-width="1.5"></path><path d="M185.04 820.37L191.22 939.32" stroke="hsl(228.5, 77.2%, 51.5%)" stroke-width="1.5"></path><path d="M185.04 820.37L204.72 696.96" stroke="hsl(228.5, 77.2%, 51.5%)" stroke-width="1.5"></path><path d="M185.04 820.37L325.15 796.66" stroke="hsl(228.5, 77.2%, 51.5%)" stroke-width="1.5"></path><path d="M191.22 939.32L191.22 939.32" stroke="hsl(228.5, 77.2%, 51.5%)" stroke-width="1.5"></path><path d="M191.22 939.32L186.05 1072.47" stroke="hsl(228.5, 77.2%, 51.5%)" stroke-width="1.5"></path><path d="M191.22 939.32L47.43 927.28" stroke="hsl(228.5, 77.2%, 51.5%)" stroke-width="1.5"></path><path d="M186.05 1072.47L186.05 1072.47" stroke="hsl(228.5, 77.2%, 51.5%)" stroke-width="1.5"></path><path d="M186.05 1072.47L318.21 1090.77" stroke="hsl(228.5, 77.2%, 51.5%)" stroke-width="1.5"></path><path d="M186.05 1072.47L315.65 930.75" stroke="hsl(228.5, 77.2%, 51.5%)" stroke-width="1.5"></path><path d="M312.8 -44.07L312.8 -44.07" stroke="hsl(228.5, 77.2%, 51.5%)" stroke-width="1.5"></path><path d="M312.8 -44.07L338.87 77.65" stroke="hsl(228.5, 77.2%, 51.5%)" stroke-width="1.5"></path><path d="M312.8 -44.07L449.16 87.31" stroke="hsl(228.5, 77.2%, 51.5%)" stroke-width="1.5"></path><path d="M312.8 -44.07L292.14 195.85" stroke="hsl(228.5, 77.2%, 51.5%)" stroke-width="1.5"></path><path d="M312.8 -44.07L449.97 298.59" stroke="hsl(228.5, 77.2%, 51.5%)" stroke-width="1.5"></path><path d="M338.87 77.65L338.87 77.65" stroke="hsl(228.5, 77.2%, 51.5%)" stroke-width="1.5"></path><path d="M338.87 77.65L449.16 87.31" stroke="hsl(228.5, 77.2%, 51.5%)" stroke-width="1.5"></path><path d="M338.87 77.65L292.14 195.85" stroke="hsl(228.5, 77.2%, 51.5%)" stroke-width="1.5"></path><path d="M292.14 195.85L292.14 195.85" stroke="hsl(228.5, 77.2%, 51.5%)" stroke-width="1.5"></path><path d="M292.14 195.85L300.26 333.38" stroke="hsl(228.5, 77.2%, 51.5%)" stroke-width="1.5"></path><path d="M292.14 195.85L449.97 298.59" stroke="hsl(228.5, 77.2%, 51.5%)" stroke-width="1.5"></path><path d="M292.14 195.85L449.16 87.31" stroke="hsl(228.5, 77.2%, 51.5%)" stroke-width="1.5"></path><path d="M300.26 333.38L300.26 333.38" stroke="hsl(228.5, 77.2%, 51.5%)" stroke-width="1.5"></path><path d="M300.26 333.38L291.53 452.59" stroke="hsl(228.5, 77.2%, 51.5%)" stroke-width="1.5"></path><path d="M300.26 333.38L449.97 298.59" stroke="hsl(228.5, 77.2%, 51.5%)" stroke-width="1.5"></path><path d="M300.26 333.38L430.3 467.11" stroke="hsl(228.5, 77.2%, 51.5%)" stroke-width="1.5"></path><path d="M300.26 333.38L307.4 549.24" stroke="hsl(228.5, 77.2%, 51.5%)" stroke-width="1.5"></path><path d="M291.53 452.59L291.53 452.59" stroke="hsl(228.5, 77.2%, 51.5%)" stroke-width="1.5"></path><path d="M291.53 452.59L307.4 549.24" stroke="hsl(228.5, 77.2%, 51.5%)" stroke-width="1.5"></path><path d="M307.4 549.24L307.4 549.24" stroke="hsl(228.5, 77.2%, 51.5%)" stroke-width="1.5"></path><path d="M307.4 549.24L430.3 467.11" stroke="hsl(228.5, 77.2%, 51.5%)" stroke-width="1.5"></path><path d="M307.4 549.24L464.12 548.61" stroke="hsl(228.5, 77.2%, 51.5%)" stroke-width="1.5"></path><path d="M334.51 707.67L334.51 707.67" stroke="hsl(228.5, 77.2%, 51.5%)" stroke-width="1.5"></path><path d="M334.51 707.67L325.15 796.66" stroke="hsl(228.5, 77.2%, 51.5%)" stroke-width="1.5"></path><path d="M334.51 707.67L428.24 795.87" stroke="hsl(228.5, 77.2%, 51.5%)" stroke-width="1.5"></path><path d="M334.51 707.67L204.72 696.96" stroke="hsl(228.5, 77.2%, 51.5%)" stroke-width="1.5"></path><path d="M334.51 707.67L307.4 549.24" stroke="hsl(228.5, 77.2%, 51.5%)" stroke-width="1.5"></path><path d="M334.51 707.67L215.55 581.23" stroke="hsl(228.5, 77.2%, 51.5%)" stroke-width="1.5"></path><path d="M325.15 796.66L325.15 796.66" stroke="hsl(228.5, 77.2%, 51.5%)" stroke-width="1.5"></path><path d="M325.15 796.66L428.24 795.87" stroke="hsl(228.5, 77.2%, 51.5%)" stroke-width="1.5"></path><path d="M318.21 1090.77L318.21 1090.77" stroke="hsl(228.5, 77.2%, 51.5%)" stroke-width="1.5"></path><path d="M318.21 1090.77L429.14 936.51" stroke="hsl(228.5, 77.2%, 51.5%)" stroke-width="1.5"></path><path d="M318.21 1090.77L191.22 939.32" stroke="hsl(228.5, 77.2%, 51.5%)" stroke-width="1.5"></path><path d="M449.16 87.31L449.16 87.31" stroke="hsl(228.5, 77.2%, 51.5%)" stroke-width="1.5"></path><path d="M449.16 87.31L449.97 298.59" stroke="hsl(228.5, 77.2%, 51.5%)" stroke-width="1.5"></path><path d="M449.16 87.31L300.26 333.38" stroke="hsl(228.5, 77.2%, 51.5%)" stroke-width="1.5"></path><path d="M449.97 298.59L449.97 298.59" stroke="hsl(228.5, 77.2%, 51.5%)" stroke-width="1.5"></path><path d="M449.97 298.59L430.3 467.11" stroke="hsl(228.5, 77.2%, 51.5%)" stroke-width="1.5"></path><path d="M449.97 298.59L291.53 452.59" stroke="hsl(228.5, 77.2%, 51.5%)" stroke-width="1.5"></path><path d="M449.97 298.59L338.87 77.65" stroke="hsl(228.5, 77.2%, 51.5%)" stroke-width="1.5"></path><path d="M430.3 467.11L430.3 467.11" stroke="hsl(228.5, 77.2%, 51.5%)" stroke-width="1.5"></path><path d="M430.3 467.11L464.12 548.61" stroke="hsl(228.5, 77.2%, 51.5%)" stroke-width="1.5"></path><path d="M430.3 467.11L291.53 452.59" stroke="hsl(228.5, 77.2%, 51.5%)" stroke-width="1.5"></path><path d="M464.12 548.61L464.12 548.61" stroke="hsl(228.5, 77.2%, 51.5%)" stroke-width="1.5"></path><path d="M464.12 548.61L291.53 452.59" stroke="hsl(228.5, 77.2%, 51.5%)" stroke-width="1.5"></path><path d="M464.12 548.61L334.51 707.67" stroke="hsl(228.5, 77.2%, 51.5%)" stroke-width="1.5"></path><path d="M464.12 548.61L428.24 795.87" stroke="hsl(228.5, 77.2%, 51.5%)" stroke-width="1.5"></path><path d="M464.12 548.61L449.97 298.59" stroke="hsl(228.5, 77.2%, 51.5%)" stroke-width="1.5"></path><path d="M428.24 795.87L428.24 795.87" stroke="hsl(228.5, 77.2%, 51.5%)" stroke-width="1.5"></path><path d="M428.24 795.87L429.14 936.51" stroke="hsl(228.5, 77.2%, 51.5%)" stroke-width="1.5"></path><path d="M429.14 936.51L429.14 936.51" stroke="hsl(228.5, 77.2%, 51.5%)" stroke-width="1.5"></path><path d="M429.14 936.51L325.15 796.66" stroke="hsl(228.5, 77.2%, 51.5%)" stroke-width="1.5"></path><path d="M429.14 936.51L191.22 939.32" stroke="hsl(228.5, 77.2%, 51.5%)" stroke-width="1.5"></path><circle r="25" cx="47.43" cy="927.28" fill="url(&quot;#SvgjsRadialGradient1104&quot;)"></circle><circle r="25" cx="78.86" cy="1067.43" fill="url(&quot;#SvgjsRadialGradient1104&quot;)"></circle><circle r="25" cx="204.72" cy="696.96" fill="url(&quot;#SvgjsRadialGradient1104&quot;)"></circle><circle r="25" cx="315.65" cy="930.75" fill="url(&quot;#SvgjsRadialGradient1104&quot;)"></circle><circle r="25" cx="462.65" cy="1089.64" fill="url(&quot;#SvgjsRadialGradient1104&quot;)"></circle><circle r="5" cx="-54.61" cy="818.13" fill="#8b9ad9"></circle><circle r="5" cx="-56.82" cy="923.19" fill="#8b9ad9"></circle><circle r="5" cx="-32.58" cy="1035.3" fill="#8b9ad9"></circle><circle r="5" cx="35.94" cy="828.22" fill="#8b9ad9"></circle><circle r="5" cx="210.67" cy="461.57" fill="#8b9ad9"></circle><circle r="5" cx="215.55" cy="581.23" fill="#8b9ad9"></circle><circle r="5" cx="185.04" cy="820.37" fill="#8b9ad9"></circle><circle r="5" cx="191.22" cy="939.32" fill="#8b9ad9"></circle><circle r="5" cx="186.05" cy="1072.47" fill="#8b9ad9"></circle><circle r="5" cx="312.8" cy="-44.07" fill="#8b9ad9"></circle><circle r="5" cx="338.87" cy="77.65" fill="#8b9ad9"></circle><circle r="5" cx="292.14" cy="195.85" fill="#8b9ad9"></circle><circle r="5" cx="300.26" cy="333.38" fill="#8b9ad9"></circle><circle r="5" cx="291.53" cy="452.59" fill="#8b9ad9"></circle><circle r="5" cx="307.4" cy="549.24" fill="#8b9ad9"></circle><circle r="5" cx="334.51" cy="707.67" fill="#8b9ad9"></circle><circle r="5" cx="325.15" cy="796.66" fill="#8b9ad9"></circle><circle r="5" cx="318.21" cy="1090.77" fill="#8b9ad9"></circle><circle r="5" cx="449.16" cy="87.31" fill="#8b9ad9"></circle><circle r="5" cx="449.97" cy="298.59" fill="#8b9ad9"></circle><circle r="5" cx="430.3" cy="467.11" fill="#8b9ad9"></circle><circle r="5" cx="464.12" cy="548.61" fill="#8b9ad9"></circle><circle r="5" cx="428.24" cy="795.87" fill="#8b9ad9"></circle><circle r="5" cx="429.14" cy="936.51" fill="#8b9ad9"></circle></g><defs><mask id="SvgjsMask1103"><rect width="300" height="1000" fill="#ffffff"></rect></mask><radialGradient id="SvgjsRadialGradient1104"><stop stop-color="#ffffff" offset="0.1"></stop><stop stop-color="#1735b3" offset="0.2"></stop><stop stop-color="rgba(23, 53, 179, 0)" offset="1"></stop></radialGradient></defs></svg>