<svg xmlns="http://www.w3.org/2000/svg" version="1.1" xmlns:xlink="http://www.w3.org/1999/xlink" xmlns:svgjs="http://svgjs.dev/svgjs" width="300" height="1000" preserveAspectRatio="none" viewBox="0 0 300 1000"><g mask="url(&quot;#SvgjsMask1101&quot;)" fill="none"><rect width="300" height="1000" x="0" y="0" fill="#0e2a47"></rect><path d="M-67.8 662.99L-67.8 662.99" stroke="#132e65" stroke-width="1.5"></path><path d="M-67.8 662.99L60.66 571.15" stroke="#132e65" stroke-width="1.5"></path><path d="M-67.8 662.99L87.05 791.91" stroke="#132e65" stroke-width="1.5"></path><path d="M-67.8 662.99L-79.29 926.68" stroke="#132e65" stroke-width="1.5"></path><path d="M-67.8 662.99L192.78 544.53" stroke="#132e65" stroke-width="1.5"></path><path d="M-67.8 662.99L43.25 928.6" stroke="#132e65" stroke-width="1.5"></path><path d="M-79.29 926.68L-79.29 926.68" stroke="#132e65" stroke-width="1.5"></path><path d="M-79.29 926.68L43.25 928.6" stroke="#132e65" stroke-width="1.5"></path><path d="M-75.85 1067.98L-75.85 1067.98" stroke="#132e65" stroke-width="1.5"></path><path d="M-75.85 1067.98L-79.29 926.68" stroke="#132e65" stroke-width="1.5"></path><path d="M-75.85 1067.98L89.18 1077.27" stroke="#132e65" stroke-width="1.5"></path><path d="M-75.85 1067.98L43.25 928.6" stroke="#132e65" stroke-width="1.5"></path><path d="M-75.85 1067.98L172.73 1035.49" stroke="#132e65" stroke-width="1.5"></path><path d="M-75.85 1067.98L87.05 791.91" stroke="#132e65" stroke-width="1.5"></path><path d="M60.66 571.15L60.66 571.15" stroke="#132e65" stroke-width="1.5"></path><path d="M60.66 571.15L192.78 544.53" stroke="#132e65" stroke-width="1.5"></path><path d="M60.66 571.15L208.35 464.51" stroke="#132e65" stroke-width="1.5"></path><path d="M60.66 571.15L87.05 791.91" stroke="#132e65" stroke-width="1.5"></path><path d="M60.66 571.15L302.56 584.85" stroke="#132e65" stroke-width="1.5"></path><path d="M60.66 571.15L165.86 330.21" stroke="#132e65" stroke-width="1.5"></path><path d="M87.05 791.91L87.05 791.91" stroke="#132e65" stroke-width="1.5"></path><path d="M87.05 791.91L192.05 832.13" stroke="#132e65" stroke-width="1.5"></path><path d="M87.05 791.91L43.25 928.6" stroke="#132e65" stroke-width="1.5"></path><path d="M87.05 791.91L-79.29 926.68" stroke="#132e65" stroke-width="1.5"></path><path d="M43.25 928.6L43.25 928.6" stroke="#132e65" stroke-width="1.5"></path><path d="M89.18 1077.27L89.18 1077.27" stroke="#132e65" stroke-width="1.5"></path><path d="M89.18 1077.27L172.73 1035.49" stroke="#132e65" stroke-width="1.5"></path><path d="M89.18 1077.27L43.25 928.6" stroke="#132e65" stroke-width="1.5"></path><path d="M89.18 1077.27L311.56 1042.45" stroke="#132e65" stroke-width="1.5"></path><path d="M89.18 1077.27L-79.29 926.68" stroke="#132e65" stroke-width="1.5"></path><path d="M190.4 -61.18L190.4 -61.18" stroke="#132e65" stroke-width="1.5"></path><path d="M190.4 -61.18L316.06 -56.91" stroke="#132e65" stroke-width="1.5"></path><path d="M190.4 -61.18L332.72 40.77" stroke="#132e65" stroke-width="1.5"></path><path d="M190.4 -61.18L459.81 -51.49" stroke="#132e65" stroke-width="1.5"></path><path d="M165.86 330.21L165.86 330.21" stroke="#132e65" stroke-width="1.5"></path><path d="M165.86 330.21L290.43 315.56" stroke="#132e65" stroke-width="1.5"></path><path d="M165.86 330.21L208.35 464.51" stroke="#132e65" stroke-width="1.5"></path><path d="M165.86 330.21L299.39 423.28" stroke="#132e65" stroke-width="1.5"></path><path d="M165.86 330.21L338.02 215.01" stroke="#132e65" stroke-width="1.5"></path><path d="M165.86 330.21L192.78 544.53" stroke="#132e65" stroke-width="1.5"></path><path d="M208.35 464.51L208.35 464.51" stroke="#132e65" stroke-width="1.5"></path><path d="M208.35 464.51L192.78 544.53" stroke="#132e65" stroke-width="1.5"></path><path d="M208.35 464.51L299.39 423.28" stroke="#132e65" stroke-width="1.5"></path><path d="M192.78 544.53L192.78 544.53" stroke="#132e65" stroke-width="1.5"></path><path d="M192.78 544.53L302.56 584.85" stroke="#132e65" stroke-width="1.5"></path><path d="M192.78 544.53L299.39 423.28" stroke="#132e65" stroke-width="1.5"></path><path d="M192.78 544.53L295.6 709.16" stroke="#132e65" stroke-width="1.5"></path><path d="M192.05 832.13L192.05 832.13" stroke="#132e65" stroke-width="1.5"></path><path d="M192.05 832.13L302.73 919.2" stroke="#132e65" stroke-width="1.5"></path><path d="M172.73 1035.49L172.73 1035.49" stroke="#132e65" stroke-width="1.5"></path><path d="M172.73 1035.49L311.56 1042.45" stroke="#132e65" stroke-width="1.5"></path><path d="M172.73 1035.49L43.25 928.6" stroke="#132e65" stroke-width="1.5"></path><path d="M172.73 1035.49L302.73 919.2" stroke="#132e65" stroke-width="1.5"></path><path d="M172.73 1035.49L192.05 832.13" stroke="#132e65" stroke-width="1.5"></path><path d="M316.06 -56.91L316.06 -56.91" stroke="#132e65" stroke-width="1.5"></path><path d="M316.06 -56.91L332.72 40.77" stroke="#132e65" stroke-width="1.5"></path><path d="M332.72 40.77L332.72 40.77" stroke="#132e65" stroke-width="1.5"></path><path d="M332.72 40.77L440.64 54.88" stroke="#132e65" stroke-width="1.5"></path><path d="M332.72 40.77L459.81 -51.49" stroke="#132e65" stroke-width="1.5"></path><path d="M338.02 215.01L338.02 215.01" stroke="#132e65" stroke-width="1.5"></path><path d="M338.02 215.01L290.43 315.56" stroke="#132e65" stroke-width="1.5"></path><path d="M338.02 215.01L441.82 163.28" stroke="#132e65" stroke-width="1.5"></path><path d="M290.43 315.56L290.43 315.56" stroke="#132e65" stroke-width="1.5"></path><path d="M290.43 315.56L299.39 423.28" stroke="#132e65" stroke-width="1.5"></path><path d="M290.43 315.56L408.75 432.46" stroke="#132e65" stroke-width="1.5"></path><path d="M290.43 315.56L208.35 464.51" stroke="#132e65" stroke-width="1.5"></path><path d="M290.43 315.56L462.64 283.77" stroke="#132e65" stroke-width="1.5"></path><path d="M299.39 423.28L299.39 423.28" stroke="#132e65" stroke-width="1.5"></path><path d="M299.39 423.28L408.75 432.46" stroke="#132e65" stroke-width="1.5"></path><path d="M299.39 423.28L302.56 584.85" stroke="#132e65" stroke-width="1.5"></path><path d="M302.56 584.85L302.56 584.85" stroke="#132e65" stroke-width="1.5"></path><path d="M302.56 584.85L295.6 709.16" stroke="#132e65" stroke-width="1.5"></path><path d="M295.6 709.16L295.6 709.16" stroke="#132e65" stroke-width="1.5"></path><path d="M295.6 709.16L426.47 657.29" stroke="#132e65" stroke-width="1.5"></path><path d="M295.6 709.16L410.74 809.96" stroke="#132e65" stroke-width="1.5"></path><path d="M302.73 919.2L302.73 919.2" stroke="#132e65" stroke-width="1.5"></path><path d="M302.73 919.2L311.56 1042.45" stroke="#132e65" stroke-width="1.5"></path><path d="M302.73 919.2L444.47 928.71" stroke="#132e65" stroke-width="1.5"></path><path d="M302.73 919.2L410.74 809.96" stroke="#132e65" stroke-width="1.5"></path><path d="M311.56 1042.45L311.56 1042.45" stroke="#132e65" stroke-width="1.5"></path><path d="M459.81 -51.49L459.81 -51.49" stroke="#132e65" stroke-width="1.5"></path><path d="M459.81 -51.49L440.64 54.88" stroke="#132e65" stroke-width="1.5"></path><path d="M459.81 -51.49L316.06 -56.91" stroke="#132e65" stroke-width="1.5"></path><path d="M440.64 54.88L440.64 54.88" stroke="#132e65" stroke-width="1.5"></path><path d="M440.64 54.88L441.82 163.28" stroke="#132e65" stroke-width="1.5"></path><path d="M441.82 163.28L441.82 163.28" stroke="#132e65" stroke-width="1.5"></path><path d="M441.82 163.28L462.64 283.77" stroke="#132e65" stroke-width="1.5"></path><path d="M441.82 163.28L332.72 40.77" stroke="#132e65" stroke-width="1.5"></path><path d="M441.82 163.28L290.43 315.56" stroke="#132e65" stroke-width="1.5"></path><path d="M462.64 283.77L462.64 283.77" stroke="#132e65" stroke-width="1.5"></path><path d="M462.64 283.77L338.02 215.01" stroke="#132e65" stroke-width="1.5"></path><path d="M408.75 432.46L408.75 432.46" stroke="#132e65" stroke-width="1.5"></path><path d="M408.75 432.46L456.33 546.78" stroke="#132e65" stroke-width="1.5"></path><path d="M408.75 432.46L462.64 283.77" stroke="#132e65" stroke-width="1.5"></path><path d="M408.75 432.46L302.56 584.85" stroke="#132e65" stroke-width="1.5"></path><path d="M408.75 432.46L208.35 464.51" stroke="#132e65" stroke-width="1.5"></path><path d="M456.33 546.78L456.33 546.78" stroke="#132e65" stroke-width="1.5"></path><path d="M456.33 546.78L426.47 657.29" stroke="#132e65" stroke-width="1.5"></path><path d="M456.33 546.78L302.56 584.85" stroke="#132e65" stroke-width="1.5"></path><path d="M456.33 546.78L299.39 423.28" stroke="#132e65" stroke-width="1.5"></path><path d="M456.33 546.78L295.6 709.16" stroke="#132e65" stroke-width="1.5"></path><path d="M426.47 657.29L426.47 657.29" stroke="#132e65" stroke-width="1.5"></path><path d="M426.47 657.29L302.56 584.85" stroke="#132e65" stroke-width="1.5"></path><path d="M426.47 657.29L410.74 809.96" stroke="#132e65" stroke-width="1.5"></path><path d="M426.47 657.29L408.75 432.46" stroke="#132e65" stroke-width="1.5"></path><path d="M410.74 809.96L410.74 809.96" stroke="#132e65" stroke-width="1.5"></path><path d="M410.74 809.96L444.47 928.71" stroke="#132e65" stroke-width="1.5"></path><path d="M410.74 809.96L192.05 832.13" stroke="#132e65" stroke-width="1.5"></path><path d="M410.74 809.96L302.56 584.85" stroke="#132e65" stroke-width="1.5"></path><path d="M444.47 928.71L444.47 928.71" stroke="#132e65" stroke-width="1.5"></path><path d="M444.47 928.71L451.22 1089.16" stroke="#132e65" stroke-width="1.5"></path><path d="M444.47 928.71L311.56 1042.45" stroke="#132e65" stroke-width="1.5"></path><path d="M444.47 928.71L295.6 709.16" stroke="#132e65" stroke-width="1.5"></path><path d="M444.47 928.71L192.05 832.13" stroke="#132e65" stroke-width="1.5"></path><path d="M451.22 1089.16L451.22 1089.16" stroke="#132e65" stroke-width="1.5"></path><path d="M451.22 1089.16L311.56 1042.45" stroke="#132e65" stroke-width="1.5"></path><path d="M451.22 1089.16L302.73 919.2" stroke="#132e65" stroke-width="1.5"></path><circle r="5" cx="-67.8" cy="662.99" fill="#132e65"></circle><circle r="5" cx="-79.29" cy="926.68" fill="#132e65"></circle><circle r="5" cx="-75.85" cy="1067.98" fill="#132e65"></circle><circle r="5" cx="60.66" cy="571.15" fill="#132e65"></circle><circle r="5" cx="87.05" cy="791.91" fill="#132e65"></circle><circle r="5" cx="43.25" cy="928.6" fill="#132e65"></circle><circle r="5" cx="89.18" cy="1077.27" fill="#132e65"></circle><circle r="5" cx="190.4" cy="-61.18" fill="#132e65"></circle><circle r="5" cx="165.86" cy="330.21" fill="#132e65"></circle><circle r="5" cx="208.35" cy="464.51" fill="#132e65"></circle><circle r="5" cx="192.78" cy="544.53" fill="#132e65"></circle><circle r="5" cx="192.05" cy="832.13" fill="#132e65"></circle><circle r="5" cx="172.73" cy="1035.49" fill="#132e65"></circle><circle r="5" cx="316.06" cy="-56.91" fill="#132e65"></circle><circle r="5" cx="332.72" cy="40.77" fill="#132e65"></circle><circle r="5" cx="338.02" cy="215.01" fill="#132e65"></circle><circle r="5" cx="290.43" cy="315.56" fill="#132e65"></circle><circle r="5" cx="299.39" cy="423.28" fill="#132e65"></circle><circle r="5" cx="302.56" cy="584.85" fill="#132e65"></circle><circle r="5" cx="295.6" cy="709.16" fill="#132e65"></circle><circle r="5" cx="302.73" cy="919.2" fill="#132e65"></circle><circle r="5" cx="311.56" cy="1042.45" fill="#132e65"></circle><circle r="5" cx="459.81" cy="-51.49" fill="#132e65"></circle><circle r="5" cx="440.64" cy="54.88" fill="#132e65"></circle><circle r="5" cx="441.82" cy="163.28" fill="#132e65"></circle><circle r="5" cx="462.64" cy="283.77" fill="#132e65"></circle><circle r="5" cx="408.75" cy="432.46" fill="#132e65"></circle><circle r="5" cx="456.33" cy="546.78" fill="#132e65"></circle><circle r="5" cx="426.47" cy="657.29" fill="#132e65"></circle><circle r="5" cx="410.74" cy="809.96" fill="#132e65"></circle><circle r="5" cx="444.47" cy="928.71" fill="#132e65"></circle><circle r="5" cx="451.22" cy="1089.16" fill="#132e65"></circle><path d="M-88.35 950L-88.35 950" stroke="hsl(228.5, 77.2%, 51.5%)" stroke-width="1.5"></path><path d="M-88.35 950L-91.74 1034.56" stroke="hsl(228.5, 77.2%, 51.5%)" stroke-width="1.5"></path><path d="M-88.35 950L-38.47 796.91" stroke="hsl(228.5, 77.2%, 51.5%)" stroke-width="1.5"></path><path d="M-88.35 950L41.81 840.72" stroke="hsl(228.5, 77.2%, 51.5%)" stroke-width="1.5"></path><path d="M-88.35 950L60.84 1071.43" stroke="hsl(228.5, 77.2%, 51.5%)" stroke-width="1.5"></path><path d="M319.85 541.15L319.85 541.15" stroke="hsl(228.5, 77.2%, 51.5%)" stroke-width="1.5"></path><path d="M319.85 541.15L321.56 450.7" stroke="hsl(228.5, 77.2%, 51.5%)" stroke-width="1.5"></path><path d="M319.85 541.15L287.23 663.54" stroke="hsl(228.5, 77.2%, 51.5%)" stroke-width="1.5"></path><path d="M319.85 541.15L447.03 554.9" stroke="hsl(228.5, 77.2%, 51.5%)" stroke-width="1.5"></path><path d="M319.85 541.15L183.82 544.32" stroke="hsl(228.5, 77.2%, 51.5%)" stroke-width="1.5"></path><path d="M434.76 931.89L434.76 931.89" stroke="hsl(228.5, 77.2%, 51.5%)" stroke-width="1.5"></path><path d="M434.76 931.89L449.83 817.14" stroke="hsl(228.5, 77.2%, 51.5%)" stroke-width="1.5"></path><path d="M434.76 931.89L314.02 958.76" stroke="hsl(228.5, 77.2%, 51.5%)" stroke-width="1.5"></path><path d="M434.76 931.89L329.72 832.94" stroke="hsl(228.5, 77.2%, 51.5%)" stroke-width="1.5"></path><path d="M434.76 931.89L461.54 1087.8" stroke="hsl(228.5, 77.2%, 51.5%)" stroke-width="1.5"></path><path d="M434.76 931.89L438.76 710.38" stroke="hsl(228.5, 77.2%, 51.5%)" stroke-width="1.5"></path><path d="M434.76 931.89L194.45 963.74" stroke="hsl(228.5, 77.2%, 51.5%)" stroke-width="1.5"></path><path d="M461.54 1087.8L461.54 1087.8" stroke="hsl(228.5, 77.2%, 51.5%)" stroke-width="1.5"></path><path d="M461.54 1087.8L314.02 958.76" stroke="hsl(228.5, 77.2%, 51.5%)" stroke-width="1.5"></path><path d="M461.54 1087.8L449.83 817.14" stroke="hsl(228.5, 77.2%, 51.5%)" stroke-width="1.5"></path><path d="M-38.47 796.91L-38.47 796.91" stroke="hsl(228.5, 77.2%, 51.5%)" stroke-width="1.5"></path><path d="M-38.47 796.91L41.81 840.72" stroke="hsl(228.5, 77.2%, 51.5%)" stroke-width="1.5"></path><path d="M-38.47 796.91L-91.74 1034.56" stroke="hsl(228.5, 77.2%, 51.5%)" stroke-width="1.5"></path><path d="M-91.74 1034.56L-91.74 1034.56" stroke="hsl(228.5, 77.2%, 51.5%)" stroke-width="1.5"></path><path d="M-91.74 1034.56L60.84 1071.43" stroke="hsl(228.5, 77.2%, 51.5%)" stroke-width="1.5"></path><path d="M-91.74 1034.56L41.81 840.72" stroke="hsl(228.5, 77.2%, 51.5%)" stroke-width="1.5"></path><path d="M-91.74 1034.56L187.87 1054.91" stroke="hsl(228.5, 77.2%, 51.5%)" stroke-width="1.5"></path><path d="M41.81 840.72L41.81 840.72" stroke="hsl(228.5, 77.2%, 51.5%)" stroke-width="1.5"></path><path d="M41.81 840.72L194.45 963.74" stroke="hsl(228.5, 77.2%, 51.5%)" stroke-width="1.5"></path><path d="M41.81 840.72L212.77 700.64" stroke="hsl(228.5, 77.2%, 51.5%)" stroke-width="1.5"></path><path d="M41.81 840.72L60.84 1071.43" stroke="hsl(228.5, 77.2%, 51.5%)" stroke-width="1.5"></path><path d="M60.84 1071.43L60.84 1071.43" stroke="hsl(228.5, 77.2%, 51.5%)" stroke-width="1.5"></path><path d="M60.84 1071.43L187.87 1054.91" stroke="hsl(228.5, 77.2%, 51.5%)" stroke-width="1.5"></path><path d="M183.82 544.32L183.82 544.32" stroke="hsl(228.5, 77.2%, 51.5%)" stroke-width="1.5"></path><path d="M183.82 544.32L287.23 663.54" stroke="hsl(228.5, 77.2%, 51.5%)" stroke-width="1.5"></path><path d="M183.82 544.32L212.77 700.64" stroke="hsl(228.5, 77.2%, 51.5%)" stroke-width="1.5"></path><path d="M183.82 544.32L321.56 450.7" stroke="hsl(228.5, 77.2%, 51.5%)" stroke-width="1.5"></path><path d="M183.82 544.32L447.03 554.9" stroke="hsl(228.5, 77.2%, 51.5%)" stroke-width="1.5"></path><path d="M212.77 700.64L212.77 700.64" stroke="hsl(228.5, 77.2%, 51.5%)" stroke-width="1.5"></path><path d="M212.77 700.64L287.23 663.54" stroke="hsl(228.5, 77.2%, 51.5%)" stroke-width="1.5"></path><path d="M212.77 700.64L329.72 832.94" stroke="hsl(228.5, 77.2%, 51.5%)" stroke-width="1.5"></path><path d="M212.77 700.64L319.85 541.15" stroke="hsl(228.5, 77.2%, 51.5%)" stroke-width="1.5"></path><path d="M194.45 963.74L194.45 963.74" stroke="hsl(228.5, 77.2%, 51.5%)" stroke-width="1.5"></path><path d="M194.45 963.74L187.87 1054.91" stroke="hsl(228.5, 77.2%, 51.5%)" stroke-width="1.5"></path><path d="M194.45 963.74L314.02 958.76" stroke="hsl(228.5, 77.2%, 51.5%)" stroke-width="1.5"></path><path d="M194.45 963.74L60.84 1071.43" stroke="hsl(228.5, 77.2%, 51.5%)" stroke-width="1.5"></path><path d="M194.45 963.74L329.72 832.94" stroke="hsl(228.5, 77.2%, 51.5%)" stroke-width="1.5"></path><path d="M187.87 1054.91L187.87 1054.91" stroke="hsl(228.5, 77.2%, 51.5%)" stroke-width="1.5"></path><path d="M187.87 1054.91L314.02 958.76" stroke="hsl(228.5, 77.2%, 51.5%)" stroke-width="1.5"></path><path d="M187.87 1054.91L41.81 840.72" stroke="hsl(228.5, 77.2%, 51.5%)" stroke-width="1.5"></path><path d="M187.87 1054.91L329.72 832.94" stroke="hsl(228.5, 77.2%, 51.5%)" stroke-width="1.5"></path><path d="M330.29 52.95L330.29 52.95" stroke="hsl(228.5, 77.2%, 51.5%)" stroke-width="1.5"></path><path d="M330.29 52.95L452.87 78.85" stroke="hsl(228.5, 77.2%, 51.5%)" stroke-width="1.5"></path><path d="M330.29 52.95L444.83 -33.49" stroke="hsl(228.5, 77.2%, 51.5%)" stroke-width="1.5"></path><path d="M302.49 200.92L302.49 200.92" stroke="hsl(228.5, 77.2%, 51.5%)" stroke-width="1.5"></path><path d="M302.49 200.92L320.26 308.53" stroke="hsl(228.5, 77.2%, 51.5%)" stroke-width="1.5"></path><path d="M302.49 200.92L448.25 212.92" stroke="hsl(228.5, 77.2%, 51.5%)" stroke-width="1.5"></path><path d="M302.49 200.92L330.29 52.95" stroke="hsl(228.5, 77.2%, 51.5%)" stroke-width="1.5"></path><path d="M302.49 200.92L415.09 317.44" stroke="hsl(228.5, 77.2%, 51.5%)" stroke-width="1.5"></path><path d="M302.49 200.92L452.87 78.85" stroke="hsl(228.5, 77.2%, 51.5%)" stroke-width="1.5"></path><path d="M320.26 308.53L320.26 308.53" stroke="hsl(228.5, 77.2%, 51.5%)" stroke-width="1.5"></path><path d="M320.26 308.53L415.09 317.44" stroke="hsl(228.5, 77.2%, 51.5%)" stroke-width="1.5"></path><path d="M320.26 308.53L321.56 450.7" stroke="hsl(228.5, 77.2%, 51.5%)" stroke-width="1.5"></path><path d="M321.56 450.7L321.56 450.7" stroke="hsl(228.5, 77.2%, 51.5%)" stroke-width="1.5"></path><path d="M321.56 450.7L434.1 451.99" stroke="hsl(228.5, 77.2%, 51.5%)" stroke-width="1.5"></path><path d="M287.23 663.54L287.23 663.54" stroke="hsl(228.5, 77.2%, 51.5%)" stroke-width="1.5"></path><path d="M287.23 663.54L438.76 710.38" stroke="hsl(228.5, 77.2%, 51.5%)" stroke-width="1.5"></path><path d="M329.72 832.94L329.72 832.94" stroke="hsl(228.5, 77.2%, 51.5%)" stroke-width="1.5"></path><path d="M329.72 832.94L449.83 817.14" stroke="hsl(228.5, 77.2%, 51.5%)" stroke-width="1.5"></path><path d="M329.72 832.94L314.02 958.76" stroke="hsl(228.5, 77.2%, 51.5%)" stroke-width="1.5"></path><path d="M314.02 958.76L314.02 958.76" stroke="hsl(228.5, 77.2%, 51.5%)" stroke-width="1.5"></path><path d="M444.83 -33.49L444.83 -33.49" stroke="hsl(228.5, 77.2%, 51.5%)" stroke-width="1.5"></path><path d="M444.83 -33.49L452.87 78.85" stroke="hsl(228.5, 77.2%, 51.5%)" stroke-width="1.5"></path><path d="M444.83 -33.49L448.25 212.92" stroke="hsl(228.5, 77.2%, 51.5%)" stroke-width="1.5"></path><path d="M444.83 -33.49L302.49 200.92" stroke="hsl(228.5, 77.2%, 51.5%)" stroke-width="1.5"></path><path d="M444.83 -33.49L415.09 317.44" stroke="hsl(228.5, 77.2%, 51.5%)" stroke-width="1.5"></path><path d="M452.87 78.85L452.87 78.85" stroke="hsl(228.5, 77.2%, 51.5%)" stroke-width="1.5"></path><path d="M448.25 212.92L448.25 212.92" stroke="hsl(228.5, 77.2%, 51.5%)" stroke-width="1.5"></path><path d="M448.25 212.92L415.09 317.44" stroke="hsl(228.5, 77.2%, 51.5%)" stroke-width="1.5"></path><path d="M448.25 212.92L452.87 78.85" stroke="hsl(228.5, 77.2%, 51.5%)" stroke-width="1.5"></path><path d="M448.25 212.92L320.26 308.53" stroke="hsl(228.5, 77.2%, 51.5%)" stroke-width="1.5"></path><path d="M448.25 212.92L330.29 52.95" stroke="hsl(228.5, 77.2%, 51.5%)" stroke-width="1.5"></path><path d="M448.25 212.92L434.1 451.99" stroke="hsl(228.5, 77.2%, 51.5%)" stroke-width="1.5"></path><path d="M415.09 317.44L415.09 317.44" stroke="hsl(228.5, 77.2%, 51.5%)" stroke-width="1.5"></path><path d="M415.09 317.44L434.1 451.99" stroke="hsl(228.5, 77.2%, 51.5%)" stroke-width="1.5"></path><path d="M415.09 317.44L321.56 450.7" stroke="hsl(228.5, 77.2%, 51.5%)" stroke-width="1.5"></path><path d="M415.09 317.44L447.03 554.9" stroke="hsl(228.5, 77.2%, 51.5%)" stroke-width="1.5"></path><path d="M434.1 451.99L434.1 451.99" stroke="hsl(228.5, 77.2%, 51.5%)" stroke-width="1.5"></path><path d="M434.1 451.99L447.03 554.9" stroke="hsl(228.5, 77.2%, 51.5%)" stroke-width="1.5"></path><path d="M447.03 554.9L447.03 554.9" stroke="hsl(228.5, 77.2%, 51.5%)" stroke-width="1.5"></path><path d="M447.03 554.9L438.76 710.38" stroke="hsl(228.5, 77.2%, 51.5%)" stroke-width="1.5"></path><path d="M447.03 554.9L321.56 450.7" stroke="hsl(228.5, 77.2%, 51.5%)" stroke-width="1.5"></path><path d="M438.76 710.38L438.76 710.38" stroke="hsl(228.5, 77.2%, 51.5%)" stroke-width="1.5"></path><path d="M438.76 710.38L449.83 817.14" stroke="hsl(228.5, 77.2%, 51.5%)" stroke-width="1.5"></path><path d="M449.83 817.14L449.83 817.14" stroke="hsl(228.5, 77.2%, 51.5%)" stroke-width="1.5"></path><path d="M449.83 817.14L314.02 958.76" stroke="hsl(228.5, 77.2%, 51.5%)" stroke-width="1.5"></path><path d="M449.83 817.14L287.23 663.54" stroke="hsl(228.5, 77.2%, 51.5%)" stroke-width="1.5"></path><circle r="25" cx="-88.35" cy="950" fill="url(&quot;#SvgjsRadialGradient1102&quot;)"></circle><circle r="25" cx="319.85" cy="541.15" fill="url(&quot;#SvgjsRadialGradient1102&quot;)"></circle><circle r="25" cx="434.76" cy="931.89" fill="url(&quot;#SvgjsRadialGradient1102&quot;)"></circle><circle r="25" cx="461.54" cy="1087.8" fill="url(&quot;#SvgjsRadialGradient1102&quot;)"></circle><circle r="5" cx="-38.47" cy="796.91" fill="#8b9ad9"></circle><circle r="5" cx="-91.74" cy="1034.56" fill="#8b9ad9"></circle><circle r="5" cx="41.81" cy="840.72" fill="#8b9ad9"></circle><circle r="5" cx="60.84" cy="1071.43" fill="#8b9ad9"></circle><circle r="5" cx="183.82" cy="544.32" fill="#8b9ad9"></circle><circle r="5" cx="212.77" cy="700.64" fill="#8b9ad9"></circle><circle r="5" cx="194.45" cy="963.74" fill="#8b9ad9"></circle><circle r="5" cx="187.87" cy="1054.91" fill="#8b9ad9"></circle><circle r="5" cx="330.29" cy="52.95" fill="#8b9ad9"></circle><circle r="5" cx="302.49" cy="200.92" fill="#8b9ad9"></circle><circle r="5" cx="320.26" cy="308.53" fill="#8b9ad9"></circle><circle r="5" cx="321.56" cy="450.7" fill="#8b9ad9"></circle><circle r="5" cx="287.23" cy="663.54" fill="#8b9ad9"></circle><circle r="5" cx="329.72" cy="832.94" fill="#8b9ad9"></circle><circle r="5" cx="314.02" cy="958.76" fill="#8b9ad9"></circle><circle r="5" cx="444.83" cy="-33.49" fill="#8b9ad9"></circle><circle r="5" cx="452.87" cy="78.85" fill="#8b9ad9"></circle><circle r="5" cx="448.25" cy="212.92" fill="#8b9ad9"></circle><circle r="5" cx="415.09" cy="317.44" fill="#8b9ad9"></circle><circle r="5" cx="434.1" cy="451.99" fill="#8b9ad9"></circle><circle r="5" cx="447.03" cy="554.9" fill="#8b9ad9"></circle><circle r="5" cx="438.76" cy="710.38" fill="#8b9ad9"></circle><circle r="5" cx="449.83" cy="817.14" fill="#8b9ad9"></circle></g><defs><mask id="SvgjsMask1101"><rect width="300" height="1000" fill="#ffffff"></rect></mask><radialGradient id="SvgjsRadialGradient1102"><stop stop-color="#ffffff" offset="0.1"></stop><stop stop-color="#1735b3" offset="0.2"></stop><stop stop-color="rgba(23, 53, 179, 0)" offset="1"></stop></radialGradient></defs></svg>