<svg xmlns="http://www.w3.org/2000/svg" version="1.1" xmlns:xlink="http://www.w3.org/1999/xlink" xmlns:svgjs="http://svgjs.dev/svgjs" width="300" height="1000" preserveAspectRatio="none" viewBox="0 0 300 1000"><g mask="url(&quot;#SvgjsMask1105&quot;)" fill="none"><rect width="300" height="1000" x="0" y="0" fill="#0e2a47"></rect><path d="M-81.62 579.07L-81.62 579.07" stroke="#132e65" stroke-width="1.5"></path><path d="M-81.62 579.07L-89.3 710.32" stroke="#132e65" stroke-width="1.5"></path><path d="M-81.62 579.07L76.54 699.03" stroke="#132e65" stroke-width="1.5"></path><path d="M-81.62 579.07L-54.78 831.11" stroke="#132e65" stroke-width="1.5"></path><path d="M-81.62 579.07L60.04 816.5" stroke="#132e65" stroke-width="1.5"></path><path d="M-81.62 579.07L194.84 556.53" stroke="#132e65" stroke-width="1.5"></path><path d="M-81.62 579.07L166.21 716.06" stroke="#132e65" stroke-width="1.5"></path><path d="M-89.3 710.32L-89.3 710.32" stroke="#132e65" stroke-width="1.5"></path><path d="M-89.3 710.32L-54.78 831.11" stroke="#132e65" stroke-width="1.5"></path><path d="M-54.78 831.11L-54.78 831.11" stroke="#132e65" stroke-width="1.5"></path><path d="M-54.78 831.11L60.04 816.5" stroke="#132e65" stroke-width="1.5"></path><path d="M-54.78 831.11L-69.57 964.16" stroke="#132e65" stroke-width="1.5"></path><path d="M-54.78 831.11L66.8 945.22" stroke="#132e65" stroke-width="1.5"></path><path d="M-69.57 964.16L-69.57 964.16" stroke="#132e65" stroke-width="1.5"></path><path d="M-69.57 964.16L-52.04 1058.3" stroke="#132e65" stroke-width="1.5"></path><path d="M-69.57 964.16L66.8 945.22" stroke="#132e65" stroke-width="1.5"></path><path d="M-69.57 964.16L45.39 1070.49" stroke="#132e65" stroke-width="1.5"></path><path d="M-52.04 1058.3L-52.04 1058.3" stroke="#132e65" stroke-width="1.5"></path><path d="M-52.04 1058.3L45.39 1070.49" stroke="#132e65" stroke-width="1.5"></path><path d="M76.54 699.03L76.54 699.03" stroke="#132e65" stroke-width="1.5"></path><path d="M76.54 699.03L166.21 716.06" stroke="#132e65" stroke-width="1.5"></path><path d="M76.54 699.03L60.04 816.5" stroke="#132e65" stroke-width="1.5"></path><path d="M76.54 699.03L170.62 814.57" stroke="#132e65" stroke-width="1.5"></path><path d="M76.54 699.03L-89.3 710.32" stroke="#132e65" stroke-width="1.5"></path><path d="M60.04 816.5L60.04 816.5" stroke="#132e65" stroke-width="1.5"></path><path d="M60.04 816.5L170.62 814.57" stroke="#132e65" stroke-width="1.5"></path><path d="M66.8 945.22L66.8 945.22" stroke="#132e65" stroke-width="1.5"></path><path d="M66.8 945.22L45.39 1070.49" stroke="#132e65" stroke-width="1.5"></path><path d="M66.8 945.22L60.04 816.5" stroke="#132e65" stroke-width="1.5"></path><path d="M45.39 1070.49L45.39 1070.49" stroke="#132e65" stroke-width="1.5"></path><path d="M45.39 1070.49L200.01 1061.29" stroke="#132e65" stroke-width="1.5"></path><path d="M45.39 1070.49L214.47 964.43" stroke="#132e65" stroke-width="1.5"></path><path d="M45.39 1070.49L60.04 816.5" stroke="#132e65" stroke-width="1.5"></path><path d="M199.08 -78.19L199.08 -78.19" stroke="#132e65" stroke-width="1.5"></path><path d="M199.08 -78.19L292.92 36.94" stroke="#132e65" stroke-width="1.5"></path><path d="M199.08 -78.19L449.86 -54.72" stroke="#132e65" stroke-width="1.5"></path><path d="M218.13 184.11L218.13 184.11" stroke="#132e65" stroke-width="1.5"></path><path d="M218.13 184.11L207.24 314.8" stroke="#132e65" stroke-width="1.5"></path><path d="M218.13 184.11L292.92 36.94" stroke="#132e65" stroke-width="1.5"></path><path d="M218.13 184.11L342.25 339.22" stroke="#132e65" stroke-width="1.5"></path><path d="M218.13 184.11L417.09 203.85" stroke="#132e65" stroke-width="1.5"></path><path d="M218.13 184.11L158.1 419.99" stroke="#132e65" stroke-width="1.5"></path><path d="M207.24 314.8L207.24 314.8" stroke="#132e65" stroke-width="1.5"></path><path d="M207.24 314.8L158.1 419.99" stroke="#132e65" stroke-width="1.5"></path><path d="M207.24 314.8L342.25 339.22" stroke="#132e65" stroke-width="1.5"></path><path d="M158.1 419.99L158.1 419.99" stroke="#132e65" stroke-width="1.5"></path><path d="M158.1 419.99L194.84 556.53" stroke="#132e65" stroke-width="1.5"></path><path d="M194.84 556.53L194.84 556.53" stroke="#132e65" stroke-width="1.5"></path><path d="M194.84 556.53L290.96 533.62" stroke="#132e65" stroke-width="1.5"></path><path d="M194.84 556.53L166.21 716.06" stroke="#132e65" stroke-width="1.5"></path><path d="M194.84 556.53L323.66 672.83" stroke="#132e65" stroke-width="1.5"></path><path d="M166.21 716.06L166.21 716.06" stroke="#132e65" stroke-width="1.5"></path><path d="M166.21 716.06L170.62 814.57" stroke="#132e65" stroke-width="1.5"></path><path d="M166.21 716.06L60.04 816.5" stroke="#132e65" stroke-width="1.5"></path><path d="M166.21 716.06L323.66 672.83" stroke="#132e65" stroke-width="1.5"></path><path d="M170.62 814.57L170.62 814.57" stroke="#132e65" stroke-width="1.5"></path><path d="M214.47 964.43L214.47 964.43" stroke="#132e65" stroke-width="1.5"></path><path d="M214.47 964.43L200.01 1061.29" stroke="#132e65" stroke-width="1.5"></path><path d="M214.47 964.43L315.9 966.23" stroke="#132e65" stroke-width="1.5"></path><path d="M214.47 964.43L66.8 945.22" stroke="#132e65" stroke-width="1.5"></path><path d="M200.01 1061.29L200.01 1061.29" stroke="#132e65" stroke-width="1.5"></path><path d="M200.01 1061.29L342.5 1086.25" stroke="#132e65" stroke-width="1.5"></path><path d="M200.01 1061.29L315.9 966.23" stroke="#132e65" stroke-width="1.5"></path><path d="M200.01 1061.29L66.8 945.22" stroke="#132e65" stroke-width="1.5"></path><path d="M292.92 36.94L292.92 36.94" stroke="#132e65" stroke-width="1.5"></path><path d="M292.92 36.94L459.3 46.46" stroke="#132e65" stroke-width="1.5"></path><path d="M292.92 36.94L449.86 -54.72" stroke="#132e65" stroke-width="1.5"></path><path d="M342.25 339.22L342.25 339.22" stroke="#132e65" stroke-width="1.5"></path><path d="M342.25 339.22L442.92 315.36" stroke="#132e65" stroke-width="1.5"></path><path d="M342.25 339.22L328.22 444.67" stroke="#132e65" stroke-width="1.5"></path><path d="M342.25 339.22L408.49 438.81" stroke="#132e65" stroke-width="1.5"></path><path d="M328.22 444.67L328.22 444.67" stroke="#132e65" stroke-width="1.5"></path><path d="M328.22 444.67L408.49 438.81" stroke="#132e65" stroke-width="1.5"></path><path d="M328.22 444.67L290.96 533.62" stroke="#132e65" stroke-width="1.5"></path><path d="M328.22 444.67L433.76 541.73" stroke="#132e65" stroke-width="1.5"></path><path d="M290.96 533.62L290.96 533.62" stroke="#132e65" stroke-width="1.5"></path><path d="M290.96 533.62L323.66 672.83" stroke="#132e65" stroke-width="1.5"></path><path d="M290.96 533.62L433.76 541.73" stroke="#132e65" stroke-width="1.5"></path><path d="M290.96 533.62L408.49 438.81" stroke="#132e65" stroke-width="1.5"></path><path d="M323.66 672.83L323.66 672.83" stroke="#132e65" stroke-width="1.5"></path><path d="M323.66 672.83L416.19 714.95" stroke="#132e65" stroke-width="1.5"></path><path d="M323.66 672.83L433.76 541.73" stroke="#132e65" stroke-width="1.5"></path><path d="M315.9 966.23L315.9 966.23" stroke="#132e65" stroke-width="1.5"></path><path d="M315.9 966.23L342.5 1086.25" stroke="#132e65" stroke-width="1.5"></path><path d="M315.9 966.23L464.53 943.7" stroke="#132e65" stroke-width="1.5"></path><path d="M315.9 966.23L467.7 1034.44" stroke="#132e65" stroke-width="1.5"></path><path d="M342.5 1086.25L342.5 1086.25" stroke="#132e65" stroke-width="1.5"></path><path d="M342.5 1086.25L467.7 1034.44" stroke="#132e65" stroke-width="1.5"></path><path d="M449.86 -54.72L449.86 -54.72" stroke="#132e65" stroke-width="1.5"></path><path d="M449.86 -54.72L459.3 46.46" stroke="#132e65" stroke-width="1.5"></path><path d="M449.86 -54.72L417.09 203.85" stroke="#132e65" stroke-width="1.5"></path><path d="M459.3 46.46L459.3 46.46" stroke="#132e65" stroke-width="1.5"></path><path d="M459.3 46.46L417.09 203.85" stroke="#132e65" stroke-width="1.5"></path><path d="M459.3 46.46L442.92 315.36" stroke="#132e65" stroke-width="1.5"></path><path d="M417.09 203.85L417.09 203.85" stroke="#132e65" stroke-width="1.5"></path><path d="M417.09 203.85L442.92 315.36" stroke="#132e65" stroke-width="1.5"></path><path d="M417.09 203.85L342.25 339.22" stroke="#132e65" stroke-width="1.5"></path><path d="M442.92 315.36L442.92 315.36" stroke="#132e65" stroke-width="1.5"></path><path d="M442.92 315.36L408.49 438.81" stroke="#132e65" stroke-width="1.5"></path><path d="M442.92 315.36L328.22 444.67" stroke="#132e65" stroke-width="1.5"></path><path d="M442.92 315.36L433.76 541.73" stroke="#132e65" stroke-width="1.5"></path><path d="M442.92 315.36L207.24 314.8" stroke="#132e65" stroke-width="1.5"></path><path d="M408.49 438.81L408.49 438.81" stroke="#132e65" stroke-width="1.5"></path><path d="M408.49 438.81L433.76 541.73" stroke="#132e65" stroke-width="1.5"></path><path d="M433.76 541.73L433.76 541.73" stroke="#132e65" stroke-width="1.5"></path><path d="M416.19 714.95L416.19 714.95" stroke="#132e65" stroke-width="1.5"></path><path d="M416.19 714.95L439 821.03" stroke="#132e65" stroke-width="1.5"></path><path d="M416.19 714.95L433.76 541.73" stroke="#132e65" stroke-width="1.5"></path><path d="M416.19 714.95L290.96 533.62" stroke="#132e65" stroke-width="1.5"></path><path d="M439 821.03L439 821.03" stroke="#132e65" stroke-width="1.5"></path><path d="M439 821.03L464.53 943.7" stroke="#132e65" stroke-width="1.5"></path><path d="M464.53 943.7L464.53 943.7" stroke="#132e65" stroke-width="1.5"></path><path d="M464.53 943.7L467.7 1034.44" stroke="#132e65" stroke-width="1.5"></path><path d="M464.53 943.7L342.5 1086.25" stroke="#132e65" stroke-width="1.5"></path><path d="M464.53 943.7L416.19 714.95" stroke="#132e65" stroke-width="1.5"></path><path d="M464.53 943.7L214.47 964.43" stroke="#132e65" stroke-width="1.5"></path><path d="M467.7 1034.44L467.7 1034.44" stroke="#132e65" stroke-width="1.5"></path><circle r="5" cx="-81.62" cy="579.07" fill="#132e65"></circle><circle r="5" cx="-89.3" cy="710.32" fill="#132e65"></circle><circle r="5" cx="-54.78" cy="831.11" fill="#132e65"></circle><circle r="5" cx="-69.57" cy="964.16" fill="#132e65"></circle><circle r="5" cx="-52.04" cy="1058.3" fill="#132e65"></circle><circle r="5" cx="76.54" cy="699.03" fill="#132e65"></circle><circle r="5" cx="60.04" cy="816.5" fill="#132e65"></circle><circle r="5" cx="66.8" cy="945.22" fill="#132e65"></circle><circle r="5" cx="45.39" cy="1070.49" fill="#132e65"></circle><circle r="5" cx="199.08" cy="-78.19" fill="#132e65"></circle><circle r="5" cx="218.13" cy="184.11" fill="#132e65"></circle><circle r="5" cx="207.24" cy="314.8" fill="#132e65"></circle><circle r="5" cx="158.1" cy="419.99" fill="#132e65"></circle><circle r="5" cx="194.84" cy="556.53" fill="#132e65"></circle><circle r="5" cx="166.21" cy="716.06" fill="#132e65"></circle><circle r="5" cx="170.62" cy="814.57" fill="#132e65"></circle><circle r="5" cx="214.47" cy="964.43" fill="#132e65"></circle><circle r="5" cx="200.01" cy="1061.29" fill="#132e65"></circle><circle r="5" cx="292.92" cy="36.94" fill="#132e65"></circle><circle r="5" cx="342.25" cy="339.22" fill="#132e65"></circle><circle r="5" cx="328.22" cy="444.67" fill="#132e65"></circle><circle r="5" cx="290.96" cy="533.62" fill="#132e65"></circle><circle r="5" cx="323.66" cy="672.83" fill="#132e65"></circle><circle r="5" cx="315.9" cy="966.23" fill="#132e65"></circle><circle r="5" cx="342.5" cy="1086.25" fill="#132e65"></circle><circle r="5" cx="449.86" cy="-54.72" fill="#132e65"></circle><circle r="5" cx="459.3" cy="46.46" fill="#132e65"></circle><circle r="5" cx="417.09" cy="203.85" fill="#132e65"></circle><circle r="5" cx="442.92" cy="315.36" fill="#132e65"></circle><circle r="5" cx="408.49" cy="438.81" fill="#132e65"></circle><circle r="5" cx="433.76" cy="541.73" fill="#132e65"></circle><circle r="5" cx="416.19" cy="714.95" fill="#132e65"></circle><circle r="5" cx="439" cy="821.03" fill="#132e65"></circle><circle r="5" cx="464.53" cy="943.7" fill="#132e65"></circle><circle r="5" cx="467.7" cy="1034.44" fill="#132e65"></circle><path d="M-78.96 835.76L-78.96 835.76" stroke="hsl(228.5, 77.2%, 51.5%)" stroke-width="1.5"></path><path d="M-78.96 835.76L-90.74 913.74" stroke="hsl(228.5, 77.2%, 51.5%)" stroke-width="1.5"></path><path d="M-78.96 835.76L36.28 947.87" stroke="hsl(228.5, 77.2%, 51.5%)" stroke-width="1.5"></path><path d="M-78.96 835.76L87.28 792.18" stroke="hsl(228.5, 77.2%, 51.5%)" stroke-width="1.5"></path><path d="M87.28 792.18L87.28 792.18" stroke="hsl(228.5, 77.2%, 51.5%)" stroke-width="1.5"></path><path d="M87.28 792.18L36.28 947.87" stroke="hsl(228.5, 77.2%, 51.5%)" stroke-width="1.5"></path><path d="M87.28 792.18L182.95 656.64" stroke="hsl(228.5, 77.2%, 51.5%)" stroke-width="1.5"></path><path d="M318.83 93.68L318.83 93.68" stroke="hsl(228.5, 77.2%, 51.5%)" stroke-width="1.5"></path><path d="M318.83 93.68L306.58 191.65" stroke="hsl(228.5, 77.2%, 51.5%)" stroke-width="1.5"></path><path d="M303.61 590.38L303.61 590.38" stroke="hsl(228.5, 77.2%, 51.5%)" stroke-width="1.5"></path><path d="M303.61 590.38L416.31 550.25" stroke="hsl(228.5, 77.2%, 51.5%)" stroke-width="1.5"></path><path d="M303.61 590.38L182.95 656.64" stroke="hsl(228.5, 77.2%, 51.5%)" stroke-width="1.5"></path><path d="M303.61 590.38L341.59 435.92" stroke="hsl(228.5, 77.2%, 51.5%)" stroke-width="1.5"></path><path d="M303.61 590.38L434.85 684.08" stroke="hsl(228.5, 77.2%, 51.5%)" stroke-width="1.5"></path><path d="M303.61 590.38L209.32 432.94" stroke="hsl(228.5, 77.2%, 51.5%)" stroke-width="1.5"></path><path d="M303.61 590.38L452.46 439.71" stroke="hsl(228.5, 77.2%, 51.5%)" stroke-width="1.5"></path><path d="M463.75 -87.49L463.75 -87.49" stroke="hsl(228.5, 77.2%, 51.5%)" stroke-width="1.5"></path><path d="M463.75 -87.49L326.4 -72" stroke="hsl(228.5, 77.2%, 51.5%)" stroke-width="1.5"></path><path d="M463.75 -87.49L456.26 59.93" stroke="hsl(228.5, 77.2%, 51.5%)" stroke-width="1.5"></path><path d="M463.75 -87.49L318.83 93.68" stroke="hsl(228.5, 77.2%, 51.5%)" stroke-width="1.5"></path><path d="M463.75 -87.49L409.85 186.59" stroke="hsl(228.5, 77.2%, 51.5%)" stroke-width="1.5"></path><path d="M463.75 -87.49L306.58 191.65" stroke="hsl(228.5, 77.2%, 51.5%)" stroke-width="1.5"></path><path d="M463.75 -87.49L307.32 343" stroke="hsl(228.5, 77.2%, 51.5%)" stroke-width="1.5"></path><path d="M434.85 684.08L434.85 684.08" stroke="hsl(228.5, 77.2%, 51.5%)" stroke-width="1.5"></path><path d="M434.85 684.08L421.86 806.4" stroke="hsl(228.5, 77.2%, 51.5%)" stroke-width="1.5"></path><path d="M434.85 684.08L416.31 550.25" stroke="hsl(228.5, 77.2%, 51.5%)" stroke-width="1.5"></path><path d="M434.85 684.08L293.87 823.2" stroke="hsl(228.5, 77.2%, 51.5%)" stroke-width="1.5"></path><path d="M-90.74 913.74L-90.74 913.74" stroke="hsl(228.5, 77.2%, 51.5%)" stroke-width="1.5"></path><path d="M-90.74 913.74L36.28 947.87" stroke="hsl(228.5, 77.2%, 51.5%)" stroke-width="1.5"></path><path d="M-90.74 913.74L-63.34 1051.32" stroke="hsl(228.5, 77.2%, 51.5%)" stroke-width="1.5"></path><path d="M-90.74 913.74L35.03 1081.23" stroke="hsl(228.5, 77.2%, 51.5%)" stroke-width="1.5"></path><path d="M-90.74 913.74L87.28 792.18" stroke="hsl(228.5, 77.2%, 51.5%)" stroke-width="1.5"></path><path d="M-90.74 913.74L178.25 959.5" stroke="hsl(228.5, 77.2%, 51.5%)" stroke-width="1.5"></path><path d="M-63.34 1051.32L-63.34 1051.32" stroke="hsl(228.5, 77.2%, 51.5%)" stroke-width="1.5"></path><path d="M-63.34 1051.32L35.03 1081.23" stroke="hsl(228.5, 77.2%, 51.5%)" stroke-width="1.5"></path><path d="M-63.34 1051.32L36.28 947.87" stroke="hsl(228.5, 77.2%, 51.5%)" stroke-width="1.5"></path><path d="M-63.34 1051.32L-78.96 835.76" stroke="hsl(228.5, 77.2%, 51.5%)" stroke-width="1.5"></path><path d="M-63.34 1051.32L187.8 1093.14" stroke="hsl(228.5, 77.2%, 51.5%)" stroke-width="1.5"></path><path d="M-63.34 1051.32L178.25 959.5" stroke="hsl(228.5, 77.2%, 51.5%)" stroke-width="1.5"></path><path d="M36.28 947.87L36.28 947.87" stroke="hsl(228.5, 77.2%, 51.5%)" stroke-width="1.5"></path><path d="M36.28 947.87L35.03 1081.23" stroke="hsl(228.5, 77.2%, 51.5%)" stroke-width="1.5"></path><path d="M36.28 947.87L178.25 959.5" stroke="hsl(228.5, 77.2%, 51.5%)" stroke-width="1.5"></path><path d="M35.03 1081.23L35.03 1081.23" stroke="hsl(228.5, 77.2%, 51.5%)" stroke-width="1.5"></path><path d="M35.03 1081.23L187.8 1093.14" stroke="hsl(228.5, 77.2%, 51.5%)" stroke-width="1.5"></path><path d="M209.32 432.94L209.32 432.94" stroke="hsl(228.5, 77.2%, 51.5%)" stroke-width="1.5"></path><path d="M209.32 432.94L341.59 435.92" stroke="hsl(228.5, 77.2%, 51.5%)" stroke-width="1.5"></path><path d="M209.32 432.94L307.32 343" stroke="hsl(228.5, 77.2%, 51.5%)" stroke-width="1.5"></path><path d="M209.32 432.94L182.95 656.64" stroke="hsl(228.5, 77.2%, 51.5%)" stroke-width="1.5"></path><path d="M182.95 656.64L182.95 656.64" stroke="hsl(228.5, 77.2%, 51.5%)" stroke-width="1.5"></path><path d="M182.95 656.64L293.87 823.2" stroke="hsl(228.5, 77.2%, 51.5%)" stroke-width="1.5"></path><path d="M178.25 959.5L178.25 959.5" stroke="hsl(228.5, 77.2%, 51.5%)" stroke-width="1.5"></path><path d="M178.25 959.5L295.53 934.27" stroke="hsl(228.5, 77.2%, 51.5%)" stroke-width="1.5"></path><path d="M178.25 959.5L187.8 1093.14" stroke="hsl(228.5, 77.2%, 51.5%)" stroke-width="1.5"></path><path d="M178.25 959.5L309.32 1050.25" stroke="hsl(228.5, 77.2%, 51.5%)" stroke-width="1.5"></path><path d="M187.8 1093.14L187.8 1093.14" stroke="hsl(228.5, 77.2%, 51.5%)" stroke-width="1.5"></path><path d="M187.8 1093.14L309.32 1050.25" stroke="hsl(228.5, 77.2%, 51.5%)" stroke-width="1.5"></path><path d="M326.4 -72L326.4 -72" stroke="hsl(228.5, 77.2%, 51.5%)" stroke-width="1.5"></path><path d="M326.4 -72L318.83 93.68" stroke="hsl(228.5, 77.2%, 51.5%)" stroke-width="1.5"></path><path d="M326.4 -72L456.26 59.93" stroke="hsl(228.5, 77.2%, 51.5%)" stroke-width="1.5"></path><path d="M326.4 -72L306.58 191.65" stroke="hsl(228.5, 77.2%, 51.5%)" stroke-width="1.5"></path><path d="M326.4 -72L409.85 186.59" stroke="hsl(228.5, 77.2%, 51.5%)" stroke-width="1.5"></path><path d="M306.58 191.65L306.58 191.65" stroke="hsl(228.5, 77.2%, 51.5%)" stroke-width="1.5"></path><path d="M306.58 191.65L409.85 186.59" stroke="hsl(228.5, 77.2%, 51.5%)" stroke-width="1.5"></path><path d="M306.58 191.65L307.32 343" stroke="hsl(228.5, 77.2%, 51.5%)" stroke-width="1.5"></path><path d="M306.58 191.65L456.26 59.93" stroke="hsl(228.5, 77.2%, 51.5%)" stroke-width="1.5"></path><path d="M306.58 191.65L341.59 435.92" stroke="hsl(228.5, 77.2%, 51.5%)" stroke-width="1.5"></path><path d="M307.32 343L307.32 343" stroke="hsl(228.5, 77.2%, 51.5%)" stroke-width="1.5"></path><path d="M307.32 343L341.59 435.92" stroke="hsl(228.5, 77.2%, 51.5%)" stroke-width="1.5"></path><path d="M341.59 435.92L341.59 435.92" stroke="hsl(228.5, 77.2%, 51.5%)" stroke-width="1.5"></path><path d="M341.59 435.92L452.46 439.71" stroke="hsl(228.5, 77.2%, 51.5%)" stroke-width="1.5"></path><path d="M341.59 435.92L416.31 550.25" stroke="hsl(228.5, 77.2%, 51.5%)" stroke-width="1.5"></path><path d="M293.87 823.2L293.87 823.2" stroke="hsl(228.5, 77.2%, 51.5%)" stroke-width="1.5"></path><path d="M293.87 823.2L295.53 934.27" stroke="hsl(228.5, 77.2%, 51.5%)" stroke-width="1.5"></path><path d="M293.87 823.2L421.86 806.4" stroke="hsl(228.5, 77.2%, 51.5%)" stroke-width="1.5"></path><path d="M293.87 823.2L410.46 939.26" stroke="hsl(228.5, 77.2%, 51.5%)" stroke-width="1.5"></path><path d="M293.87 823.2L178.25 959.5" stroke="hsl(228.5, 77.2%, 51.5%)" stroke-width="1.5"></path><path d="M295.53 934.27L295.53 934.27" stroke="hsl(228.5, 77.2%, 51.5%)" stroke-width="1.5"></path><path d="M295.53 934.27L410.46 939.26" stroke="hsl(228.5, 77.2%, 51.5%)" stroke-width="1.5"></path><path d="M295.53 934.27L309.32 1050.25" stroke="hsl(228.5, 77.2%, 51.5%)" stroke-width="1.5"></path><path d="M295.53 934.27L421.86 806.4" stroke="hsl(228.5, 77.2%, 51.5%)" stroke-width="1.5"></path><path d="M295.53 934.27L187.8 1093.14" stroke="hsl(228.5, 77.2%, 51.5%)" stroke-width="1.5"></path><path d="M309.32 1050.25L309.32 1050.25" stroke="hsl(228.5, 77.2%, 51.5%)" stroke-width="1.5"></path><path d="M456.26 59.93L456.26 59.93" stroke="hsl(228.5, 77.2%, 51.5%)" stroke-width="1.5"></path><path d="M456.26 59.93L409.85 186.59" stroke="hsl(228.5, 77.2%, 51.5%)" stroke-width="1.5"></path><path d="M456.26 59.93L318.83 93.68" stroke="hsl(228.5, 77.2%, 51.5%)" stroke-width="1.5"></path><path d="M409.85 186.59L409.85 186.59" stroke="hsl(228.5, 77.2%, 51.5%)" stroke-width="1.5"></path><path d="M409.85 186.59L318.83 93.68" stroke="hsl(228.5, 77.2%, 51.5%)" stroke-width="1.5"></path><path d="M452.46 439.71L452.46 439.71" stroke="hsl(228.5, 77.2%, 51.5%)" stroke-width="1.5"></path><path d="M452.46 439.71L416.31 550.25" stroke="hsl(228.5, 77.2%, 51.5%)" stroke-width="1.5"></path><path d="M416.31 550.25L416.31 550.25" stroke="hsl(228.5, 77.2%, 51.5%)" stroke-width="1.5"></path><path d="M416.31 550.25L307.32 343" stroke="hsl(228.5, 77.2%, 51.5%)" stroke-width="1.5"></path><path d="M416.31 550.25L209.32 432.94" stroke="hsl(228.5, 77.2%, 51.5%)" stroke-width="1.5"></path><path d="M421.86 806.4L421.86 806.4" stroke="hsl(228.5, 77.2%, 51.5%)" stroke-width="1.5"></path><path d="M421.86 806.4L410.46 939.26" stroke="hsl(228.5, 77.2%, 51.5%)" stroke-width="1.5"></path><path d="M410.46 939.26L410.46 939.26" stroke="hsl(228.5, 77.2%, 51.5%)" stroke-width="1.5"></path><path d="M410.46 939.26L309.32 1050.25" stroke="hsl(228.5, 77.2%, 51.5%)" stroke-width="1.5"></path><path d="M410.46 939.26L178.25 959.5" stroke="hsl(228.5, 77.2%, 51.5%)" stroke-width="1.5"></path><circle r="25" cx="-78.96" cy="835.76" fill="url(&quot;#SvgjsRadialGradient1106&quot;)"></circle><circle r="25" cx="87.28" cy="792.18" fill="url(&quot;#SvgjsRadialGradient1106&quot;)"></circle><circle r="25" cx="318.83" cy="93.68" fill="url(&quot;#SvgjsRadialGradient1106&quot;)"></circle><circle r="25" cx="303.61" cy="590.38" fill="url(&quot;#SvgjsRadialGradient1106&quot;)"></circle><circle r="25" cx="463.75" cy="-87.49" fill="url(&quot;#SvgjsRadialGradient1106&quot;)"></circle><circle r="25" cx="434.85" cy="684.08" fill="url(&quot;#SvgjsRadialGradient1106&quot;)"></circle><circle r="5" cx="-90.74" cy="913.74" fill="#8b9ad9"></circle><circle r="5" cx="-63.34" cy="1051.32" fill="#8b9ad9"></circle><circle r="5" cx="36.28" cy="947.87" fill="#8b9ad9"></circle><circle r="5" cx="35.03" cy="1081.23" fill="#8b9ad9"></circle><circle r="5" cx="209.32" cy="432.94" fill="#8b9ad9"></circle><circle r="5" cx="182.95" cy="656.64" fill="#8b9ad9"></circle><circle r="5" cx="178.25" cy="959.5" fill="#8b9ad9"></circle><circle r="5" cx="187.8" cy="1093.14" fill="#8b9ad9"></circle><circle r="5" cx="326.4" cy="-72" fill="#8b9ad9"></circle><circle r="5" cx="306.58" cy="191.65" fill="#8b9ad9"></circle><circle r="5" cx="307.32" cy="343" fill="#8b9ad9"></circle><circle r="5" cx="341.59" cy="435.92" fill="#8b9ad9"></circle><circle r="5" cx="293.87" cy="823.2" fill="#8b9ad9"></circle><circle r="5" cx="295.53" cy="934.27" fill="#8b9ad9"></circle><circle r="5" cx="309.32" cy="1050.25" fill="#8b9ad9"></circle><circle r="5" cx="456.26" cy="59.93" fill="#8b9ad9"></circle><circle r="5" cx="409.85" cy="186.59" fill="#8b9ad9"></circle><circle r="5" cx="452.46" cy="439.71" fill="#8b9ad9"></circle><circle r="5" cx="416.31" cy="550.25" fill="#8b9ad9"></circle><circle r="5" cx="421.86" cy="806.4" fill="#8b9ad9"></circle><circle r="5" cx="410.46" cy="939.26" fill="#8b9ad9"></circle></g><defs><mask id="SvgjsMask1105"><rect width="300" height="1000" fill="#ffffff"></rect></mask><radialGradient id="SvgjsRadialGradient1106"><stop stop-color="#ffffff" offset="0.1"></stop><stop stop-color="#1735b3" offset="0.2"></stop><stop stop-color="rgba(23, 53, 179, 0)" offset="1"></stop></radialGradient></defs></svg>