<svg xmlns="http://www.w3.org/2000/svg" version="1.1" xmlns:xlink="http://www.w3.org/1999/xlink" xmlns:svgjs="http://svgjs.dev/svgjs" width="300" height="1000" preserveAspectRatio="none" viewBox="0 0 300 1000"><g mask="url(&quot;#SvgjsMask1107&quot;)" fill="none"><rect width="300" height="1000" x="0" y="0" fill="#0e2a47"></rect><path d="M-80.09 663.73L-80.09 663.73" stroke="#132e65" stroke-width="1.5"></path><path d="M-80.09 663.73L51.97 576.02" stroke="#132e65" stroke-width="1.5"></path><path d="M-85.97 822.4L-85.97 822.4" stroke="#132e65" stroke-width="1.5"></path><path d="M-85.97 822.4L-93.13 925.77" stroke="#132e65" stroke-width="1.5"></path><path d="M-85.97 822.4L57.55 838.19" stroke="#132e65" stroke-width="1.5"></path><path d="M-85.97 822.4L-80.09 663.73" stroke="#132e65" stroke-width="1.5"></path><path d="M-85.97 822.4L80.19 932.01" stroke="#132e65" stroke-width="1.5"></path><path d="M-85.97 822.4L82.53 709.21" stroke="#132e65" stroke-width="1.5"></path><path d="M-85.97 822.4L-33.29 1054.35" stroke="#132e65" stroke-width="1.5"></path><path d="M-93.13 925.77L-93.13 925.77" stroke="#132e65" stroke-width="1.5"></path><path d="M-93.13 925.77L-33.29 1054.35" stroke="#132e65" stroke-width="1.5"></path><path d="M-33.29 1054.35L-33.29 1054.35" stroke="#132e65" stroke-width="1.5"></path><path d="M-33.29 1054.35L81.46 1044.09" stroke="#132e65" stroke-width="1.5"></path><path d="M-33.29 1054.35L80.19 932.01" stroke="#132e65" stroke-width="1.5"></path><path d="M-33.29 1054.35L160.56 1046.61" stroke="#132e65" stroke-width="1.5"></path><path d="M51.97 576.02L51.97 576.02" stroke="#132e65" stroke-width="1.5"></path><path d="M51.97 576.02L82.53 709.21" stroke="#132e65" stroke-width="1.5"></path><path d="M51.97 576.02L195.91 555.9" stroke="#132e65" stroke-width="1.5"></path><path d="M51.97 576.02L183.15 712.22" stroke="#132e65" stroke-width="1.5"></path><path d="M51.97 576.02L210.09 462.93" stroke="#132e65" stroke-width="1.5"></path><path d="M82.53 709.21L82.53 709.21" stroke="#132e65" stroke-width="1.5"></path><path d="M82.53 709.21L183.15 712.22" stroke="#132e65" stroke-width="1.5"></path><path d="M82.53 709.21L171.49 804.5" stroke="#132e65" stroke-width="1.5"></path><path d="M82.53 709.21L57.55 838.19" stroke="#132e65" stroke-width="1.5"></path><path d="M82.53 709.21L-80.09 663.73" stroke="#132e65" stroke-width="1.5"></path><path d="M57.55 838.19L57.55 838.19" stroke="#132e65" stroke-width="1.5"></path><path d="M57.55 838.19L80.19 932.01" stroke="#132e65" stroke-width="1.5"></path><path d="M57.55 838.19L171.49 804.5" stroke="#132e65" stroke-width="1.5"></path><path d="M80.19 932.01L80.19 932.01" stroke="#132e65" stroke-width="1.5"></path><path d="M80.19 932.01L158.92 943.53" stroke="#132e65" stroke-width="1.5"></path><path d="M80.19 932.01L81.46 1044.09" stroke="#132e65" stroke-width="1.5"></path><path d="M80.19 932.01L160.56 1046.61" stroke="#132e65" stroke-width="1.5"></path><path d="M81.46 1044.09L81.46 1044.09" stroke="#132e65" stroke-width="1.5"></path><path d="M81.46 1044.09L160.56 1046.61" stroke="#132e65" stroke-width="1.5"></path><path d="M81.46 1044.09L158.92 943.53" stroke="#132e65" stroke-width="1.5"></path><path d="M194.27 47.25L194.27 47.25" stroke="#132e65" stroke-width="1.5"></path><path d="M194.27 47.25L310.05 66.77" stroke="#132e65" stroke-width="1.5"></path><path d="M194.27 47.25L282.51 -41.95" stroke="#132e65" stroke-width="1.5"></path><path d="M194.27 47.25L182.68 202.24" stroke="#132e65" stroke-width="1.5"></path><path d="M194.27 47.25L326.36 171.78" stroke="#132e65" stroke-width="1.5"></path><path d="M194.27 47.25L417.6 -55.97" stroke="#132e65" stroke-width="1.5"></path><path d="M194.27 47.25L412.37 171.81" stroke="#132e65" stroke-width="1.5"></path><path d="M182.68 202.24L182.68 202.24" stroke="#132e65" stroke-width="1.5"></path><path d="M182.68 202.24L196.41 315.22" stroke="#132e65" stroke-width="1.5"></path><path d="M182.68 202.24L326.36 171.78" stroke="#132e65" stroke-width="1.5"></path><path d="M196.41 315.22L196.41 315.22" stroke="#132e65" stroke-width="1.5"></path><path d="M196.41 315.22L324.91 341.58" stroke="#132e65" stroke-width="1.5"></path><path d="M196.41 315.22L210.09 462.93" stroke="#132e65" stroke-width="1.5"></path><path d="M196.41 315.22L300.58 454.79" stroke="#132e65" stroke-width="1.5"></path><path d="M196.41 315.22L326.36 171.78" stroke="#132e65" stroke-width="1.5"></path><path d="M196.41 315.22L195.91 555.9" stroke="#132e65" stroke-width="1.5"></path><path d="M210.09 462.93L210.09 462.93" stroke="#132e65" stroke-width="1.5"></path><path d="M210.09 462.93L300.58 454.79" stroke="#132e65" stroke-width="1.5"></path><path d="M210.09 462.93L195.91 555.9" stroke="#132e65" stroke-width="1.5"></path><path d="M210.09 462.93L291.19 551.29" stroke="#132e65" stroke-width="1.5"></path><path d="M210.09 462.93L324.91 341.58" stroke="#132e65" stroke-width="1.5"></path><path d="M195.91 555.9L195.91 555.9" stroke="#132e65" stroke-width="1.5"></path><path d="M195.91 555.9L291.19 551.29" stroke="#132e65" stroke-width="1.5"></path><path d="M183.15 712.22L183.15 712.22" stroke="#132e65" stroke-width="1.5"></path><path d="M183.15 712.22L171.49 804.5" stroke="#132e65" stroke-width="1.5"></path><path d="M183.15 712.22L287.39 805.95" stroke="#132e65" stroke-width="1.5"></path><path d="M171.49 804.5L171.49 804.5" stroke="#132e65" stroke-width="1.5"></path><path d="M158.92 943.53L158.92 943.53" stroke="#132e65" stroke-width="1.5"></path><path d="M158.92 943.53L160.56 1046.61" stroke="#132e65" stroke-width="1.5"></path><path d="M160.56 1046.61L160.56 1046.61" stroke="#132e65" stroke-width="1.5"></path><path d="M160.56 1046.61L309.28 1038.5" stroke="#132e65" stroke-width="1.5"></path><path d="M160.56 1046.61L318.92 935.41" stroke="#132e65" stroke-width="1.5"></path><path d="M282.51 -41.95L282.51 -41.95" stroke="#132e65" stroke-width="1.5"></path><path d="M282.51 -41.95L310.05 66.77" stroke="#132e65" stroke-width="1.5"></path><path d="M282.51 -41.95L417.6 -55.97" stroke="#132e65" stroke-width="1.5"></path><path d="M282.51 -41.95L326.36 171.78" stroke="#132e65" stroke-width="1.5"></path><path d="M310.05 66.77L310.05 66.77" stroke="#132e65" stroke-width="1.5"></path><path d="M310.05 66.77L326.36 171.78" stroke="#132e65" stroke-width="1.5"></path><path d="M326.36 171.78L326.36 171.78" stroke="#132e65" stroke-width="1.5"></path><path d="M326.36 171.78L412.37 171.81" stroke="#132e65" stroke-width="1.5"></path><path d="M326.36 171.78L467.68 85.94" stroke="#132e65" stroke-width="1.5"></path><path d="M326.36 171.78L324.91 341.58" stroke="#132e65" stroke-width="1.5"></path><path d="M326.36 171.78L457.94 294.21" stroke="#132e65" stroke-width="1.5"></path><path d="M324.91 341.58L324.91 341.58" stroke="#132e65" stroke-width="1.5"></path><path d="M324.91 341.58L300.58 454.79" stroke="#132e65" stroke-width="1.5"></path><path d="M324.91 341.58L457.94 294.21" stroke="#132e65" stroke-width="1.5"></path><path d="M300.58 454.79L300.58 454.79" stroke="#132e65" stroke-width="1.5"></path><path d="M300.58 454.79L291.19 551.29" stroke="#132e65" stroke-width="1.5"></path><path d="M291.19 551.29L291.19 551.29" stroke="#132e65" stroke-width="1.5"></path><path d="M291.19 551.29L342.91 689.2" stroke="#132e65" stroke-width="1.5"></path><path d="M291.19 551.29L446.14 541.15" stroke="#132e65" stroke-width="1.5"></path><path d="M342.91 689.2L342.91 689.2" stroke="#132e65" stroke-width="1.5"></path><path d="M342.91 689.2L456.63 712.78" stroke="#132e65" stroke-width="1.5"></path><path d="M342.91 689.2L287.39 805.95" stroke="#132e65" stroke-width="1.5"></path><path d="M342.91 689.2L183.15 712.22" stroke="#132e65" stroke-width="1.5"></path><path d="M342.91 689.2L426.51 835.31" stroke="#132e65" stroke-width="1.5"></path><path d="M287.39 805.95L287.39 805.95" stroke="#132e65" stroke-width="1.5"></path><path d="M287.39 805.95L171.49 804.5" stroke="#132e65" stroke-width="1.5"></path><path d="M287.39 805.95L318.92 935.41" stroke="#132e65" stroke-width="1.5"></path><path d="M287.39 805.95L426.51 835.31" stroke="#132e65" stroke-width="1.5"></path><path d="M287.39 805.95L432.77 913.2" stroke="#132e65" stroke-width="1.5"></path><path d="M318.92 935.41L318.92 935.41" stroke="#132e65" stroke-width="1.5"></path><path d="M318.92 935.41L309.28 1038.5" stroke="#132e65" stroke-width="1.5"></path><path d="M318.92 935.41L432.77 913.2" stroke="#132e65" stroke-width="1.5"></path><path d="M318.92 935.41L426.51 835.31" stroke="#132e65" stroke-width="1.5"></path><path d="M318.92 935.41L158.92 943.53" stroke="#132e65" stroke-width="1.5"></path><path d="M309.28 1038.5L309.28 1038.5" stroke="#132e65" stroke-width="1.5"></path><path d="M309.28 1038.5L462.84 1082.09" stroke="#132e65" stroke-width="1.5"></path><path d="M417.6 -55.97L417.6 -55.97" stroke="#132e65" stroke-width="1.5"></path><path d="M417.6 -55.97L467.68 85.94" stroke="#132e65" stroke-width="1.5"></path><path d="M417.6 -55.97L310.05 66.77" stroke="#132e65" stroke-width="1.5"></path><path d="M417.6 -55.97L412.37 171.81" stroke="#132e65" stroke-width="1.5"></path><path d="M417.6 -55.97L326.36 171.78" stroke="#132e65" stroke-width="1.5"></path><path d="M467.68 85.94L467.68 85.94" stroke="#132e65" stroke-width="1.5"></path><path d="M467.68 85.94L412.37 171.81" stroke="#132e65" stroke-width="1.5"></path><path d="M467.68 85.94L310.05 66.77" stroke="#132e65" stroke-width="1.5"></path><path d="M467.68 85.94L457.94 294.21" stroke="#132e65" stroke-width="1.5"></path><path d="M412.37 171.81L412.37 171.81" stroke="#132e65" stroke-width="1.5"></path><path d="M412.37 171.81L457.94 294.21" stroke="#132e65" stroke-width="1.5"></path><path d="M412.37 171.81L310.05 66.77" stroke="#132e65" stroke-width="1.5"></path><path d="M412.37 171.81L324.91 341.58" stroke="#132e65" stroke-width="1.5"></path><path d="M457.94 294.21L457.94 294.21" stroke="#132e65" stroke-width="1.5"></path><path d="M457.94 294.21L461.66 424.81" stroke="#132e65" stroke-width="1.5"></path><path d="M461.66 424.81L461.66 424.81" stroke="#132e65" stroke-width="1.5"></path><path d="M461.66 424.81L446.14 541.15" stroke="#132e65" stroke-width="1.5"></path><path d="M446.14 541.15L446.14 541.15" stroke="#132e65" stroke-width="1.5"></path><path d="M446.14 541.15L300.58 454.79" stroke="#132e65" stroke-width="1.5"></path><path d="M446.14 541.15L456.63 712.78" stroke="#132e65" stroke-width="1.5"></path><path d="M446.14 541.15L342.91 689.2" stroke="#132e65" stroke-width="1.5"></path><path d="M446.14 541.15L324.91 341.58" stroke="#132e65" stroke-width="1.5"></path><path d="M456.63 712.78L456.63 712.78" stroke="#132e65" stroke-width="1.5"></path><path d="M456.63 712.78L426.51 835.31" stroke="#132e65" stroke-width="1.5"></path><path d="M456.63 712.78L287.39 805.95" stroke="#132e65" stroke-width="1.5"></path><path d="M456.63 712.78L432.77 913.2" stroke="#132e65" stroke-width="1.5"></path><path d="M426.51 835.31L426.51 835.31" stroke="#132e65" stroke-width="1.5"></path><path d="M426.51 835.31L432.77 913.2" stroke="#132e65" stroke-width="1.5"></path><path d="M426.51 835.31L309.28 1038.5" stroke="#132e65" stroke-width="1.5"></path><path d="M432.77 913.2L432.77 913.2" stroke="#132e65" stroke-width="1.5"></path><path d="M432.77 913.2L462.84 1082.09" stroke="#132e65" stroke-width="1.5"></path><path d="M462.84 1082.09L462.84 1082.09" stroke="#132e65" stroke-width="1.5"></path><path d="M462.84 1082.09L318.92 935.41" stroke="#132e65" stroke-width="1.5"></path><path d="M462.84 1082.09L426.51 835.31" stroke="#132e65" stroke-width="1.5"></path><path d="M462.84 1082.09L160.56 1046.61" stroke="#132e65" stroke-width="1.5"></path><path d="M462.84 1082.09L287.39 805.95" stroke="#132e65" stroke-width="1.5"></path><circle r="5" cx="-80.09" cy="663.73" fill="#132e65"></circle><circle r="5" cx="-85.97" cy="822.4" fill="#132e65"></circle><circle r="5" cx="-93.13" cy="925.77" fill="#132e65"></circle><circle r="5" cx="-33.29" cy="1054.35" fill="#132e65"></circle><circle r="5" cx="51.97" cy="576.02" fill="#132e65"></circle><circle r="5" cx="82.53" cy="709.21" fill="#132e65"></circle><circle r="5" cx="57.55" cy="838.19" fill="#132e65"></circle><circle r="5" cx="80.19" cy="932.01" fill="#132e65"></circle><circle r="5" cx="81.46" cy="1044.09" fill="#132e65"></circle><circle r="5" cx="194.27" cy="47.25" fill="#132e65"></circle><circle r="5" cx="182.68" cy="202.24" fill="#132e65"></circle><circle r="5" cx="196.41" cy="315.22" fill="#132e65"></circle><circle r="5" cx="210.09" cy="462.93" fill="#132e65"></circle><circle r="5" cx="195.91" cy="555.9" fill="#132e65"></circle><circle r="5" cx="183.15" cy="712.22" fill="#132e65"></circle><circle r="5" cx="171.49" cy="804.5" fill="#132e65"></circle><circle r="5" cx="158.92" cy="943.53" fill="#132e65"></circle><circle r="5" cx="160.56" cy="1046.61" fill="#132e65"></circle><circle r="5" cx="282.51" cy="-41.95" fill="#132e65"></circle><circle r="5" cx="310.05" cy="66.77" fill="#132e65"></circle><circle r="5" cx="326.36" cy="171.78" fill="#132e65"></circle><circle r="5" cx="324.91" cy="341.58" fill="#132e65"></circle><circle r="5" cx="300.58" cy="454.79" fill="#132e65"></circle><circle r="5" cx="291.19" cy="551.29" fill="#132e65"></circle><circle r="5" cx="342.91" cy="689.2" fill="#132e65"></circle><circle r="5" cx="287.39" cy="805.95" fill="#132e65"></circle><circle r="5" cx="318.92" cy="935.41" fill="#132e65"></circle><circle r="5" cx="309.28" cy="1038.5" fill="#132e65"></circle><circle r="5" cx="417.6" cy="-55.97" fill="#132e65"></circle><circle r="5" cx="467.68" cy="85.94" fill="#132e65"></circle><circle r="5" cx="412.37" cy="171.81" fill="#132e65"></circle><circle r="5" cx="457.94" cy="294.21" fill="#132e65"></circle><circle r="5" cx="461.66" cy="424.81" fill="#132e65"></circle><circle r="5" cx="446.14" cy="541.15" fill="#132e65"></circle><circle r="5" cx="456.63" cy="712.78" fill="#132e65"></circle><circle r="5" cx="426.51" cy="835.31" fill="#132e65"></circle><circle r="5" cx="432.77" cy="913.2" fill="#132e65"></circle><circle r="5" cx="462.84" cy="1082.09" fill="#132e65"></circle><path d="M-32 913.98L-32 913.98" stroke="hsl(228.5, 77.2%, 51.5%)" stroke-width="1.5"></path><path d="M-32 913.98L45.14 935.83" stroke="hsl(228.5, 77.2%, 51.5%)" stroke-width="1.5"></path><path d="M-32 913.98L-44.95 794.37" stroke="hsl(228.5, 77.2%, 51.5%)" stroke-width="1.5"></path><path d="M-32 913.98L85.87 809.11" stroke="hsl(228.5, 77.2%, 51.5%)" stroke-width="1.5"></path><path d="M-73.39 1075.65L-73.39 1075.65" stroke="hsl(228.5, 77.2%, 51.5%)" stroke-width="1.5"></path><path d="M-73.39 1075.65L60.75 1042.81" stroke="hsl(228.5, 77.2%, 51.5%)" stroke-width="1.5"></path><path d="M-73.39 1075.65L-32 913.98" stroke="hsl(228.5, 77.2%, 51.5%)" stroke-width="1.5"></path><path d="M-73.39 1075.65L45.14 935.83" stroke="hsl(228.5, 77.2%, 51.5%)" stroke-width="1.5"></path><path d="M-73.39 1075.65L162.9 1039.66" stroke="hsl(228.5, 77.2%, 51.5%)" stroke-width="1.5"></path><path d="M-73.39 1075.65L168.18 933.75" stroke="hsl(228.5, 77.2%, 51.5%)" stroke-width="1.5"></path><path d="M-73.39 1075.65L-44.95 794.37" stroke="hsl(228.5, 77.2%, 51.5%)" stroke-width="1.5"></path><path d="M45.14 935.83L45.14 935.83" stroke="hsl(228.5, 77.2%, 51.5%)" stroke-width="1.5"></path><path d="M45.14 935.83L60.75 1042.81" stroke="hsl(228.5, 77.2%, 51.5%)" stroke-width="1.5"></path><path d="M45.14 935.83L168.18 933.75" stroke="hsl(228.5, 77.2%, 51.5%)" stroke-width="1.5"></path><path d="M45.14 935.83L85.87 809.11" stroke="hsl(228.5, 77.2%, 51.5%)" stroke-width="1.5"></path><path d="M45.14 935.83L156.64 839.44" stroke="hsl(228.5, 77.2%, 51.5%)" stroke-width="1.5"></path><path d="M45.14 935.83L162.9 1039.66" stroke="hsl(228.5, 77.2%, 51.5%)" stroke-width="1.5"></path><path d="M60.75 1042.81L60.75 1042.81" stroke="hsl(228.5, 77.2%, 51.5%)" stroke-width="1.5"></path><path d="M60.75 1042.81L162.9 1039.66" stroke="hsl(228.5, 77.2%, 51.5%)" stroke-width="1.5"></path><path d="M60.75 1042.81L168.18 933.75" stroke="hsl(228.5, 77.2%, 51.5%)" stroke-width="1.5"></path><path d="M60.75 1042.81L-32 913.98" stroke="hsl(228.5, 77.2%, 51.5%)" stroke-width="1.5"></path><path d="M168.18 933.75L168.18 933.75" stroke="hsl(228.5, 77.2%, 51.5%)" stroke-width="1.5"></path><path d="M168.18 933.75L156.64 839.44" stroke="hsl(228.5, 77.2%, 51.5%)" stroke-width="1.5"></path><path d="M168.18 933.75L162.9 1039.66" stroke="hsl(228.5, 77.2%, 51.5%)" stroke-width="1.5"></path><path d="M299.96 -52.05L299.96 -52.05" stroke="hsl(228.5, 77.2%, 51.5%)" stroke-width="1.5"></path><path d="M299.96 -52.05L318.77 75.04" stroke="hsl(228.5, 77.2%, 51.5%)" stroke-width="1.5"></path><path d="M299.96 -52.05L438.67 -73.85" stroke="hsl(228.5, 77.2%, 51.5%)" stroke-width="1.5"></path><path d="M299.96 -52.05L431.84 163.38" stroke="hsl(228.5, 77.2%, 51.5%)" stroke-width="1.5"></path><path d="M335.65 215.53L335.65 215.53" stroke="hsl(228.5, 77.2%, 51.5%)" stroke-width="1.5"></path><path d="M335.65 215.53L293.75 304.8" stroke="hsl(228.5, 77.2%, 51.5%)" stroke-width="1.5"></path><path d="M335.65 215.53L431.84 163.38" stroke="hsl(228.5, 77.2%, 51.5%)" stroke-width="1.5"></path><path d="M290.42 419.78L290.42 419.78" stroke="hsl(228.5, 77.2%, 51.5%)" stroke-width="1.5"></path><path d="M290.42 419.78L293.75 304.8" stroke="hsl(228.5, 77.2%, 51.5%)" stroke-width="1.5"></path><path d="M290.42 419.78L431.69 407.42" stroke="hsl(228.5, 77.2%, 51.5%)" stroke-width="1.5"></path><path d="M290.42 419.78L311.69 568.5" stroke="hsl(228.5, 77.2%, 51.5%)" stroke-width="1.5"></path><path d="M438.67 -73.85L438.67 -73.85" stroke="hsl(228.5, 77.2%, 51.5%)" stroke-width="1.5"></path><path d="M438.67 -73.85L318.77 75.04" stroke="hsl(228.5, 77.2%, 51.5%)" stroke-width="1.5"></path><path d="M438.67 -73.85L431.84 163.38" stroke="hsl(228.5, 77.2%, 51.5%)" stroke-width="1.5"></path><path d="M438.67 -73.85L335.65 215.53" stroke="hsl(228.5, 77.2%, 51.5%)" stroke-width="1.5"></path><path d="M438.67 -73.85L293.75 304.8" stroke="hsl(228.5, 77.2%, 51.5%)" stroke-width="1.5"></path><path d="M438.67 -73.85L441.6 332.95" stroke="hsl(228.5, 77.2%, 51.5%)" stroke-width="1.5"></path><path d="M412.8 826.56L412.8 826.56" stroke="hsl(228.5, 77.2%, 51.5%)" stroke-width="1.5"></path><path d="M412.8 826.56L336.3 798.63" stroke="hsl(228.5, 77.2%, 51.5%)" stroke-width="1.5"></path><path d="M412.8 826.56L324.47 939.56" stroke="hsl(228.5, 77.2%, 51.5%)" stroke-width="1.5"></path><path d="M412.8 826.56L431.61 680.36" stroke="hsl(228.5, 77.2%, 51.5%)" stroke-width="1.5"></path><path d="M412.8 826.56L285.29 670.9" stroke="hsl(228.5, 77.2%, 51.5%)" stroke-width="1.5"></path><path d="M412.8 826.56L449.49 1056.33" stroke="hsl(228.5, 77.2%, 51.5%)" stroke-width="1.5"></path><path d="M412.8 826.56L298.72 1038.49" stroke="hsl(228.5, 77.2%, 51.5%)" stroke-width="1.5"></path><path d="M449.49 1056.33L449.49 1056.33" stroke="hsl(228.5, 77.2%, 51.5%)" stroke-width="1.5"></path><path d="M449.49 1056.33L298.72 1038.49" stroke="hsl(228.5, 77.2%, 51.5%)" stroke-width="1.5"></path><path d="M449.49 1056.33L324.47 939.56" stroke="hsl(228.5, 77.2%, 51.5%)" stroke-width="1.5"></path><path d="M-44.95 794.37L-44.95 794.37" stroke="hsl(228.5, 77.2%, 51.5%)" stroke-width="1.5"></path><path d="M-44.95 794.37L85.87 809.11" stroke="hsl(228.5, 77.2%, 51.5%)" stroke-width="1.5"></path><path d="M-44.95 794.37L45.14 935.83" stroke="hsl(228.5, 77.2%, 51.5%)" stroke-width="1.5"></path><path d="M-44.95 794.37L156.64 839.44" stroke="hsl(228.5, 77.2%, 51.5%)" stroke-width="1.5"></path><path d="M-44.95 794.37L168.18 933.75" stroke="hsl(228.5, 77.2%, 51.5%)" stroke-width="1.5"></path><path d="M85.87 809.11L85.87 809.11" stroke="hsl(228.5, 77.2%, 51.5%)" stroke-width="1.5"></path><path d="M85.87 809.11L156.64 839.44" stroke="hsl(228.5, 77.2%, 51.5%)" stroke-width="1.5"></path><path d="M206.48 572.49L206.48 572.49" stroke="hsl(228.5, 77.2%, 51.5%)" stroke-width="1.5"></path><path d="M206.48 572.49L210.14 656.94" stroke="hsl(228.5, 77.2%, 51.5%)" stroke-width="1.5"></path><path d="M206.48 572.49L311.69 568.5" stroke="hsl(228.5, 77.2%, 51.5%)" stroke-width="1.5"></path><path d="M210.14 656.94L210.14 656.94" stroke="hsl(228.5, 77.2%, 51.5%)" stroke-width="1.5"></path><path d="M210.14 656.94L285.29 670.9" stroke="hsl(228.5, 77.2%, 51.5%)" stroke-width="1.5"></path><path d="M210.14 656.94L311.69 568.5" stroke="hsl(228.5, 77.2%, 51.5%)" stroke-width="1.5"></path><path d="M210.14 656.94L336.3 798.63" stroke="hsl(228.5, 77.2%, 51.5%)" stroke-width="1.5"></path><path d="M210.14 656.94L156.64 839.44" stroke="hsl(228.5, 77.2%, 51.5%)" stroke-width="1.5"></path><path d="M210.14 656.94L85.87 809.11" stroke="hsl(228.5, 77.2%, 51.5%)" stroke-width="1.5"></path><path d="M156.64 839.44L156.64 839.44" stroke="hsl(228.5, 77.2%, 51.5%)" stroke-width="1.5"></path><path d="M156.64 839.44L336.3 798.63" stroke="hsl(228.5, 77.2%, 51.5%)" stroke-width="1.5"></path><path d="M162.9 1039.66L162.9 1039.66" stroke="hsl(228.5, 77.2%, 51.5%)" stroke-width="1.5"></path><path d="M318.77 75.04L318.77 75.04" stroke="hsl(228.5, 77.2%, 51.5%)" stroke-width="1.5"></path><path d="M318.77 75.04L335.65 215.53" stroke="hsl(228.5, 77.2%, 51.5%)" stroke-width="1.5"></path><path d="M293.75 304.8L293.75 304.8" stroke="hsl(228.5, 77.2%, 51.5%)" stroke-width="1.5"></path><path d="M293.75 304.8L441.6 332.95" stroke="hsl(228.5, 77.2%, 51.5%)" stroke-width="1.5"></path><path d="M293.75 304.8L431.69 407.42" stroke="hsl(228.5, 77.2%, 51.5%)" stroke-width="1.5"></path><path d="M293.75 304.8L431.84 163.38" stroke="hsl(228.5, 77.2%, 51.5%)" stroke-width="1.5"></path><path d="M311.69 568.5L311.69 568.5" stroke="hsl(228.5, 77.2%, 51.5%)" stroke-width="1.5"></path><path d="M311.69 568.5L285.29 670.9" stroke="hsl(228.5, 77.2%, 51.5%)" stroke-width="1.5"></path><path d="M311.69 568.5L417.11 542.83" stroke="hsl(228.5, 77.2%, 51.5%)" stroke-width="1.5"></path><path d="M285.29 670.9L285.29 670.9" stroke="hsl(228.5, 77.2%, 51.5%)" stroke-width="1.5"></path><path d="M336.3 798.63L336.3 798.63" stroke="hsl(228.5, 77.2%, 51.5%)" stroke-width="1.5"></path><path d="M336.3 798.63L285.29 670.9" stroke="hsl(228.5, 77.2%, 51.5%)" stroke-width="1.5"></path><path d="M336.3 798.63L324.47 939.56" stroke="hsl(228.5, 77.2%, 51.5%)" stroke-width="1.5"></path><path d="M324.47 939.56L324.47 939.56" stroke="hsl(228.5, 77.2%, 51.5%)" stroke-width="1.5"></path><path d="M324.47 939.56L298.72 1038.49" stroke="hsl(228.5, 77.2%, 51.5%)" stroke-width="1.5"></path><path d="M324.47 939.56L168.18 933.75" stroke="hsl(228.5, 77.2%, 51.5%)" stroke-width="1.5"></path><path d="M324.47 939.56L162.9 1039.66" stroke="hsl(228.5, 77.2%, 51.5%)" stroke-width="1.5"></path><path d="M298.72 1038.49L298.72 1038.49" stroke="hsl(228.5, 77.2%, 51.5%)" stroke-width="1.5"></path><path d="M298.72 1038.49L162.9 1039.66" stroke="hsl(228.5, 77.2%, 51.5%)" stroke-width="1.5"></path><path d="M431.84 163.38L431.84 163.38" stroke="hsl(228.5, 77.2%, 51.5%)" stroke-width="1.5"></path><path d="M431.84 163.38L318.77 75.04" stroke="hsl(228.5, 77.2%, 51.5%)" stroke-width="1.5"></path><path d="M431.84 163.38L441.6 332.95" stroke="hsl(228.5, 77.2%, 51.5%)" stroke-width="1.5"></path><path d="M441.6 332.95L441.6 332.95" stroke="hsl(228.5, 77.2%, 51.5%)" stroke-width="1.5"></path><path d="M441.6 332.95L431.69 407.42" stroke="hsl(228.5, 77.2%, 51.5%)" stroke-width="1.5"></path><path d="M431.69 407.42L431.69 407.42" stroke="hsl(228.5, 77.2%, 51.5%)" stroke-width="1.5"></path><path d="M431.69 407.42L417.11 542.83" stroke="hsl(228.5, 77.2%, 51.5%)" stroke-width="1.5"></path><path d="M417.11 542.83L417.11 542.83" stroke="hsl(228.5, 77.2%, 51.5%)" stroke-width="1.5"></path><path d="M431.61 680.36L431.61 680.36" stroke="hsl(228.5, 77.2%, 51.5%)" stroke-width="1.5"></path><path d="M431.61 680.36L417.11 542.83" stroke="hsl(228.5, 77.2%, 51.5%)" stroke-width="1.5"></path><path d="M431.61 680.36L285.29 670.9" stroke="hsl(228.5, 77.2%, 51.5%)" stroke-width="1.5"></path><path d="M431.61 680.36L336.3 798.63" stroke="hsl(228.5, 77.2%, 51.5%)" stroke-width="1.5"></path><circle r="25" cx="-32" cy="913.98" fill="url(&quot;#SvgjsRadialGradient1108&quot;)"></circle><circle r="25" cx="-73.39" cy="1075.65" fill="url(&quot;#SvgjsRadialGradient1108&quot;)"></circle><circle r="25" cx="45.14" cy="935.83" fill="url(&quot;#SvgjsRadialGradient1108&quot;)"></circle><circle r="25" cx="60.75" cy="1042.81" fill="url(&quot;#SvgjsRadialGradient1108&quot;)"></circle><circle r="25" cx="168.18" cy="933.75" fill="url(&quot;#SvgjsRadialGradient1108&quot;)"></circle><circle r="25" cx="299.96" cy="-52.05" fill="url(&quot;#SvgjsRadialGradient1108&quot;)"></circle><circle r="25" cx="335.65" cy="215.53" fill="url(&quot;#SvgjsRadialGradient1108&quot;)"></circle><circle r="25" cx="290.42" cy="419.78" fill="url(&quot;#SvgjsRadialGradient1108&quot;)"></circle><circle r="25" cx="438.67" cy="-73.85" fill="url(&quot;#SvgjsRadialGradient1108&quot;)"></circle><circle r="25" cx="412.8" cy="826.56" fill="url(&quot;#SvgjsRadialGradient1108&quot;)"></circle><circle r="25" cx="449.49" cy="1056.33" fill="url(&quot;#SvgjsRadialGradient1108&quot;)"></circle><circle r="5" cx="-44.95" cy="794.37" fill="#8b9ad9"></circle><circle r="5" cx="85.87" cy="809.11" fill="#8b9ad9"></circle><circle r="5" cx="206.48" cy="572.49" fill="#8b9ad9"></circle><circle r="5" cx="210.14" cy="656.94" fill="#8b9ad9"></circle><circle r="5" cx="156.64" cy="839.44" fill="#8b9ad9"></circle><circle r="5" cx="162.9" cy="1039.66" fill="#8b9ad9"></circle><circle r="5" cx="318.77" cy="75.04" fill="#8b9ad9"></circle><circle r="5" cx="293.75" cy="304.8" fill="#8b9ad9"></circle><circle r="5" cx="311.69" cy="568.5" fill="#8b9ad9"></circle><circle r="5" cx="285.29" cy="670.9" fill="#8b9ad9"></circle><circle r="5" cx="336.3" cy="798.63" fill="#8b9ad9"></circle><circle r="5" cx="324.47" cy="939.56" fill="#8b9ad9"></circle><circle r="5" cx="298.72" cy="1038.49" fill="#8b9ad9"></circle><circle r="5" cx="431.84" cy="163.38" fill="#8b9ad9"></circle><circle r="5" cx="441.6" cy="332.95" fill="#8b9ad9"></circle><circle r="5" cx="431.69" cy="407.42" fill="#8b9ad9"></circle><circle r="5" cx="417.11" cy="542.83" fill="#8b9ad9"></circle><circle r="5" cx="431.61" cy="680.36" fill="#8b9ad9"></circle></g><defs><mask id="SvgjsMask1107"><rect width="300" height="1000" fill="#ffffff"></rect></mask><radialGradient id="SvgjsRadialGradient1108"><stop stop-color="#ffffff" offset="0.1"></stop><stop stop-color="#1735b3" offset="0.2"></stop><stop stop-color="rgba(23, 53, 179, 0)" offset="1"></stop></radialGradient></defs></svg>